<svg xmlns="http://www.w3.org/2000/svg" viewBox="0 0 32 32">
  <!-- purple carrot, diagonal, transparent background -->
  <g transform="rotate(45 16 16)">
    <path d="M16 9 C19.5 9 21.5 12 20.7 17.5 C20 22.5 18 27.5 16 29 C14 27.5 12 22.5 11.3 17.5 C10.5 12 12.5 9 16 9 Z" fill="#7A4C8F"/>
    <path d="M16 9 C19.5 9 21.5 12 20.7 17.5 C20.2 21.2 19 25 17.8 27.2 C16.8 24.6 16.2 18 16.4 12.2 C16.5 10.8 16.3 9.6 16 9 Z" fill="#5C3370"/>
    <path d="M16 8.5 C15 5.5 13 3.8 10.5 3.2 C12 5.8 13.5 7.5 15 8.6 Z" fill="#6B8F3C"/>
    <path d="M16 8.5 C16.2 5 17.8 2.8 20.5 2 C19.8 5 18.4 7.2 16.9 8.5 Z" fill="#7DA34A"/>
    <path d="M16 8.8 C18.8 7.5 21.5 7.6 23.5 9 C21 10 18.5 10 16.5 9.4 Z" fill="#6B8F3C"/>
  </g>
</svg>
