<svg xmlns="http://www.w3.org/2000/svg" viewBox="0 0 32 32">
  <!-- orange carrot on deep purple tile -->
  <rect width="32" height="32" rx="7" fill="#3E2A52"/>
  <g transform="rotate(42 16 16)">
    <path d="M16 9.5 C19.2 9.5 21 12.2 20.3 17.2 C19.7 21.7 17.9 26.2 16 27.6 C14.1 26.2 12.3 21.7 11.7 17.2 C11 12.2 12.8 9.5 16 9.5 Z" fill="#E8752E"/>
    <path d="M16 9.5 C19.2 9.5 21 12.2 20.3 17.2 C19.8 20.5 18.7 23.9 17.6 25.9 C16.7 23.4 16.2 17.6 16.4 12.4 C16.4 11.2 16.3 10.1 16 9.5 Z" fill="#C75A1A"/>
    <path d="M15.8 9 C14.9 6.3 13.2 4.7 10.9 4.2 C12.3 6.5 13.6 8 15 9 Z" fill="#7DA34A"/>
    <path d="M16.2 9 C16.4 5.9 17.8 3.9 20.2 3.2 C19.5 5.9 18.3 7.8 16.9 9 Z" fill="#9CC25E"/>
    <path d="M16.3 9.3 C18.8 8.2 21.2 8.3 23 9.6 C20.8 10.5 18.5 10.4 16.7 9.9 Z" fill="#7DA34A"/>
  </g>
</svg>
