<svg xmlns="http://www.w3.org/2000/svg" viewBox="0 0 32 32">
  <!-- recipe card with purple banner + carrot -->
  <rect x="3" y="2" width="26" height="28" rx="3" fill="#FFFFFF" stroke="#D9CFE6" stroke-width="1"/>
  <rect x="3" y="2" width="26" height="10" rx="3" fill="#7A4C8F"/>
  <rect x="3" y="8" width="26" height="4" fill="#7A4C8F"/>
  <rect x="7" y="16" width="18" height="2.2" rx="1.1" fill="#D9CFE6"/>
  <rect x="7" y="20.5" width="13" height="2.2" rx="1.1" fill="#D9CFE6"/>
  <rect x="7" y="25" width="15" height="2.2" rx="1.1" fill="#D9CFE6"/>
  <g transform="rotate(40 22.5 21.5)">
    <path d="M22.5 14.5 C24.8 14.5 26 16.4 25.5 19.9 C25.1 23 23.9 26.1 22.5 27.1 C21.1 26.1 19.9 23 19.5 19.9 C19 16.4 20.2 14.5 22.5 14.5 Z" fill="#E8752E"/>
    <path d="M22.3 14.1 C21.7 12.4 20.6 11.4 19.1 11 C20 12.6 20.9 13.6 21.8 14.2 Z" fill="#6B8F3C"/>
    <path d="M22.7 14.1 C22.8 12.1 23.7 10.8 25.3 10.3 C24.8 12.1 24 13.3 23.1 14.1 Z" fill="#7DA34A"/>
  </g>
</svg>
