<svg xmlns="http://www.w3.org/2000/svg" viewBox="0 0 32 32">
  <!-- binder page + rings + carrot: the artifact itself -->
  <rect width="32" height="32" rx="7" fill="#5C3370"/>
  <rect x="10" y="4" width="19" height="24" rx="2" fill="#FBF8F3"/>
  <circle cx="8" cy="9" r="2.6" fill="none" stroke="#C9B8DA" stroke-width="1.7"/>
  <circle cx="8" cy="16" r="2.6" fill="none" stroke="#C9B8DA" stroke-width="1.7"/>
  <circle cx="8" cy="23" r="2.6" fill="none" stroke="#C9B8DA" stroke-width="1.7"/>
  <g transform="rotate(38 20 17)">
    <path d="M20 9.5 C22.7 9.5 24.1 11.8 23.5 16 C23 19.7 21.6 23.4 20 24.6 C18.4 23.4 17 19.7 16.5 16 C15.9 11.8 17.3 9.5 20 9.5 Z" fill="#E8752E"/>
    <path d="M19.8 9 C19.1 7 17.8 5.8 16 5.4 C17.1 7.3 18.2 8.5 19.2 9.2 Z" fill="#6B8F3C"/>
    <path d="M20.2 9 C20.4 6.7 21.4 5.2 23.3 4.6 C22.7 6.7 21.8 8.1 20.7 9 Z" fill="#7DA34A"/>
  </g>
</svg>
