0
SECTION
2
HEADER
9
$INSUNITS
70
1
9
$ACADVER
1
AC1014
9
$HANDSEED
5
FFFF
0
ENDSEC
0
SECTION
2
TABLES
0
TABLE
2
VPORT
5
8
100
AcDbSymbolTable
0
ENDTAB
0
TABLE
2
LTYPE
5
5
100
AcDbSymbolTable
0
LTYPE
5
14
100
AcDbSymbolTableRecord
100
AcDbLinetypeTableRecord
2
BYBLOCK
70
0
0
LTYPE
5
15
100
AcDbSymbolTableRecord
100
AcDbLinetypeTableRecord
2
BYLAYER
70
0
0
LTYPE
5
16
100
AcDbSymbolTableRecord
100
AcDbLinetypeTableRecord
2
DASHED
70
0
3
Dashed __ __ __ __ __ __ __ __ __ __ __ __ __ _
72
65
73
2
40
0.75
49
0.5
74
0
49
-0.25
74
0
0
ENDTAB
0
TABLE
2
LAYER
5
2
100
AcDbSymbolTable
70
2
0
LAYER
5
50
100
AcDbSymbolTableRecord
100
AcDbLayerTableRecord
2
0
70
0
62
7
6
CONTINUOUS
0
ENDTAB
0
TABLE
2
STYLE
5
3
100
AcDbSymbolTable
70
1
0
STYLE
5
11
100
AcDbSymbolTableRecord
100
AcDbTextStyleTableRecord
2
STANDARD
70
0
0
ENDTAB
0
TABLE
2
VIEW
5
6
100
AcDbSymbolTable
70
0
0
ENDTAB
0
TABLE
2
UCS
5
7
100
AcDbSymbolTable
70
0
0
ENDTAB
0
TABLE
2
APPID
5
9
100
AcDbSymbolTable
70
2
0
APPID
5
12
100
AcDbSymbolTableRecord
100
AcDbRegAppTableRecord
2
ACAD
70
0
0
ENDTAB
0
TABLE
2
DIMSTYLE
5
A
100
AcDbSymbolTable
70
1
0
ENDTAB
0
TABLE
2
BLOCK_RECORD
5
1
100
AcDbSymbolTable
70
1
0
BLOCK_RECORD
5
1F
100
AcDbSymbolTableRecord
100
AcDbBlockTableRecord
2
*MODEL_SPACE
0
BLOCK_RECORD
5
1B
100
AcDbSymbolTableRecord
100
AcDbBlockTableRecord
2
*PAPER_SPACE
0
ENDTAB
0
ENDSEC
0
SECTION
2
BLOCKS
0
BLOCK
5
20
100
AcDbEntity
100
AcDbBlockBegin
2
*MODEL_SPACE
0
ENDBLK
5
21
100
AcDbEntity
100
AcDbBlockEnd
0
BLOCK
5
1C
100
AcDbEntity
100
AcDbBlockBegin
2
*PAPER_SPACE
0
ENDBLK
5
1D
100
AcDbEntity
100
AcDbBlockEnd
0
ENDSEC
0
SECTION
2
ENTITIES
0
POINT
5
100
100
AcDbEntity
8
0
100
AcDbPoint
10
0
20
0
30
0
0
POINT
5
101
100
AcDbEntity
8
0
100
AcDbPoint
10
0
20
0
30
0
0
LINE
5
102
100
AcDbEntity
8
0
100
AcDbLine
10
-1.2289315939166318e-11
20
12.451727899131841
30
0
11
-4.7895952146502623
21
10.659889185333032
31
0
0
LINE
5
103
100
AcDbEntity
8
0
100
AcDbLine
10
-2.4579933460506072e-11
20
10.675079701571832
30
0
11
-4.7895952146502623
21
8.8832409877773753
31
0
0
LINE
5
104
100
AcDbEntity
8
0
100
AcDbLine
10
-1.5748277218675536e-11
20
11.951727899131843
30
0
11
-4.7895952146502623
21
10.159889185332394
31
0
0
LINE
5
105
100
AcDbEntity
8
0
100
AcDbLine
10
-2.8038991864014613e-11
20
10.175079701571832
30
0
11
-4.7895952146502623
21
8.3832409877784162
31
0
0
LINE
5
106
100
AcDbEntity
8
0
100
AcDbLine
10
-3.687074522984482e-11
20
8.8984315040118229
30
0
11
-4.7895952146502623
21
7.1065927902216481
31
0
0
LINE
5
107
100
AcDbEntity
8
0
100
AcDbLine
10
-4.0329706509354094e-11
20
8.3984315040118229
30
0
11
-4.7895952146502623
21
6.6065927902222423
31
0
0
LINE
5
108
100
AcDbEntity
8
0
100
AcDbLine
10
-4.9161459875184195e-11
20
7.121783306451813
30
0
11
-4.7895952146502623
21
5.3299445926665685
31
0
0
LINE
5
109
100
AcDbEntity
8
0
100
AcDbLine
10
-5.2620421154693159e-11
20
6.6217833064518139
30
0
11
-4.7895952146502623
21
4.8299445926679061
31
0
0
LINE
5
110
100
AcDbEntity
8
0
100
AcDbLine
10
-6.1452174520523362e-11
20
5.3451351088918049
30
0
11
-4.7895952146502623
21
3.553296395110451
31
0
0
LINE
5
111
100
AcDbEntity
8
0
100
AcDbLine
10
-6.4911135800032404e-11
20
4.8451351088918058
30
0
11
-4.7895952146502623
21
3.0532963951121008
31
0
0
LINE
5
112
100
AcDbEntity
8
0
100
AcDbLine
10
-8.6033603811201866e-11
20
1.7918387137717868
30
0
11
-4.7895952146502623
21
0
31
0
0
LINE
5
113
100
AcDbEntity
8
0
100
AcDbLine
10
-4.7895952146502623
20
1.7766481975564581
30
0
11
-7.3742889165862498e-11
21
3.5684869113317959
31
0
0
LINE
5
114
100
AcDbEntity
8
0
100
AcDbLine
10
1.3987061727561026e-15
20
14.228376096691852
30
0
11
-3.457562573336511e-12
21
13.72837609669185
31
0
0
LINE
5
115
100
AcDbEntity
8
0
100
AcDbLine
10
-3.457562573336511e-12
20
13.72837609669185
30
0
11
-1.2289315939166318e-11
21
12.451727899131841
31
0
0
LINE
5
116
100
AcDbEntity
8
0
100
AcDbLine
10
-1.2289315939166318e-11
20
12.451727899131841
30
0
11
-1.5748277218675536e-11
21
11.951727899131843
31
0
0
LINE
5
117
100
AcDbEntity
8
0
100
AcDbLine
10
-1.5748277218675536e-11
20
11.951727899131843
30
0
11
-2.4579933460506072e-11
21
10.675079701571832
31
0
0
LINE
5
118
100
AcDbEntity
8
0
100
AcDbLine
10
-2.4579933460506072e-11
20
10.675079701571832
30
0
11
-2.8038991864014613e-11
21
10.175079701571832
31
0
0
LINE
5
119
100
AcDbEntity
8
0
100
AcDbLine
10
-2.8038991864014613e-11
20
10.175079701571832
30
0
11
-3.687074522984482e-11
21
8.8984315040118229
31
0
0
LINE
5
120
100
AcDbEntity
8
0
100
AcDbLine
10
-3.687074522984482e-11
20
8.8984315040118229
30
0
11
-4.0329706509354094e-11
21
8.3984315040118229
31
0
0
LINE
5
121
100
AcDbEntity
8
0
100
AcDbLine
10
-4.0329706509354094e-11
20
8.3984315040118229
30
0
11
-4.9161459875184195e-11
21
7.121783306451813
31
0
0
LINE
5
122
100
AcDbEntity
8
0
100
AcDbLine
10
-4.9161459875184195e-11
20
7.121783306451813
30
0
11
-5.2620421154693159e-11
21
6.6217833064518139
31
0
0
LINE
5
123
100
AcDbEntity
8
0
100
AcDbLine
10
-5.2620421154693159e-11
20
6.6217833064518139
30
0
11
-6.1452174520523362e-11
21
5.3451351088918049
31
0
0
LINE
5
124
100
AcDbEntity
8
0
100
AcDbLine
10
-6.1452174520523362e-11
20
5.3451351088918049
30
0
11
-6.4911135800032404e-11
21
4.8451351088918058
31
0
0
LINE
5
125
100
AcDbEntity
8
0
100
AcDbLine
10
-9.0770561568532952e-11
20
3.0684869113317959
30
0
11
-8.6033603811201866e-11
21
1.7918387137717868
31
0
0
LINE
5
126
100
AcDbEntity
8
0
100
AcDbLine
10
-6.4911135800032404e-11
20
4.8451351088918058
30
0
11
-7.3742889165862498e-11
21
3.5684869113317959
31
0
0
LINE
5
127
100
AcDbEntity
8
0
100
AcDbLine
10
-8.6033603811201866e-11
20
1.7918387137717868
30
0
11
5.2793078865381247e-12
21
1.2918387137717868
31
0
0
LINE
5
128
100
AcDbEntity
8
0
100
AcDbLine
10
-9.0770561568532952e-11
20
3.0684869113317959
30
0
11
-4.7895952146502623
21
1.2766481975617809
31
0
0
LINE
5
129
100
AcDbEntity
8
0
100
AcDbLine
10
-7.3742889165862498e-11
20
3.5684869113317959
30
0
11
-9.0770561568532952e-11
21
3.0684869113317959
31
0
0
LINE
5
130
100
AcDbEntity
8
0
100
AcDbLine
10
-4.039595214650074
20
12.217120391499108
30
0
11
-4.039595214650074
21
10.940472193943505
31
0
0
LINE
5
131
100
AcDbEntity
8
0
100
AcDbLine
10
-0.75000000000345757
20
13.447793088081243
30
0
11
-0.75000000001111256
21
12.17114489052188
31
0
0
LINE
5
132
100
AcDbEntity
8
0
100
AcDbLine
10
-4.039595214650074
20
10.440472193943171
30
0
11
-4.039595214650074
21
9.1638239963878849
31
0
0
LINE
5
133
100
AcDbEntity
8
0
100
AcDbLine
10
-4.039595214650074
20
8.6638239963889667
30
0
11
-4.039595214650074
21
7.3871757988322084
31
0
0
LINE
5
134
100
AcDbEntity
8
0
100
AcDbLine
10
-4.039595214650074
20
6.8871757988329128
30
0
11
-4.039595214650074
21
5.6105276012770782
31
0
0
LINE
5
135
100
AcDbEntity
8
0
100
AcDbLine
10
-4.039595214650074
20
5.1105276012784069
30
0
11
-4.0395952146500731
21
3.8338794037210708
31
0
0
LINE
5
136
100
AcDbEntity
8
0
100
AcDbLine
10
-4.0395952146500731
20
3.3338794037226647
30
0
11
-4.0395952146500731
21
2.0572312061668558
31
0
0
LINE
5
137
100
AcDbEntity
8
0
100
AcDbLine
10
-4.0395952146500731
20
1.557231206172343
30
0
11
-4.0395952146500731
21
0.2805830086105614
31
0
0
LINE
5
138
100
AcDbEntity
8
0
100
AcDbLine
10
-0.75000000000345668
20
11.671144890525735
30
0
11
-0.75000000000345668
21
10.394496692969296
31
0
0
LINE
5
139
100
AcDbEntity
8
0
100
AcDbLine
10
-0.75000000000345668
20
9.8944966929705487
30
0
11
-0.75000000000345701
21
8.6178484954138312
31
0
0
LINE
5
140
100
AcDbEntity
8
0
100
AcDbLine
10
-0.75000000000345723
20
8.1178484954150179
30
0
11
-0.75000000000345735
21
6.8412002978584745
31
0
0
LINE
5
141
100
AcDbEntity
8
0
100
AcDbLine
10
-0.75000000000345746
20
6.3412002978597748
30
0
11
-0.75000000000345723
21
5.0645521003029534
31
0
0
LINE
5
142
100
AcDbEntity
8
0
100
AcDbLine
10
-0.75000000000345735
20
4.5645521003043026
30
0
11
-0.75000000000345701
21
3.2879039027477637
31
0
0
LINE
5
143
100
AcDbEntity
8
0
100
AcDbLine
10
-0.7500000000034569
20
2.7879039027539703
30
0
11
-0.75000000000345701
21
1.5112557051921887
31
0
0
LINE
5
144
100
AcDbEntity
8
0
100
AcDbLine
10
-4.7895952146502623
20
0
30
0
11
0
21
0
31
0
0
LINE
5
145
100
AcDbEntity
8
0
100
AcDbLine
10
5.2793078865381247e-12
20
1.2918387137717868
30
0
11
-3.4530923313049779
21
-8.1837198907000504e-17
31
0
0
LINE
5
146
100
AcDbEntity
8
0
100
AcDbLine
10
-0.75000000000345701
20
1.0112557051580291
30
0
11
-0.75000000000345723
21
-2.4871755663688532e-16
31
0
0
LINE
5
147
100
AcDbEntity
8
0
100
AcDbLine
10
5.2793078865381247e-12
20
1.2918387137717868
30
0
11
0
21
0
31
0
0
LINE
5
148
100
AcDbEntity
8
0
100
AcDbLine
10
-3.457562573336511e-12
20
13.72837609669185
30
0
11
-0.75000000000345757
21
13.447793088081243
31
0
0
LINE
5
149
100
AcDbEntity
8
0
100
AcDbLine
10
-4.039595214650074
20
12.217120391499108
30
0
11
-4.7895952146502623
21
11.936537382889005
31
0
0
LINE
5
150
100
AcDbEntity
8
0
100
AcDbLine
10
-0.75000000000345757
20
13.447793088081243
30
0
11
-4.039595214650074
21
12.217120391499108
31
0
0
LINE
5
151
100
AcDbEntity
8
0
100
AcDbLine
10
0.75000000000345735
20
4.5645521003043026
30
0
11
0.75000000000345701
21
3.2879039027477637
31
0
0
LINE
5
152
100
AcDbEntity
8
0
100
AcDbLine
10
9.0770561568532952e-11
20
3.0684869113317959
30
0
11
4.7895952146502623
21
1.2766481975617816
31
0
0
LINE
5
153
100
AcDbEntity
8
0
100
AcDbLine
10
4.0395952146500731
20
3.3338794037226647
30
0
11
4.0395952146500731
21
2.0572312061668567
31
0
0
LINE
5
154
100
AcDbEntity
8
0
100
AcDbLine
10
0.75000000000345723
20
8.1178484954150179
30
0
11
0.75000000000345735
21
6.8412002978584745
31
0
0
LINE
5
155
100
AcDbEntity
8
0
100
AcDbLine
10
9.0770561568532952e-11
20
3.0684869113317959
30
0
11
8.6033603811201814e-11
21
1.7918387137717868
31
0
0
LINE
5
156
100
AcDbEntity
8
0
100
AcDbLine
10
4.039595214650074
20
8.6638239963889667
30
0
11
4.039595214650074
21
7.3871757988322075
31
0
0
LINE
5
157
100
AcDbEntity
8
0
100
AcDbLine
10
4.7895952146502623
20
1.7766481975564585
30
0
11
7.3742889165862498e-11
21
3.5684869113317963
31
0
0
LINE
5
158
100
AcDbEntity
8
0
100
AcDbLine
10
2.4579933460506175e-11
20
10.67507970157183
30
0
11
2.8038894740015395e-11
21
10.175079701571832
31
0
0
LINE
5
159
100
AcDbEntity
8
0
100
AcDbLine
10
0.75000000000345668
20
9.8944966929705487
30
0
11
0.75000000000345701
21
8.6178484954138312
31
0
0
LINE
5
160
100
AcDbEntity
8
0
100
AcDbLine
10
0.75000000000345668
20
11.671144890525733
30
0
11
0.75000000000345668
21
10.394496692969296
31
0
0
LINE
5
161
100
AcDbEntity
8
0
100
AcDbLine
10
4.039595214650074
20
10.440472193943171
30
0
11
4.039595214650074
21
9.1638239963878831
31
0
0
LINE
5
162
100
AcDbEntity
8
0
100
AcDbLine
10
3.687074522984482e-11
20
8.8984315040118229
30
0
11
4.0329706509354094e-11
21
8.3984315040118229
31
0
0
LINE
5
163
100
AcDbEntity
8
0
100
AcDbLine
10
5.2620421154693191e-11
20
6.6217833064518148
30
0
11
6.1452174520523375e-11
21
5.3451351088918049
31
0
0
LINE
5
164
100
AcDbEntity
8
0
100
AcDbLine
10
6.1452174520523375e-11
20
5.3451351088918049
30
0
11
4.7895949617159888
21
3.5532963951104342
31
0
0
LINE
5
165
100
AcDbEntity
8
0
100
AcDbLine
10
6.4911135800032417e-11
20
4.8451351088918058
30
0
11
7.3742889165862498e-11
21
3.5684869113317963
31
0
0
LINE
5
166
100
AcDbEntity
8
0
100
AcDbLine
10
6.1452174520523375e-11
20
5.3451351088918049
30
0
11
6.4911135800032417e-11
21
4.8451351088918058
31
0
0
LINE
5
167
100
AcDbEntity
8
0
100
AcDbLine
10
5.2620421154693191e-11
20
6.6217833064518148
30
0
11
4.7895952146502623
21
4.8299445926679061
31
0
0
LINE
5
168
100
AcDbEntity
8
0
100
AcDbLine
10
4.039595214650074
20
6.8871757988329136
30
0
11
4.039595214650074
21
5.6105276012770782
31
0
0
LINE
5
169
100
AcDbEntity
8
0
100
AcDbLine
10
0.75000000000345746
20
6.3412002978597748
30
0
11
0.75000000000345723
21
5.0645521003029534
31
0
0
LINE
5
170
100
AcDbEntity
8
0
100
AcDbLine
10
4.0329706509354094e-11
20
8.3984315040118229
30
0
11
4.7895952146502623
21
6.6065927902222414
31
0
0
LINE
5
171
100
AcDbEntity
8
0
100
AcDbLine
10
4.9161459875184111e-11
20
7.1217833064518148
30
0
11
5.2620421154693191e-11
21
6.6217833064518148
31
0
0
LINE
5
172
100
AcDbEntity
8
0
100
AcDbLine
10
4.039595214650074
20
5.1105276012784069
30
0
11
4.0395952146500731
21
3.8338794037210708
31
0
0
LINE
5
173
100
AcDbEntity
8
0
100
AcDbLine
10
7.3742889165862498e-11
20
3.5684869113317963
30
0
11
9.0770561568532952e-11
21
3.0684869113317959
31
0
0
LINE
5
174
100
AcDbEntity
8
0
100
AcDbLine
10
4.9161459875184111e-11
20
7.1217833064518148
30
0
11
4.7895952146502623
21
5.3299445926665685
31
0
0
LINE
5
175
100
AcDbEntity
8
0
100
AcDbLine
10
3.687074522984482e-11
20
8.8984315040118229
30
0
11
4.7895952146502623
21
7.106592790221649
31
0
0
LINE
5
176
100
AcDbEntity
8
0
100
AcDbLine
10
2.8038894740015395e-11
20
10.175079701571832
30
0
11
4.7895952146502623
21
8.3832409877784162
31
0
0
LINE
5
177
100
AcDbEntity
8
0
100
AcDbLine
10
1.5748277218675536e-11
20
11.951727899131841
30
0
11
4.7895952146502623
21
10.159889185332394
31
0
0
LINE
5
178
100
AcDbEntity
8
0
100
AcDbLine
10
1.2289315939166315e-11
20
12.451727899131841
30
0
11
4.7895952146502623
21
10.659889185333032
31
0
0
LINE
5
179
100
AcDbEntity
8
0
100
AcDbLine
10
1.5748277218675536e-11
20
11.951727899131841
30
0
11
2.4579933460506175e-11
21
10.67507970157183
31
0
0
LINE
5
180
100
AcDbEntity
8
0
100
AcDbLine
10
4.039595214650074
20
12.217120391499106
30
0
11
4.039595214650074
21
10.940472193943505
31
0
0
LINE
5
181
100
AcDbEntity
8
0
100
AcDbLine
10
4.7895952146502623
20
0
30
0
11
0
21
0
31
0
0
LINE
5
182
100
AcDbEntity
8
0
100
AcDbLine
10
4.0329706509354094e-11
20
8.3984315040118229
30
0
11
4.9161459875184111e-11
21
7.1217833064518148
31
0
0
LINE
5
183
100
AcDbEntity
8
0
100
AcDbLine
10
4.0395952146500731
20
1.5572312061723432
30
0
11
4.0395952146500731
21
0.2805830086105619
31
0
0
LINE
5
184
100
AcDbEntity
8
0
100
AcDbLine
10
8.6033603811201814e-11
20
1.7918387137717868
30
0
11
-5.2793078865381247e-12
21
1.2918387137717866
31
0
0
LINE
5
185
100
AcDbEntity
8
0
100
AcDbLine
10
0.75000000000345701
20
1.0112557051580291
30
0
11
0.75000000000345723
21
-2.4871755663634559e-16
31
0
0
LINE
5
186
100
AcDbEntity
8
0
100
AcDbLine
10
-5.2793078865381247e-12
20
1.2918387137717866
30
0
11
3.4530923313049779
21
-8.0473509743522301e-17
31
0
0
LINE
5
187
100
AcDbEntity
8
0
100
AcDbLine
10
0.7500000000034569
20
2.7879039027539703
30
0
11
0.75000000000345701
21
1.5112557051921887
31
0
0
LINE
5
188
100
AcDbEntity
8
0
100
AcDbLine
10
8.6033603811201814e-11
20
1.7918387137717868
30
0
11
4.7895952146502623
21
0
31
0
0
LINE
5
189
100
AcDbEntity
8
0
100
AcDbLine
10
-5.2793078865381247e-12
20
1.2918387137717866
30
0
11
0
21
0
31
0
0
LINE
5
190
100
AcDbEntity
8
0
100
AcDbLine
10
6.4911135800032417e-11
20
4.8451351088918058
30
0
11
4.7895952146502623
21
3.0532963951121017
31
0
0
LINE
5
191
100
AcDbEntity
8
0
100
AcDbLine
10
1.2289315939166315e-11
20
12.451727899131841
30
0
11
1.5748277218675536e-11
21
11.951727899131841
31
0
0
LINE
5
192
100
AcDbEntity
8
0
100
AcDbLine
10
0.75000000000345757
20
13.447793088081243
30
0
11
0.75000000001111233
21
12.17114489052188
31
0
0
LINE
5
193
100
AcDbEntity
8
0
100
AcDbLine
10
3.457562573336511e-12
20
13.72837609669185
30
0
11
1.2289315939166315e-11
21
12.451727899131841
31
0
0
LINE
5
194
100
AcDbEntity
8
0
100
AcDbLine
10
0.75000000000345757
20
13.447793088081243
30
0
11
4.039595214650074
21
12.217120391499106
31
0
0
LINE
5
195
100
AcDbEntity
8
0
100
AcDbLine
10
3.457562573336511e-12
20
13.72837609669185
30
0
11
0.75000000000345757
21
13.447793088081243
31
0
0
LINE
5
196
100
AcDbEntity
8
0
100
AcDbLine
10
2.8038894740015395e-11
20
10.175079701571832
30
0
11
3.687074522984482e-11
21
8.8984315040118229
31
0
0
LINE
5
197
100
AcDbEntity
8
0
100
AcDbLine
10
2.4579933460506175e-11
20
10.67507970157183
30
0
11
4.7895952146502623
21
8.8832409877773735
31
0
0
LINE
5
198
100
AcDbEntity
8
0
100
AcDbLine
10
4.039595214650074
20
12.217120391499106
30
0
11
4.7895952146502623
21
11.936537382889004
31
0
0
LINE
5
199
100
AcDbEntity
8
0
100
AcDbLine
10
-0.12500000004937581
20
14.181612261904963
30
0
11
-0.12500000004940531
21
-1.1698969522214906e-16
31
0
0
LINE
5
200
100
AcDbEntity
8
0
100
AcDbLine
10
0.12499999995059448
20
14.18161226194192
30
0
11
0.12499999995059474
21
-2.8562407995000042e-16
31
0
0
LINE
5
201
100
AcDbEntity
8
0
100
AcDbLine
10
-4.7895952146502623
20
12.436537382887876
30
0
11
-4.7895952146502623
21
0
31
0
0
LINE
5
202
100
AcDbEntity
8
0
100
AcDbLine
10
1.3987061727561026e-15
20
14.228376096691852
30
0
11
4.7895943293802841
21
12.436537714076827
31
0
0
LINE
5
203
100
AcDbEntity
8
0
100
AcDbLine
10
4.7895943293802841
20
12.436537714076827
30
0
11
4.7895952146502623
21
0
31
0
0
LINE
5
204
100
AcDbEntity
8
0
100
AcDbLine
10
-4.7895952146502623
20
12.436537382887876
30
0
11
1.3987061727561026e-15
21
14.228376096691852
31
0
0
ENDSEC
0
SECTION
2
OBJECTS
0
DICTIONARY
5
C
100
AcDbDictionary
3
ACAD_GROUP
350
D
3
ACAD_MLINESTYLE
350
17
0
DICTIONARY
5
D
100
AcDbDictionary
0
DICTIONARY
5
1A
330
C
100
AcDbDictionary
0
DICTIONARY
5
17
100
AcDbDictionary
0
ENDSEC
0
EOF
