  0
SECTION
  2
HEADER
  9
$ACADVER
  1
AC1015
  9
$ACADMAINTVER
 70
6
  9
$DWGCODEPAGE
  3
ANSI_1252
  9
$INSBASE
 10
0.0
 20
0.0
 30
0.0
  9
$EXTMIN
 10
1e+20
 20
1e+20
 30
1e+20
  9
$EXTMAX
 10
-1e+20
 20
-1e+20
 30
-1e+20
  9
$LIMMIN
 10
0.0
 20
0.0
  9
$LIMMAX
 10
420.0
 20
297.0
  9
$ORTHOMODE
 70
0
  9
$REGENMODE
 70
1
  9
$FILLMODE
 70
1
  9
$QTEXTMODE
 70
0
  9
$MIRRTEXT
 70
1
  9
$LTSCALE
 40
1.0
  9
$ATTMODE
 70
1
  9
$TEXTSIZE
 40
2.5
  9
$TRACEWID
 40
1.0
  9
$TEXTSTYLE
  7
Standard
  9
$CLAYER
  8
0
  9
$CELTYPE
  6
ByLayer
  9
$CECOLOR
 62
256
  9
$CELTSCALE
 40
1.0
  9
$DISPSILH
 70
0
  9
$DIMSCALE
 40
1.0
  9
$DIMASZ
 40
2.5
  9
$DIMEXO
 40
0.625
  9
$DIMDLI
 40
3.75
  9
$DIMRND
 40
0.0
  9
$DIMDLE
 40
0.0
  9
$DIMEXE
 40
1.25
  9
$DIMTP
 40
0.0
  9
$DIMTM
 40
0.0
  9
$DIMTXT
 40
2.5
  9
$DIMCEN
 40
2.5
  9
$DIMTSZ
 40
0.0
  9
$DIMTOL
 70
0
  9
$DIMLIM
 70
0
  9
$DIMTIH
 70
0
  9
$DIMTOH
 70
0
  9
$DIMSE1
 70
0
  9
$DIMSE2
 70
0
  9
$DIMTAD
 70
1
  9
$DIMZIN
 70
8
  9
$DIMBLK
  1

  9
$DIMASO
 70
1
  9
$DIMSHO
 70
1
  9
$DIMPOST
  1

  9
$DIMAPOST
  1

  9
$DIMALT
 70
0
  9
$DIMALTD
 70
3
  9
$DIMALTF
 40
0.03937007874
  9
$DIMLFAC
 40
1.0
  9
$DIMTOFL
 70
1
  9
$DIMTVP
 40
0.0
  9
$DIMTIX
 70
0
  9
$DIMSOXD
 70
0
  9
$DIMSAH
 70
0
  9
$DIMBLK1
  1

  9
$DIMBLK2
  1

  9
$DIMSTYLE
  2
ISO-25
  9
$DIMCLRD
 70
0
  9
$DIMCLRE
 70
0
  9
$DIMCLRT
 70
0
  9
$DIMTFAC
 40
1.0
  9
$DIMGAP
 40
0.625
  9
$DIMJUST
 70
0
  9
$DIMSD1
 70
0
  9
$DIMSD2
 70
0
  9
$DIMTOLJ
 70
0
  9
$DIMTZIN
 70
8
  9
$DIMALTZ
 70
0
  9
$DIMALTTZ
 70
0
  9
$DIMUPT
 70
0
  9
$DIMDEC
 70
2
  9
$DIMTDEC
 70
2
  9
$DIMALTU
 70
2
  9
$DIMALTTD
 70
3
  9
$DIMTXSTY
  7
Standard
  9
$DIMAUNIT
 70
0
  9
$DIMADEC
 70
0
  9
$DIMALTRND
 40
0.0
  9
$DIMAZIN
 70
0
  9
$DIMDSEP
 70
44
  9
$DIMATFIT
 70
3
  9
$DIMFRAC
 70
0
  9
$DIMLDRBLK
  1

  9
$DIMLUNIT
 70
2
  9
$DIMLWD
 70
-2
  9
$DIMLWE
 70
-2
  9
$DIMTMOVE
 70
0
  9
$LUNITS
 70
2
  9
$LUPREC
 70
4
  9
$SKETCHINC
 40
1.0
  9
$FILLETRAD
 40
10.0
  9
$AUNITS
 70
0
  9
$AUPREC
 70
2
  9
$MENU
  1
.
  9
$ELEVATION
 40
0.0
  9
$PELEVATION
 40
0.0
  9
$THICKNESS
 40
0.0
  9
$LIMCHECK
 70
0
  9
$CHAMFERA
 40
0.0
  9
$CHAMFERB
 40
0.0
  9
$CHAMFERC
 40
0.0
  9
$CHAMFERD
 40
0.0
  9
$SKPOLY
 70
0
  9
$TDCREATE
 40
2461269.5082986113
  9
$TDUCREATE
 40
2458532.153996898
  9
$TDUPDATE
 40
2461269.5082986113
  9
$TDUUPDATE
 40
2458532.1544311
  9
$TDINDWG
 40
0.0
  9
$TDUSRTIMER
 40
0.0
  9
$USRTIMER
 70
1
  9
$ANGBASE
 50
0.0
  9
$ANGDIR
 70
0
  9
$PDMODE
 70
0
  9
$PDSIZE
 40
0.0
  9
$PLINEWID
 40
0.0
  9
$SPLFRAME
 70
0
  9
$SPLINETYPE
 70
6
  9
$SPLINESEGS
 70
8
  9
$HANDSEED
  5
220
  9
$SURFTAB1
 70
6
  9
$SURFTAB2
 70
6
  9
$SURFTYPE
 70
6
  9
$SURFU
 70
6
  9
$SURFV
 70
6
  9
$UCSBASE
  2

  9
$UCSNAME
  2

  9
$UCSORG
 10
0.0
 20
0.0
 30
0.0
  9
$UCSXDIR
 10
1.0
 20
0.0
 30
0.0
  9
$UCSYDIR
 10
0.0
 20
1.0
 30
0.0
  9
$UCSORTHOREF
  2

  9
$UCSORTHOVIEW
 70
0
  9
$UCSORGTOP
 10
0.0
 20
0.0
 30
0.0
  9
$UCSORGBOTTOM
 10
0.0
 20
0.0
 30
0.0
  9
$UCSORGLEFT
 10
0.0
 20
0.0
 30
0.0
  9
$UCSORGRIGHT
 10
0.0
 20
0.0
 30
0.0
  9
$UCSORGFRONT
 10
0.0
 20
0.0
 30
0.0
  9
$UCSORGBACK
 10
0.0
 20
0.0
 30
0.0
  9
$PUCSBASE
  2

  9
$PUCSNAME
  2

  9
$PUCSORG
 10
0.0
 20
0.0
 30
0.0
  9
$PUCSXDIR
 10
1.0
 20
0.0
 30
0.0
  9
$PUCSYDIR
 10
0.0
 20
1.0
 30
0.0
  9
$PUCSORTHOREF
  2

  9
$PUCSORTHOVIEW
 70
0
  9
$PUCSORGTOP
 10
0.0
 20
0.0
 30
0.0
  9
$PUCSORGBOTTOM
 10
0.0
 20
0.0
 30
0.0
  9
$PUCSORGLEFT
 10
0.0
 20
0.0
 30
0.0
  9
$PUCSORGRIGHT
 10
0.0
 20
0.0
 30
0.0
  9
$PUCSORGFRONT
 10
0.0
 20
0.0
 30
0.0
  9
$PUCSORGBACK
 10
0.0
 20
0.0
 30
0.0
  9
$USERI1
 70
0
  9
$USERI2
 70
0
  9
$USERI3
 70
0
  9
$USERI4
 70
0
  9
$USERI5
 70
0
  9
$USERR1
 40
0.0
  9
$USERR2
 40
0.0
  9
$USERR3
 40
0.0
  9
$USERR4
 40
0.0
  9
$USERR5
 40
0.0
  9
$WORLDVIEW
 70
1
  9
$SHADEDGE
 70
3
  9
$SHADEDIF
 70
70
  9
$TILEMODE
 70
1
  9
$MAXACTVP
 70
64
  9
$PINSBASE
 10
0.0
 20
0.0
 30
0.0
  9
$PLIMCHECK
 70
0
  9
$PEXTMIN
 10
1e+20
 20
1e+20
 30
1e+20
  9
$PEXTMAX
 10
-1e+20
 20
-1e+20
 30
-1e+20
  9
$PLIMMIN
 10
0.0
 20
0.0
  9
$PLIMMAX
 10
420.0
 20
297.0
  9
$UNITMODE
 70
0
  9
$VISRETAIN
 70
1
  9
$PLINEGEN
 70
0
  9
$PSLTSCALE
 70
1
  9
$TREEDEPTH
 70
3020
  9
$CMLSTYLE
  2
Standard
  9
$CMLJUST
 70
0
  9
$CMLSCALE
 40
20.0
  9
$PROXYGRAPHICS
 70
1
  9
$MEASUREMENT
 70
1
  9
$CELWEIGHT
370
-1
  9
$ENDCAPS
280
0
  9
$JOINSTYLE
280
0
  9
$LWDISPLAY
290
0
  9
$INSUNITS
 70
1
  9
$HYPERLINKBASE
  1

  9
$STYLESHEET
  1

  9
$XEDIT
290
1
  9
$CEPSNTYPE
380
0
  9
$PSTYLEMODE
290
1
  9
$FINGERPRINTGUID
  2
{EF62BC4F-DAC9-49E0-A3B4-7AAF833E1DEA}
  9
$VERSIONGUID
  2
{1382B458-2832-4818-A40D-1BEFC64B51DD}
  9
$EXTNAMES
290
1
  9
$PSVPSCALE
 40
0.0
  9
$OLESTARTUP
290
0
  0
ENDSEC
  0
SECTION
  2
CLASSES
  0
CLASS
  1
ACDBDICTIONARYWDFLT
  2
AcDbDictionaryWithDefault
  3
ObjectDBX Classes
 90
0
280
0
281
0
  0
CLASS
  1
SUN
  2
AcDbSun
  3
SCENEOE
 90
1153
280
0
281
0
  0
CLASS
  1
VISUALSTYLE
  2
AcDbVisualStyle
  3
ObjectDBX Classes
 90
4095
280
0
281
0
  0
CLASS
  1
MATERIAL
  2
AcDbMaterial
  3
ObjectDBX Classes
 90
1153
280
0
281
0
  0
CLASS
  1
SCALE
  2
AcDbScale
  3
ObjectDBX Classes
 90
1153
280
0
281
0
  0
CLASS
  1
TABLESTYLE
  2
AcDbTableStyle
  3
ObjectDBX Classes
 90
4095
280
0
281
0
  0
CLASS
  1
MLEADERSTYLE
  2
AcDbMLeaderStyle
  3
ACDB_MLEADERSTYLE_CLASS
 90
4095
280
0
281
0
  0
CLASS
  1
DICTIONARYVAR
  2
AcDbDictionaryVar
  3
ObjectDBX Classes
 90
0
280
0
281
0
  0
CLASS
  1
CELLSTYLEMAP
  2
AcDbCellStyleMap
  3
ObjectDBX Classes
 90
1152
280
0
281
0
  0
CLASS
  1
MENTALRAYRENDERSETTINGS
  2
AcDbMentalRayRenderSettings
  3
SCENEOE
 90
1024
280
0
281
0
  0
CLASS
  1
ACDBDETAILVIEWSTYLE
  2
AcDbDetailViewStyle
  3
ObjectDBX Classes
 90
1025
280
0
281
0
  0
CLASS
  1
ACDBSECTIONVIEWSTYLE
  2
AcDbSectionViewStyle
  3
ObjectDBX Classes
 90
1025
280
0
281
0
  0
CLASS
  1
RASTERVARIABLES
  2
AcDbRasterVariables
  3
ISM
 90
0
280
0
281
0
  0
CLASS
  1
ACDBPLACEHOLDER
  2
AcDbPlaceHolder
  3
ObjectDBX Classes
 90
0
280
0
281
0
  0
CLASS
  1
LAYOUT
  2
AcDbLayout
  3
ObjectDBX Classes
 90
0
280
0
281
0
  0
ENDSEC
  0
SECTION
  2
TABLES
  0
TABLE
  2
VPORT
  5
8
330
0
100
AcDbSymbolTable
 70
1
  0
VPORT
  5
23
330
8
100
AcDbSymbolTableRecord
100
AcDbViewportTableRecord
  2
*Active
 70
0
 10
0.0
 20
0.0
 11
1.0
 21
1.0
 12
0.0
 22
0.0
 13
0.0
 23
0.0
 14
0.5
 24
0.5
 15
0.5
 25
0.5
 16
0.0
 26
0.0
 36
1.0
 17
0.0
 27
0.0
 37
0.0
 40
1000.0
 41
1.34
 42
50.0
 43
0.0
 44
0.0
 50
0.0
 51
0.0
 71
0
 72
1000
 73
1
 74
3
 75
0
 76
0
 77
0
 78
0
281
0
 65
0
146
0.0
  0
ENDTAB
  0
TABLE
  2
LTYPE
  5
2
330
0
100
AcDbSymbolTable
 70
3
  0
LTYPE
  5
24
330
2
100
AcDbSymbolTableRecord
100
AcDbLinetypeTableRecord
  2
ByBlock
 70
0
  3

 72
65
 73
0
 40
0.0
  0
LTYPE
  5
25
330
2
100
AcDbSymbolTableRecord
100
AcDbLinetypeTableRecord
  2
ByLayer
 70
0
  3

 72
65
 73
0
 40
0.0
  0
LTYPE
  5
26
330
2
100
AcDbSymbolTableRecord
100
AcDbLinetypeTableRecord
  2
Continuous
 70
0
  3

 72
65
 73
0
 40
0.0
  0
ENDTAB
  0
TABLE
  2
LAYER
  5
1
330
0
100
AcDbSymbolTable
 70
3
  0
LAYER
  5
27
330
1
100
AcDbSymbolTableRecord
100
AcDbLayerTableRecord
  2
0
 70
0
 62
7
  6
Continuous
370
-3
390
13
  0
LAYER
  5
28
330
1
100
AcDbSymbolTableRecord
100
AcDbLayerTableRecord
  2
Defpoints
 70
0
 62
7
  6
Continuous
290
0
370
-3
390
13
  0
LAYER
  5
2F
330
1
100
AcDbSymbolTableRecord
100
AcDbLayerTableRecord
  2
CUT
 70
0
 62
7
  6
Continuous
370
-3
390
13
  0
ENDTAB
  0
TABLE
  2
STYLE
  5
5
330
0
100
AcDbSymbolTable
 70
1
  0
STYLE
  5
29
330
5
100
AcDbSymbolTableRecord
100
AcDbTextStyleTableRecord
  2
Standard
 70
0
 40
0.0
 41
1.0
 50
0.0
 71
0
 42
2.5
  3
txt
  4

  0
ENDTAB
  0
TABLE
  2
VIEW
  5
7
330
0
100
AcDbSymbolTable
 70
0
  0
ENDTAB
  0
TABLE
  2
UCS
  5
6
330
0
100
AcDbSymbolTable
 70
0
  0
ENDTAB
  0
TABLE
  2
APPID
  5
3
330
0
100
AcDbSymbolTable
 70
3
  0
APPID
  5
2A
330
3
100
AcDbSymbolTableRecord
100
AcDbRegAppTableRecord
  2
ACAD
 70
0
  0
APPID
  5
21D
330
3
100
AcDbSymbolTableRecord
100
AcDbRegAppTableRecord
  2
HATCHBACKGROUNDCOLOR
 70
0
  0
APPID
  5
21E
330
3
100
AcDbSymbolTableRecord
100
AcDbRegAppTableRecord
  2
EZDXF
 70
0
  0
ENDTAB
  0
TABLE
  2
DIMSTYLE
  5
4
330
0
100
AcDbSymbolTable
 70
1
100
AcDbDimStyleTable
  0
DIMSTYLE
105
2B
330
4
100
AcDbSymbolTableRecord
100
AcDbDimStyleTableRecord
  2
Standard
 70
0
  3

  4

 40
1.0
 41
2.5
 42
0.625
 43
3.75
 44
1.25
 45
0.0
 46
0.0
 47
0.0
 48
0.0
140
2.5
141
2.5
142
0.0
143
0.03937007874
144
1.0
145
0.0
146
1.0
147
0.625
148
0.0
 71
0
 72
0
 73
0
 74
0
 75
0
 76
0
 77
1
 78
8
 79
3
170
0
171
3
172
1
173
0
174
0
175
0
176
0
177
0
178
0
179
2
271
2
272
2
273
2
274
3
275
0
276
0
277
2
278
44
279
0
280
0
281
0
282
0
283
0
284
8
285
0
286
0
288
0
289
3
371
-2
372
-2
  0
ENDTAB
  0
TABLE
  2
BLOCK_RECORD
  5
9
330
0
100
AcDbSymbolTable
 70
2
  0
BLOCK_RECORD
  5
17
330
9
100
AcDbSymbolTableRecord
100
AcDbBlockTableRecord
  2
*Model_Space
340
1A
  0
BLOCK_RECORD
  5
1B
330
9
100
AcDbSymbolTableRecord
100
AcDbBlockTableRecord
  2
*Paper_Space
340
1E
  0
ENDTAB
  0
ENDSEC
  0
SECTION
  2
BLOCKS
  0
BLOCK
  5
18
330
17
100
AcDbEntity
  8
0
100
AcDbBlockBegin
  2
*Model_Space
 70
0
 10
0.0
 20
0.0
 30
0.0
  3
*Model_Space
  1

  0
ENDBLK
  5
19
330
17
100
AcDbEntity
  8
0
100
AcDbBlockEnd
  0
BLOCK
  5
1C
330
1B
100
AcDbEntity
  8
0
100
AcDbBlockBegin
  2
*Paper_Space
 70
0
 10
0.0
 20
0.0
 30
0.0
  3
*Paper_Space
  1

  0
ENDBLK
  5
1D
330
1B
100
AcDbEntity
  8
0
100
AcDbBlockEnd
  0
ENDSEC
  0
SECTION
  2
ENTITIES
  0
LINE
  5
30
330
17
100
AcDbEntity
  8
CUT
100
AcDbLine
 10
0.5700000000000018
 20
3.209472990349135
 30
0.0
 11
0.0
 21
2.9962299038051703
 31
0.0
  0
LINE
  5
31
330
17
100
AcDbEntity
  8
CUT
100
AcDbLine
 10
0.0
 20
2.9962299038051703
 30
0.0
 11
9.000207986294603e-16
 21
3.5371920929104004
 31
0.0
  0
LINE
  5
32
330
17
100
AcDbEntity
  8
CUT
100
AcDbLine
 10
9.000207986294603e-16
 20
1.583491874708838
 30
0.0
 11
0.0
 21
2.9962299038051703
 31
0.0
  0
LINE
  5
33
330
17
100
AcDbEntity
  8
CUT
100
AcDbLine
 10
0.6425425982259447
 20
7.08082660318107
 30
0.0
 11
0.0
 21
6.840444556020198
 31
0.0
  0
LINE
  5
34
330
17
100
AcDbEntity
  8
CUT
100
AcDbLine
 10
0.0
 20
6.840444556020198
 30
0.0
 11
1.8000415972589206e-15
 21
7.381406745125427
 31
0.0
  0
LINE
  5
35
330
17
100
AcDbEntity
  8
CUT
100
AcDbLine
 10
9.000207986294603e-16
 20
5.459299419017914
 30
0.0
 11
0.0
 21
6.840444556020198
 31
0.0
  0
LINE
  5
36
330
17
100
AcDbEntity
  8
CUT
100
AcDbLine
 10
0.5700000000000018
 20
1.2557727721475802
 30
0.0
 11
9.000207986294603e-16
 21
1.0425296856036077
 31
0.0
  0
LINE
  5
37
330
17
100
AcDbEntity
  8
CUT
100
AcDbLine
 10
9.000207986294603e-16
 20
1.0425296856036077
 30
0.0
 11
9.000207986294603e-16
 21
1.583491874708838
 31
0.0
  0
LINE
  5
38
330
17
100
AcDbEntity
  8
CUT
100
AcDbLine
 10
0.5700000000000018
 20
0.5066666666666666
 30
0.0
 11
9.000207986294603e-16
 21
0.5066666666666666
 31
0.0
  0
LINE
  5
39
330
17
100
AcDbEntity
  8
CUT
100
AcDbLine
 10
9.000207986294603e-16
 20
0.5066666666666666
 30
0.0
 11
9.000207986294603e-16
 21
1.0425296856036077
 31
0.0
  0
LINE
  5
3A
330
17
100
AcDbEntity
  8
CUT
100
AcDbLine
 10
0.5700000000000018
 20
1.7967349612528045
 30
0.0
 11
9.000207986294603e-16
 21
1.583491874708838
 31
0.0
  0
LINE
  5
3B
330
17
100
AcDbEntity
  8
CUT
100
AcDbLine
 10
9.000207986294603e-16
 20
3.5371920929104004
 30
0.0
 11
0.5700000000000018
 21
3.7504351794543687
 31
0.0
  0
LINE
  5
3C
330
17
100
AcDbEntity
  8
CUT
100
AcDbLine
 10
9.000207986294603e-16
 20
3.5371920929104004
 30
0.0
 11
1.8000415972589206e-15
 21
4.918337229912685
 31
0.0
  0
LINE
  5
3D
330
17
100
AcDbEntity
  8
CUT
100
AcDbLine
 10
0.5700000000000018
 20
5.6725425055619
 30
0.0
 11
9.000207986294603e-16
 21
5.459299419017914
 31
0.0
  0
LINE
  5
3E
330
17
100
AcDbEntity
  8
CUT
100
AcDbLine
 10
1.8000415972589206e-15
 20
4.918337229912685
 30
0.0
 11
9.000207986294603e-16
 21
5.459299419017914
 31
0.0
  0
LINE
  5
3F
330
17
100
AcDbEntity
  8
CUT
100
AcDbLine
 10
1.8000415972589206e-15
 20
4.918337229912685
 30
0.0
 11
0.5700000000000018
 21
5.131580316456665
 31
0.0
  0
LINE
  5
40
330
17
100
AcDbEntity
  8
CUT
100
AcDbLine
 10
1.8000415972589206e-15
 20
7.381406745125427
 30
0.0
 11
0.8159083715172756
 21
7.686646779298108
 31
0.0
  0
LINE
  5
41
330
17
100
AcDbEntity
  8
CUT
100
AcDbLine
 10
1.8000415972589206e-15
 20
7.381406745125427
 30
0.0
 11
1.8000415972589206e-15
 21
8.76255188212771
 31
0.0
  0
LINE
  5
42
330
17
100
AcDbEntity
  8
CUT
100
AcDbLine
 10
1.8000415972589206e-15
 20
8.76255188212771
 30
0.0
 11
2.9390508983365646
 21
9.862082206813865
 31
0.0
  0
LINE
  5
43
330
17
100
AcDbEntity
  8
CUT
100
AcDbLine
 10
1.8000415972589206e-15
 20
8.76255188212771
 30
0.0
 11
1.8000415972589206e-15
 21
9.303514071232941
 31
0.0
  0
LINE
  5
44
330
17
100
AcDbEntity
  8
CUT
100
AcDbLine
 10
1.8000415972589206e-15
 20
9.303514071232941
 30
0.0
 11
0.6565444128945979
 21
9.549134346774771
 31
0.0
  0
LINE
  5
45
330
17
100
AcDbEntity
  8
CUT
100
AcDbLine
 10
1.8000415972589206e-15
 20
9.303514071232941
 30
0.0
 11
1.8000415972589206e-15
 21
10.684659208235225
 31
0.0
  0
LINE
  5
46
330
17
100
AcDbEntity
  8
CUT
100
AcDbLine
 10
1.8000415972589206e-15
 20
10.684659208235225
 30
0.0
 11
0.6565444128946042
 21
10.930279483777053
 31
0.0
  0
LINE
  5
47
330
17
100
AcDbEntity
  8
CUT
100
AcDbLine
 10
1.8000415972589206e-15
 20
10.684659208235225
 30
0.0
 11
1.8000415972589206e-15
 21
11.225621397340452
 31
0.0
  0
LINE
  5
48
330
17
100
AcDbEntity
  8
CUT
100
AcDbLine
 10
1.8000415972589206e-15
 20
11.225621397340452
 30
0.0
 11
0.6565444128946132
 21
11.471241672882291
 31
0.0
  0
LINE
  5
49
330
17
100
AcDbEntity
  8
CUT
100
AcDbLine
 10
1.8000415972589206e-15
 20
11.225621397340452
 30
0.0
 11
1.8000415972589206e-15
 21
12.606766534342738
 31
0.0
  0
LINE
  5
4A
330
17
100
AcDbEntity
  8
CUT
100
AcDbLine
 10
1.8000415972589206e-15
 20
12.606766534342738
 30
0.0
 11
0.6565444128946365
 21
12.852386809884583
 31
0.0
  0
LINE
  5
4B
330
17
100
AcDbEntity
  8
CUT
100
AcDbLine
 10
1.8000415972589206e-15
 20
12.606766534342738
 30
0.0
 11
1.8000415972589206e-15
 21
13.147728723447967
 31
0.0
  0
LINE
  5
4C
330
17
100
AcDbEntity
  8
CUT
100
AcDbLine
 10
1.8000415972589206e-15
 20
13.147728723447967
 30
0.0
 11
4.749999999999998
 21
14.924754444647744
 31
0.0
  0
LINE
  5
4D
330
17
100
AcDbEntity
  8
CUT
100
AcDbLine
 10
0.5700000000000018
 20
1.2557727721475802
 30
0.0
 11
0.5700000000000018
 21
0.5066666666666666
 31
0.0
  0
LINE
  5
4E
330
17
100
AcDbEntity
  8
CUT
100
AcDbLine
 10
8.93000000000002
 20
0.5066666666666727
 30
0.0
 11
8.930000000000001
 21
0.0
 31
0.0
  0
LINE
  5
4F
330
17
100
AcDbEntity
  8
CUT
100
AcDbLine
 10
8.930000000000001
 20
0.0
 30
0.0
 11
0.5700000000000018
 21
0.0
 31
0.0
  0
LINE
  5
50
330
17
100
AcDbEntity
  8
CUT
100
AcDbLine
 10
0.5700000000000018
 20
0.0
 30
0.0
 11
0.5700000000000018
 21
0.5066666666666666
 31
0.0
  0
LINE
  5
51
330
17
100
AcDbEntity
  8
CUT
100
AcDbLine
 10
0.5700000000000018
 20
1.7967349612528045
 30
0.0
 11
0.5700000000000018
 21
1.2557727721475802
 31
0.0
  0
LINE
  5
52
330
17
100
AcDbEntity
  8
CUT
100
AcDbLine
 10
0.5700000000000018
 20
3.209472990349135
 30
0.0
 11
0.5700000000000018
 21
1.7967349612528045
 31
0.0
  0
LINE
  5
53
330
17
100
AcDbEntity
  8
CUT
100
AcDbLine
 10
0.5700000000000018
 20
3.7504351794543687
 30
0.0
 11
0.5700000000000018
 21
3.209472990349135
 31
0.0
  0
LINE
  5
54
330
17
100
AcDbEntity
  8
CUT
100
AcDbLine
 10
0.5700000000000018
 20
5.131580316456665
 30
0.0
 11
0.5700000000000018
 21
3.7504351794543687
 31
0.0
  0
LINE
  5
55
330
17
100
AcDbEntity
  8
CUT
100
AcDbLine
 10
0.5700000000000018
 20
5.6725425055619
 30
0.0
 11
0.5700000000000018
 21
5.131580316456665
 31
0.0
  0
LINE
  5
56
330
17
100
AcDbEntity
  8
CUT
100
AcDbLine
 10
0.6425425982259447
 20
7.08082660318107
 30
0.0
 11
0.6277305385540963
 21
7.001730059692181
 31
0.0
  0
LINE
  5
57
330
17
100
AcDbEntity
  8
CUT
100
AcDbLine
 10
0.6277305385540963
 20
7.001730059692181
 30
0.0
 11
0.6167843057389204
 21
6.936317951710764
 31
0.0
  0
LINE
  5
58
330
17
100
AcDbEntity
  8
CUT
100
AcDbLine
 10
0.6167843057389204
 20
6.936317951710764
 30
0.0
 11
0.6069813387824324
 21
6.870724768206175
 31
0.0
  0
LINE
  5
59
330
17
100
AcDbEntity
  8
CUT
100
AcDbLine
 10
0.6069813387824324
 20
6.870724768206175
 30
0.0
 11
0.5983246237633313
 21
6.804970489497528
 31
0.0
  0
LINE
  5
5A
330
17
100
AcDbEntity
  8
CUT
100
AcDbLine
 10
0.5983246237633313
 20
6.804970489497528
 30
0.0
 11
0.5908167976008691
 21
6.739075144975088
 31
0.0
  0
LINE
  5
5B
330
17
100
AcDbEntity
  8
CUT
100
AcDbLine
 10
0.5908167976008691
 20
6.739075144975088
 30
0.0
 11
0.584460147251627
 21
6.673058806999144
 31
0.0
  0
LINE
  5
5C
330
17
100
AcDbEntity
  8
CUT
100
AcDbLine
 10
0.584460147251627
 20
6.673058806999144
 30
0.0
 11
0.579256609012879
 21
6.606941584785756
 31
0.0
  0
LINE
  5
5D
330
17
100
AcDbEntity
  8
CUT
100
AcDbLine
 10
0.579256609012879
 20
6.606941584785756
 30
0.0
 11
0.5752077679327802
 21
6.540743618281303
 31
0.0
  0
LINE
  5
5E
330
17
100
AcDbEntity
  8
CUT
100
AcDbLine
 10
0.5752077679327802
 20
6.540743618281303
 30
0.0
 11
0.5723148573275462
 21
6.474485072027656
 31
0.0
  0
LINE
  5
5F
330
17
100
AcDbEntity
  8
CUT
100
AcDbLine
 10
0.5723148573275462
 20
6.474485072027656
 30
0.0
 11
0.5705787584057705
 21
6.408186129019864
 31
0.0
  0
LINE
  5
60
330
17
100
AcDbEntity
  8
CUT
100
AcDbLine
 10
0.5705787584057705
 20
6.408186129019864
 30
0.0
 11
0.5700000000000018
 21
6.341866984558219
 31
0.0
  0
LINE
  5
61
330
17
100
AcDbEntity
  8
CUT
100
AcDbLine
 10
0.5700000000000018
 20
6.341866984558219
 30
0.0
 11
0.5700000000000018
 21
5.6725425055619
 31
0.0
  0
LINE
  5
62
330
17
100
AcDbEntity
  8
CUT
100
AcDbLine
 10
0.8159083715172756
 20
7.686646779298108
 30
0.0
 11
0.7991680410143897
 21
7.6415435291949505
 31
0.0
  0
LINE
  5
63
330
17
100
AcDbEntity
  8
CUT
100
AcDbLine
 10
0.7991680410143897
 20
7.6415435291949505
 30
0.0
 11
0.777029412723408
 21
7.57902597149465
 31
0.0
  0
LINE
  5
64
330
17
100
AcDbEntity
  8
CUT
100
AcDbLine
 10
0.777029412723408
 20
7.57902597149465
 30
0.0
 11
0.7559852380791975
 21
7.5161315631823
 31
0.0
  0
LINE
  5
65
330
17
100
AcDbEntity
  8
CUT
100
AcDbLine
 10
0.7559852380791975
 20
7.5161315631823
 30
0.0
 11
0.7360419273412142
 21
7.452879462503945
 31
0.0
  0
LINE
  5
66
330
17
100
AcDbEntity
  8
CUT
100
AcDbLine
 10
0.7360419273412142
 20
7.452879462503945
 30
0.0
 11
0.7172055554351029
 21
7.389288936662185
 31
0.0
  0
LINE
  5
67
330
17
100
AcDbEntity
  8
CUT
100
AcDbLine
 10
0.7172055554351029
 20
7.389288936662185
 30
0.0
 11
0.6994818601022212
 21
7.325379355947213
 31
0.0
  0
LINE
  5
68
330
17
100
AcDbEntity
  8
CUT
100
AcDbLine
 10
0.6994818601022212
 20
7.325379355947213
 30
0.0
 11
0.6828762401518573
 21
7.261170187836414
 31
0.0
  0
LINE
  5
69
330
17
100
AcDbEntity
  8
CUT
100
AcDbLine
 10
0.6828762401518573
 20
7.261170187836414
 30
0.0
 11
0.6673937538167127
 21
7.196680991064406
 31
0.0
  0
LINE
  5
6A
330
17
100
AcDbEntity
  8
CUT
100
AcDbLine
 10
0.6673937538167127
 20
7.196680991064406
 30
0.0
 11
0.6530391172121064
 21
7.131931409665249
 31
0.0
  0
LINE
  5
6B
330
17
100
AcDbEntity
  8
CUT
100
AcDbLine
 10
0.6530391172121064
 20
7.131931409665249
 30
0.0
 11
0.6425425982259447
 21
7.08082660318107
 31
0.0
  0
LINE
  5
6C
330
17
100
AcDbEntity
  8
CUT
100
AcDbLine
 10
0.6565444128945979
 20
9.549134346774771
 30
0.0
 11
3.98999999999999
 21
10.796215677040736
 31
0.0
  0
LINE
  5
6D
330
17
100
AcDbEntity
  8
CUT
100
AcDbLine
 10
0.6565444128946042
 20
10.930279483777053
 30
0.0
 11
0.6565444128945979
 21
9.549134346774771
 31
0.0
  0
LINE
  5
6E
330
17
100
AcDbEntity
  8
CUT
100
AcDbLine
 10
3.989999999999992
 20
12.177360814043011
 30
0.0
 11
0.6565444128946042
 21
10.930279483777053
 31
0.0
  0
LINE
  5
6F
330
17
100
AcDbEntity
  8
CUT
100
AcDbLine
 10
0.6565444128946132
 20
11.471241672882291
 30
0.0
 11
3.9899999999999944
 21
12.718323003148265
 31
0.0
  0
LINE
  5
70
330
17
100
AcDbEntity
  8
CUT
100
AcDbLine
 10
0.6565444128946365
 20
12.852386809884583
 30
0.0
 11
0.6565444128946132
 21
11.471241672882291
 31
0.0
  0
LINE
  5
71
330
17
100
AcDbEntity
  8
CUT
100
AcDbLine
 10
3.99
 20
14.099468140150549
 30
0.0
 11
0.6565444128946365
 21
12.852386809884583
 31
0.0
  0
LINE
  5
72
330
17
100
AcDbEntity
  8
CUT
100
AcDbLine
 10
2.9390508983365646
 20
9.862082206813865
 30
0.0
 11
2.8852217117415844
 21
9.839785427674725
 31
0.0
  0
LINE
  5
73
330
17
100
AcDbEntity
  8
CUT
100
AcDbLine
 10
2.8852217117415844
 20
9.839785427674725
 30
0.0
 11
2.8244007563128086
 21
9.813339723597364
 31
0.0
  0
LINE
  5
74
330
17
100
AcDbEntity
  8
CUT
100
AcDbLine
 10
2.8244007563128086
 20
9.813339723597364
 30
0.0
 11
2.7640506053862155
 21
9.785836575294779
 31
0.0
  0
LINE
  5
75
330
17
100
AcDbEntity
  8
CUT
100
AcDbLine
 10
2.7640506053862155
 20
9.785836575294779
 30
0.0
 11
2.704189642202401
 21
9.757284360492372
 31
0.0
  0
LINE
  5
76
330
17
100
AcDbEntity
  8
CUT
100
AcDbLine
 10
2.704189642202401
 20
9.757284360492372
 30
0.0
 11
2.6448361009906387
 21
9.727691776471367
 31
0.0
  0
LINE
  5
77
330
17
100
AcDbEntity
  8
CUT
100
AcDbLine
 10
2.6448361009906387
 20
9.727691776471367
 30
0.0
 11
2.586008061414552
 21
9.697067837419523
 31
0.0
  0
LINE
  5
78
330
17
100
AcDbEntity
  8
CUT
100
AcDbLine
 10
2.586008061414552
 20
9.697067837419523
 30
0.0
 11
2.5277234430648767
 21
9.665421871685338
 31
0.0
  0
LINE
  5
79
330
17
100
AcDbEntity
  8
CUT
100
AcDbLine
 10
2.5277234430648767
 20
9.665421871685338
 30
0.0
 11
2.470000000000978
 21
9.632763518936533
 31
0.0
  0
LINE
  5
7A
330
17
100
AcDbEntity
  8
CUT
100
AcDbLine
 10
2.470000000000978
 20
9.632763518936533
 30
0.0
 11
2.41285531534279
 21
9.599102727223727
 31
0.0
  0
LINE
  5
7B
330
17
100
AcDbEntity
  8
CUT
100
AcDbLine
 10
2.41285531534279
 20
9.599102727223727
 30
0.0
 11
2.356306795914835
 21
9.564449749950155
 31
0.0
  0
LINE
  5
7C
330
17
100
AcDbEntity
  8
CUT
100
AcDbLine
 10
2.356306795914835
 20
9.564449749950155
 30
0.0
 11
2.3003716669439265
 21
9.528815142748384
 31
0.0
  0
LINE
  5
7D
330
17
100
AcDbEntity
  8
CUT
100
AcDbLine
 10
2.3003716669439265
 20
9.528815142748384
 30
0.0
 11
2.2450669668122067
 21
9.492209760264966
 31
0.0
  0
LINE
  5
7E
330
17
100
AcDbEntity
  8
CUT
100
AcDbLine
 10
2.2450669668122067
 20
9.492209760264966
 30
0.0
 11
2.1904095418670853
 21
9.454644752854014
 31
0.0
  0
LINE
  5
7F
330
17
100
AcDbEntity
  8
CUT
100
AcDbLine
 10
2.1904095418670853
 20
9.454644752854014
 30
0.0
 11
2.1364160412896767
 21
9.416131563180684
 31
0.0
  0
LINE
  5
80
330
17
100
AcDbEntity
  8
CUT
100
AcDbLine
 10
2.1364160412896767
 20
9.416131563180684
 30
0.0
 11
2.0831029120233033
 21
9.376681922735633
 31
0.0
  0
LINE
  5
81
330
17
100
AcDbEntity
  8
CUT
100
AcDbLine
 10
2.0831029120233033
 20
9.376681922735633
 30
0.0
 11
2.030486393763597
 21
9.336307848261503
 31
0.0
  0
LINE
  5
82
330
17
100
AcDbEntity
  8
CUT
100
AcDbLine
 10
2.030486393763597
 20
9.336307848261503
 30
0.0
 11
1.9785825140117261
 21
9.295021638092487
 31
0.0
  0
LINE
  5
83
330
17
100
AcDbEntity
  8
CUT
100
AcDbLine
 10
1.9785825140117261
 20
9.295021638092487
 30
0.0
 11
1.9274070831922698
 21
9.252835868408159
 31
0.0
  0
LINE
  5
84
330
17
100
AcDbEntity
  8
CUT
100
AcDbLine
 10
1.9274070831922698
 20
9.252835868408159
 30
0.0
 11
1.8769756898372
 21
9.209763389402616
 31
0.0
  0
LINE
  5
85
330
17
100
AcDbEntity
  8
CUT
100
AcDbLine
 10
1.8769756898372
 20
9.209763389402616
 30
0.0
 11
1.8273036958374735
 21
9.165817321370222
 31
0.0
  0
LINE
  5
86
330
17
100
AcDbEntity
  8
CUT
100
AcDbLine
 10
1.8273036958374735
 20
9.165817321370222
 30
0.0
 11
1.7784062317636464
 21
9.121011050709013
 31
0.0
  0
LINE
  5
87
330
17
100
AcDbEntity
  8
CUT
100
AcDbLine
 10
1.7784062317636464
 20
9.121011050709013
 30
0.0
 11
1.7302981922569558
 21
9.075358225843082
 31
0.0
  0
LINE
  5
88
330
17
100
AcDbEntity
  8
CUT
100
AcDbLine
 10
1.7302981922569558
 20
9.075358225843082
 30
0.0
 11
1.6829942314922701
 21
9.028872753065132
 31
0.0
  0
LINE
  5
89
330
17
100
AcDbEntity
  8
CUT
100
AcDbLine
 10
1.6829942314922701
 20
9.028872753065132
 30
0.0
 11
1.6365087587142788
 21
8.981568792300484
 31
0.0
  0
LINE
  5
8A
330
17
100
AcDbEntity
  8
CUT
100
AcDbLine
 10
1.6365087587142788
 20
8.981568792300484
 30
0.0
 11
1.590855933848307
 21
8.933460752793833
 31
0.0
  0
LINE
  5
8B
330
17
100
AcDbEntity
  8
CUT
100
AcDbLine
 10
1.590855933848307
 20
8.933460752793833
 30
0.0
 11
1.5460496631870575
 21
8.884563288720047
 31
0.0
  0
LINE
  5
8C
330
17
100
AcDbEntity
  8
CUT
100
AcDbLine
 10
1.5460496631870575
 20
8.884563288720047
 30
0.0
 11
1.5021035951546216
 21
8.834891294720357
 31
0.0
  0
LINE
  5
8D
330
17
100
AcDbEntity
  8
CUT
100
AcDbLine
 10
1.5021035951546216
 20
8.834891294720357
 30
0.0
 11
1.459031116149036
 21
8.784459901365324
 31
0.0
  0
LINE
  5
8E
330
17
100
AcDbEntity
  8
CUT
100
AcDbLine
 10
1.459031116149036
 20
8.784459901365324
 30
0.0
 11
1.4168453464646602
 21
8.733284470545902
 31
0.0
  0
LINE
  5
8F
330
17
100
AcDbEntity
  8
CUT
100
AcDbLine
 10
1.4168453464646602
 20
8.733284470545902
 30
0.0
 11
1.3755591362956012
 21
8.681380590794067
 31
0.0
  0
LINE
  5
90
330
17
100
AcDbEntity
  8
CUT
100
AcDbLine
 10
1.3755591362956012
 20
8.681380590794067
 30
0.0
 11
1.3351850618214258
 21
8.628764072534395
 31
0.0
  0
LINE
  5
91
330
17
100
AcDbEntity
  8
CUT
100
AcDbLine
 10
1.3351850618214258
 20
8.628764072534395
 30
0.0
 11
1.2957354213763312
 21
8.575450943268056
 31
0.0
  0
LINE
  5
92
330
17
100
AcDbEntity
  8
CUT
100
AcDbLine
 10
1.2957354213763312
 20
8.575450943268056
 30
0.0
 11
1.257222231702955
 21
8.52145744269068
 31
0.0
  0
LINE
  5
93
330
17
100
AcDbEntity
  8
CUT
100
AcDbLine
 10
1.257222231702955
 20
8.52145744269068
 30
0.0
 11
1.219657224291956
 21
8.466800017745589
 31
0.0
  0
LINE
  5
94
330
17
100
AcDbEntity
  8
CUT
100
AcDbLine
 10
1.219657224291956
 20
8.466800017745589
 30
0.0
 11
1.1830518418084919
 21
8.411495317613902
 31
0.0
  0
LINE
  5
95
330
17
100
AcDbEntity
  8
CUT
100
AcDbLine
 10
1.1830518418084919
 20
8.411495317613902
 30
0.0
 11
1.147417234606673
 21
8.355560188643025
 31
0.0
  0
LINE
  5
96
330
17
100
AcDbEntity
  8
CUT
100
AcDbLine
 10
1.147417234606673
 20
8.355560188643025
 30
0.0
 11
1.1127642573330514
 21
8.2990116692151
 31
0.0
  0
LINE
  5
97
330
17
100
AcDbEntity
  8
CUT
100
AcDbLine
 10
1.1127642573330514
 20
8.2990116692151
 30
0.0
 11
1.079103465620196
 21
8.24186698455694
 31
0.0
  0
LINE
  5
98
330
17
100
AcDbEntity
  8
CUT
100
AcDbLine
 10
1.079103465620196
 20
8.24186698455694
 30
0.0
 11
1.0464451128713423
 21
8.184143541493068
 31
0.0
  0
LINE
  5
99
330
17
100
AcDbEntity
  8
CUT
100
AcDbLine
 10
1.0464451128713423
 20
8.184143541493068
 30
0.0
 11
1.014799147137107
 21
8.125858923143419
 31
0.0
  0
LINE
  5
9A
330
17
100
AcDbEntity
  8
CUT
100
AcDbLine
 10
1.014799147137107
 20
8.125858923143419
 30
0.0
 11
0.9841752080852129
 21
8.06703088356736
 31
0.0
  0
LINE
  5
9B
330
17
100
AcDbEntity
  8
CUT
100
AcDbLine
 10
0.9841752080852129
 20
8.06703088356736
 30
0.0
 11
0.9545826240641555
 21
8.007677342355622
 31
0.0
  0
LINE
  5
9C
330
17
100
AcDbEntity
  8
CUT
100
AcDbLine
 10
0.9545826240641555
 20
8.007677342355622
 30
0.0
 11
0.9260304092616994
 21
7.947816379171835
 31
0.0
  0
LINE
  5
9D
330
17
100
AcDbEntity
  8
CUT
100
AcDbLine
 10
0.9260304092616994
 20
7.947816379171835
 30
0.0
 11
0.8985272609590625
 21
7.887466228245264
 31
0.0
  0
LINE
  5
9E
330
17
100
AcDbEntity
  8
CUT
100
AcDbLine
 10
0.8985272609590625
 20
7.887466228245264
 30
0.0
 11
0.8720815568816488
 21
7.826645272816509
 31
0.0
  0
LINE
  5
9F
330
17
100
AcDbEntity
  8
CUT
100
AcDbLine
 10
0.8720815568816488
 20
7.826645272816509
 30
0.0
 11
0.846701352647105
 21
7.765372039537783
 31
0.0
  0
LINE
  5
A0
330
17
100
AcDbEntity
  8
CUT
100
AcDbLine
 10
0.846701352647105
 20
7.765372039537783
 30
0.0
 11
0.8159083715172756
 21
7.686646779298108
 31
0.0
  0
LINE
  5
A1
330
17
100
AcDbEntity
  8
CUT
100
AcDbLine
 10
2.9390508983365646
 20
9.862082206813865
 30
0.0
 11
3.139329978087026
 21
9.937008749158029
 31
0.0
  0
LINE
  5
A2
330
17
100
AcDbEntity
  8
CUT
100
AcDbLine
 10
3.139329978087026
 20
9.937008749158029
 30
0.0
 11
3.070323455363207
 21
9.912698943541827
 31
0.0
  0
LINE
  5
A3
330
17
100
AcDbEntity
  8
CUT
100
AcDbLine
 10
3.070323455363207
 20
9.912698943541827
 30
0.0
 11
3.008201791728634
 21
9.889472605244766
 31
0.0
  0
LINE
  5
A4
330
17
100
AcDbEntity
  8
CUT
100
AcDbLine
 10
3.008201791728634
 20
9.889472605244766
 30
0.0
 11
2.9390508983365646
 21
9.862082206813865
 31
0.0
  0
LINE
  5
A5
330
17
100
AcDbEntity
  8
CUT
100
AcDbLine
 10
3.139329978087026
 20
9.937008749158029
 30
0.0
 11
3.195735421375894
 21
9.955881746476912
 31
0.0
  0
LINE
  5
A6
330
17
100
AcDbEntity
  8
CUT
100
AcDbLine
 10
3.195735421375894
 20
9.955881746476912
 30
0.0
 11
3.258987522054267
 21
9.975825057214843
 31
0.0
  0
LINE
  5
A7
330
17
100
AcDbEntity
  8
CUT
100
AcDbLine
 10
3.258987522054267
 20
9.975825057214843
 30
0.0
 11
3.322578047896042
 21
9.994661429120896
 31
0.0
  0
LINE
  5
A8
330
17
100
AcDbEntity
  8
CUT
100
AcDbLine
 10
3.322578047896042
 20
9.994661429120896
 30
0.0
 11
3.38648762861103
 21
10.012385124453724
 31
0.0
  0
LINE
  5
A9
330
17
100
AcDbEntity
  8
CUT
100
AcDbLine
 10
3.38648762861103
 20
10.012385124453724
 30
0.0
 11
3.4506967967218425
 21
10.028990744404034
 31
0.0
  0
LINE
  5
AA
330
17
100
AcDbEntity
  8
CUT
100
AcDbLine
 10
3.4506967967218425
 20
10.028990744404034
 30
0.0
 11
3.5151859934938625
 21
10.044473230739124
 31
0.0
  0
LINE
  5
AB
330
17
100
AcDbEntity
  8
CUT
100
AcDbLine
 10
3.5151859934938625
 20
10.044473230739124
 30
0.0
 11
3.579935574893034
 21
10.058827867343675
 31
0.0
  0
LINE
  5
AC
330
17
100
AcDbEntity
  8
CUT
100
AcDbLine
 10
3.579935574893034
 20
10.058827867343675
 30
0.0
 11
3.644925817569619
 21
10.07205028165632
 31
0.0
  0
LINE
  5
AD
330
17
100
AcDbEntity
  8
CUT
100
AcDbLine
 10
3.644925817569619
 20
10.07205028165632
 30
0.0
 11
3.7101369248661222
 21
10.084136446001576
 31
0.0
  0
LINE
  5
AE
330
17
100
AcDbEntity
  8
CUT
100
AcDbLine
 10
3.7101369248661222
 20
10.084136446001576
 30
0.0
 11
3.7755490328475494
 21
10.095082678816693
 31
0.0
  0
LINE
  5
AF
330
17
100
AcDbEntity
  8
CUT
100
AcDbLine
 10
3.7755490328475494
 20
10.095082678816693
 30
0.0
 11
3.8411422163521456
 21
10.104885645773125
 31
0.0
  0
LINE
  5
B0
330
17
100
AcDbEntity
  8
CUT
100
AcDbLine
 10
3.8411422163521456
 20
10.104885645773125
 30
0.0
 11
3.9068964950608023
 21
10.11354236079217
 31
0.0
  0
LINE
  5
B1
330
17
100
AcDbEntity
  8
CUT
100
AcDbLine
 10
3.9068964950608023
 20
10.11354236079217
 30
0.0
 11
3.9727918395832473
 21
10.121050186954577
 31
0.0
  0
LINE
  5
B2
330
17
100
AcDbEntity
  8
CUT
100
AcDbLine
 10
3.9727918395832473
 20
10.121050186954577
 30
0.0
 11
4.038808177559196
 21
10.127406837303763
 31
0.0
  0
LINE
  5
B3
330
17
100
AcDbEntity
  8
CUT
100
AcDbLine
 10
4.038808177559196
 20
10.127406837303763
 30
0.0
 11
4.104925399772589
 21
10.132610375542454
 31
0.0
  0
LINE
  5
B4
330
17
100
AcDbEntity
  8
CUT
100
AcDbLine
 10
4.104925399772589
 20
10.132610375542454
 30
0.0
 11
4.171123366277045
 21
10.136659216622496
 31
0.0
  0
LINE
  5
B5
330
17
100
AcDbEntity
  8
CUT
100
AcDbLine
 10
4.171123366277045
 20
10.136659216622496
 30
0.0
 11
4.2373819125306955
 21
10.139552127227674
 31
0.0
  0
LINE
  5
B6
330
17
100
AcDbEntity
  8
CUT
100
AcDbLine
 10
4.2373819125306955
 20
10.139552127227674
 30
0.0
 11
4.303680855538488
 21
10.141288226149392
 31
0.0
  0
LINE
  5
B7
330
17
100
AcDbEntity
  8
CUT
100
AcDbLine
 10
4.303680855538488
 20
10.141288226149392
 30
0.0
 11
4.370000000000133
 21
10.141866984555103
 31
0.0
  0
LINE
  5
B8
330
17
100
AcDbEntity
  8
CUT
100
AcDbLine
 10
4.370000000000133
 20
10.141866984555103
 30
0.0
 11
4.750000000000002
 21
10.1418669845551
 31
0.0
  0
LINE
  5
B9
330
17
100
AcDbEntity
  8
CUT
100
AcDbLine
 10
4.750000000000002
 20
10.539577603327436
 30
0.0
 11
3.139329978087026
 21
9.937008749158029
 31
0.0
  0
LINE
  5
BA
330
17
100
AcDbEntity
  8
CUT
100
AcDbLine
 10
3.98999999999999
 20
10.796215677040736
 30
0.0
 11
4.750000000000002
 21
11.080539792432702
 31
0.0
  0
LINE
  5
BB
330
17
100
AcDbEntity
  8
CUT
100
AcDbLine
 10
3.989999999999992
 20
12.177360814043011
 30
0.0
 11
3.98999999999999
 21
10.796215677040736
 31
0.0
  0
LINE
  5
BC
330
17
100
AcDbEntity
  8
CUT
100
AcDbLine
 10
4.75
 20
12.461684929434975
 30
0.0
 11
3.989999999999992
 21
12.177360814043011
 31
0.0
  0
LINE
  5
BD
330
17
100
AcDbEntity
  8
CUT
100
AcDbLine
 10
3.9899999999999944
 20
12.718323003148265
 30
0.0
 11
4.75
 21
13.002647118540233
 31
0.0
  0
LINE
  5
BE
330
17
100
AcDbEntity
  8
CUT
100
AcDbLine
 10
3.99
 20
14.099468140150549
 30
0.0
 11
3.9899999999999944
 21
12.718323003148265
 31
0.0
  0
LINE
  5
BF
330
17
100
AcDbEntity
  8
CUT
100
AcDbLine
 10
4.749999999999999
 20
14.383792255542511
 30
0.0
 11
3.99
 21
14.099468140150549
 31
0.0
  0
LINE
  5
C0
330
17
100
AcDbEntity
  8
CUT
100
AcDbLine
 10
4.749999999999998
 20
14.924754444647744
 30
0.0
 11
4.749999999999999
 21
14.383792255542511
 31
0.0
  0
LINE
  5
C1
330
17
100
AcDbEntity
  8
CUT
100
AcDbLine
 10
4.749999999999998
 20
14.924754444647744
 30
0.0
 11
9.499999999999998
 21
13.147728723447972
 31
0.0
  0
LINE
  5
C2
330
17
100
AcDbEntity
  8
CUT
100
AcDbLine
 10
9.499999999999998
 20
13.147728723447972
 30
0.0
 11
9.5
 21
12.606766534342743
 31
0.0
  0
LINE
  5
C3
330
17
100
AcDbEntity
  8
CUT
100
AcDbLine
 10
4.749999999999999
 20
14.383792255542511
 30
0.0
 11
4.75
 21
13.002647118540233
 31
0.0
  0
LINE
  5
C4
330
17
100
AcDbEntity
  8
CUT
100
AcDbLine
 10
5.509999999999999
 20
14.099468140150549
 30
0.0
 11
4.749999999999999
 21
14.383792255542511
 31
0.0
  0
LINE
  5
C5
330
17
100
AcDbEntity
  8
CUT
100
AcDbLine
 10
4.75
 20
13.002647118540233
 30
0.0
 11
4.75
 21
12.461684929434975
 31
0.0
  0
LINE
  5
C6
330
17
100
AcDbEntity
  8
CUT
100
AcDbLine
 10
4.75
 20
12.461684929434975
 30
0.0
 11
4.750000000000002
 21
11.080539792432702
 31
0.0
  0
LINE
  5
C7
330
17
100
AcDbEntity
  8
CUT
100
AcDbLine
 10
5.51000000000001
 20
12.177360814043011
 30
0.0
 11
4.75
 21
12.461684929434975
 31
0.0
  0
LINE
  5
C8
330
17
100
AcDbEntity
  8
CUT
100
AcDbLine
 10
5.510000000000007
 20
12.718323003148265
 30
0.0
 11
4.75
 21
13.002647118540233
 31
0.0
  0
LINE
  5
C9
330
17
100
AcDbEntity
  8
CUT
100
AcDbLine
 10
4.750000000000002
 20
10.539577603327436
 30
0.0
 11
4.750000000000002
 21
10.1418669845551
 31
0.0
  0
LINE
  5
CA
330
17
100
AcDbEntity
  8
CUT
100
AcDbLine
 10
4.750000000000002
 20
10.1418669845551
 30
0.0
 11
5.129999999999872
 21
10.141866984555097
 31
0.0
  0
LINE
  5
CB
330
17
100
AcDbEntity
  8
CUT
100
AcDbLine
 10
5.129999999999872
 20
10.141866984555097
 30
0.0
 11
5.129999999999872
 21
10.141866984555103
 31
0.0
  0
LINE
  5
CC
330
17
100
AcDbEntity
  8
CUT
100
AcDbLine
 10
5.129999999999872
 20
10.141866984555103
 30
0.0
 11
5.19559043544035
 21
10.141300875910328
 31
0.0
  0
LINE
  5
CD
330
17
100
AcDbEntity
  8
CUT
100
AcDbLine
 10
5.19559043544035
 20
10.141300875910328
 30
0.0
 11
5.196319144461515
 21
10.141288226149385
 31
0.0
  0
LINE
  5
CE
330
17
100
AcDbEntity
  8
CUT
100
AcDbLine
 10
5.196319144461515
 20
10.141288226149385
 30
0.0
 11
5.262618087469309
 21
10.139552127227665
 31
0.0
  0
LINE
  5
CF
330
17
100
AcDbEntity
  8
CUT
100
AcDbLine
 10
5.262618087469309
 20
10.139552127227665
 30
0.0
 11
5.328876633722958
 21
10.136659216622487
 31
0.0
  0
LINE
  5
D0
330
17
100
AcDbEntity
  8
CUT
100
AcDbLine
 10
5.328876633722958
 20
10.136659216622487
 30
0.0
 11
5.392166348736312
 21
10.13281261929985
 31
0.0
  0
LINE
  5
D1
330
17
100
AcDbEntity
  8
CUT
100
AcDbLine
 10
5.392166348736312
 20
10.13281261929985
 30
0.0
 11
5.457561443546233
 21
10.127722700334811
 31
0.0
  0
LINE
  5
D2
330
17
100
AcDbEntity
  8
CUT
100
AcDbLine
 10
5.457561443546233
 20
10.127722700334811
 30
0.0
 11
5.527208160416754
 21
10.121050186954564
 31
0.0
  0
LINE
  5
D3
330
17
100
AcDbEntity
  8
CUT
100
AcDbLine
 10
5.527208160416754
 20
10.121050186954564
 30
0.0
 11
5.593103504939199
 21
10.113542360792156
 31
0.0
  0
LINE
  5
D4
330
17
100
AcDbEntity
  8
CUT
100
AcDbLine
 10
5.593103504939199
 20
10.113542360792156
 30
0.0
 11
5.658857783647855
 21
10.10488564577311
 31
0.0
  0
LINE
  5
D5
330
17
100
AcDbEntity
  8
CUT
100
AcDbLine
 10
5.658857783647855
 20
10.10488564577311
 30
0.0
 11
5.7244509671524515
 21
10.095082678816677
 31
0.0
  0
LINE
  5
D6
330
17
100
AcDbEntity
  8
CUT
100
AcDbLine
 10
5.7244509671524515
 20
10.095082678816677
 30
0.0
 11
5.789863075133876
 21
10.084136446001558
 31
0.0
  0
LINE
  5
D7
330
17
100
AcDbEntity
  8
CUT
100
AcDbLine
 10
5.789863075133876
 20
10.084136446001558
 30
0.0
 11
5.85507418243038
 21
10.072050281656303
 31
0.0
  0
LINE
  5
D8
330
17
100
AcDbEntity
  8
CUT
100
AcDbLine
 10
5.85507418243038
 20
10.072050281656303
 30
0.0
 11
5.920064425106964
 21
10.058827867343657
 31
0.0
  0
LINE
  5
D9
330
17
100
AcDbEntity
  8
CUT
100
AcDbLine
 10
5.920064425106964
 20
10.058827867343657
 30
0.0
 11
5.975579549033889
 21
10.046593050846056
 31
0.0
  0
LINE
  5
DA
330
17
100
AcDbEntity
  8
CUT
100
AcDbLine
 10
5.975579549033889
 20
10.046593050846056
 30
0.0
 11
6.039399524292615
 21
10.031445890774126
 31
0.0
  0
LINE
  5
DB
330
17
100
AcDbEntity
  8
CUT
100
AcDbLine
 10
6.039399524292615
 20
10.031445890774126
 30
0.0
 11
6.113512371388967
 21
10.012385124453703
 31
0.0
  0
LINE
  5
DC
330
17
100
AcDbEntity
  8
CUT
100
AcDbLine
 10
6.113512371388967
 20
10.012385124453703
 30
0.0
 11
6.177421952103955
 21
9.994661429120875
 31
0.0
  0
LINE
  5
DD
330
17
100
AcDbEntity
  8
CUT
100
AcDbLine
 10
6.177421952103955
 20
9.994661429120875
 30
0.0
 11
6.241012477945728
 21
9.975825057214816
 31
0.0
  0
LINE
  5
DE
330
17
100
AcDbEntity
  8
CUT
100
AcDbLine
 10
6.241012477945728
 20
9.975825057214816
 30
0.0
 11
6.291780943966965
 21
9.959914115015847
 31
0.0
  0
LINE
  5
DF
330
17
100
AcDbEntity
  8
CUT
100
AcDbLine
 10
6.291780943966965
 20
9.959914115015847
 30
0.0
 11
6.35405767883417
 21
9.939322029289798
 31
0.0
  0
LINE
  5
E0
330
17
100
AcDbEntity
  8
CUT
100
AcDbLine
 10
4.750000000000002
 20
11.080539792432702
 30
0.0
 11
4.750000000000002
 21
10.539577603327436
 31
0.0
  0
LINE
  5
E1
330
17
100
AcDbEntity
  8
CUT
100
AcDbLine
 10
6.35405767883417
 20
9.939322029289798
 30
0.0
 11
4.750000000000002
 21
10.539577603327436
 31
0.0
  0
LINE
  5
E2
330
17
100
AcDbEntity
  8
CUT
100
AcDbLine
 10
5.510000000000014
 20
10.796215677040736
 30
0.0
 11
4.750000000000002
 21
11.080539792432702
 31
0.0
  0
LINE
  5
E3
330
17
100
AcDbEntity
  8
CUT
100
AcDbLine
 10
5.509999999999999
 20
14.099468140150549
 30
0.0
 11
5.510000000000007
 21
12.718323003148265
 31
0.0
  0
LINE
  5
E4
330
17
100
AcDbEntity
  8
CUT
100
AcDbLine
 10
8.843455587105364
 20
12.852386809884589
 30
0.0
 11
5.509999999999999
 21
14.099468140150549
 31
0.0
  0
LINE
  5
E5
330
17
100
AcDbEntity
  8
CUT
100
AcDbLine
 10
5.510000000000007
 20
12.718323003148265
 30
0.0
 11
8.843455587105389
 21
11.471241672882297
 31
0.0
  0
LINE
  5
E6
330
17
100
AcDbEntity
  8
CUT
100
AcDbLine
 10
5.51000000000001
 20
12.177360814043011
 30
0.0
 11
5.510000000000014
 21
10.796215677040736
 31
0.0
  0
LINE
  5
E7
330
17
100
AcDbEntity
  8
CUT
100
AcDbLine
 10
8.8434555871054
 20
10.930279483777058
 30
0.0
 11
5.51000000000001
 21
12.177360814043011
 31
0.0
  0
LINE
  5
E8
330
17
100
AcDbEntity
  8
CUT
100
AcDbLine
 10
5.510000000000014
 20
10.796215677040736
 30
0.0
 11
8.84345558710541
 21
9.549134346774776
 31
0.0
  0
LINE
  5
E9
330
17
100
AcDbEntity
  8
CUT
100
AcDbLine
 10
6.35405767883417
 20
9.939322029289798
 30
0.0
 11
6.565450657378219
 21
9.860248441450423
 31
0.0
  0
LINE
  5
EA
330
17
100
AcDbEntity
  8
CUT
100
AcDbLine
 10
6.565450657378219
 20
9.860248441450423
 30
0.0
 11
6.538625948371169
 21
9.871140697031286
 31
0.0
  0
LINE
  5
EB
330
17
100
AcDbEntity
  8
CUT
100
AcDbLine
 10
6.538625948371169
 20
9.871140697031286
 30
0.0
 11
6.477498570761545
 21
9.894928706759714
 31
0.0
  0
LINE
  5
EC
330
17
100
AcDbEntity
  8
CUT
100
AcDbLine
 10
6.477498570761545
 20
9.894928706759714
 30
0.0
 11
6.415969703367855
 21
9.917658074932167
 31
0.0
  0
LINE
  5
ED
330
17
100
AcDbEntity
  8
CUT
100
AcDbLine
 10
6.415969703367855
 20
9.917658074932167
 30
0.0
 11
6.35405767883417
 21
9.939322029289798
 31
0.0
  0
LINE
  5
EE
330
17
100
AcDbEntity
  8
CUT
100
AcDbLine
 10
6.565450657378219
 20
9.860248441450423
 30
0.0
 11
6.614778288258408
 21
9.839785427674698
 31
0.0
  0
LINE
  5
EF
330
17
100
AcDbEntity
  8
CUT
100
AcDbLine
 10
6.614778288258408
 20
9.839785427674698
 30
0.0
 11
6.659603507211793
 21
9.820417416951532
 31
0.0
  0
LINE
  5
F0
330
17
100
AcDbEntity
  8
CUT
100
AcDbLine
 10
6.659603507211793
 20
9.820417416951532
 30
0.0
 11
6.735949394613775
 21
9.785836575294752
 31
0.0
  0
LINE
  5
F1
330
17
100
AcDbEntity
  8
CUT
100
AcDbLine
 10
6.735949394613775
 20
9.785836575294752
 30
0.0
 11
6.778758208646641
 21
9.765548682584337
 31
0.0
  0
LINE
  5
F2
330
17
100
AcDbEntity
  8
CUT
100
AcDbLine
 10
6.778758208646641
 20
9.765548682584337
 30
0.0
 11
6.8376075236751355
 21
9.736580012940284
 31
0.0
  0
LINE
  5
F3
330
17
100
AcDbEntity
  8
CUT
100
AcDbLine
 10
6.8376075236751355
 20
9.736580012940284
 30
0.0
 11
6.9139919385854345
 21
9.697067837419496
 31
0.0
  0
LINE
  5
F4
330
17
100
AcDbEntity
  8
CUT
100
AcDbLine
 10
6.9139919385854345
 20
9.697067837419496
 30
0.0
 11
6.953762416247115
 21
9.675617222513024
 31
0.0
  0
LINE
  5
F5
330
17
100
AcDbEntity
  8
CUT
100
AcDbLine
 10
6.953762416247115
 20
9.675617222513024
 30
0.0
 11
7.011033385217538
 21
9.64364126571017
 31
0.0
  0
LINE
  5
F6
330
17
100
AcDbEntity
  8
CUT
100
AcDbLine
 10
7.011033385217538
 20
9.64364126571017
 30
0.0
 11
7.087144684657197
 21
9.599102727223697
 31
0.0
  0
LINE
  5
F7
330
17
100
AcDbEntity
  8
CUT
100
AcDbLine
 10
7.087144684657197
 20
9.599102727223697
 30
0.0
 11
7.123877053636163
 21
9.576747862575681
 31
0.0
  0
LINE
  5
F8
330
17
100
AcDbEntity
  8
CUT
100
AcDbLine
 10
7.123877053636163
 20
9.576747862575681
 30
0.0
 11
7.179416131096892
 21
9.541850347261832
 31
0.0
  0
LINE
  5
F9
330
17
100
AcDbEntity
  8
CUT
100
AcDbLine
 10
7.179416131096892
 20
9.541850347261832
 30
0.0
 11
7.234344581089963
 21
9.505999390766533
 31
0.0
  0
LINE
  5
FA
330
17
100
AcDbEntity
  8
CUT
100
AcDbLine
 10
7.234344581089963
 20
9.505999390766533
 30
0.0
 11
7.254933033187777
 21
9.492209760264936
 31
0.0
  0
LINE
  5
FB
330
17
100
AcDbEntity
  8
CUT
100
AcDbLine
 10
7.254933033187777
 20
9.492209760264936
 30
0.0
 11
7.309590458132899
 21
9.454644752853984
 31
0.0
  0
LINE
  5
FC
330
17
100
AcDbEntity
  8
CUT
100
AcDbLine
 10
7.309590458132899
 20
9.454644752853984
 30
0.0
 11
7.342304321338871
 21
9.431480162573573
 31
0.0
  0
LINE
  5
FD
330
17
100
AcDbEntity
  8
CUT
100
AcDbLine
 10
7.342304321338871
 20
9.431480162573573
 30
0.0
 11
7.395303444783
 21
9.392834094022904
 31
0.0
  0
LINE
  5
FE
330
17
100
AcDbEntity
  8
CUT
100
AcDbLine
 10
7.395303444783
 20
9.392834094022904
 30
0.0
 11
7.447627616720222
 21
9.353278983969293
 31
0.0
  0
LINE
  5
FF
330
17
100
AcDbEntity
  8
CUT
100
AcDbLine
 10
7.447627616720222
 20
9.353278983969293
 30
0.0
 11
7.469513606236386
 21
9.336307848261475
 31
0.0
  0
LINE
  5
100
330
17
100
AcDbEntity
  8
CUT
100
AcDbLine
 10
7.469513606236386
 20
9.336307848261475
 30
0.0
 11
7.499261247063135
 21
9.312826617933663
 31
0.0
  0
LINE
  5
101
330
17
100
AcDbEntity
  8
CUT
100
AcDbLine
 10
7.499261247063135
 20
9.312826617933663
 30
0.0
 11
7.550188951472528
 21
9.271489048776072
 31
0.0
  0
LINE
  5
102
330
17
100
AcDbEntity
  8
CUT
100
AcDbLine
 10
7.550188951472528
 20
9.271489048776072
 30
0.0
 11
7.600395555941179
 21
9.22927859310455
 31
0.0
  0
LINE
  5
103
330
17
100
AcDbEntity
  8
CUT
100
AcDbLine
 10
7.600395555941179
 20
9.22927859310455
 30
0.0
 11
7.623024310162783
 21
9.209763389402587
 31
0.0
  0
LINE
  5
104
330
17
100
AcDbEntity
  8
CUT
100
AcDbLine
 10
7.623024310162783
 20
9.209763389402587
 30
0.0
 11
7.649866101314975
 21
9.186207827605335
 31
0.0
  0
LINE
  5
105
330
17
100
AcDbEntity
  8
CUT
100
AcDbLine
 10
7.649866101314975
 20
9.186207827605335
 30
0.0
 11
7.698585847750022
 21
9.142289585295629
 31
0.0
  0
LINE
  5
106
330
17
100
AcDbEntity
  8
CUT
100
AcDbLine
 10
7.698585847750022
 20
9.142289585295629
 30
0.0
 11
7.74654027910441
 21
9.097536951699981
 31
0.0
  0
LINE
  5
107
330
17
100
AcDbEntity
  8
CUT
100
AcDbLine
 10
7.74654027910441
 20
9.097536951699981
 30
0.0
 11
7.769701807743024
 21
9.075358225843054
 31
0.0
  0
LINE
  5
108
330
17
100
AcDbEntity
  8
CUT
100
AcDbLine
 10
7.769701807743024
 20
9.075358225843054
 30
0.0
 11
7.793715107263327
 21
9.051963260951416
 31
0.0
  0
LINE
  5
109
330
17
100
AcDbEntity
  8
CUT
100
AcDbLine
 10
7.793715107263327
 20
9.051963260951416
 30
0.0
 11
7.840096276396227
 21
9.005582091818518
 31
0.0
  0
LINE
  5
10A
330
17
100
AcDbEntity
  8
CUT
100
AcDbLine
 10
7.840096276396227
 20
9.005582091818518
 30
0.0
 11
7.8856699671447945
 21
8.958407263659602
 31
0.0
  0
LINE
  5
10B
330
17
100
AcDbEntity
  8
CUT
100
AcDbLine
 10
7.8856699671447945
 20
8.958407263659602
 30
0.0
 11
7.909144066151672
 21
8.933460752793806
 31
0.0
  0
LINE
  5
10C
330
17
100
AcDbEntity
  8
CUT
100
AcDbLine
 10
7.909144066151672
 20
8.933460752793806
 30
0.0
 11
7.930422600740446
 21
8.910452832305216
 31
0.0
  0
LINE
  5
10D
330
17
100
AcDbEntity
  8
CUT
100
AcDbLine
 10
7.930422600740446
 20
8.910452832305216
 30
0.0
 11
7.974340843050151
 21
8.86173308587017
 31
0.0
  0
LINE
  5
10E
330
17
100
AcDbEntity
  8
CUT
100
AcDbLine
 10
7.974340843050151
 20
8.86173308587017
 30
0.0
 11
8.017411608549368
 21
8.812262540496377
 31
0.0
  0
LINE
  5
10F
330
17
100
AcDbEntity
  8
CUT
100
AcDbLine
 10
8.017411608549368
 20
8.812262540496377
 30
0.0
 11
8.040968883850942
 21
8.784459901365297
 31
0.0
  0
LINE
  5
110
330
17
100
AcDbEntity
  8
CUT
100
AcDbLine
 10
8.040968883850942
 20
8.784459901365297
 30
0.0
 11
8.059622064220893
 21
8.762055936027727
 31
0.0
  0
LINE
  5
111
330
17
100
AcDbEntity
  8
CUT
100
AcDbLine
 10
8.059622064220893
 20
8.762055936027727
 30
0.0
 11
8.100959633378485
 21
8.711128231618336
 31
0.0
  0
LINE
  5
112
330
17
100
AcDbEntity
  8
CUT
100
AcDbLine
 10
8.100959633378485
 20
8.711128231618336
 30
0.0
 11
8.141411999414117
 21
8.659494601275423
 31
0.0
  0
LINE
  5
113
330
17
100
AcDbEntity
  8
CUT
100
AcDbLine
 10
8.141411999414117
 20
8.659494601275423
 30
0.0
 11
8.164814938178553
 21
8.62876407253437
 31
0.0
  0
LINE
  5
114
330
17
100
AcDbEntity
  8
CUT
100
AcDbLine
 10
8.164814938178553
 20
8.62876407253437
 30
0.0
 11
8.18096710946773
 21
8.607170429338202
 31
0.0
  0
LINE
  5
115
330
17
100
AcDbEntity
  8
CUT
100
AcDbLine
 10
8.18096710946773
 20
8.607170429338202
 30
0.0
 11
8.2196131780184
 21
8.554171305894075
 31
0.0
  0
LINE
  5
116
330
17
100
AcDbEntity
  8
CUT
100
AcDbLine
 10
8.2196131780184
 20
8.554171305894075
 30
0.0
 11
8.257338690395875
 21
8.500513022133537
 31
0.0
  0
LINE
  5
117
330
17
100
AcDbEntity
  8
CUT
100
AcDbLine
 10
8.257338690395875
 20
8.500513022133537
 30
0.0
 11
8.280342775708021
 21
8.466800017745566
 31
0.0
  0
LINE
  5
118
330
17
100
AcDbEntity
  8
CUT
100
AcDbLine
 10
8.280342775708021
 20
8.466800017745566
 30
0.0
 11
8.294132406211364
 21
8.44621156564517
 31
0.0
  0
LINE
  5
119
330
17
100
AcDbEntity
  8
CUT
100
AcDbLine
 10
8.294132406211364
 20
8.44621156564517
 30
0.0
 11
8.329983362706667
 21
8.391283115652099
 31
0.0
  0
LINE
  5
11A
330
17
100
AcDbEntity
  8
CUT
100
AcDbLine
 10
8.329983362706667
 20
8.391283115652099
 30
0.0
 11
8.36488087802052
 21
8.335744038191372
 31
0.0
  0
LINE
  5
11B
330
17
100
AcDbEntity
  8
CUT
100
AcDbLine
 10
8.36488087802052
 20
8.335744038191372
 30
0.0
 11
8.38723574266693
 21
8.299011669215078
 31
0.0
  0
LINE
  5
11C
330
17
100
AcDbEntity
  8
CUT
100
AcDbLine
 10
8.38723574266693
 20
8.299011669215078
 30
0.0
 11
8.431774281155011
 21
8.22290036977275
 31
0.0
  0
LINE
  5
11D
330
17
100
AcDbEntity
  8
CUT
100
AcDbLine
 10
8.431774281155011
 20
8.22290036977275
 30
0.0
 11
8.463750237957868
 21
8.165629400802327
 31
0.0
  0
LINE
  5
11E
330
17
100
AcDbEntity
  8
CUT
100
AcDbLine
 10
8.463750237957868
 20
8.165629400802327
 30
0.0
 11
8.485200852862873
 21
8.125858923143399
 31
0.0
  0
LINE
  5
11F
330
17
100
AcDbEntity
  8
CUT
100
AcDbLine
 10
8.485200852862873
 20
8.125858923143399
 30
0.0
 11
8.524713028385131
 21
8.04947450823035
 31
0.0
  0
LINE
  5
120
330
17
100
AcDbEntity
  8
CUT
100
AcDbLine
 10
8.524713028385131
 20
8.04947450823035
 30
0.0
 11
8.553681698029186
 21
7.990625193201858
 31
0.0
  0
LINE
  5
121
330
17
100
AcDbEntity
  8
CUT
100
AcDbLine
 10
8.553681698029186
 20
7.990625193201858
 30
0.0
 11
8.573969590738281
 21
7.947816379171816
 31
0.0
  0
LINE
  5
122
330
17
100
AcDbEntity
  8
CUT
100
AcDbLine
 10
8.573969590738281
 20
7.947816379171816
 30
0.0
 11
8.608550432396386
 21
7.871470491767011
 31
0.0
  0
LINE
  5
123
330
17
100
AcDbEntity
  8
CUT
100
AcDbLine
 10
8.608550432396386
 20
7.871470491767011
 30
0.0
 11
8.634434148874874
 21
7.811200607732525
 31
0.0
  0
LINE
  5
124
330
17
100
AcDbEntity
  8
CUT
100
AcDbLine
 10
8.634434148874874
 20
7.811200607732525
 30
0.0
 11
8.653298647352878
 21
7.765372039537766
 31
0.0
  0
LINE
  5
125
330
17
100
AcDbEntity
  8
CUT
100
AcDbLine
 10
8.653298647352878
 20
7.765372039537766
 30
0.0
 11
8.684091628482733
 21
7.686646779298114
 31
0.0
  0
LINE
  5
126
330
17
100
AcDbEntity
  8
CUT
100
AcDbLine
 10
9.5
 20
8.762551882127722
 30
0.0
 11
6.565450657378219
 21
9.860248441450423
 31
0.0
  0
LINE
  5
127
330
17
100
AcDbEntity
  8
CUT
100
AcDbLine
 10
8.684091628482733
 20
7.686646779298114
 30
0.0
 11
8.70579109037703
 21
7.627836687923078
 31
0.0
  0
LINE
  5
128
330
17
100
AcDbEntity
  8
CUT
100
AcDbLine
 10
8.70579109037703
 20
7.627836687923078
 30
0.0
 11
8.722970587276578
 21
7.5790259714946355
 31
0.0
  0
LINE
  5
129
330
17
100
AcDbEntity
  8
CUT
100
AcDbLine
 10
8.722970587276578
 20
7.5790259714946355
 30
0.0
 11
8.744014761920788
 21
7.516131563182285
 31
0.0
  0
LINE
  5
12A
330
17
100
AcDbEntity
  8
CUT
100
AcDbLine
 10
8.744014761920788
 20
7.516131563182285
 30
0.0
 11
8.763958072658772
 21
7.4528794625039305
 31
0.0
  0
LINE
  5
12B
330
17
100
AcDbEntity
  8
CUT
100
AcDbLine
 10
8.763958072658772
 20
7.4528794625039305
 30
0.0
 11
8.782794444564884
 21
7.389288936662173
 31
0.0
  0
LINE
  5
12C
330
17
100
AcDbEntity
  8
CUT
100
AcDbLine
 10
8.782794444564884
 20
7.389288936662173
 30
0.0
 11
8.800518139897768
 21
7.3253793559472005
 31
0.0
  0
LINE
  5
12D
330
17
100
AcDbEntity
  8
CUT
100
AcDbLine
 10
8.800518139897768
 20
7.3253793559472005
 30
0.0
 11
8.819578906219002
 21
7.251266508847841
 31
0.0
  0
LINE
  5
12E
330
17
100
AcDbEntity
  8
CUT
100
AcDbLine
 10
8.819578906219002
 20
7.251266508847841
 30
0.0
 11
8.834726066290935
 21
7.187446533589116
 31
0.0
  0
LINE
  5
12F
330
17
100
AcDbEntity
  8
CUT
100
AcDbLine
 10
8.834726066290935
 20
7.187446533589116
 30
0.0
 11
8.846960882787883
 21
7.131931409665238
 31
0.0
  0
LINE
  5
130
330
17
100
AcDbEntity
  8
CUT
100
AcDbLine
 10
8.846960882787883
 20
7.131931409665238
 30
0.0
 11
8.857457401774065
 21
7.080826603181073
 31
0.0
  0
LINE
  5
131
330
17
100
AcDbEntity
  8
CUT
100
AcDbLine
 10
9.5
 20
7.381406745125441
 30
0.0
 11
8.684091628482733
 21
7.686646779298114
 31
0.0
  0
LINE
  5
132
330
17
100
AcDbEntity
  8
CUT
100
AcDbLine
 10
8.843455587105364
 20
12.852386809884589
 30
0.0
 11
8.843455587105389
 21
11.471241672882297
 31
0.0
  0
LINE
  5
133
330
17
100
AcDbEntity
  8
CUT
100
AcDbLine
 10
9.5
 20
12.606766534342743
 30
0.0
 11
8.843455587105364
 21
12.852386809884589
 31
0.0
  0
LINE
  5
134
330
17
100
AcDbEntity
  8
CUT
100
AcDbLine
 10
8.843455587105389
 20
11.471241672882297
 30
0.0
 11
9.5
 21
11.225621397340463
 31
0.0
  0
LINE
  5
135
330
17
100
AcDbEntity
  8
CUT
100
AcDbLine
 10
8.8434555871054
 20
10.930279483777058
 30
0.0
 11
8.84345558710541
 21
9.549134346774776
 31
0.0
  0
LINE
  5
136
330
17
100
AcDbEntity
  8
CUT
100
AcDbLine
 10
9.5
 20
10.684659208235237
 30
0.0
 11
8.8434555871054
 21
10.930279483777058
 31
0.0
  0
LINE
  5
137
330
17
100
AcDbEntity
  8
CUT
100
AcDbLine
 10
8.84345558710541
 20
9.549134346774776
 30
0.0
 11
9.5
 21
9.303514071232948
 31
0.0
  0
LINE
  5
138
330
17
100
AcDbEntity
  8
CUT
100
AcDbLine
 10
8.857457401774065
 20
7.080826603181073
 30
0.0
 11
8.872269461445896
 21
7.001730059692173
 31
0.0
  0
LINE
  5
139
330
17
100
AcDbEntity
  8
CUT
100
AcDbLine
 10
8.872269461445896
 20
7.001730059692173
 30
0.0
 11
8.883215694261073
 21
6.936317951710756
 31
0.0
  0
LINE
  5
13A
330
17
100
AcDbEntity
  8
CUT
100
AcDbLine
 10
8.883215694261073
 20
6.936317951710756
 30
0.0
 11
8.893018661217562
 21
6.870724768206169
 31
0.0
  0
LINE
  5
13B
330
17
100
AcDbEntity
  8
CUT
100
AcDbLine
 10
8.893018661217562
 20
6.870724768206169
 30
0.0
 11
8.901675376236666
 21
6.804970489497521
 31
0.0
  0
LINE
  5
13C
330
17
100
AcDbEntity
  8
CUT
100
AcDbLine
 10
8.901675376236666
 20
6.804970489497521
 30
0.0
 11
8.909183202399127
 21
6.739075144975082
 31
0.0
  0
LINE
  5
13D
330
17
100
AcDbEntity
  8
CUT
100
AcDbLine
 10
8.909183202399127
 20
6.739075144975082
 30
0.0
 11
8.91553985274837
 21
6.673058806999139
 31
0.0
  0
LINE
  5
13E
330
17
100
AcDbEntity
  8
CUT
100
AcDbLine
 10
8.91553985274837
 20
6.673058806999139
 30
0.0
 11
8.920743390987122
 21
6.606941584785751
 31
0.0
  0
LINE
  5
13F
330
17
100
AcDbEntity
  8
CUT
100
AcDbLine
 10
8.920743390987122
 20
6.606941584785751
 30
0.0
 11
8.924906034185744
 21
6.538560125515102
 31
0.0
  0
LINE
  5
140
330
17
100
AcDbEntity
  8
CUT
100
AcDbLine
 10
8.924906034185744
 20
6.538560125515102
 30
0.0
 11
8.927735734094078
 21
6.473028312639996
 31
0.0
  0
LINE
  5
141
330
17
100
AcDbEntity
  8
CUT
100
AcDbLine
 10
8.927735734094078
 20
6.473028312639996
 30
0.0
 11
8.929421241594232
 21
6.408186129019859
 31
0.0
  0
LINE
  5
142
330
17
100
AcDbEntity
  8
CUT
100
AcDbLine
 10
8.929421241594232
 20
6.408186129019859
 30
0.0
 11
8.930000000000009
 21
6.341866984558225
 31
0.0
  0
LINE
  5
143
330
17
100
AcDbEntity
  8
CUT
100
AcDbLine
 10
8.930000000000009
 20
6.341866984558225
 30
0.0
 11
8.930000000000012
 21
5.672542505561909
 31
0.0
  0
LINE
  5
144
330
17
100
AcDbEntity
  8
CUT
100
AcDbLine
 10
9.5
 20
6.840444556020208
 30
0.0
 11
8.857457401774065
 21
7.080826603181073
 31
0.0
  0
LINE
  5
145
330
17
100
AcDbEntity
  8
CUT
100
AcDbLine
 10
8.930000000000012
 20
5.672542505561909
 30
0.0
 11
8.930000000000012
 21
5.131580316456673
 31
0.0
  0
LINE
  5
146
330
17
100
AcDbEntity
  8
CUT
100
AcDbLine
 10
8.930000000000012
 20
5.131580316456673
 30
0.0
 11
8.930000000000014
 21
3.7504351794543775
 31
0.0
  0
LINE
  5
147
330
17
100
AcDbEntity
  8
CUT
100
AcDbLine
 10
9.5
 20
4.918337229912695
 30
0.0
 11
8.930000000000012
 21
5.131580316456673
 31
0.0
  0
LINE
  5
148
330
17
100
AcDbEntity
  8
CUT
100
AcDbLine
 10
9.5
 20
5.459299419017925
 30
0.0
 11
8.930000000000012
 21
5.672542505561909
 31
0.0
  0
LINE
  5
149
330
17
100
AcDbEntity
  8
CUT
100
AcDbLine
 10
8.930000000000014
 20
3.7504351794543775
 30
0.0
 11
8.930000000000014
 21
3.2094729903491404
 31
0.0
  0
LINE
  5
14A
330
17
100
AcDbEntity
  8
CUT
100
AcDbLine
 10
8.930000000000014
 20
3.2094729903491404
 30
0.0
 11
8.930000000000016
 21
1.7967349612528116
 31
0.0
  0
LINE
  5
14B
330
17
100
AcDbEntity
  8
CUT
100
AcDbLine
 10
9.5
 20
2.9962299038051827
 30
0.0
 11
8.930000000000014
 21
3.2094729903491404
 31
0.0
  0
LINE
  5
14C
330
17
100
AcDbEntity
  8
CUT
100
AcDbLine
 10
9.5
 20
3.537192092910413
 30
0.0
 11
8.930000000000014
 21
3.7504351794543775
 31
0.0
  0
LINE
  5
14D
330
17
100
AcDbEntity
  8
CUT
100
AcDbLine
 10
8.930000000000016
 20
1.7967349612528116
 30
0.0
 11
8.930000000000016
 21
1.2557727721475869
 31
0.0
  0
LINE
  5
14E
330
17
100
AcDbEntity
  8
CUT
100
AcDbLine
 10
8.930000000000016
 20
1.2557727721475869
 30
0.0
 11
8.93000000000002
 21
0.5066666666666727
 31
0.0
  0
LINE
  5
14F
330
17
100
AcDbEntity
  8
CUT
100
AcDbLine
 10
9.5
 20
1.0425296856036212
 30
0.0
 11
8.930000000000016
 21
1.2557727721475869
 31
0.0
  0
LINE
  5
150
330
17
100
AcDbEntity
  8
CUT
100
AcDbLine
 10
9.5
 20
1.6150847668028987
 30
0.0
 11
8.930000000000016
 21
1.7967349612528116
 31
0.0
  0
LINE
  5
151
330
17
100
AcDbEntity
  8
CUT
100
AcDbLine
 10
9.5
 20
1.0425296856036212
 30
0.0
 11
9.5
 21
0.5066666666666736
 31
0.0
  0
LINE
  5
152
330
17
100
AcDbEntity
  8
CUT
100
AcDbLine
 10
9.5
 20
0.5066666666666736
 30
0.0
 11
8.93000000000002
 21
0.5066666666666727
 31
0.0
  0
LINE
  5
153
330
17
100
AcDbEntity
  8
CUT
100
AcDbLine
 10
9.5
 20
1.6150847668028987
 30
0.0
 11
9.5
 21
1.0425296856036212
 31
0.0
  0
LINE
  5
154
330
17
100
AcDbEntity
  8
CUT
100
AcDbLine
 10
9.5
 20
2.9962299038051827
 30
0.0
 11
9.5
 21
1.6150847668028987
 31
0.0
  0
LINE
  5
155
330
17
100
AcDbEntity
  8
CUT
100
AcDbLine
 10
9.5
 20
3.537192092910413
 30
0.0
 11
9.5
 21
2.9962299038051827
 31
0.0
  0
LINE
  5
156
330
17
100
AcDbEntity
  8
CUT
100
AcDbLine
 10
9.5
 20
4.918337229912695
 30
0.0
 11
9.5
 21
3.537192092910413
 31
0.0
  0
LINE
  5
157
330
17
100
AcDbEntity
  8
CUT
100
AcDbLine
 10
9.5
 20
5.459299419017925
 30
0.0
 11
9.5
 21
4.918337229912695
 31
0.0
  0
LINE
  5
158
330
17
100
AcDbEntity
  8
CUT
100
AcDbLine
 10
9.5
 20
6.840444556020208
 30
0.0
 11
9.5
 21
5.459299419017925
 31
0.0
  0
LINE
  5
159
330
17
100
AcDbEntity
  8
CUT
100
AcDbLine
 10
9.5
 20
7.381406745125441
 30
0.0
 11
9.5
 21
6.840444556020208
 31
0.0
  0
LINE
  5
15A
330
17
100
AcDbEntity
  8
CUT
100
AcDbLine
 10
9.5
 20
8.762551882127722
 30
0.0
 11
9.5
 21
7.381406745125441
 31
0.0
  0
LINE
  5
15B
330
17
100
AcDbEntity
  8
CUT
100
AcDbLine
 10
9.5
 20
9.303514071232948
 30
0.0
 11
9.5
 21
8.762551882127722
 31
0.0
  0
LINE
  5
15C
330
17
100
AcDbEntity
  8
CUT
100
AcDbLine
 10
9.5
 20
10.684659208235237
 30
0.0
 11
9.5
 21
9.303514071232948
 31
0.0
  0
LINE
  5
15D
330
17
100
AcDbEntity
  8
CUT
100
AcDbLine
 10
9.5
 20
11.225621397340463
 30
0.0
 11
9.5
 21
10.684659208235237
 31
0.0
  0
LINE
  5
15E
330
17
100
AcDbEntity
  8
CUT
100
AcDbLine
 10
9.5
 20
12.606766534342743
 30
0.0
 11
9.5
 21
11.225621397340463
 31
0.0
  0
LINE
  5
15F
330
17
100
AcDbEntity
  8
CUT
100
AcDbLine
 10
1.076666666666667
 20
0.5066666666666666
 30
0.0
 11
8.423333333333352
 21
0.506666666666672
 31
0.0
  0
LINE
  5
160
330
17
100
AcDbEntity
  8
CUT
100
AcDbLine
 10
8.423333333333352
 20
0.506666666666672
 30
0.0
 11
8.42333333333318
 21
6.3418669846149935
 31
0.0
  0
LINE
  5
161
330
17
100
AcDbEntity
  8
CUT
100
AcDbLine
 10
8.42333333333318
 20
6.3418669846149935
 30
0.0
 11
8.42283174271386
 21
6.399343576481106
 31
0.0
  0
LINE
  5
162
330
17
100
AcDbEntity
  8
CUT
100
AcDbLine
 10
8.42283174271386
 20
6.399343576481106
 30
0.0
 11
8.421327123647359
 21
6.4568026604205295
 31
0.0
  0
LINE
  5
163
330
17
100
AcDbEntity
  8
CUT
100
AcDbLine
 10
8.421327123647359
 20
6.4568026604205295
 30
0.0
 11
8.418819934455211
 21
6.5142267338396795
 31
0.0
  0
LINE
  5
164
330
17
100
AcDbEntity
  8
CUT
100
AcDbLine
 10
8.418819934455211
 20
6.5142267338396795
 30
0.0
 11
8.415486216778783
 21
6.569077820126679
 31
0.0
  0
LINE
  5
165
330
17
100
AcDbEntity
  8
CUT
100
AcDbLine
 10
8.415486216778783
 20
6.569077820126679
 30
0.0
 11
8.41107495367575
 21
6.625753568961942
 31
0.0
  0
LINE
  5
166
330
17
100
AcDbEntity
  8
CUT
100
AcDbLine
 10
8.41107495367575
 20
6.625753568961942
 30
0.0
 11
8.405292108740182
 21
6.686114056972166
 31
0.0
  0
LINE
  5
167
330
17
100
AcDbEntity
  8
CUT
100
AcDbLine
 10
8.405292108740182
 20
6.686114056972166
 30
0.0
 11
8.3987853260652
 21
6.743223355557542
 31
0.0
  0
LINE
  5
168
330
17
100
AcDbEntity
  8
CUT
100
AcDbLine
 10
8.3987853260652
 20
6.743223355557542
 30
0.0
 11
8.391282839714489
 21
6.800210397104287
 31
0.0
  0
LINE
  5
169
330
17
100
AcDbEntity
  8
CUT
100
AcDbLine
 10
8.391282839714489
 20
6.800210397104287
 30
0.0
 11
8.383671385162682
 21
6.851442260464428
 31
0.0
  0
LINE
  5
16A
330
17
100
AcDbEntity
  8
CUT
100
AcDbLine
 10
8.383671385162682
 20
6.851442260464428
 30
0.0
 11
8.37439107049558
 21
6.907526799402371
 31
0.0
  0
LINE
  5
16B
330
17
100
AcDbEntity
  8
CUT
100
AcDbLine
 10
8.37439107049558
 20
6.907526799402371
 30
0.0
 11
8.362825524144121
 21
6.970264609380128
 31
0.0
  0
LINE
  5
16C
330
17
100
AcDbEntity
  8
CUT
100
AcDbLine
 10
8.362825524144121
 20
6.970264609380128
 30
0.0
 11
8.352933476641354
 21
7.01917359871812
 31
0.0
  0
LINE
  5
16D
330
17
100
AcDbEntity
  8
CUT
100
AcDbLine
 10
8.352933476641354
 20
7.01917359871812
 30
0.0
 11
8.34076259078548
 21
7.074702593717897
 31
0.0
  0
LINE
  5
16E
330
17
100
AcDbEntity
  8
CUT
100
AcDbLine
 10
8.34076259078548
 20
7.074702593717897
 30
0.0
 11
8.325507258523226
 21
7.138596427445747
 31
0.0
  0
LINE
  5
16F
330
17
100
AcDbEntity
  8
CUT
100
AcDbLine
 10
8.325507258523226
 20
7.138596427445747
 30
0.0
 11
8.31355477182968
 21
7.185089054477957
 31
0.0
  0
LINE
  5
170
330
17
100
AcDbEntity
  8
CUT
100
AcDbLine
 10
8.31355477182968
 20
7.185089054477957
 30
0.0
 11
8.298525945351601
 21
7.239913630380501
 31
0.0
  0
LINE
  5
171
330
17
100
AcDbEntity
  8
CUT
100
AcDbLine
 10
8.298525945351601
 20
7.239913630380501
 30
0.0
 11
8.279430329623905
 21
7.304744465488437
 31
0.0
  0
LINE
  5
172
330
17
100
AcDbEntity
  8
CUT
100
AcDbLine
 10
8.279430329623905
 20
7.304744465488437
 30
0.0
 11
8.265640846399293
 21
7.348743802659889
 31
0.0
  0
LINE
  5
173
330
17
100
AcDbEntity
  8
CUT
100
AcDbLine
 10
8.265640846399293
 20
7.348743802659889
 30
0.0
 11
8.247794372103384
 21
7.402716972878131
 31
0.0
  0
LINE
  5
174
330
17
100
AcDbEntity
  8
CUT
100
AcDbLine
 10
8.247794372103384
 20
7.402716972878131
 30
0.0
 11
8.224721031105505
 21
7.468253323284743
 31
0.0
  0
LINE
  5
175
330
17
100
AcDbEntity
  8
CUT
100
AcDbLine
 10
8.224721031105505
 20
7.468253323284743
 30
0.0
 11
8.204591537914174
 21
7.5220920984338235
 31
0.0
  0
LINE
  5
176
330
17
100
AcDbEntity
  8
CUT
100
AcDbLine
 10
8.204591537914174
 20
7.5220920984338235
 30
0.0
 11
8.18352549435618
 21
7.575571365580127
 31
0.0
  0
LINE
  5
177
330
17
100
AcDbEntity
  8
CUT
100
AcDbLine
 10
8.18352549435618
 20
7.575571365580127
 30
0.0
 11
8.167176262358238
 21
7.615289457975508
 31
0.0
  0
LINE
  5
178
330
17
100
AcDbEntity
  8
CUT
100
AcDbLine
 10
8.167176262358238
 20
7.615289457975508
 30
0.0
 11
8.144743708076883
 21
7.667523357472061
 31
0.0
  0
LINE
  5
179
330
17
100
AcDbEntity
  8
CUT
100
AcDbLine
 10
8.144743708076883
 20
7.667523357472061
 30
0.0
 11
8.114773645288931
 21
7.73368979326034
 31
0.0
  0
LINE
  5
17A
330
17
100
AcDbEntity
  8
CUT
100
AcDbLine
 10
8.114773645288931
 20
7.73368979326034
 30
0.0
 11
8.097190804958641
 21
7.77079076538226
 31
0.0
  0
LINE
  5
17B
330
17
100
AcDbEntity
  8
CUT
100
AcDbLine
 10
8.097190804958641
 20
7.77079076538226
 30
0.0
 11
8.072084624600464
 21
7.82179350507362
 31
0.0
  0
LINE
  5
17C
330
17
100
AcDbEntity
  8
CUT
100
AcDbLine
 10
8.072084624600464
 20
7.82179350507362
 30
0.0
 11
8.037840739129207
 21
7.887993331366396
 31
0.0
  0
LINE
  5
17D
330
17
100
AcDbEntity
  8
CUT
100
AcDbLine
 10
8.037840739129207
 20
7.887993331366396
 30
0.0
 11
8.01925020623017
 21
7.922461078635998
 31
0.0
  0
LINE
  5
17E
330
17
100
AcDbEntity
  8
CUT
100
AcDbLine
 10
8.01925020623017
 20
7.922461078635998
 30
0.0
 11
7.991537710334363
 21
7.972095918410363
 31
0.0
  0
LINE
  5
17F
330
17
100
AcDbEntity
  8
CUT
100
AcDbLine
 10
7.991537710334363
 20
7.972095918410363
 30
0.0
 11
7.952937643625246
 21
8.038059044625866
 31
0.0
  0
LINE
  5
180
330
17
100
AcDbEntity
  8
CUT
100
AcDbLine
 10
7.952937643625246
 20
8.038059044625866
 30
0.0
 11
7.933563427617805
 21
8.069893764373168
 31
0.0
  0
LINE
  5
181
330
17
100
AcDbEntity
  8
CUT
100
AcDbLine
 10
7.933563427617805
 20
8.069893764373168
 30
0.0
 11
7.903318914345801
 21
8.118027631505797
 31
0.0
  0
LINE
  5
182
330
17
100
AcDbEntity
  8
CUT
100
AcDbLine
 10
7.903318914345801
 20
8.118027631505797
 30
0.0
 11
7.860297072260277
 21
8.183475613349653
 31
0.0
  0
LINE
  5
183
330
17
100
AcDbEntity
  8
CUT
100
AcDbLine
 10
7.860297072260277
 20
8.183475613349653
 30
0.0
 11
7.840360198343117
 21
8.212693550456374
 31
0.0
  0
LINE
  5
184
330
17
100
AcDbEntity
  8
CUT
100
AcDbLine
 10
7.840360198343117
 20
8.212693550456374
 30
0.0
 11
7.807664754282642
 21
8.259197396382172
 31
0.0
  0
LINE
  5
185
330
17
100
AcDbEntity
  8
CUT
100
AcDbLine
 10
7.807664754282642
 20
8.259197396382172
 30
0.0
 11
7.7601729464010365
 21
8.323844460830678
 31
0.0
  0
LINE
  5
186
330
17
100
AcDbEntity
  8
CUT
100
AcDbLine
 10
7.7601729464010365
 20
8.323844460830678
 30
0.0
 11
7.739890399492266
 21
8.350477585712675
 31
0.0
  0
LINE
  5
187
330
17
100
AcDbEntity
  8
CUT
100
AcDbLine
 10
7.739890399492266
 20
8.350477585712675
 30
0.0
 11
7.704831682261386
 21
8.395226732009863
 31
0.0
  0
LINE
  5
188
330
17
100
AcDbEntity
  8
CUT
100
AcDbLine
 10
7.704831682261386
 20
8.395226732009863
 30
0.0
 11
7.669005788991474
 21
8.439364075831337
 31
0.0
  0
LINE
  5
189
330
17
100
AcDbEntity
  8
CUT
100
AcDbLine
 10
7.669005788991474
 20
8.439364075831337
 30
0.0
 11
7.652839699316957
 21
8.458780845814925
 31
0.0
  0
LINE
  5
18A
330
17
100
AcDbEntity
  8
CUT
100
AcDbLine
 10
7.652839699316957
 20
8.458780845814925
 30
0.0
 11
7.632423394076154
 21
8.482876466370831
 31
0.0
  0
LINE
  5
18B
330
17
100
AcDbEntity
  8
CUT
100
AcDbLine
 10
7.632423394076154
 20
8.482876466370831
 30
0.0
 11
7.595095397310168
 21
8.52575093902812
 31
0.0
  0
LINE
  5
18C
330
17
100
AcDbEntity
  8
CUT
100
AcDbLine
 10
7.595095397310168
 20
8.52575093902812
 30
0.0
 11
7.557032920641756
 21
8.567974719271826
 31
0.0
  0
LINE
  5
18D
330
17
100
AcDbEntity
  8
CUT
100
AcDbLine
 10
7.557032920641756
 20
8.567974719271826
 30
0.0
 11
7.538591523977648
 21
8.587914917050467
 31
0.0
  0
LINE
  5
18E
330
17
100
AcDbEntity
  8
CUT
100
AcDbLine
 10
7.538591523977648
 20
8.587914917050467
 30
0.0
 11
7.499025742427204
 21
8.629608551288749
 31
0.0
  0
LINE
  5
18F
330
17
100
AcDbEntity
  8
CUT
100
AcDbLine
 10
7.499025742427204
 20
8.629608551288749
 30
0.0
 11
7.458738332686366
 21
8.67060531728397
 31
0.0
  0
LINE
  5
190
330
17
100
AcDbEntity
  8
CUT
100
AcDbLine
 10
7.458738332686366
 20
8.67060531728397
 30
0.0
 11
7.438553092961593
 21
8.6906170907652
 31
0.0
  0
LINE
  5
191
330
17
100
AcDbEntity
  8
CUT
100
AcDbLine
 10
7.438553092961593
 20
8.6906170907652
 30
0.0
 11
7.397668241890534
 21
8.730114289413956
 31
0.0
  0
LINE
  5
192
330
17
100
AcDbEntity
  8
CUT
100
AcDbLine
 10
7.397668241890534
 20
8.730114289413956
 30
0.0
 11
7.3561077347167325
 21
8.768899905196852
 31
0.0
  0
LINE
  5
193
330
17
100
AcDbEntity
  8
CUT
100
AcDbLine
 10
7.3561077347167325
 20
8.768899905196852
 30
0.0
 11
7.333670130254247
 21
8.789290609812687
 31
0.0
  0
LINE
  5
194
330
17
100
AcDbEntity
  8
CUT
100
AcDbLine
 10
7.333670130254247
 20
8.789290609812687
 30
0.0
 11
7.313883954473027
 21
8.80696238186526
 31
0.0
  0
LINE
  5
195
330
17
100
AcDbEntity
  8
CUT
100
AcDbLine
 10
7.313883954473027
 20
8.80696238186526
 30
0.0
 11
7.271009481815738
 21
8.844290378631248
 31
0.0
  0
LINE
  5
196
330
17
100
AcDbEntity
  8
CUT
100
AcDbLine
 10
7.271009481815738
 20
8.844290378631248
 30
0.0
 11
7.227497091276242
 21
8.880872773546567
 31
0.0
  0
LINE
  5
197
330
17
100
AcDbEntity
  8
CUT
100
AcDbLine
 10
7.227497091276242
 20
8.880872773546567
 30
0.0
 11
7.202561821170473
 21
8.901267684303056
 31
0.0
  0
LINE
  5
198
330
17
100
AcDbEntity
  8
CUT
100
AcDbLine
 10
7.202561821170473
 20
8.901267684303056
 30
0.0
 11
7.18335974745477
 21
8.91669866681648
 31
0.0
  0
LINE
  5
199
330
17
100
AcDbEntity
  8
CUT
100
AcDbLine
 10
7.18335974745477
 20
8.91669866681648
 30
0.0
 11
7.138610601157581
 21
8.951757384047358
 31
0.0
  0
LINE
  5
19A
330
17
100
AcDbEntity
  8
CUT
100
AcDbLine
 10
7.138610601157581
 20
8.951757384047358
 30
0.0
 11
7.093262985478657
 21
8.986038479427155
 31
0.0
  0
LINE
  5
19B
330
17
100
AcDbEntity
  8
CUT
100
AcDbLine
 10
7.093262985478657
 20
8.986038479427155
 30
0.0
 11
7.065772764197008
 21
9.00622961937734
 31
0.0
  0
LINE
  5
19C
330
17
100
AcDbEntity
  8
CUT
100
AcDbLine
 10
7.065772764197008
 20
9.00622961937734
 30
0.0
 11
7.0008265659012805
 21
9.05222718289821
 31
0.0
  0
LINE
  5
19D
330
17
100
AcDbEntity
  8
CUT
100
AcDbLine
 10
7.0008265659012805
 20
9.05222718289821
 30
0.0
 11
6.953765303611363
 21
9.084115069938301
 31
0.0
  0
LINE
  5
19E
330
17
100
AcDbEntity
  8
CUT
100
AcDbLine
 10
6.953765303611363
 20
9.084115069938301
 30
0.0
 11
6.9061606469507035
 21
9.115185898900894
 31
0.0
  0
LINE
  5
19F
330
17
100
AcDbEntity
  8
CUT
100
AcDbLine
 10
6.9061606469507035
 20
9.115185898900894
 30
0.0
 11
6.858026779818073
 21
9.145430412172898
 31
0.0
  0
LINE
  5
1A0
330
17
100
AcDbEntity
  8
CUT
100
AcDbLine
 10
6.858026779818073
 20
9.145430412172898
 30
0.0
 11
6.826192060019274
 21
9.164804628211346
 31
0.0
  0
LINE
  5
1A1
330
17
100
AcDbEntity
  8
CUT
100
AcDbLine
 10
6.826192060019274
 20
9.164804628211346
 30
0.0
 11
6.760228933855269
 21
9.203404694889455
 31
0.0
  0
LINE
  5
1A2
330
17
100
AcDbEntity
  8
CUT
100
AcDbLine
 10
6.760228933855269
 20
9.203404694889455
 30
0.0
 11
6.7105940940809035
 21
9.231117190785262
 31
0.0
  0
LINE
  5
1A3
330
17
100
AcDbEntity
  8
CUT
100
AcDbLine
 10
6.7105940940809035
 20
9.231117190785262
 30
0.0
 11
6.6761263467582594
 21
9.249707723712579
 31
0.0
  0
LINE
  5
1A4
330
17
100
AcDbEntity
  8
CUT
100
AcDbLine
 10
6.6761263467582594
 20
9.249707723712579
 30
0.0
 11
6.609926520518525
 21
9.283951609155555
 31
0.0
  0
LINE
  5
1A5
330
17
100
AcDbEntity
  8
CUT
100
AcDbLine
 10
6.609926520518525
 20
9.283951609155555
 30
0.0
 11
6.558923780827166
 21
9.309057789513734
 31
0.0
  0
LINE
  5
1A6
330
17
100
AcDbEntity
  8
CUT
100
AcDbLine
 10
6.558923780827166
 20
9.309057789513734
 30
0.0
 11
6.521822808650803
 21
9.326640629869496
 31
0.0
  0
LINE
  5
1A7
330
17
100
AcDbEntity
  8
CUT
100
AcDbLine
 10
6.521822808650803
 20
9.326640629869496
 30
0.0
 11
6.455656372916966
 21
9.356610692631973
 31
0.0
  0
LINE
  5
1A8
330
17
100
AcDbEntity
  8
CUT
100
AcDbLine
 10
6.455656372916966
 20
9.356610692631973
 30
0.0
 11
6.403422473420413
 21
9.379043246913328
 31
0.0
  0
LINE
  5
1A9
330
17
100
AcDbEntity
  8
CUT
100
AcDbLine
 10
6.403422473420413
 20
9.379043246913328
 30
0.0
 11
6.363704380969341
 21
9.39539247893387
 31
0.0
  0
LINE
  5
1AA
330
17
100
AcDbEntity
  8
CUT
100
AcDbLine
 10
6.363704380969341
 20
9.39539247893387
 30
0.0
 11
6.297832094660091
 21
9.421187143799067
 31
0.0
  0
LINE
  5
1AB
330
17
100
AcDbEntity
  8
CUT
100
AcDbLine
 10
6.297832094660091
 20
9.421187143799067
 30
0.0
 11
6.244507076252228
 21
9.440885929548527
 31
0.0
  0
LINE
  5
1AC
330
17
100
AcDbEntity
  8
CUT
100
AcDbLine
 10
6.244507076252228
 20
9.440885929548527
 30
0.0
 11
6.202204455333459
 21
9.455774826866298
 31
0.0
  0
LINE
  5
1AD
330
17
100
AcDbEntity
  8
CUT
100
AcDbLine
 10
6.202204455333459
 20
9.455774826866298
 30
0.0
 11
6.136876818104795
 21
9.477507830954385
 31
0.0
  0
LINE
  5
1AE
330
17
100
AcDbEntity
  8
CUT
100
AcDbLine
 10
6.136876818104795
 20
9.477507830954385
 30
0.0
 11
6.082603647007103
 21
9.494420035045007
 31
0.0
  0
LINE
  5
1AF
330
17
100
AcDbEntity
  8
CUT
100
AcDbLine
 10
6.082603647007103
 20
9.494420035045007
 30
0.0
 11
6.037765691813594
 21
9.50762216984823
 31
0.0
  0
LINE
  5
1B0
330
17
100
AcDbEntity
  8
CUT
100
AcDbLine
 10
6.037765691813594
 20
9.50762216984823
 30
0.0
 11
5.973222069922862
 21
9.52542175638477
 31
0.0
  0
LINE
  5
1B1
330
17
100
AcDbEntity
  8
CUT
100
AcDbLine
 10
5.973222069922862
 20
9.52542175638477
 30
0.0
 11
5.918146254387031
 21
9.539502036611564
 31
0.0
  0
LINE
  5
1B2
330
17
100
AcDbEntity
  8
CUT
100
AcDbLine
 10
5.918146254387031
 20
9.539502036611564
 30
0.0
 11
5.870838805630545
 21
9.550792397916418
 31
0.0
  0
LINE
  5
1B3
330
17
100
AcDbEntity
  8
CUT
100
AcDbLine
 10
5.870838805630545
 20
9.550792397916418
 30
0.0
 11
5.807306614163025
 21
9.564800461196445
 31
0.0
  0
LINE
  5
1B4
330
17
100
AcDbEntity
  8
CUT
100
AcDbLine
 10
5.807306614163025
 20
9.564800461196445
 30
0.0
 11
5.7515758143582785
 21
9.576011067840396
 31
0.0
  0
LINE
  5
1B5
330
17
100
AcDbEntity
  8
CUT
100
AcDbLine
 10
5.7515758143582785
 20
9.576011067840396
 30
0.0
 11
5.695659814847276
 21
9.586258055050672
 31
0.0
  0
LINE
  5
1B6
330
17
100
AcDbEntity
  8
CUT
100
AcDbLine
 10
5.695659814847276
 20
9.586258055050672
 30
0.0
 11
5.639575275909333
 21
9.59553836971777
 31
0.0
  0
LINE
  5
1B7
330
17
100
AcDbEntity
  8
CUT
100
AcDbLine
 10
5.639575275909333
 20
9.59553836971777
 30
0.0
 11
5.5883434124897216
 21
9.603149824278075
 31
0.0
  0
LINE
  5
1B8
330
17
100
AcDbEntity
  8
CUT
100
AcDbLine
 10
5.5883434124897216
 20
9.603149824278075
 30
0.0
 11
5.5313563709428415
 21
9.610652310627753
 31
0.0
  0
LINE
  5
1B9
330
17
100
AcDbEntity
  8
CUT
100
AcDbLine
 10
5.5313563709428415
 20
9.610652310627753
 30
0.0
 11
5.474247072357347
 21
9.617159093301694
 31
0.0
  0
LINE
  5
1BA
330
17
100
AcDbEntity
  8
CUT
100
AcDbLine
 10
5.474247072357347
 20
9.617159093301694
 30
0.0
 11
5.413886584406846
 21
9.62294193823084
 31
0.0
  0
LINE
  5
1BB
330
17
100
AcDbEntity
  8
CUT
100
AcDbLine
 10
5.413886584406846
 20
9.62294193823084
 30
0.0
 11
5.357210835571584
 21
9.627353201333875
 31
0.0
  0
LINE
  5
1BC
330
17
100
AcDbEntity
  8
CUT
100
AcDbLine
 10
5.357210835571584
 20
9.627353201333875
 30
0.0
 11
5.302359749224614
 21
9.630686919013598
 31
0.0
  0
LINE
  5
1BD
330
17
100
AcDbEntity
  8
CUT
100
AcDbLine
 10
5.302359749224614
 20
9.630686919013598
 30
0.0
 11
5.244935675805419
 21
9.6331941082047
 31
0.0
  0
LINE
  5
1BE
330
17
100
AcDbEntity
  8
CUT
100
AcDbLine
 10
5.244935675805419
 20
9.6331941082047
 30
0.0
 11
5.187476591865968
 21
9.634698727270157
 31
0.0
  0
LINE
  5
1BF
330
17
100
AcDbEntity
  8
CUT
100
AcDbLine
 10
5.187476591865968
 20
9.634698727270157
 30
0.0
 11
5.130000000000006
 21
9.635200317888433
 31
0.0
  0
LINE
  5
1C0
330
17
100
AcDbEntity
  8
CUT
100
AcDbLine
 10
5.130000000000006
 20
9.635200317888433
 30
0.0
 11
4.369999999999999
 21
9.635200317888433
 31
0.0
  0
LINE
  5
1C1
330
17
100
AcDbEntity
  8
CUT
100
AcDbLine
 10
4.369999999999999
 20
9.635200317888433
 30
0.0
 11
4.313154955951586
 21
9.634709690396297
 31
0.0
  0
LINE
  5
1C2
330
17
100
AcDbEntity
  8
CUT
100
AcDbLine
 10
4.313154955951586
 20
9.634709690396297
 30
0.0
 11
4.256326848993094
 21
9.633237954103292
 31
0.0
  0
LINE
  5
1C3
330
17
100
AcDbEntity
  8
CUT
100
AcDbLine
 10
4.256326848993094
 20
9.633237954103292
 30
0.0
 11
4.199532611168003
 21
9.63078554751607
 31
0.0
  0
LINE
  5
1C4
330
17
100
AcDbEntity
  8
CUT
100
AcDbLine
 10
4.199532611168003
 20
9.63078554751607
 30
0.0
 11
4.142789164428422
 21
9.627353201333875
 31
0.0
  0
LINE
  5
1C5
330
17
100
AcDbEntity
  8
CUT
100
AcDbLine
 10
4.142789164428422
 20
9.627353201333875
 30
0.0
 11
4.086113415593159
 21
9.62294193823084
 31
0.0
  0
LINE
  5
1C6
330
17
100
AcDbEntity
  8
CUT
100
AcDbLine
 10
4.086113415593159
 20
9.62294193823084
 30
0.0
 11
4.0295222513103
 21
9.617553072551267
 31
0.0
  0
LINE
  5
1C7
330
17
100
AcDbEntity
  8
CUT
100
AcDbLine
 10
4.0295222513103
 20
9.617553072551267
 30
0.0
 11
3.9730325330258016
 21
9.611188209918023
 31
0.0
  0
LINE
  5
1C8
330
17
100
AcDbEntity
  8
CUT
100
AcDbLine
 10
3.9730325330258016
 20
9.611188209918023
 30
0.0
 11
3.916661091959592
 21
9.603849246754141
 31
0.0
  0
LINE
  5
1C9
330
17
100
AcDbEntity
  8
CUT
100
AcDbLine
 10
3.916661091959592
 20
9.603849246754141
 30
0.0
 11
3.860424724090673
 21
9.59553836971777
 31
0.0
  0
LINE
  5
1CA
330
17
100
AcDbEntity
  8
CUT
100
AcDbLine
 10
3.860424724090673
 20
9.59553836971777
 30
0.0
 11
3.80434018515273
 21
9.586258055050672
 31
0.0
  0
LINE
  5
1CB
330
17
100
AcDbEntity
  8
CUT
100
AcDbLine
 10
3.80434018515273
 20
9.586258055050672
 30
0.0
 11
3.748424185641727
 21
9.576011067840398
 31
0.0
  0
LINE
  5
1CC
330
17
100
AcDbEntity
  8
CUT
100
AcDbLine
 10
3.748424185641727
 20
9.576011067840398
 30
0.0
 11
3.6926933858369813
 21
9.564800461196445
 31
0.0
  0
LINE
  5
1CD
330
17
100
AcDbEntity
  8
CUT
100
AcDbLine
 10
3.6926933858369813
 20
9.564800461196445
 30
0.0
 11
3.6371643908372033
 21
9.552629575340571
 31
0.0
  0
LINE
  5
1CE
330
17
100
AcDbEntity
  8
CUT
100
AcDbLine
 10
3.6371643908372033
 20
9.552629575340571
 30
0.0
 11
3.581853745612976
 21
9.539502036611564
 31
0.0
  0
LINE
  5
1CF
330
17
100
AcDbEntity
  8
CUT
100
AcDbLine
 10
3.581853745612976
 20
9.539502036611564
 30
0.0
 11
3.5267779300771434
 21
9.525421756384768
 31
0.0
  0
LINE
  5
1D0
330
17
100
AcDbEntity
  8
CUT
100
AcDbLine
 10
3.5267779300771434
 20
9.525421756384768
 30
0.0
 11
3.4719533541746004
 21
9.510392929906692
 31
0.0
  0
LINE
  5
1D1
330
17
100
AcDbEntity
  8
CUT
100
AcDbLine
 10
3.4719533541746004
 20
9.510392929906692
 30
0.0
 11
3.4173963529929026
 21
9.494420035045007
 31
0.0
  0
LINE
  5
1D2
330
17
100
AcDbEntity
  8
CUT
100
AcDbLine
 10
3.4173963529929026
 20
9.494420035045007
 30
0.0
 11
3.3631231818952134
 21
9.477507830954385
 31
0.0
  0
LINE
  5
1D3
330
17
100
AcDbEntity
  8
CUT
100
AcDbLine
 10
3.3631231818952134
 20
9.477507830954385
 30
0.0
 11
3.3091500116769703
 21
9.459661356658474
 31
0.0
  0
LINE
  5
1D4
330
17
100
AcDbEntity
  8
CUT
100
AcDbLine
 10
3.3091500116769703
 20
9.459661356658474
 30
0.0
 11
3.2554929237477785
 21
9.440885929548525
 31
0.0
  0
LINE
  5
1D5
330
17
100
AcDbEntity
  8
CUT
100
AcDbLine
 10
3.2554929237477785
 20
9.440885929548525
 30
0.0
 11
3.2021679053399157
 21
9.421187143799067
 31
0.0
  0
LINE
  5
1D6
330
17
100
AcDbEntity
  8
CUT
100
AcDbLine
 10
3.2021679053399157
 20
9.421187143799067
 30
0.0
 11
3.1491908447449104
 21
9.400570868701097
 31
0.0
  0
LINE
  5
1D7
330
17
100
AcDbEntity
  8
CUT
100
AcDbLine
 10
3.1491908447449104
 20
9.400570868701097
 30
0.0
 11
3.096577526579593
 21
9.379043246913328
 31
0.0
  0
LINE
  5
1D8
330
17
100
AcDbEntity
  8
CUT
100
AcDbLine
 10
3.096577526579593
 20
9.379043246913328
 30
0.0
 11
3.0443436270830397
 21
9.356610692631973
 31
0.0
  0
LINE
  5
1D9
330
17
100
AcDbEntity
  8
CUT
100
AcDbLine
 10
3.0443436270830397
 20
9.356610692631973
 30
0.0
 11
2.9925047094458046
 21
9.33327988967961
 31
0.0
  0
LINE
  5
1DA
330
17
100
AcDbEntity
  8
CUT
100
AcDbLine
 10
2.9925047094458046
 20
9.33327988967961
 30
0.0
 11
2.9410762191728415
 21
9.309057789513734
 31
0.0
  0
LINE
  5
1DB
330
17
100
AcDbEntity
  8
CUT
100
AcDbLine
 10
2.9410762191728415
 20
9.309057789513734
 30
0.0
 11
2.890073479481481
 21
9.283951609155553
 31
0.0
  0
LINE
  5
1DC
330
17
100
AcDbEntity
  8
CUT
100
AcDbLine
 10
2.890073479481481
 20
9.283951609155553
 30
0.0
 11
2.839511686735855
 21
9.25796882903967
 31
0.0
  0
LINE
  5
1DD
330
17
100
AcDbEntity
  8
CUT
100
AcDbLine
 10
2.839511686735855
 20
9.25796882903967
 30
0.0
 11
2.7894059059191023
 21
9.23111719078526
 31
0.0
  0
LINE
  5
1DE
330
17
100
AcDbEntity
  8
CUT
100
AcDbLine
 10
2.7894059059191023
 20
9.23111719078526
 30
0.0
 11
2.739771066144738
 21
9.203404694889455
 31
0.0
  0
LINE
  5
1DF
330
17
100
AcDbEntity
  8
CUT
100
AcDbLine
 10
2.739771066144738
 20
9.203404694889455
 30
0.0
 11
2.690621956208486
 21
9.174839598343562
 31
0.0
  0
LINE
  5
1E0
330
17
100
AcDbEntity
  8
CUT
100
AcDbLine
 10
2.690621956208486
 20
9.174839598343562
 30
0.0
 11
2.641973220181933
 21
9.145430412172896
 31
0.0
  0
LINE
  5
1E1
330
17
100
AcDbEntity
  8
CUT
100
AcDbLine
 10
2.641973220181933
 20
9.145430412172896
 30
0.0
 11
2.593839353049303
 21
9.115185898900892
 31
0.0
  0
LINE
  5
1E2
330
17
100
AcDbEntity
  8
CUT
100
AcDbLine
 10
2.593839353049303
 20
9.115185898900892
 30
0.0
 11
2.546234696388644
 21
9.0841150699383
 31
0.0
  0
LINE
  5
1E3
330
17
100
AcDbEntity
  8
CUT
100
AcDbLine
 10
2.546234696388644
 20
9.0841150699383
 30
0.0
 11
2.4991734340987266
 21
9.052227182898209
 31
0.0
  0
LINE
  5
1E4
330
17
100
AcDbEntity
  8
CUT
100
AcDbLine
 10
2.4991734340987266
 20
9.052227182898209
 30
0.0
 11
2.4526695881729275
 21
9.019531738837733
 31
0.0
  0
LINE
  5
1E5
330
17
100
AcDbEntity
  8
CUT
100
AcDbLine
 10
2.4526695881729275
 20
9.019531738837733
 30
0.0
 11
2.4067370145213514
 21
8.986038479427153
 31
0.0
  0
LINE
  5
1E6
330
17
100
AcDbEntity
  8
CUT
100
AcDbLine
 10
2.4067370145213514
 20
8.986038479427153
 30
0.0
 11
2.3613893988424266
 21
8.951757384047356
 31
0.0
  0
LINE
  5
1E7
330
17
100
AcDbEntity
  8
CUT
100
AcDbLine
 10
2.3613893988424266
 20
8.951757384047356
 30
0.0
 11
2.316640252545237
 21
8.91669866681648
 31
0.0
  0
LINE
  5
1E8
330
17
100
AcDbEntity
  8
CUT
100
AcDbLine
 10
2.316640252545237
 20
8.91669866681648
 30
0.0
 11
2.272502908723764
 21
8.880872773546566
 31
0.0
  0
LINE
  5
1E9
330
17
100
AcDbEntity
  8
CUT
100
AcDbLine
 10
2.272502908723764
 20
8.880872773546566
 30
0.0
 11
2.2289905181842684
 21
8.844290378631246
 31
0.0
  0
LINE
  5
1EA
330
17
100
AcDbEntity
  8
CUT
100
AcDbLine
 10
2.2289905181842684
 20
8.844290378631246
 30
0.0
 11
2.18611604552698
 21
8.80696238186526
 31
0.0
  0
LINE
  5
1EB
330
17
100
AcDbEntity
  8
CUT
100
AcDbLine
 10
2.18611604552698
 20
8.80696238186526
 30
0.0
 11
2.143892265283275
 21
8.76889990519685
 31
0.0
  0
LINE
  5
1EC
330
17
100
AcDbEntity
  8
CUT
100
AcDbLine
 10
2.143892265283275
 20
8.76889990519685
 30
0.0
 11
2.1023317581094734
 21
8.730114289413953
 31
0.0
  0
LINE
  5
1ED
330
17
100
AcDbEntity
  8
CUT
100
AcDbLine
 10
2.1023317581094734
 20
8.730114289413953
 30
0.0
 11
2.0614469070384143
 21
8.690617090765198
 31
0.0
  0
LINE
  5
1EE
330
17
100
AcDbEntity
  8
CUT
100
AcDbLine
 10
2.0614469070384143
 20
8.690617090765198
 30
0.0
 11
2.021249893789902
 21
8.650420077516683
 31
0.0
  0
LINE
  5
1EF
330
17
100
AcDbEntity
  8
CUT
100
AcDbLine
 10
2.021249893789902
 20
8.650420077516683
 30
0.0
 11
1.9817526951411464
 21
8.609535226445624
 31
0.0
  0
LINE
  5
1F0
330
17
100
AcDbEntity
  8
CUT
100
AcDbLine
 10
1.9817526951411464
 20
8.609535226445624
 30
0.0
 11
1.9429670793582503
 21
8.567974719271822
 31
0.0
  0
LINE
  5
1F1
330
17
100
AcDbEntity
  8
CUT
100
AcDbLine
 10
1.9429670793582503
 20
8.567974719271822
 30
0.0
 11
1.90490460268984
 21
8.525750939028118
 31
0.0
  0
LINE
  5
1F2
330
17
100
AcDbEntity
  8
CUT
100
AcDbLine
 10
1.90490460268984
 20
8.525750939028118
 30
0.0
 11
1.867576605923853
 21
8.48287646637083
 31
0.0
  0
LINE
  5
1F3
330
17
100
AcDbEntity
  8
CUT
100
AcDbLine
 10
1.867576605923853
 20
8.48287646637083
 30
0.0
 11
1.830994211008534
 21
8.439364075831335
 31
0.0
  0
LINE
  5
1F4
330
17
100
AcDbEntity
  8
CUT
100
AcDbLine
 10
1.830994211008534
 20
8.439364075831335
 30
0.0
 11
1.795168317738621
 21
8.39522673200986
 31
0.0
  0
LINE
  5
1F5
330
17
100
AcDbEntity
  8
CUT
100
AcDbLine
 10
1.795168317738621
 20
8.39522673200986
 30
0.0
 11
1.760109600507742
 21
8.350477585712673
 31
0.0
  0
LINE
  5
1F6
330
17
100
AcDbEntity
  8
CUT
100
AcDbLine
 10
1.760109600507742
 20
8.350477585712673
 30
0.0
 11
1.7258285051279463
 21
8.305129970033748
 31
0.0
  0
LINE
  5
1F7
330
17
100
AcDbEntity
  8
CUT
100
AcDbLine
 10
1.7258285051279463
 20
8.305129970033748
 30
0.0
 11
1.6923352457173662
 21
8.25919739638217
 31
0.0
  0
LINE
  5
1F8
330
17
100
AcDbEntity
  8
CUT
100
AcDbLine
 10
1.6923352457173662
 20
8.25919739638217
 30
0.0
 11
1.6596398016568916
 21
8.212693550456374
 31
0.0
  0
LINE
  5
1F9
330
17
100
AcDbEntity
  8
CUT
100
AcDbLine
 10
1.6596398016568916
 20
8.212693550456374
 30
0.0
 11
1.6277519146168
 21
8.165632288166455
 31
0.0
  0
LINE
  5
1FA
330
17
100
AcDbEntity
  8
CUT
100
AcDbLine
 10
1.6277519146168
 20
8.165632288166455
 30
0.0
 11
1.596681085654206
 21
8.118027631505795
 31
0.0
  0
LINE
  5
1FB
330
17
100
AcDbEntity
  8
CUT
100
AcDbLine
 10
1.596681085654206
 20
8.118027631505795
 30
0.0
 11
1.5664365723822031
 21
8.069893764373166
 31
0.0
  0
LINE
  5
1FC
330
17
100
AcDbEntity
  8
CUT
100
AcDbLine
 10
1.5664365723822031
 20
8.069893764373166
 30
0.0
 11
1.537027386211538
 21
8.021245028346614
 31
0.0
  0
LINE
  5
1FD
330
17
100
AcDbEntity
  8
CUT
100
AcDbLine
 10
1.537027386211538
 20
8.021245028346614
 30
0.0
 11
1.5084622896656448
 21
7.9720959184103615
 31
0.0
  0
LINE
  5
1FE
330
17
100
AcDbEntity
  8
CUT
100
AcDbLine
 10
1.5084622896656448
 20
7.9720959184103615
 30
0.0
 11
1.4807497937698375
 21
7.922461078635996
 31
0.0
  0
LINE
  5
1FF
330
17
100
AcDbEntity
  8
CUT
100
AcDbLine
 10
1.4807497937698375
 20
7.922461078635996
 30
0.0
 11
1.4538981555154284
 21
7.872355297819245
 31
0.0
  0
LINE
  5
200
330
17
100
AcDbEntity
  8
CUT
100
AcDbLine
 10
1.4538981555154284
 20
7.872355297819245
 30
0.0
 11
1.4279153753995457
 21
7.821793505073619
 31
0.0
  0
LINE
  5
201
330
17
100
AcDbEntity
  8
CUT
100
AcDbLine
 10
1.4279153753995457
 20
7.821793505073619
 30
0.0
 11
1.4028091950413664
 21
7.770790765382258
 31
0.0
  0
LINE
  5
202
330
17
100
AcDbEntity
  8
CUT
100
AcDbLine
 10
1.4028091950413664
 20
7.770790765382258
 30
0.0
 11
1.3785870948754895
 21
7.719362275109294
 31
0.0
  0
LINE
  5
203
330
17
100
AcDbEntity
  8
CUT
100
AcDbLine
 10
1.3785870948754895
 20
7.719362275109294
 30
0.0
 11
1.3552562919231268
 21
7.667523357472059
 31
0.0
  0
LINE
  5
204
330
17
100
AcDbEntity
  8
CUT
100
AcDbLine
 10
1.3552562919231268
 20
7.667523357472059
 30
0.0
 11
1.3328237376417715
 21
7.615289457975507
 31
0.0
  0
LINE
  5
205
330
17
100
AcDbEntity
  8
CUT
100
AcDbLine
 10
1.3328237376417715
 20
7.615289457975507
 30
0.0
 11
1.3112961158540042
 21
7.562676139810189
 31
0.0
  0
LINE
  5
206
330
17
100
AcDbEntity
  8
CUT
100
AcDbLine
 10
1.3112961158540042
 20
7.562676139810189
 30
0.0
 11
1.2906798407560334
 21
7.509699079215182
 31
0.0
  0
LINE
  5
207
330
17
100
AcDbEntity
  8
CUT
100
AcDbLine
 10
1.2906798407560334
 20
7.509699079215182
 30
0.0
 11
1.2709810550065737
 21
7.45637406080732
 31
0.0
  0
LINE
  5
208
330
17
100
AcDbEntity
  8
CUT
100
AcDbLine
 10
1.2709810550065737
 20
7.45637406080732
 30
0.0
 11
1.252205627896626
 21
7.402716972878129
 31
0.0
  0
LINE
  5
209
330
17
100
AcDbEntity
  8
CUT
100
AcDbLine
 10
1.252205627896626
 20
7.402716972878129
 30
0.0
 11
1.2343591536007148
 21
7.348743802659886
 31
0.0
  0
LINE
  5
20A
330
17
100
AcDbEntity
  8
CUT
100
AcDbLine
 10
1.2343591536007148
 20
7.348743802659886
 30
0.0
 11
1.2174469495100924
 21
7.294470631562197
 31
0.0
  0
LINE
  5
20B
330
17
100
AcDbEntity
  8
CUT
100
AcDbLine
 10
1.2174469495100924
 20
7.294470631562197
 30
0.0
 11
1.201474054648409
 21
7.239913630380499
 31
0.0
  0
LINE
  5
20C
330
17
100
AcDbEntity
  8
CUT
100
AcDbLine
 10
1.201474054648409
 20
7.239913630380499
 30
0.0
 11
1.1864452281703306
 21
7.185089054477955
 31
0.0
  0
LINE
  5
20D
330
17
100
AcDbEntity
  8
CUT
100
AcDbLine
 10
1.1864452281703306
 20
7.185089054477955
 30
0.0
 11
1.1723649479435354
 21
7.130013238942123
 31
0.0
  0
LINE
  5
20E
330
17
100
AcDbEntity
  8
CUT
100
AcDbLine
 10
1.1723649479435354
 20
7.130013238942123
 30
0.0
 11
1.159237409214528
 21
7.074702593717896
 31
0.0
  0
LINE
  5
20F
330
17
100
AcDbEntity
  8
CUT
100
AcDbLine
 10
1.159237409214528
 20
7.074702593717896
 30
0.0
 11
1.147066523358654
 21
7.019173598718117
 31
0.0
  0
LINE
  5
210
330
17
100
AcDbEntity
  8
CUT
100
AcDbLine
 10
1.147066523358654
 20
7.019173598718117
 30
0.0
 11
1.135855916714703
 21
6.9634427989133725
 31
0.0
  0
LINE
  5
211
330
17
100
AcDbEntity
  8
CUT
100
AcDbLine
 10
1.135855916714703
 20
6.9634427989133725
 30
0.0
 11
1.1256089295044294
 21
6.90752679940237
 31
0.0
  0
LINE
  5
212
330
17
100
AcDbEntity
  8
CUT
100
AcDbLine
 10
1.1256089295044294
 20
6.90752679940237
 30
0.0
 11
1.1163286148373284
 21
6.8514422604644265
 31
0.0
  0
LINE
  5
213
330
17
100
AcDbEntity
  8
CUT
100
AcDbLine
 10
1.1163286148373284
 20
6.8514422604644265
 30
0.0
 11
1.108017737800959
 21
6.795205892595507
 31
0.0
  0
LINE
  5
214
330
17
100
AcDbEntity
  8
CUT
100
AcDbLine
 10
1.108017737800959
 20
6.795205892595507
 30
0.0
 11
1.1006787746370759
 21
6.738834451529297
 31
0.0
  0
LINE
  5
215
330
17
100
AcDbEntity
  8
CUT
100
AcDbLine
 10
1.1006787746370759
 20
6.738834451529297
 30
0.0
 11
1.0943139120038323
 21
6.682344733244798
 31
0.0
  0
LINE
  5
216
330
17
100
AcDbEntity
  8
CUT
100
AcDbLine
 10
1.0943139120038323
 20
6.682344733244798
 30
0.0
 11
1.08892504632426
 21
6.62575356896194
 31
0.0
  0
LINE
  5
217
330
17
100
AcDbEntity
  8
CUT
100
AcDbLine
 10
1.08892504632426
 20
6.62575356896194
 30
0.0
 11
1.084513783221225
 21
6.569077820126676
 31
0.0
  0
LINE
  5
218
330
17
100
AcDbEntity
  8
CUT
100
AcDbLine
 10
1.084513783221225
 20
6.569077820126676
 30
0.0
 11
1.0810814370390314
 21
6.512334373387096
 31
0.0
  0
LINE
  5
219
330
17
100
AcDbEntity
  8
CUT
100
AcDbLine
 10
1.0810814370390314
 20
6.512334373387096
 30
0.0
 11
1.078629030451808
 21
6.455540135562007
 31
0.0
  0
LINE
  5
21A
330
17
100
AcDbEntity
  8
CUT
100
AcDbLine
 10
1.078629030451808
 20
6.455540135562007
 30
0.0
 11
1.077157294158803
 21
6.398712028603513
 31
0.0
  0
LINE
  5
21B
330
17
100
AcDbEntity
  8
CUT
100
AcDbLine
 10
1.077157294158803
 20
6.398712028603513
 30
0.0
 11
1.0766666666666687
 21
6.3418669845551
 31
0.0
  0
LINE
  5
21C
330
17
100
AcDbEntity
  8
CUT
100
AcDbLine
 10
1.0766666666666687
 20
6.3418669845551
 30
0.0
 11
1.076666666666667
 21
0.5066666666666666
 31
0.0
  0
ENDSEC
  0
SECTION
  2
OBJECTS
  0
DICTIONARY
  5
A
330
0
100
AcDbDictionary
281
1
  3
ACAD_COLOR
350
B
  3
ACAD_GROUP
350
C
  3
ACAD_LAYOUT
350
D
  3
ACAD_MATERIAL
350
E
  3
ACAD_MLEADERSTYLE
350
F
  3
ACAD_MLINESTYLE
350
10
  3
ACAD_PLOTSETTINGS
350
11
  3
ACAD_PLOTSTYLENAME
350
12
  3
ACAD_SCALELIST
350
14
  3
ACAD_TABLESTYLE
350
15
  3
ACAD_VISUALSTYLE
350
16
  3
EZDXF_META
350
2D
  0
DICTIONARY
  5
B
330
A
100
AcDbDictionary
281
1
  0
DICTIONARY
  5
C
330
A
100
AcDbDictionary
281
1
  0
DICTIONARY
  5
D
330
A
100
AcDbDictionary
281
1
  3
Model
350
1A
  3
Layout1
350
1E
  0
DICTIONARY
  5
E
330
A
100
AcDbDictionary
281
1
  3
ByBlock
350
1F
  3
ByLayer
350
20
  3
Global
350
21
  0
DICTIONARY
  5
F
330
A
100
AcDbDictionary
281
1
  3
Standard
350
2C
  0
DICTIONARY
  5
10
330
A
100
AcDbDictionary
281
1
  3
Standard
350
22
  0
DICTIONARY
  5
11
330
A
100
AcDbDictionary
281
1
  0
ACDBDICTIONARYWDFLT
  5
12
330
A
100
AcDbDictionary
281
1
  3
Normal
350
13
100
AcDbDictionaryWithDefault
340
13
  0
ACDBPLACEHOLDER
  5
13
330
12
  0
DICTIONARY
  5
14
330
A
100
AcDbDictionary
281
1
  0
DICTIONARY
  5
15
330
A
100
AcDbDictionary
281
1
  0
DICTIONARY
  5
16
330
A
100
AcDbDictionary
281
1
  0
LAYOUT
  5
1A
330
D
100
AcDbPlotSettings
  1

  4
A3
  6

 40
7.5
 41
20.0
 42
7.5
 43
20.0
 44
420.0
 45
297.0
 46
0.0
 47
0.0
 48
0.0
 49
0.0
140
0.0
141
0.0
142
1.0
143
1.0
 70
1024
 72
1
 73
0
 74
5
  7

 75
16
 76
0
 77
2
 78
300
147
1.0
148
0.0
149
0.0
100
AcDbLayout
  1
Model
 70
1
 71
0
 10
0.0
 20
0.0
 11
420.0
 21
297.0
 12
0.0
 22
0.0
 32
0.0
 14
1e+20
 24
1e+20
 34
1e+20
 15
-1e+20
 25
-1e+20
 35
-1e+20
146
0.0
 13
0.0
 23
0.0
 33
0.0
 16
1.0
 26
0.0
 36
0.0
 17
0.0
 27
1.0
 37
0.0
 76
1
330
17
  0
LAYOUT
  5
1E
330
D
100
AcDbPlotSettings
  1

  4
A3
  6

 40
7.5
 41
20.0
 42
7.5
 43
20.0
 44
420.0
 45
297.0
 46
0.0
 47
0.0
 48
0.0
 49
0.0
140
0.0
141
0.0
142
1.0
143
1.0
 70
0
 72
1
 73
0
 74
5
  7

 75
16
 76
0
 77
2
 78
300
147
1.0
148
0.0
149
0.0
100
AcDbLayout
  1
Layout1
 70
1
 71
1
 10
0.0
 20
0.0
 11
420.0
 21
297.0
 12
0.0
 22
0.0
 32
0.0
 14
1e+20
 24
1e+20
 34
1e+20
 15
-1e+20
 25
-1e+20
 35
-1e+20
146
0.0
 13
0.0
 23
0.0
 33
0.0
 16
1.0
 26
0.0
 36
0.0
 17
0.0
 27
1.0
 37
0.0
 76
1
330
1B
  0
MATERIAL
  5
1F
102
{ACAD_REACTORS
330
E
102
}
330
E
100
AcDbMaterial
  1
ByBlock
  2

 70
0
 40
1.0
 71
1
 41
1.0
 91
-1023410177
 42
1.0
 72
1
  3

 73
1
 74
1
 75
1
 44
0.5
 73
0
 45
1.0
 46
1.0
 77
1
  4

 78
1
 79
1
170
1
 48
1.0
171
1
  6

172
1
173
1
174
1
140
1.0
141
1.0
175
1
  7

176
1
177
1
178
1
143
1.0
179
1
  8

270
1
271
1
272
1
145
1.0
146
1.0
273
1
  9

274
1
275
1
276
1
 42
1.0
 72
1
  3

 73
1
 74
1
 75
1
 94
63
  0
MATERIAL
  5
20
102
{ACAD_REACTORS
330
E
102
}
330
E
100
AcDbMaterial
  1
ByLayer
  2

 70
0
 40
1.0
 71
1
 41
1.0
 91
-1023410177
 42
1.0
 72
1
  3

 73
1
 74
1
 75
1
 44
0.5
 73
0
 45
1.0
 46
1.0
 77
1
  4

 78
1
 79
1
170
1
 48
1.0
171
1
  6

172
1
173
1
174
1
140
1.0
141
1.0
175
1
  7

176
1
177
1
178
1
143
1.0
179
1
  8

270
1
271
1
272
1
145
1.0
146
1.0
273
1
  9

274
1
275
1
276
1
 42
1.0
 72
1
  3

 73
1
 74
1
 75
1
 94
63
  0
MATERIAL
  5
21
102
{ACAD_REACTORS
330
E
102
}
330
E
100
AcDbMaterial
  1
Global
  2

 70
0
 40
1.0
 71
1
 41
1.0
 91
-1023410177
 42
1.0
 72
1
  3

 73
1
 74
1
 75
1
 44
0.5
 73
0
 45
1.0
 46
1.0
 77
1
  4

 78
1
 79
1
170
1
 48
1.0
171
1
  6

172
1
173
1
174
1
140
1.0
141
1.0
175
1
  7

176
1
177
1
178
1
143
1.0
179
1
  8

270
1
271
1
272
1
145
1.0
146
1.0
273
1
  9

274
1
275
1
276
1
 42
1.0
 72
1
  3

 73
1
 74
1
 75
1
 94
63
  0
MLINESTYLE
  5
22
102
{ACAD_REACTORS
330
10
102
}
330
10
100
AcDbMlineStyle
  2
Standard
 70
0
  3

 62
256
 51
90.0
 52
90.0
 71
2
 49
0.5
 62
256
  6
BYLAYER
 49
-0.5
 62
256
  6
BYLAYER
  0
MLEADERSTYLE
  5
2C
102
{ACAD_REACTORS
330
F
102
}
330
F
100
AcDbMLeaderStyle
179
2
170
2
171
1
172
0
 90
2
 40
0.0
 41
0.0
173
1
 91
-1056964608
 92
-2
290
1
 42
2.0
291
1
 43
8.0
  3
Standard
 44
4.0
300

342
29
174
1
175
1
176
0
178
1
 93
-1056964608
 45
4.0
292
0
297
0
 46
4.0
 94
-1056964608
 47
1.0
 49
1.0
140
1.0
294
1
141
0.0
177
0
142
1.0
295
0
296
0
143
3.75
271
0
272
9
273
9
  0
DICTIONARY
  5
2D
330
A
100
AcDbDictionary
280
1
281
1
  3
CREATED_BY_EZDXF
350
2E
  3
WRITTEN_BY_EZDXF
350
21F
  0
DICTIONARYVAR
  5
2E
330
2D
100
DictionaryVariables
280
0
  1
1.4.4 @ 2026-08-16T16:11:57.819981+00:00
  0
DICTIONARYVAR
  5
21F
330
2D
100
DictionaryVariables
280
0
  1
1.4.4 @ 2026-08-16T16:11:57.823688+00:00
  0
ENDSEC
  0
EOF
