  0
SECTION
  2
HEADER
  9
$ACADVER
  1
AC1015
  9
$ACADMAINTVER
 70
6
  9
$DWGCODEPAGE
  3
ANSI_1252
  9
$INSBASE
 10
0.0
 20
0.0
 30
0.0
  9
$EXTMIN
 10
1e+20
 20
1e+20
 30
1e+20
  9
$EXTMAX
 10
-1e+20
 20
-1e+20
 30
-1e+20
  9
$LIMMIN
 10
0.0
 20
0.0
  9
$LIMMAX
 10
420.0
 20
297.0
  9
$ORTHOMODE
 70
0
  9
$REGENMODE
 70
1
  9
$FILLMODE
 70
1
  9
$QTEXTMODE
 70
0
  9
$MIRRTEXT
 70
1
  9
$LTSCALE
 40
1.0
  9
$ATTMODE
 70
1
  9
$TEXTSIZE
 40
2.5
  9
$TRACEWID
 40
1.0
  9
$TEXTSTYLE
  7
OpenSans
  9
$CLAYER
  8
0
  9
$CELTYPE
  6
ByLayer
  9
$CECOLOR
 62
256
  9
$CELTSCALE
 40
1.0
  9
$DISPSILH
 70
0
  9
$DIMSCALE
 40
1.0
  9
$DIMASZ
 40
0.175
  9
$DIMEXO
 40
0.125
  9
$DIMDLI
 40
3.75
  9
$DIMRND
 40
0.0
  9
$DIMDLE
 40
0.0
  9
$DIMEXE
 40
0.375
  9
$DIMTP
 40
0.0
  9
$DIMTM
 40
0.0
  9
$DIMTXT
 40
0.25
  9
$DIMCEN
 40
2.5
  9
$DIMTSZ
 40
0.0
  9
$DIMTOL
 70
0
  9
$DIMLIM
 70
0
  9
$DIMTIH
 70
0
  9
$DIMTOH
 70
0
  9
$DIMSE1
 70
0
  9
$DIMSE2
 70
0
  9
$DIMTAD
 70
1
  9
$DIMZIN
 70
12
  9
$DIMBLK
  1
ARCHTICK
  9
$DIMASO
 70
1
  9
$DIMSHO
 70
1
  9
$DIMPOST
  1

  9
$DIMAPOST
  1

  9
$DIMALT
 70
0
  9
$DIMALTD
 70
3
  9
$DIMALTF
 40
0.03937007874
  9
$DIMLFAC
 40
100.0
  9
$DIMTOFL
 70
1
  9
$DIMTVP
 40
0.0
  9
$DIMTIX
 70
0
  9
$DIMSOXD
 70
0
  9
$DIMSAH
 70
0
  9
$DIMBLK1
  1

  9
$DIMBLK2
  1

  9
$DIMSTYLE
  2
EZDXF
  9
$DIMCLRD
 70
0
  9
$DIMCLRE
 70
0
  9
$DIMCLRT
 70
0
  9
$DIMTFAC
 40
0.5
  9
$DIMGAP
 40
0.1
  9
$DIMJUST
 70
0
  9
$DIMSD1
 70
0
  9
$DIMSD2
 70
0
  9
$DIMTOLJ
 70
0
  9
$DIMTZIN
 70
8
  9
$DIMALTZ
 70
0
  9
$DIMALTTZ
 70
0
  9
$DIMUPT
 70
1
  9
$DIMDEC
 70
2
  9
$DIMTDEC
 70
2
  9
$DIMALTU
 70
2
  9
$DIMALTTD
 70
3
  9
$DIMTXSTY
  7
OpenSansCondensed-Light
  9
$DIMAUNIT
 70
0
  9
$DIMADEC
 70
2
  9
$DIMALTRND
 40
0.0
  9
$DIMAZIN
 70
3
  9
$DIMDSEP
 70
46
  9
$DIMATFIT
 70
3
  9
$DIMFRAC
 70
0
  9
$DIMLDRBLK
  1

  9
$DIMLUNIT
 70
2
  9
$DIMLWD
 70
-2
  9
$DIMLWE
 70
-2
  9
$DIMTMOVE
 70
2
  9
$LUNITS
 70
2
  9
$LUPREC
 70
4
  9
$SKETCHINC
 40
1.0
  9
$FILLETRAD
 40
10.0
  9
$AUNITS
 70
0
  9
$AUPREC
 70
2
  9
$MENU
  1
.
  9
$ELEVATION
 40
0.0
  9
$PELEVATION
 40
0.0
  9
$THICKNESS
 40
0.0
  9
$LIMCHECK
 70
0
  9
$CHAMFERA
 40
0.0
  9
$CHAMFERB
 40
0.0
  9
$CHAMFERC
 40
0.0
  9
$CHAMFERD
 40
0.0
  9
$SKPOLY
 70
0
  9
$TDCREATE
 40
2461266.8636342594
  9
$TDUCREATE
 40
2458532.153996898
  9
$TDUPDATE
 40
2461266.8636342594
  9
$TDUUPDATE
 40
2458532.1544311
  9
$TDINDWG
 40
0.0
  9
$TDUSRTIMER
 40
0.0
  9
$USRTIMER
 70
1
  9
$ANGBASE
 50
0.0
  9
$ANGDIR
 70
0
  9
$PDMODE
 70
0
  9
$PDSIZE
 40
0.0
  9
$PLINEWID
 40
0.0
  9
$SPLFRAME
 70
0
  9
$SPLINETYPE
 70
6
  9
$SPLINESEGS
 70
8
  9
$HANDSEED
  5
2E1
  9
$SURFTAB1
 70
6
  9
$SURFTAB2
 70
6
  9
$SURFTYPE
 70
6
  9
$SURFU
 70
6
  9
$SURFV
 70
6
  9
$UCSBASE
  2

  9
$UCSNAME
  2

  9
$UCSORG
 10
0.0
 20
0.0
 30
0.0
  9
$UCSXDIR
 10
1.0
 20
0.0
 30
0.0
  9
$UCSYDIR
 10
0.0
 20
1.0
 30
0.0
  9
$UCSORTHOREF
  2

  9
$UCSORTHOVIEW
 70
0
  9
$UCSORGTOP
 10
0.0
 20
0.0
 30
0.0
  9
$UCSORGBOTTOM
 10
0.0
 20
0.0
 30
0.0
  9
$UCSORGLEFT
 10
0.0
 20
0.0
 30
0.0
  9
$UCSORGRIGHT
 10
0.0
 20
0.0
 30
0.0
  9
$UCSORGFRONT
 10
0.0
 20
0.0
 30
0.0
  9
$UCSORGBACK
 10
0.0
 20
0.0
 30
0.0
  9
$PUCSBASE
  2

  9
$PUCSNAME
  2

  9
$PUCSORG
 10
0.0
 20
0.0
 30
0.0
  9
$PUCSXDIR
 10
1.0
 20
0.0
 30
0.0
  9
$PUCSYDIR
 10
0.0
 20
1.0
 30
0.0
  9
$PUCSORTHOREF
  2

  9
$PUCSORTHOVIEW
 70
0
  9
$PUCSORGTOP
 10
0.0
 20
0.0
 30
0.0
  9
$PUCSORGBOTTOM
 10
0.0
 20
0.0
 30
0.0
  9
$PUCSORGLEFT
 10
0.0
 20
0.0
 30
0.0
  9
$PUCSORGRIGHT
 10
0.0
 20
0.0
 30
0.0
  9
$PUCSORGFRONT
 10
0.0
 20
0.0
 30
0.0
  9
$PUCSORGBACK
 10
0.0
 20
0.0
 30
0.0
  9
$USERI1
 70
0
  9
$USERI2
 70
0
  9
$USERI3
 70
0
  9
$USERI4
 70
0
  9
$USERI5
 70
0
  9
$USERR1
 40
0.0
  9
$USERR2
 40
0.0
  9
$USERR3
 40
0.0
  9
$USERR4
 40
0.0
  9
$USERR5
 40
0.0
  9
$WORLDVIEW
 70
1
  9
$SHADEDGE
 70
3
  9
$SHADEDIF
 70
70
  9
$TILEMODE
 70
1
  9
$MAXACTVP
 70
64
  9
$PINSBASE
 10
0.0
 20
0.0
 30
0.0
  9
$PLIMCHECK
 70
0
  9
$PEXTMIN
 10
1e+20
 20
1e+20
 30
1e+20
  9
$PEXTMAX
 10
-1e+20
 20
-1e+20
 30
-1e+20
  9
$PLIMMIN
 10
0.0
 20
0.0
  9
$PLIMMAX
 10
420.0
 20
297.0
  9
$UNITMODE
 70
0
  9
$VISRETAIN
 70
1
  9
$PLINEGEN
 70
0
  9
$PSLTSCALE
 70
1
  9
$TREEDEPTH
 70
3020
  9
$CMLSTYLE
  2
Standard
  9
$CMLJUST
 70
0
  9
$CMLSCALE
 40
20.0
  9
$PROXYGRAPHICS
 70
1
  9
$MEASUREMENT
 70
0
  9
$CELWEIGHT
370
-1
  9
$ENDCAPS
280
0
  9
$JOINSTYLE
280
0
  9
$LWDISPLAY
290
0
  9
$INSUNITS
 70
1
  9
$HYPERLINKBASE
  1

  9
$STYLESHEET
  1

  9
$XEDIT
290
1
  9
$CEPSNTYPE
380
0
  9
$PSTYLEMODE
290
1
  9
$FINGERPRINTGUID
  2
{59E372A7-242A-4F3F-BB75-A7DD6FEB3225}
  9
$VERSIONGUID
  2
{862A469B-64E1-4889-8A53-EAAAEA250DB7}
  9
$EXTNAMES
290
1
  9
$PSVPSCALE
 40
0.0
  9
$OLESTARTUP
290
0
  0
ENDSEC
  0
SECTION
  2
CLASSES
  0
CLASS
  1
ACDBDICTIONARYWDFLT
  2
AcDbDictionaryWithDefault
  3
ObjectDBX Classes
 90
0
280
0
281
0
  0
CLASS
  1
SUN
  2
AcDbSun
  3
SCENEOE
 90
1153
280
0
281
0
  0
CLASS
  1
VISUALSTYLE
  2
AcDbVisualStyle
  3
ObjectDBX Classes
 90
4095
280
0
281
0
  0
CLASS
  1
MATERIAL
  2
AcDbMaterial
  3
ObjectDBX Classes
 90
1153
280
0
281
0
  0
CLASS
  1
SCALE
  2
AcDbScale
  3
ObjectDBX Classes
 90
1153
280
0
281
0
  0
CLASS
  1
TABLESTYLE
  2
AcDbTableStyle
  3
ObjectDBX Classes
 90
4095
280
0
281
0
  0
CLASS
  1
MLEADERSTYLE
  2
AcDbMLeaderStyle
  3
ACDB_MLEADERSTYLE_CLASS
 90
4095
280
0
281
0
  0
CLASS
  1
DICTIONARYVAR
  2
AcDbDictionaryVar
  3
ObjectDBX Classes
 90
0
280
0
281
0
  0
CLASS
  1
CELLSTYLEMAP
  2
AcDbCellStyleMap
  3
ObjectDBX Classes
 90
1152
280
0
281
0
  0
CLASS
  1
MENTALRAYRENDERSETTINGS
  2
AcDbMentalRayRenderSettings
  3
SCENEOE
 90
1024
280
0
281
0
  0
CLASS
  1
ACDBDETAILVIEWSTYLE
  2
AcDbDetailViewStyle
  3
ObjectDBX Classes
 90
1025
280
0
281
0
  0
CLASS
  1
ACDBSECTIONVIEWSTYLE
  2
AcDbSectionViewStyle
  3
ObjectDBX Classes
 90
1025
280
0
281
0
  0
CLASS
  1
RASTERVARIABLES
  2
AcDbRasterVariables
  3
ISM
 90
0
280
0
281
0
  0
CLASS
  1
ACDBPLACEHOLDER
  2
AcDbPlaceHolder
  3
ObjectDBX Classes
 90
0
280
0
281
0
  0
CLASS
  1
LAYOUT
  2
AcDbLayout
  3
ObjectDBX Classes
 90
0
280
0
281
0
  0
ENDSEC
  0
SECTION
  2
TABLES
  0
TABLE
  2
VPORT
  5
8
330
0
100
AcDbSymbolTable
 70
1
  0
VPORT
  5
23
330
8
100
AcDbSymbolTableRecord
100
AcDbViewportTableRecord
  2
*Active
 70
0
 10
0.0
 20
0.0
 11
1.0
 21
1.0
 12
0.0
 22
0.0
 13
0.0
 23
0.0
 14
0.5
 24
0.5
 15
0.5
 25
0.5
 16
0.0
 26
0.0
 36
1.0
 17
0.0
 27
0.0
 37
0.0
 40
1000.0
 41
1.34
 42
50.0
 43
0.0
 44
0.0
 50
0.0
 51
0.0
 71
0
 72
1000
 73
1
 74
3
 75
0
 76
0
 77
0
 78
0
281
0
 65
0
146
0.0
  0
ENDTAB
  0
TABLE
  2
LTYPE
  5
2
330
0
100
AcDbSymbolTable
 70
21
  0
LTYPE
  5
24
330
2
100
AcDbSymbolTableRecord
100
AcDbLinetypeTableRecord
  2
ByBlock
 70
0
  3

 72
65
 73
0
 40
0.0
  0
LTYPE
  5
25
330
2
100
AcDbSymbolTableRecord
100
AcDbLinetypeTableRecord
  2
ByLayer
 70
0
  3

 72
65
 73
0
 40
0.0
  0
LTYPE
  5
26
330
2
100
AcDbSymbolTableRecord
100
AcDbLinetypeTableRecord
  2
Continuous
 70
0
  3

 72
65
 73
0
 40
0.0
  0
LTYPE
  5
2F
330
2
100
AcDbSymbolTableRecord
100
AcDbLinetypeTableRecord
  2
CENTER
 70
0
  3
Center ____ _ ____ _ ____ _ ____ _ ____ _ ____
 72
65
 73
4
 40
5.08
 49
3.175
 74
0
 49
-0.635
 74
0
 49
0.635
 74
0
 49
-0.635
 74
0
  0
LTYPE
  5
30
330
2
100
AcDbSymbolTableRecord
100
AcDbLinetypeTableRecord
  2
CENTERX2
 70
0
  3
Center (2x) ________  __  ________  __  ________
 72
65
 73
4
 40
8.89
 49
6.35
 74
0
 49
-0.635
 74
0
 49
1.27
 74
0
 49
-0.635
 74
0
  0
LTYPE
  5
31
330
2
100
AcDbSymbolTableRecord
100
AcDbLinetypeTableRecord
  2
CENTER2
 70
0
  3
Center (.5x) ____ _ ____ _ ____ _ ____ _ ____
 72
65
 73
4
 40
2.54
 49
1.587
 74
0
 49
-0.318
 74
0
 49
0.318
 74
0
 49
-0.318
 74
0
  0
LTYPE
  5
32
330
2
100
AcDbSymbolTableRecord
100
AcDbLinetypeTableRecord
  2
DASHED
 70
0
  3
Dashed __ __ __ __ __ __ __ __ __ __ __ __ __ _
 72
65
 73
2
 40
1.524
 49
1.27
 74
0
 49
-0.254
 74
0
  0
LTYPE
  5
33
330
2
100
AcDbSymbolTableRecord
100
AcDbLinetypeTableRecord
  2
DASHEDX2
 70
0
  3
Dashed (2x) ____  ____  ____  ____  ____  ____
 72
65
 73
2
 40
3.048
 49
2.54
 74
0
 49
-0.508
 74
0
  0
LTYPE
  5
34
330
2
100
AcDbSymbolTableRecord
100
AcDbLinetypeTableRecord
  2
DASHED2
 70
0
  3
Dashed (.5x) _ _ _ _ _ _ _ _ _ _ _ _ _ _
 72
65
 73
2
 40
0.762
 49
0.635
 74
0
 49
-0.127
 74
0
  0
LTYPE
  5
35
330
2
100
AcDbSymbolTableRecord
100
AcDbLinetypeTableRecord
  2
PHANTOM
 70
0
  3
Phantom ______  __  __  ______  __  __  ______
 72
65
 73
6
 40
6.35
 49
3.175
 74
0
 49
-0.635
 74
0
 49
0.635
 74
0
 49
-0.635
 74
0
 49
0.635
 74
0
 49
-0.635
 74
0
  0
LTYPE
  5
36
330
2
100
AcDbSymbolTableRecord
100
AcDbLinetypeTableRecord
  2
PHANTOMX2
 70
0
  3
Phantom (2x)____________    ____    ____    ____________
 72
65
 73
6
 40
10.795
 49
6.35
 74
0
 49
-0.635
 74
0
 49
1.27
 74
0
 49
-0.635
 74
0
 49
1.27
 74
0
 49
-0.635
 74
0
  0
LTYPE
  5
37
330
2
100
AcDbSymbolTableRecord
100
AcDbLinetypeTableRecord
  2
PHANTOM2
 70
0
  3
Phantom (.5x) ___ _ _ ___ _ _ ___ _ _ ___ _ _ ___
 72
65
 73
6
 40
3.175
 49
1.587
 74
0
 49
-0.318
 74
0
 49
0.318
 74
0
 49
-0.318
 74
0
 49
0.318
 74
0
 49
-0.318
 74
0
  0
LTYPE
  5
38
330
2
100
AcDbSymbolTableRecord
100
AcDbLinetypeTableRecord
  2
DASHDOT
 70
0
  3
Dash dot __ . __ . __ . __ . __ . __ . __ . __
 72
65
 73
4
 40
3.556
 49
2.54
 74
0
 49
-0.508
 74
0
 49
0.0
 74
0
 49
-0.508
 74
0
  0
LTYPE
  5
39
330
2
100
AcDbSymbolTableRecord
100
AcDbLinetypeTableRecord
  2
DASHDOTX2
 70
0
  3
Dash dot (2x) ____  .  ____  .  ____  .  ____
 72
65
 73
4
 40
6.096
 49
5.08
 74
0
 49
-0.508
 74
0
 49
0.0
 74
0
 49
-0.508
 74
0
  0
LTYPE
  5
3A
330
2
100
AcDbSymbolTableRecord
100
AcDbLinetypeTableRecord
  2
DASHDOT2
 70
0
  3
Dash dot (.5x) _ . _ . _ . _ . _ . _ . _ . _
 72
65
 73
4
 40
1.778
 49
1.27
 74
0
 49
-0.254
 74
0
 49
0.0
 74
0
 49
-0.254
 74
0
  0
LTYPE
  5
3B
330
2
100
AcDbSymbolTableRecord
100
AcDbLinetypeTableRecord
  2
DOT
 70
0
  3
Dot .  .  .  .  .  .  .  .  .  .  .  .  .  .  .  .
 72
65
 73
2
 40
0.508
 49
0.0
 74
0
 49
-0.508
 74
0
  0
LTYPE
  5
3C
330
2
100
AcDbSymbolTableRecord
100
AcDbLinetypeTableRecord
  2
DOTX2
 70
0
  3
Dot (2x) .    .    .    .    .    .    .    .
 72
65
 73
2
 40
1.016
 49
0.0
 74
0
 49
-1.016
 74
0
  0
LTYPE
  5
3D
330
2
100
AcDbSymbolTableRecord
100
AcDbLinetypeTableRecord
  2
DOT2
 70
0
  3
Dot (.5) . . . . . . . . . . . . . . . . . . .
 72
65
 73
2
 40
0.254
 49
0.0
 74
0
 49
-0.254
 74
0
  0
LTYPE
  5
3E
330
2
100
AcDbSymbolTableRecord
100
AcDbLinetypeTableRecord
  2
DIVIDE
 70
0
  3
Divide __ . . __ . . __ . . __ . . __ . . __
 72
65
 73
6
 40
4.064
 49
2.54
 74
0
 49
-0.508
 74
0
 49
0.0
 74
0
 49
-0.508
 74
0
 49
0.0
 74
0
 49
-0.508
 74
0
  0
LTYPE
  5
3F
330
2
100
AcDbSymbolTableRecord
100
AcDbLinetypeTableRecord
  2
DIVIDEX2
 70
0
  3
Divide (2x) ____  . .  ____  . .  ____  . .  ____
 72
65
 73
6
 40
6.604
 49
5.08
 74
0
 49
-0.508
 74
0
 49
0.0
 74
0
 49
-0.508
 74
0
 49
0.0
 74
0
 49
-0.508
 74
0
  0
LTYPE
  5
40
330
2
100
AcDbSymbolTableRecord
100
AcDbLinetypeTableRecord
  2
DIVIDE2
 70
0
  3
Divide(.5x) _ . _ . _ . _ . _ . _ . _ . _
 72
65
 73
6
 40
2.032
 49
1.27
 74
0
 49
-0.254
 74
0
 49
0.0
 74
0
 49
-0.254
 74
0
 49
0.0
 74
0
 49
-0.254
 74
0
  0
ENDTAB
  0
TABLE
  2
LAYER
  5
1
330
0
100
AcDbSymbolTable
 70
3
  0
LAYER
  5
27
330
1
100
AcDbSymbolTableRecord
100
AcDbLayerTableRecord
  2
0
 70
0
 62
7
  6
Continuous
370
-3
390
13
  0
LAYER
  5
28
330
1
100
AcDbSymbolTableRecord
100
AcDbLayerTableRecord
  2
Defpoints
 70
0
 62
7
  6
Continuous
290
0
370
-3
390
13
  0
LAYER
  5
8A
330
1
100
AcDbSymbolTableRecord
100
AcDbLayerTableRecord
  2
CUT
 70
0
 62
7
  6
Continuous
370
-3
390
13
  0
ENDTAB
  0
TABLE
  2
STYLE
  5
5
330
0
100
AcDbSymbolTable
 70
26
  0
STYLE
  5
29
330
5
100
AcDbSymbolTableRecord
100
AcDbTextStyleTableRecord
  2
Standard
 70
0
 40
0.0
 41
1.0
 50
0.0
 71
0
 42
2.5
  3
txt
  4

  0
STYLE
  5
41
330
5
100
AcDbSymbolTableRecord
100
AcDbTextStyleTableRecord
  2
OpenSans-Light
 70
0
 40
0.0
 41
1.0
 50
0.0
 71
0
 42
2.5
  3
OpenSans-Light.ttf
  4

  0
STYLE
  5
42
330
5
100
AcDbSymbolTableRecord
100
AcDbTextStyleTableRecord
  2
OpenSans-Light-Italic
 70
0
 40
0.0
 41
1.0
 50
0.0
 71
0
 42
2.5
  3
OpenSans-LightItalic.ttf
  4

  0
STYLE
  5
43
330
5
100
AcDbSymbolTableRecord
100
AcDbTextStyleTableRecord
  2
OpenSans
 70
0
 40
0.0
 41
1.0
 50
0.0
 71
0
 42
2.5
  3
OpenSans-Regular.ttf
  4

  0
STYLE
  5
44
330
5
100
AcDbSymbolTableRecord
100
AcDbTextStyleTableRecord
  2
OpenSans-Italic
 70
0
 40
0.0
 41
1.0
 50
0.0
 71
0
 42
2.5
  3
OpenSans-Italic.ttf
  4

  0
STYLE
  5
45
330
5
100
AcDbSymbolTableRecord
100
AcDbTextStyleTableRecord
  2
OpenSans-SemiBold
 70
0
 40
0.0
 41
1.0
 50
0.0
 71
0
 42
2.5
  3
OpenSans-SemiBold.ttf
  4

  0
STYLE
  5
46
330
5
100
AcDbSymbolTableRecord
100
AcDbTextStyleTableRecord
  2
OpenSans-SemiBoldItalic
 70
0
 40
0.0
 41
1.0
 50
0.0
 71
0
 42
2.5
  3
OpenSans-SemiBoldItalic.ttf
  4

  0
STYLE
  5
47
330
5
100
AcDbSymbolTableRecord
100
AcDbTextStyleTableRecord
  2
OpenSans-Bold
 70
0
 40
0.0
 41
1.0
 50
0.0
 71
0
 42
2.5
  3
OpenSans-Bold.ttf
  4

  0
STYLE
  5
48
330
5
100
AcDbSymbolTableRecord
100
AcDbTextStyleTableRecord
  2
OpenSans-BoldItalic
 70
0
 40
0.0
 41
1.0
 50
0.0
 71
0
 42
2.5
  3
OpenSans-BoldItalic.ttf
  4

  0
STYLE
  5
49
330
5
100
AcDbSymbolTableRecord
100
AcDbTextStyleTableRecord
  2
OpenSans-ExtraBold
 70
0
 40
0.0
 41
1.0
 50
0.0
 71
0
 42
2.5
  3
OpenSans-ExtraBold.ttf
  4

  0
STYLE
  5
4A
330
5
100
AcDbSymbolTableRecord
100
AcDbTextStyleTableRecord
  2
OpenSans-ExtraBoldItalic
 70
0
 40
0.0
 41
1.0
 50
0.0
 71
0
 42
2.5
  3
OpenSans-ExtraBoldItalic.ttf
  4

  0
STYLE
  5
4B
330
5
100
AcDbSymbolTableRecord
100
AcDbTextStyleTableRecord
  2
OpenSansCondensed-Bold
 70
0
 40
0.0
 41
1.0
 50
0.0
 71
0
 42
2.5
  3
OpenSansCondensed-Bold.ttf
  4

  0
STYLE
  5
4C
330
5
100
AcDbSymbolTableRecord
100
AcDbTextStyleTableRecord
  2
OpenSansCondensed-Light
 70
0
 40
0.0
 41
1.0
 50
0.0
 71
0
 42
2.5
  3
OpenSansCondensed-Light.ttf
  4

  0
STYLE
  5
4D
330
5
100
AcDbSymbolTableRecord
100
AcDbTextStyleTableRecord
  2
OpenSansCondensed-Italic
 70
0
 40
0.0
 41
1.0
 50
0.0
 71
0
 42
2.5
  3
OpenSansCondensed-LightItalic.ttf
  4

  0
STYLE
  5
4E
330
5
100
AcDbSymbolTableRecord
100
AcDbTextStyleTableRecord
  2
LiberationSans
 70
0
 40
0.0
 41
1.0
 50
0.0
 71
0
 42
2.5
  3
LiberationSans-Regular.ttf
  4

  0
STYLE
  5
4F
330
5
100
AcDbSymbolTableRecord
100
AcDbTextStyleTableRecord
  2
LiberationSans-Bold
 70
0
 40
0.0
 41
1.0
 50
0.0
 71
0
 42
2.5
  3
LiberationSans-Bold.ttf
  4

  0
STYLE
  5
50
330
5
100
AcDbSymbolTableRecord
100
AcDbTextStyleTableRecord
  2
LiberationSans-BoldItalic
 70
0
 40
0.0
 41
1.0
 50
0.0
 71
0
 42
2.5
  3
LiberationSans-BoldItalic.ttf
  4

  0
STYLE
  5
51
330
5
100
AcDbSymbolTableRecord
100
AcDbTextStyleTableRecord
  2
LiberationSans-Italic
 70
0
 40
0.0
 41
1.0
 50
0.0
 71
0
 42
2.5
  3
LiberationSans-Italic.ttf
  4

  0
STYLE
  5
52
330
5
100
AcDbSymbolTableRecord
100
AcDbTextStyleTableRecord
  2
LiberationSerif
 70
0
 40
0.0
 41
1.0
 50
0.0
 71
0
 42
2.5
  3
LiberationSerif-Regular.ttf
  4

  0
STYLE
  5
53
330
5
100
AcDbSymbolTableRecord
100
AcDbTextStyleTableRecord
  2
LiberationSerif-Bold
 70
0
 40
0.0
 41
1.0
 50
0.0
 71
0
 42
2.5
  3
LiberationSerif-Bold.ttf
  4

  0
STYLE
  5
54
330
5
100
AcDbSymbolTableRecord
100
AcDbTextStyleTableRecord
  2
LiberationSerif-BoldItalic
 70
0
 40
0.0
 41
1.0
 50
0.0
 71
0
 42
2.5
  3
LiberationSerif-BoldItalic.ttf
  4

  0
STYLE
  5
55
330
5
100
AcDbSymbolTableRecord
100
AcDbTextStyleTableRecord
  2
LiberationSerif-Italic
 70
0
 40
0.0
 41
1.0
 50
0.0
 71
0
 42
2.5
  3
LiberationSerif-Italic.ttf
  4

  0
STYLE
  5
56
330
5
100
AcDbSymbolTableRecord
100
AcDbTextStyleTableRecord
  2
LiberationMono
 70
0
 40
0.0
 41
1.0
 50
0.0
 71
0
 42
2.5
  3
LiberationMono-Regular.ttf
  4

  0
STYLE
  5
57
330
5
100
AcDbSymbolTableRecord
100
AcDbTextStyleTableRecord
  2
LiberationMono-Bold
 70
0
 40
0.0
 41
1.0
 50
0.0
 71
0
 42
2.5
  3
LiberationMono-Bold.ttf
  4

  0
STYLE
  5
58
330
5
100
AcDbSymbolTableRecord
100
AcDbTextStyleTableRecord
  2
LiberationMono-BoldItalic
 70
0
 40
0.0
 41
1.0
 50
0.0
 71
0
 42
2.5
  3
LiberationMono-BoldItalic.ttf
  4

  0
STYLE
  5
59
330
5
100
AcDbSymbolTableRecord
100
AcDbTextStyleTableRecord
  2
LiberationMono-Italic
 70
0
 40
0.0
 41
1.0
 50
0.0
 71
0
 42
2.5
  3
LiberationMono-Italic.ttf
  4

  0
ENDTAB
  0
TABLE
  2
VIEW
  5
7
330
0
100
AcDbSymbolTable
 70
0
  0
ENDTAB
  0
TABLE
  2
UCS
  5
6
330
0
100
AcDbSymbolTable
 70
0
  0
ENDTAB
  0
TABLE
  2
APPID
  5
3
330
0
100
AcDbSymbolTable
 70
3
  0
APPID
  5
2A
330
3
100
AcDbSymbolTableRecord
100
AcDbRegAppTableRecord
  2
ACAD
 70
0
  0
APPID
  5
2DE
330
3
100
AcDbSymbolTableRecord
100
AcDbRegAppTableRecord
  2
HATCHBACKGROUNDCOLOR
 70
0
  0
APPID
  5
2DF
330
3
100
AcDbSymbolTableRecord
100
AcDbRegAppTableRecord
  2
EZDXF
 70
0
  0
ENDTAB
  0
TABLE
  2
DIMSTYLE
  5
4
330
0
100
AcDbSymbolTable
 70
12
100
AcDbDimStyleTable
  0
DIMSTYLE
105
2B
330
4
100
AcDbSymbolTableRecord
100
AcDbDimStyleTableRecord
  2
Standard
 70
0
  3

  4

 40
1.0
 41
2.5
 42
0.625
 43
3.75
 44
1.25
 45
0.0
 46
0.0
 47
0.0
 48
0.0
140
2.5
141
2.5
142
0.0
143
0.03937007874
144
1.0
145
0.0
146
1.0
147
0.625
148
0.0
 71
0
 72
0
 73
0
 74
0
 75
0
 76
0
 77
1
 78
8
 79
3
170
0
171
3
172
1
173
0
174
0
175
0
176
0
177
0
178
0
179
2
271
2
272
2
273
2
274
3
275
0
276
0
277
2
278
44
279
0
280
0
281
0
282
0
283
0
284
8
285
0
286
0
288
0
289
3
371
-2
372
-2
  0
DIMSTYLE
105
73
330
4
100
AcDbSymbolTableRecord
100
AcDbDimStyleTableRecord
  2
EZDXF
 70
0
  3

  4

 40
1.0
 41
0.175
 42
0.125
 43
3.75
 44
0.375
 45
0.0
 46
0.0
 47
0.0
 48
0.0
140
0.25
141
2.5
142
0.0
143
0.03937007874
144
100.0
145
0.0
146
0.5
147
0.1
148
0.0
 71
0
 72
0
 73
0
 74
0
 75
0
 76
0
 77
1
 78
12
 79
3
170
0
171
3
172
1
173
0
174
0
175
0
176
0
177
0
178
0
179
2
271
2
272
2
273
2
274
3
275
0
276
0
277
2
278
46
279
2
280
0
281
0
282
0
283
0
284
8
285
0
286
0
288
1
289
3
340
4C
342
74
371
-2
372
-2
  0
DIMSTYLE
105
7C
330
4
100
AcDbSymbolTableRecord
100
AcDbDimStyleTableRecord
  2
EZ_M_100_H25_CM
 70
0
  3

  4

 40
1.0
 41
0.25
 42
0.125
 43
3.75
 44
0.375
 45
0.0
 46
0.0
 47
0.0
 48
0.0
140
0.25
141
2.5
142
0.125
143
0.03937007874
144
100.0
145
0.0
146
0.5
147
0.1
148
0.0
 71
0
 72
0
 73
0
 74
0
 75
0
 76
0
 77
1
 78
12
 79
3
170
0
171
3
172
1
173
0
174
0
175
0
176
0
177
0
178
0
179
2
271
2
272
2
273
2
274
3
275
0
276
0
277
2
278
46
279
2
280
0
281
0
282
0
283
0
284
8
285
0
286
0
288
1
289
3
340
4C
371
-2
372
-2
  0
DIMSTYLE
105
7D
330
4
100
AcDbSymbolTableRecord
100
AcDbDimStyleTableRecord
  2
EZ_M_50_H25_CM
 70
0
  3

  4

 40
1.0
 41
0.125
 42
0.0625
 43
3.75
 44
0.1875
 45
0.0
 46
0.0
 47
0.0
 48
0.0
140
0.125
141
2.5
142
0.0625
143
0.03937007874
144
100.0
145
0.0
146
0.5
147
0.05
148
0.0
 71
0
 72
0
 73
0
 74
0
 75
0
 76
0
 77
1
 78
12
 79
3
170
0
171
3
172
1
173
0
174
0
175
0
176
0
177
0
178
0
179
2
271
2
272
2
273
2
274
3
275
0
276
0
277
2
278
46
279
2
280
0
281
0
282
0
283
0
284
8
285
0
286
0
288
1
289
3
340
4C
371
-2
372
-2
  0
DIMSTYLE
105
7E
330
4
100
AcDbSymbolTableRecord
100
AcDbDimStyleTableRecord
  2
EZ_M_25_H25_CM
 70
0
  3

  4

 40
1.0
 41
0.0625
 42
0.03125
 43
3.75
 44
0.09375
 45
0.0
 46
0.0
 47
0.0
 48
0.0
140
0.0625
141
2.5
142
0.03125
143
0.03937007874
144
100.0
145
0.0
146
0.5
147
0.025
148
0.0
 71
0
 72
0
 73
0
 74
0
 75
0
 76
0
 77
1
 78
12
 79
3
170
0
171
3
172
1
173
0
174
0
175
0
176
0
177
0
178
0
179
2
271
2
272
2
273
2
274
3
275
0
276
0
277
2
278
46
279
2
280
0
281
0
282
0
283
0
284
8
285
0
286
0
288
1
289
3
340
4C
371
-2
372
-2
  0
DIMSTYLE
105
7F
330
4
100
AcDbSymbolTableRecord
100
AcDbDimStyleTableRecord
  2
EZ_M_20_H25_CM
 70
0
  3

  4

 40
1.0
 41
0.05
 42
0.025
 43
3.75
 44
0.07500000000000001
 45
0.0
 46
0.0
 47
0.0
 48
0.0
140
0.05
141
2.5
142
0.025
143
0.03937007874
144
100.0
145
0.0
146
0.5
147
0.020000000000000004
148
0.0
 71
0
 72
0
 73
0
 74
0
 75
0
 76
0
 77
1
 78
12
 79
3
170
0
171
3
172
1
173
0
174
0
175
0
176
0
177
0
178
0
179
2
271
2
272
2
273
2
274
3
275
0
276
0
277
2
278
46
279
2
280
0
281
0
282
0
283
0
284
8
285
0
286
0
288
1
289
3
340
4C
371
-2
372
-2
  0
DIMSTYLE
105
80
330
4
100
AcDbSymbolTableRecord
100
AcDbDimStyleTableRecord
  2
EZ_M_10_H25_CM
 70
0
  3

  4

 40
1.0
 41
0.025
 42
0.0125
 43
3.75
 44
0.037500000000000006
 45
0.0
 46
0.0
 47
0.0
 48
0.0
140
0.025
141
2.5
142
0.0125
143
0.03937007874
144
100.0
145
0.0
146
0.5
147
0.010000000000000002
148
0.0
 71
0
 72
0
 73
0
 74
0
 75
0
 76
0
 77
1
 78
12
 79
3
170
0
171
3
172
1
173
0
174
0
175
0
176
0
177
0
178
0
179
2
271
2
272
2
273
2
274
3
275
0
276
0
277
2
278
46
279
2
280
0
281
0
282
0
283
0
284
8
285
0
286
0
288
1
289
3
340
4C
371
-2
372
-2
  0
DIMSTYLE
105
81
330
4
100
AcDbSymbolTableRecord
100
AcDbDimStyleTableRecord
  2
EZ_M_5_H25_CM
 70
0
  3

  4

 40
1.0
 41
0.0125
 42
0.00625
 43
3.75
 44
0.018750000000000003
 45
0.0
 46
0.0
 47
0.0
 48
0.0
140
0.0125
141
2.5
142
0.00625
143
0.03937007874
144
100.0
145
0.0
146
0.5
147
0.005000000000000001
148
0.0
 71
0
 72
0
 73
0
 74
0
 75
0
 76
0
 77
1
 78
12
 79
3
170
0
171
3
172
1
173
0
174
0
175
0
176
0
177
0
178
0
179
2
271
2
272
2
273
2
274
3
275
0
276
0
277
2
278
46
279
2
280
0
281
0
282
0
283
0
284
8
285
0
286
0
288
1
289
3
340
4C
371
-2
372
-2
  0
DIMSTYLE
105
82
330
4
100
AcDbSymbolTableRecord
100
AcDbDimStyleTableRecord
  2
EZ_M_1_H25_CM
 70
0
  3

  4

 40
1.0
 41
0.0025
 42
0.00125
 43
3.75
 44
0.00375
 45
0.0
 46
0.0
 47
0.0
 48
0.0
140
0.0025
141
2.5
142
0.00125
143
0.03937007874
144
100.0
145
0.0
146
0.5
147
0.001
148
0.0
 71
0
 72
0
 73
0
 74
0
 75
0
 76
0
 77
1
 78
12
 79
3
170
0
171
3
172
1
173
0
174
0
175
0
176
0
177
0
178
0
179
2
271
2
272
2
273
2
274
3
275
0
276
0
277
2
278
46
279
2
280
0
281
0
282
0
283
0
284
8
285
0
286
0
288
1
289
3
340
4C
371
-2
372
-2
  0
DIMSTYLE
105
83
330
4
100
AcDbSymbolTableRecord
100
AcDbDimStyleTableRecord
  2
EZ_RADIUS
 70
0
  3

  4

 40
1.0
 41
0.25
 42
0.125
 43
3.75
 44
0.375
 45
0.0
 46
0.0
 47
0.0
 48
0.0
140
0.25
141
0.0
142
0.0
143
0.03937007874
144
100.0
145
0.0
146
0.5
147
0.1
148
0.0
 71
0
 72
0
 73
0
 74
0
 75
0
 76
0
 77
1
 78
12
 79
3
170
0
171
3
172
0
173
0
174
0
175
0
176
0
177
0
178
0
179
2
271
2
272
2
273
2
274
3
275
0
276
0
277
2
278
46
279
1
280
0
281
0
282
0
283
0
284
8
285
0
286
0
288
1
289
3
340
4C
342
84
371
-2
372
-2
  0
DIMSTYLE
105
88
330
4
100
AcDbSymbolTableRecord
100
AcDbDimStyleTableRecord
  2
EZ_RADIUS_INSIDE
 70
0
  3

  4

 40
1.0
 41
0.25
 42
0.125
 43
3.75
 44
0.375
 45
0.0
 46
0.0
 47
0.0
 48
0.0
140
0.25
141
0.0
142
0.0
143
0.03937007874
144
100.0
145
0.0
146
0.5
147
0.1
148
0.0
 71
0
 72
0
 73
0
 74
0
 75
0
 76
0
 77
0
 78
12
 79
3
170
0
171
3
172
0
173
0
174
1
175
0
176
0
177
0
178
0
179
2
271
2
272
2
273
2
274
3
275
0
276
0
277
2
278
46
279
0
280
0
281
0
282
0
283
0
284
8
285
0
286
0
288
1
289
0
340
4C
342
84
371
-2
372
-2
  0
DIMSTYLE
105
89
330
4
100
AcDbSymbolTableRecord
100
AcDbDimStyleTableRecord
  2
EZ_CURVED
 70
0
  3

  4

 40
1.0
 41
0.25
 42
0.125
 43
3.75
 44
0.375
 45
0.0
 46
0.0
 47
0.0
 48
0.0
140
0.25
141
2.5
142
0.0
143
0.03937007874
144
100.0
145
0.0
146
0.5
147
0.1
148
0.0
 71
0
 72
0
 73
0
 74
0
 75
0
 76
0
 77
1
 78
12
 79
2
 90
2
170
0
171
3
172
1
173
0
174
0
175
0
176
0
177
0
178
0
179
2
271
2
272
2
273
2
274
3
275
0
276
0
277
2
278
46
279
2
280
0
281
0
282
0
283
0
284
8
285
0
286
0
288
1
289
3
340
4C
371
-2
372
-2
  0
ENDTAB
  0
TABLE
  2
BLOCK_RECORD
  5
9
330
0
100
AcDbSymbolTable
 70
5
  0
BLOCK_RECORD
  5
17
330
9
100
AcDbSymbolTableRecord
100
AcDbBlockTableRecord
  2
*Model_Space
340
1A
  0
BLOCK_RECORD
  5
1B
330
9
100
AcDbSymbolTableRecord
100
AcDbBlockTableRecord
  2
*Paper_Space
340
1E
  0
BLOCK_RECORD
  5
74
330
9
100
AcDbSymbolTableRecord
100
AcDbBlockTableRecord
  2
_ARCHTICK
340
0
  0
BLOCK_RECORD
  5
78
330
9
100
AcDbSymbolTableRecord
100
AcDbBlockTableRecord
  2
_CLOSEDFILLED
340
0
  0
BLOCK_RECORD
  5
84
330
9
100
AcDbSymbolTableRecord
100
AcDbBlockTableRecord
  2
_CLOSEDBLANK
340
0
  0
ENDTAB
  0
ENDSEC
  0
SECTION
  2
BLOCKS
  0
BLOCK
  5
18
330
17
100
AcDbEntity
  8
0
100
AcDbBlockBegin
  2
*Model_Space
 70
0
 10
0.0
 20
0.0
 30
0.0
  3
*Model_Space
  1

  0
ENDBLK
  5
19
330
17
100
AcDbEntity
  8
0
100
AcDbBlockEnd
  0
BLOCK
  5
1C
330
1B
100
AcDbEntity
  8
0
100
AcDbBlockBegin
  2
*Paper_Space
 70
0
 10
0.0
 20
0.0
 30
0.0
  3
*Paper_Space
  1

  0
ENDBLK
  5
1D
330
1B
100
AcDbEntity
  8
0
100
AcDbBlockEnd
  0
BLOCK
  5
75
330
74
100
AcDbEntity
  8
0
100
AcDbBlockBegin
  2
_ARCHTICK
 70
0
 10
0.0
 20
0.0
 30
0.0
  3
_ARCHTICK
  1

  0
LWPOLYLINE
  5
77
330
74
100
AcDbEntity
  8
0
  6
BYBLOCK
 62
0
100
AcDbPolyline
 90
2
 70
0
 43
0.15
 10
-0.5
 20
-0.5
 10
0.5
 20
0.5
  0
ENDBLK
  5
76
330
74
100
AcDbEntity
  8
0
100
AcDbBlockEnd
  0
BLOCK
  5
79
330
78
100
AcDbEntity
  8
0
100
AcDbBlockBegin
  2
_CLOSEDFILLED
 70
0
 10
0.0
 20
0.0
 30
0.0
  3
_CLOSEDFILLED
  1

  0
SOLID
  5
7B
330
78
100
AcDbEntity
  8
0
  6
BYBLOCK
 62
0
100
AcDbTrace
 10
-1.0
 20
0.16439898372402537
 30
0.0
 11
0.0
 21
0.0
 31
0.0
 12
-1.0
 22
-0.16439898372402537
 32
0.0
 13
-1.0
 23
-0.16439898372402537
 33
0.0
  0
ENDBLK
  5
7A
330
78
100
AcDbEntity
  8
0
100
AcDbBlockEnd
  0
BLOCK
  5
85
330
84
100
AcDbEntity
  8
0
100
AcDbBlockBegin
  2
_CLOSEDBLANK
 70
0
 10
0.0
 20
0.0
 30
0.0
  3
_CLOSEDBLANK
  1

  0
LWPOLYLINE
  5
87
330
84
100
AcDbEntity
  8
0
  6
BYBLOCK
 62
0
100
AcDbPolyline
 90
3
 70
1
 10
-1.0
 20
0.16439898372402537
 10
0.0
 20
0.0
 10
-1.0
 20
-0.16439898372402537
  0
ENDBLK
  5
86
330
84
100
AcDbEntity
  8
0
100
AcDbBlockEnd
  0
ENDSEC
  0
SECTION
  2
ENTITIES
  0
POLYLINE
  5
8B
330
17
100
AcDbEntity
  8
CUT
100
AcDb2dPolyline
 66
1
 10
0.0
 20
0.0
 30
0.0
 70
1
1001
EZDXF
1000
piece-001
  0
VERTEX
  5
8D
330
17
100
AcDbEntity
  8
CUT
100
AcDbVertex
100
AcDb2dVertex
 10
8.27507
 20
14.201468
 30
0.0
 70
0
  0
VERTEX
  5
8E
330
17
100
AcDbEntity
  8
CUT
100
AcDbVertex
100
AcDb2dVertex
 10
8.27507
 20
14.713958000000002
 30
0.0
 70
0
  0
VERTEX
  5
8F
330
17
100
AcDbEntity
  8
CUT
100
AcDbVertex
100
AcDb2dVertex
 10
12.94257
 20
12.967796
 30
0.0
 70
0
  0
VERTEX
  5
90
330
17
100
AcDbEntity
  8
CUT
100
AcDbVertex
100
AcDb2dVertex
 10
12.94257
 20
12.455306
 30
0.0
 70
0
  0
VERTEX
  5
91
330
17
100
AcDbEntity
  8
CUT
100
AcDbVertex
100
AcDb2dVertex
 10
12.308168
 20
12.692642000000001
 30
0.0
 70
0
  0
VERTEX
  5
92
330
17
100
AcDbEntity
  8
CUT
100
AcDbVertex
100
AcDb2dVertex
 10
9.018573
 20
13.923315
 30
0.0
 70
0
  0
SEQEND
  5
8C
330
8B
100
AcDbEntity
  8
CUT
  0
POLYLINE
  5
93
330
17
100
AcDbEntity
  8
CUT
100
AcDb2dPolyline
 66
1
 10
0.0
 20
0.0
 30
0.0
 70
1
1001
EZDXF
1000
piece-002
  0
VERTEX
  5
95
330
17
100
AcDbEntity
  8
CUT
100
AcDbVertex
100
AcDb2dVertex
 10
3.58757
 20
12.967796
 30
0.0
 70
0
  0
VERTEX
  5
96
330
17
100
AcDbEntity
  8
CUT
100
AcDbVertex
100
AcDb2dVertex
 10
8.25507
 20
14.713958000000002
 30
0.0
 70
0
  0
VERTEX
  5
97
330
17
100
AcDbEntity
  8
CUT
100
AcDbVertex
100
AcDb2dVertex
 10
8.25507
 20
14.201468
 30
0.0
 70
0
  0
VERTEX
  5
98
330
17
100
AcDbEntity
  8
CUT
100
AcDbVertex
100
AcDb2dVertex
 10
7.511566
 20
13.923315
 30
0.0
 70
0
  0
VERTEX
  5
99
330
17
100
AcDbEntity
  8
CUT
100
AcDbVertex
100
AcDb2dVertex
 10
4.221971
 20
12.692642000000001
 30
0.0
 70
0
  0
VERTEX
  5
9A
330
17
100
AcDbEntity
  8
CUT
100
AcDbVertex
100
AcDb2dVertex
 10
3.58757
 20
12.455306
 30
0.0
 70
0
  0
SEQEND
  5
94
330
93
100
AcDbEntity
  8
CUT
  0
POLYLINE
  5
9B
330
17
100
AcDbEntity
  8
CUT
100
AcDb2dPolyline
 66
1
 10
0.0
 20
0.0
 30
0.0
 70
1
1001
EZDXF
1000
piece-003
  0
VERTEX
  5
9D
330
17
100
AcDbEntity
  8
CUT
100
AcDbVertex
100
AcDb2dVertex
 10
8.25507
 20
14.180114000000001
 30
0.0
 70
0
  0
VERTEX
  5
9E
330
17
100
AcDbEntity
  8
CUT
100
AcDbVertex
100
AcDb2dVertex
 10
8.25507
 20
12.838495000000002
 30
0.0
 70
0
  0
VERTEX
  5
9F
330
17
100
AcDbEntity
  8
CUT
100
AcDbVertex
100
AcDb2dVertex
 10
7.52507
 20
12.565395
 30
0.0
 70
0
  0
VERTEX
  5
A0
330
17
100
AcDbEntity
  8
CUT
100
AcDbVertex
100
AcDb2dVertex
 10
7.52507
 20
13.907013000000001
 30
0.0
 70
0
  0
SEQEND
  5
9C
330
9B
100
AcDbEntity
  8
CUT
  0
POLYLINE
  5
A1
330
17
100
AcDbEntity
  8
CUT
100
AcDb2dPolyline
 66
1
 10
0.0
 20
0.0
 30
0.0
 70
1
1001
EZDXF
1000
piece-004
  0
VERTEX
  5
A3
330
17
100
AcDbEntity
  8
CUT
100
AcDbVertex
100
AcDb2dVertex
 10
8.27507
 20
12.838495000000002
 30
0.0
 70
0
  0
VERTEX
  5
A4
330
17
100
AcDbEntity
  8
CUT
100
AcDbVertex
100
AcDb2dVertex
 10
8.27507
 20
14.180114000000001
 30
0.0
 70
0
  0
VERTEX
  5
A5
330
17
100
AcDbEntity
  8
CUT
100
AcDbVertex
100
AcDb2dVertex
 10
9.00507
 20
13.907013000000001
 30
0.0
 70
0
  0
VERTEX
  5
A6
330
17
100
AcDbEntity
  8
CUT
100
AcDbVertex
100
AcDb2dVertex
 10
9.00507
 20
12.565395
 30
0.0
 70
0
  0
SEQEND
  5
A2
330
A1
100
AcDbEntity
  8
CUT
  0
POLYLINE
  5
A7
330
17
100
AcDbEntity
  8
CUT
100
AcDb2dPolyline
 66
1
 10
0.0
 20
0.0
 30
0.0
 70
1
1001
EZDXF
1000
piece-005
  0
VERTEX
  5
A9
330
17
100
AcDbEntity
  8
CUT
100
AcDbVertex
100
AcDb2dVertex
 10
13.102825
 20
13.110191
 30
0.0
 70
0
  0
VERTEX
  5
AA
330
17
100
AcDbEntity
  8
CUT
100
AcDbVertex
100
AcDb2dVertex
 10
13.102825
 20
12.929197
 30
0.0
 70
0
  0
VERTEX
  5
AB
330
17
100
AcDbEntity
  8
CUT
100
AcDbVertex
100
AcDb2dVertex
 10
13.066282
 20
12.942868
 30
0.0
 70
0
  0
SEQEND
  5
A8
330
A7
100
AcDbEntity
  8
CUT
  0
POLYLINE
  5
AC
330
17
100
AcDbEntity
  8
CUT
100
AcDb2dPolyline
 66
1
 10
0.0
 20
0.0
 30
0.0
 70
1
1001
EZDXF
1000
piece-006
  0
VERTEX
  5
AE
330
17
100
AcDbEntity
  8
CUT
100
AcDbVertex
100
AcDb2dVertex
 10
13.122952
 20
13.188382
 30
0.0
 70
0
  0
VERTEX
  5
AF
330
17
100
AcDbEntity
  8
CUT
100
AcDbVertex
100
AcDb2dVertex
 10
14.102825
 20
12.821801
 30
0.0
 70
0
  0
VERTEX
  5
B0
330
17
100
AcDbEntity
  8
CUT
100
AcDbVertex
100
AcDb2dVertex
 10
14.102825
 20
12.555086000000001
 30
0.0
 70
0
  0
VERTEX
  5
B1
330
17
100
AcDbEntity
  8
CUT
100
AcDbVertex
100
AcDb2dVertex
 10
13.125294
 20
12.920791000000001
 30
0.0
 70
0
  0
SEQEND
  5
AD
330
AC
100
AcDbEntity
  8
CUT
  0
POLYLINE
  5
B2
330
17
100
AcDbEntity
  8
CUT
100
AcDb2dPolyline
 66
1
 10
0.0
 20
0.0
 30
0.0
 70
1
1001
EZDXF
1000
piece-007
  0
VERTEX
  5
B4
330
17
100
AcDbEntity
  8
CUT
100
AcDbVertex
100
AcDb2dVertex
 10
3.485475
 20
12.417111
 30
0.0
 70
0
  0
VERTEX
  5
B5
330
17
100
AcDbEntity
  8
CUT
100
AcDbVertex
100
AcDb2dVertex
 10
3.485475
 20
12.929602000000001
 30
0.0
 70
0
  0
VERTEX
  5
B6
330
17
100
AcDbEntity
  8
CUT
100
AcDbVertex
100
AcDb2dVertex
 10
3.56757
 20
12.960314
 30
0.0
 70
0
  0
VERTEX
  5
B7
330
17
100
AcDbEntity
  8
CUT
100
AcDbVertex
100
AcDb2dVertex
 10
3.56757
 20
12.447824
 30
0.0
 70
0
  0
SEQEND
  5
B3
330
B2
100
AcDbEntity
  8
CUT
  0
POLYLINE
  5
B8
330
17
100
AcDbEntity
  8
CUT
100
AcDb2dPolyline
 66
1
 10
0.0
 20
0.0
 30
0.0
 70
1
1001
EZDXF
1000
piece-008
  0
VERTEX
  5
BA
330
17
100
AcDbEntity
  8
CUT
100
AcDbVertex
100
AcDb2dVertex
 10
12.294664
 20
11.334722000000001
 30
0.0
 70
0
  0
VERTEX
  5
BB
330
17
100
AcDbEntity
  8
CUT
100
AcDbVertex
100
AcDb2dVertex
 10
9.02507
 20
12.557912000000002
 30
0.0
 70
0
  0
VERTEX
  5
BC
330
17
100
AcDbEntity
  8
CUT
100
AcDbVertex
100
AcDb2dVertex
 10
9.02507
 20
13.899531000000001
 30
0.0
 70
0
  0
VERTEX
  5
BD
330
17
100
AcDbEntity
  8
CUT
100
AcDbVertex
100
AcDb2dVertex
 10
12.294664
 20
12.676341
 30
0.0
 70
0
  0
SEQEND
  5
B9
330
B8
100
AcDbEntity
  8
CUT
  0
POLYLINE
  5
BE
330
17
100
AcDbEntity
  8
CUT
100
AcDb2dPolyline
 66
1
 10
0.0
 20
0.0
 30
0.0
 70
1
1001
EZDXF
1000
piece-009
  0
VERTEX
  5
C0
330
17
100
AcDbEntity
  8
CUT
100
AcDbVertex
100
AcDb2dVertex
 10
4.235475
 20
12.676341
 30
0.0
 70
0
  0
VERTEX
  5
C1
330
17
100
AcDbEntity
  8
CUT
100
AcDbVertex
100
AcDb2dVertex
 10
7.50507
 20
13.899531000000001
 30
0.0
 70
0
  0
VERTEX
  5
C2
330
17
100
AcDbEntity
  8
CUT
100
AcDbVertex
100
AcDb2dVertex
 10
7.50507
 20
12.557912000000002
 30
0.0
 70
0
  0
VERTEX
  5
C3
330
17
100
AcDbEntity
  8
CUT
100
AcDbVertex
100
AcDb2dVertex
 10
4.235475
 20
11.334722000000001
 30
0.0
 70
0
  0
SEQEND
  5
BF
330
BE
100
AcDbEntity
  8
CUT
  0
POLYLINE
  5
C4
330
17
100
AcDbEntity
  8
CUT
100
AcDb2dPolyline
 66
1
 10
0.0
 20
0.0
 30
0.0
 70
1
1001
EZDXF
1000
piece-010
  0
VERTEX
  5
C6
330
17
100
AcDbEntity
  8
CUT
100
AcDbVertex
100
AcDb2dVertex
 10
12.94257
 20
12.433952000000001
 30
0.0
 70
0
  0
VERTEX
  5
C7
330
17
100
AcDbEntity
  8
CUT
100
AcDbVertex
100
AcDb2dVertex
 10
12.94257
 20
11.092334000000001
 30
0.0
 70
0
  0
VERTEX
  5
C8
330
17
100
AcDbEntity
  8
CUT
100
AcDbVertex
100
AcDb2dVertex
 10
12.314664
 20
11.32724
 30
0.0
 70
0
  0
VERTEX
  5
C9
330
17
100
AcDbEntity
  8
CUT
100
AcDbVertex
100
AcDb2dVertex
 10
12.314664
 20
12.668858
 30
0.0
 70
0
  0
SEQEND
  5
C5
330
C4
100
AcDbEntity
  8
CUT
  0
POLYLINE
  5
CA
330
17
100
AcDbEntity
  8
CUT
100
AcDb2dPolyline
 66
1
 10
0.0
 20
0.0
 30
0.0
 70
1
1001
EZDXF
1000
piece-011
  0
VERTEX
  5
CC
330
17
100
AcDbEntity
  8
CUT
100
AcDbVertex
100
AcDb2dVertex
 10
3.58757
 20
12.433952000000001
 30
0.0
 70
0
  0
VERTEX
  5
CD
330
17
100
AcDbEntity
  8
CUT
100
AcDbVertex
100
AcDb2dVertex
 10
4.215475
 20
12.668858
 30
0.0
 70
0
  0
VERTEX
  5
CE
330
17
100
AcDbEntity
  8
CUT
100
AcDbVertex
100
AcDb2dVertex
 10
4.215475
 20
11.32724
 30
0.0
 70
0
  0
VERTEX
  5
CF
330
17
100
AcDbEntity
  8
CUT
100
AcDbVertex
100
AcDb2dVertex
 10
3.58757
 20
11.092334000000001
 30
0.0
 70
0
  0
SEQEND
  5
CB
330
CA
100
AcDbEntity
  8
CUT
  0
POLYLINE
  5
D0
330
17
100
AcDbEntity
  8
CUT
100
AcDb2dPolyline
 66
1
 10
0.0
 20
0.0
 30
0.0
 70
1
1001
EZDXF
1000
piece-012
  0
VERTEX
  5
D2
330
17
100
AcDbEntity
  8
CUT
100
AcDbVertex
100
AcDb2dVertex
 10
8.27507
 20
12.304651
 30
0.0
 70
0
  0
VERTEX
  5
D3
330
17
100
AcDbEntity
  8
CUT
100
AcDbVertex
100
AcDb2dVertex
 10
8.27507
 20
12.817142
 30
0.0
 70
0
  0
VERTEX
  5
D4
330
17
100
AcDbEntity
  8
CUT
100
AcDbVertex
100
AcDb2dVertex
 10
9.011566
 20
12.541611000000001
 30
0.0
 70
0
  0
VERTEX
  5
D5
330
17
100
AcDbEntity
  8
CUT
100
AcDbVertex
100
AcDb2dVertex
 10
12.30116
 20
11.310938
 30
0.0
 70
0
  0
VERTEX
  5
D6
330
17
100
AcDbEntity
  8
CUT
100
AcDbVertex
100
AcDb2dVertex
 10
12.94257
 20
11.07098
 30
0.0
 70
0
  0
VERTEX
  5
D7
330
17
100
AcDbEntity
  8
CUT
100
AcDbVertex
100
AcDb2dVertex
 10
12.94257
 20
10.558489000000002
 30
0.0
 70
0
  0
VERTEX
  5
D8
330
17
100
AcDbEntity
  8
CUT
100
AcDbVertex
100
AcDb2dVertex
 10
12.308168
 20
10.795826000000002
 30
0.0
 70
0
  0
VERTEX
  5
D9
330
17
100
AcDbEntity
  8
CUT
100
AcDbVertex
100
AcDb2dVertex
 10
9.018573
 20
12.026498
 30
0.0
 70
0
  0
SEQEND
  5
D1
330
D0
100
AcDbEntity
  8
CUT
  0
POLYLINE
  5
DA
330
17
100
AcDbEntity
  8
CUT
100
AcDb2dPolyline
 66
1
 10
0.0
 20
0.0
 30
0.0
 70
1
1001
EZDXF
1000
piece-013
  0
VERTEX
  5
DC
330
17
100
AcDbEntity
  8
CUT
100
AcDbVertex
100
AcDb2dVertex
 10
8.25507
 20
12.817142
 30
0.0
 70
0
  0
VERTEX
  5
DD
330
17
100
AcDbEntity
  8
CUT
100
AcDbVertex
100
AcDb2dVertex
 10
8.25507
 20
12.304651
 30
0.0
 70
0
  0
VERTEX
  5
DE
330
17
100
AcDbEntity
  8
CUT
100
AcDbVertex
100
AcDb2dVertex
 10
7.511566
 20
12.026498
 30
0.0
 70
0
  0
VERTEX
  5
DF
330
17
100
AcDbEntity
  8
CUT
100
AcDbVertex
100
AcDb2dVertex
 10
4.221971
 20
10.795826000000002
 30
0.0
 70
0
  0
VERTEX
  5
E0
330
17
100
AcDbEntity
  8
CUT
100
AcDbVertex
100
AcDb2dVertex
 10
3.58757
 20
10.558489000000002
 30
0.0
 70
0
  0
VERTEX
  5
E1
330
17
100
AcDbEntity
  8
CUT
100
AcDbVertex
100
AcDb2dVertex
 10
3.58757
 20
11.07098
 30
0.0
 70
0
  0
VERTEX
  5
E2
330
17
100
AcDbEntity
  8
CUT
100
AcDbVertex
100
AcDb2dVertex
 10
4.228979
 20
11.310938
 30
0.0
 70
0
  0
VERTEX
  5
E3
330
17
100
AcDbEntity
  8
CUT
100
AcDbVertex
100
AcDb2dVertex
 10
7.518573
 20
12.541611000000001
 30
0.0
 70
0
  0
SEQEND
  5
DB
330
DA
100
AcDbEntity
  8
CUT
  0
POLYLINE
  5
E4
330
17
100
AcDbEntity
  8
CUT
100
AcDb2dPolyline
 66
1
 10
0.0
 20
0.0
 30
0.0
 70
1
1001
EZDXF
1000
piece-014
  0
VERTEX
  5
E6
330
17
100
AcDbEntity
  8
CUT
100
AcDbVertex
100
AcDb2dVertex
 10
8.25507
 20
12.283297000000001
 30
0.0
 70
0
  0
VERTEX
  5
E7
330
17
100
AcDbEntity
  8
CUT
100
AcDbVertex
100
AcDb2dVertex
 10
8.25507
 20
10.941679
 30
0.0
 70
0
  0
VERTEX
  5
E8
330
17
100
AcDbEntity
  8
CUT
100
AcDbVertex
100
AcDb2dVertex
 10
7.52507
 20
10.668578
 30
0.0
 70
0
  0
VERTEX
  5
E9
330
17
100
AcDbEntity
  8
CUT
100
AcDbVertex
100
AcDb2dVertex
 10
7.52507
 20
12.010197000000002
 30
0.0
 70
0
  0
SEQEND
  5
E5
330
E4
100
AcDbEntity
  8
CUT
  0
POLYLINE
  5
EA
330
17
100
AcDbEntity
  8
CUT
100
AcDb2dPolyline
 66
1
 10
0.0
 20
0.0
 30
0.0
 70
1
1001
EZDXF
1000
piece-015
  0
VERTEX
  5
EC
330
17
100
AcDbEntity
  8
CUT
100
AcDbVertex
100
AcDb2dVertex
 10
8.27507
 20
10.941679
 30
0.0
 70
0
  0
VERTEX
  5
ED
330
17
100
AcDbEntity
  8
CUT
100
AcDbVertex
100
AcDb2dVertex
 10
8.27507
 20
12.283297000000001
 30
0.0
 70
0
  0
VERTEX
  5
EE
330
17
100
AcDbEntity
  8
CUT
100
AcDbVertex
100
AcDb2dVertex
 10
9.00507
 20
12.010197000000002
 30
0.0
 70
0
  0
VERTEX
  5
EF
330
17
100
AcDbEntity
  8
CUT
100
AcDbVertex
100
AcDb2dVertex
 10
9.00507
 20
10.668578
 30
0.0
 70
0
  0
SEQEND
  5
EB
330
EA
100
AcDbEntity
  8
CUT
  0
POLYLINE
  5
F0
330
17
100
AcDbEntity
  8
CUT
100
AcDb2dPolyline
 66
1
 10
0.0
 20
0.0
 30
0.0
 70
1
1001
EZDXF
1000
piece-016
  0
VERTEX
  5
F2
330
17
100
AcDbEntity
  8
CUT
100
AcDbVertex
100
AcDb2dVertex
 10
12.294664
 20
10.779524
 30
0.0
 70
0
  0
VERTEX
  5
F3
330
17
100
AcDbEntity
  8
CUT
100
AcDbVertex
100
AcDb2dVertex
 10
12.294664
 20
9.437906000000002
 30
0.0
 70
0
  0
VERTEX
  5
F4
330
17
100
AcDbEntity
  8
CUT
100
AcDbVertex
100
AcDb2dVertex
 10
9.02507
 20
10.661096
 30
0.0
 70
0
  0
VERTEX
  5
F5
330
17
100
AcDbEntity
  8
CUT
100
AcDbVertex
100
AcDb2dVertex
 10
9.02507
 20
12.002714000000001
 30
0.0
 70
0
  0
SEQEND
  5
F1
330
F0
100
AcDbEntity
  8
CUT
  0
POLYLINE
  5
F6
330
17
100
AcDbEntity
  8
CUT
100
AcDb2dPolyline
 66
1
 10
0.0
 20
0.0
 30
0.0
 70
1
1001
EZDXF
1000
piece-017
  0
VERTEX
  5
F8
330
17
100
AcDbEntity
  8
CUT
100
AcDbVertex
100
AcDb2dVertex
 10
4.235475
 20
10.779524
 30
0.0
 70
0
  0
VERTEX
  5
F9
330
17
100
AcDbEntity
  8
CUT
100
AcDbVertex
100
AcDb2dVertex
 10
7.50507
 20
12.002714000000001
 30
0.0
 70
0
  0
VERTEX
  5
FA
330
17
100
AcDbEntity
  8
CUT
100
AcDbVertex
100
AcDb2dVertex
 10
7.50507
 20
10.661096
 30
0.0
 70
0
  0
VERTEX
  5
FB
330
17
100
AcDbEntity
  8
CUT
100
AcDbVertex
100
AcDb2dVertex
 10
4.235475
 20
9.437906000000002
 30
0.0
 70
0
  0
SEQEND
  5
F7
330
F6
100
AcDbEntity
  8
CUT
  0
POLYLINE
  5
FC
330
17
100
AcDbEntity
  8
CUT
100
AcDb2dPolyline
 66
1
 10
0.0
 20
0.0
 30
0.0
 70
1
1001
EZDXF
1000
piece-018
  0
VERTEX
  5
FE
330
17
100
AcDbEntity
  8
CUT
100
AcDbVertex
100
AcDb2dVertex
 10
8.65017
 20
10.018012
 30
0.0
 70
0
  0
VERTEX
  5
FF
330
17
100
AcDbEntity
  8
CUT
100
AcDbVertex
100
AcDb2dVertex
 10
8.650174
 20
10.018421
 30
0.0
 70
0
  0
VERTEX
  5
100
330
17
100
AcDbEntity
  8
CUT
100
AcDbVertex
100
AcDb2dVertex
 10
8.27507
 20
10.018421
 30
0.0
 70
0
  0
VERTEX
  5
101
330
17
100
AcDbEntity
  8
CUT
100
AcDbVertex
100
AcDb2dVertex
 10
8.27507
 20
10.386481
 30
0.0
 70
0
  0
VERTEX
  5
102
330
17
100
AcDbEntity
  8
CUT
100
AcDbVertex
100
AcDb2dVertex
 10
9.579347
 20
9.898537000000001
 30
0.0
 70
0
  0
VERTEX
  5
103
330
17
100
AcDbEntity
  8
CUT
100
AcDbVertex
100
AcDb2dVertex
 10
9.563097
 20
9.903375
 30
0.0
 70
0
  0
VERTEX
  5
104
330
17
100
AcDbEntity
  8
CUT
100
AcDbVertex
100
AcDb2dVertex
 10
9.400955
 20
9.937372
 30
0.0
 70
0
  0
VERTEX
  5
105
330
17
100
AcDbEntity
  8
CUT
100
AcDbVertex
100
AcDb2dVertex
 10
9.292988
 20
9.961308
 30
0.0
 70
0
  0
VERTEX
  5
106
330
17
100
AcDbEntity
  8
CUT
100
AcDbVertex
100
AcDb2dVertex
 10
9.27636
 20
9.963497
 30
0.0
 70
0
  0
VERTEX
  5
107
330
17
100
AcDbEntity
  8
CUT
100
AcDbVertex
100
AcDb2dVertex
 10
9.258947
 20
9.967148000000002
 30
0.0
 70
0
  0
VERTEX
  5
108
330
17
100
AcDbEntity
  8
CUT
100
AcDbVertex
100
AcDb2dVertex
 10
9.064916
 20
9.991334000000002
 30
0.0
 70
0
  0
VERTEX
  5
109
330
17
100
AcDbEntity
  8
CUT
100
AcDbVertex
100
AcDb2dVertex
 10
8.967776
 20
10.004123
 30
0.0
 70
0
  0
VERTEX
  5
10A
330
17
100
AcDbEntity
  8
CUT
100
AcDbVertex
100
AcDb2dVertex
 10
8.959377
 20
10.00449
 30
0.0
 70
0
  0
VERTEX
  5
10B
330
17
100
AcDbEntity
  8
CUT
100
AcDbVertex
100
AcDb2dVertex
 10
8.950569
 20
10.005587000000002
 30
0.0
 70
0
  0
SEQEND
  5
FD
330
FC
100
AcDbEntity
  8
CUT
  0
POLYLINE
  5
10C
330
17
100
AcDbEntity
  8
CUT
100
AcDb2dPolyline
 66
1
 10
0.0
 20
0.0
 30
0.0
 70
1
1001
EZDXF
1000
piece-019
  0
VERTEX
  5
10E
330
17
100
AcDbEntity
  8
CUT
100
AcDbVertex
100
AcDb2dVertex
 10
6.946113
 20
9.896786
 30
0.0
 70
0
  0
VERTEX
  5
10F
330
17
100
AcDbEntity
  8
CUT
100
AcDbVertex
100
AcDb2dVertex
 10
8.25507
 20
10.386481
 30
0.0
 70
0
  0
VERTEX
  5
110
330
17
100
AcDbEntity
  8
CUT
100
AcDbVertex
100
AcDb2dVertex
 10
8.25507
 20
10.018421
 30
0.0
 70
0
  0
VERTEX
  5
111
330
17
100
AcDbEntity
  8
CUT
100
AcDbVertex
100
AcDb2dVertex
 10
7.889851
 20
10.018421
 30
0.0
 70
0
  0
VERTEX
  5
112
330
17
100
AcDbEntity
  8
CUT
100
AcDbVertex
100
AcDb2dVertex
 10
7.562363
 20
10.004123
 30
0.0
 70
0
  0
VERTEX
  5
113
330
17
100
AcDbEntity
  8
CUT
100
AcDbVertex
100
AcDb2dVertex
 10
7.237151
 20
9.961308
 30
0.0
 70
0
  0
SEQEND
  5
10D
330
10C
100
AcDbEntity
  8
CUT
  0
POLYLINE
  5
114
330
17
100
AcDbEntity
  8
CUT
100
AcDb2dPolyline
 66
1
 10
0.0
 20
0.0
 30
0.0
 70
1
1001
EZDXF
1000
piece-020
  0
VERTEX
  5
116
330
17
100
AcDbEntity
  8
CUT
100
AcDbVertex
100
AcDb2dVertex
 10
12.314664
 20
9.430424
 30
0.0
 70
0
  0
VERTEX
  5
117
330
17
100
AcDbEntity
  8
CUT
100
AcDbVertex
100
AcDb2dVertex
 10
12.314664
 20
10.772042
 30
0.0
 70
0
  0
VERTEX
  5
118
330
17
100
AcDbEntity
  8
CUT
100
AcDbVertex
100
AcDb2dVertex
 10
12.94257
 20
10.537136
 30
0.0
 70
0
  0
VERTEX
  5
119
330
17
100
AcDbEntity
  8
CUT
100
AcDbVertex
100
AcDb2dVertex
 10
12.94257
 20
9.195517
 30
0.0
 70
0
  0
SEQEND
  5
115
330
114
100
AcDbEntity
  8
CUT
  0
POLYLINE
  5
11A
330
17
100
AcDbEntity
  8
CUT
100
AcDb2dPolyline
 66
1
 10
0.0
 20
0.0
 30
0.0
 70
1
1001
EZDXF
1000
piece-021
  0
VERTEX
  5
11C
330
17
100
AcDbEntity
  8
CUT
100
AcDbVertex
100
AcDb2dVertex
 10
3.58757
 20
10.537136
 30
0.0
 70
0
  0
VERTEX
  5
11D
330
17
100
AcDbEntity
  8
CUT
100
AcDbVertex
100
AcDb2dVertex
 10
4.215475
 20
10.772042
 30
0.0
 70
0
  0
VERTEX
  5
11E
330
17
100
AcDbEntity
  8
CUT
100
AcDbVertex
100
AcDb2dVertex
 10
4.215475
 20
9.430424
 30
0.0
 70
0
  0
VERTEX
  5
11F
330
17
100
AcDbEntity
  8
CUT
100
AcDbVertex
100
AcDb2dVertex
 10
3.58757
 20
9.195517
 30
0.0
 70
0
  0
SEQEND
  5
11B
330
11A
100
AcDbEntity
  8
CUT
  0
POLYLINE
  5
120
330
17
100
AcDbEntity
  8
CUT
100
AcDb2dPolyline
 66
1
 10
0.0
 20
0.0
 30
0.0
 70
1
1001
EZDXF
1000
piece-022
  0
VERTEX
  5
122
330
17
100
AcDbEntity
  8
CUT
100
AcDbVertex
100
AcDb2dVertex
 10
6.629511
 20
9.799696
 30
0.0
 70
0
  0
VERTEX
  5
123
330
17
100
AcDbEntity
  8
CUT
100
AcDbVertex
100
AcDb2dVertex
 10
6.604071
 20
9.791674
 30
0.0
 70
0
  0
VERTEX
  5
124
330
17
100
AcDbEntity
  8
CUT
100
AcDbVertex
100
AcDb2dVertex
 10
6.566762
 20
9.776221
 30
0.0
 70
0
  0
VERTEX
  5
125
330
17
100
AcDbEntity
  8
CUT
100
AcDbVertex
100
AcDb2dVertex
 10
3.58757
 20
8.661673
 30
0.0
 70
0
  0
VERTEX
  5
126
330
17
100
AcDbEntity
  8
CUT
100
AcDbVertex
100
AcDb2dVertex
 10
3.58757
 20
9.174164000000001
 30
0.0
 70
0
  0
VERTEX
  5
127
330
17
100
AcDbEntity
  8
CUT
100
AcDbVertex
100
AcDb2dVertex
 10
4.228979
 20
9.414122
 30
0.0
 70
0
  0
VERTEX
  5
128
330
17
100
AcDbEntity
  8
CUT
100
AcDbVertex
100
AcDb2dVertex
 10
7.518573
 20
10.644794000000001
 30
0.0
 70
0
  0
VERTEX
  5
129
330
17
100
AcDbEntity
  8
CUT
100
AcDbVertex
100
AcDb2dVertex
 10
8.25507
 20
10.920325000000002
 30
0.0
 70
0
  0
VERTEX
  5
12A
330
17
100
AcDbEntity
  8
CUT
100
AcDbVertex
100
AcDb2dVertex
 10
8.25507
 20
10.407835
 30
0.0
 70
0
  0
SEQEND
  5
121
330
120
100
AcDbEntity
  8
CUT
  0
POLYLINE
  5
12B
330
17
100
AcDbEntity
  8
CUT
100
AcDb2dPolyline
 66
1
 10
0.0
 20
0.0
 30
0.0
 70
1
1001
EZDXF
1000
piece-023
  0
VERTEX
  5
12D
330
17
100
AcDbEntity
  8
CUT
100
AcDbVertex
100
AcDb2dVertex
 10
9.963378
 20
9.776221
 30
0.0
 70
0
  0
VERTEX
  5
12E
330
17
100
AcDbEntity
  8
CUT
100
AcDbVertex
100
AcDb2dVertex
 10
9.926069
 20
9.791674
 30
0.0
 70
0
  0
VERTEX
  5
12F
330
17
100
AcDbEntity
  8
CUT
100
AcDbVertex
100
AcDb2dVertex
 10
9.900628
 20
9.799696
 30
0.0
 70
0
  0
VERTEX
  5
130
330
17
100
AcDbEntity
  8
CUT
100
AcDbVertex
100
AcDb2dVertex
 10
9.870855
 20
9.810834
 30
0.0
 70
0
  0
VERTEX
  5
131
330
17
100
AcDbEntity
  8
CUT
100
AcDbVertex
100
AcDb2dVertex
 10
9.860942
 20
9.814702
 30
0.0
 70
0
  0
VERTEX
  5
132
330
17
100
AcDbEntity
  8
CUT
100
AcDbVertex
100
AcDb2dVertex
 10
9.858855
 20
9.815324
 30
0.0
 70
0
  0
VERTEX
  5
133
330
17
100
AcDbEntity
  8
CUT
100
AcDbVertex
100
AcDb2dVertex
 10
8.27507
 20
10.407835
 30
0.0
 70
0
  0
VERTEX
  5
134
330
17
100
AcDbEntity
  8
CUT
100
AcDbVertex
100
AcDb2dVertex
 10
8.27507
 20
10.920325000000002
 30
0.0
 70
0
  0
VERTEX
  5
135
330
17
100
AcDbEntity
  8
CUT
100
AcDbVertex
100
AcDb2dVertex
 10
9.011566
 20
10.644794000000001
 30
0.0
 70
0
  0
VERTEX
  5
136
330
17
100
AcDbEntity
  8
CUT
100
AcDbVertex
100
AcDb2dVertex
 10
12.30116
 20
9.414122
 30
0.0
 70
0
  0
VERTEX
  5
137
330
17
100
AcDbEntity
  8
CUT
100
AcDbVertex
100
AcDb2dVertex
 10
12.94257
 20
9.174164000000001
 30
0.0
 70
0
  0
VERTEX
  5
138
330
17
100
AcDbEntity
  8
CUT
100
AcDbVertex
100
AcDb2dVertex
 10
12.94257
 20
8.661673
 30
0.0
 70
0
  0
SEQEND
  5
12C
330
12B
100
AcDbEntity
  8
CUT
  0
POLYLINE
  5
139
330
17
100
AcDbEntity
  8
CUT
100
AcDb2dPolyline
 66
1
 10
0.0
 20
0.0
 30
0.0
 70
1
1001
EZDXF
1000
piece-024
  0
VERTEX
  5
13B
330
17
100
AcDbEntity
  8
CUT
100
AcDbVertex
100
AcDb2dVertex
 10
6.227983
 20
9.628126000000002
 30
0.0
 70
0
  0
VERTEX
  5
13C
330
17
100
AcDbEntity
  8
CUT
100
AcDbVertex
100
AcDb2dVertex
 10
6.010065
 20
9.514685
 30
0.0
 70
0
  0
VERTEX
  5
13D
330
17
100
AcDbEntity
  8
CUT
100
AcDbVertex
100
AcDb2dVertex
 10
5.733417
 20
9.338441
 30
0.0
 70
0
  0
VERTEX
  5
13E
330
17
100
AcDbEntity
  8
CUT
100
AcDbVertex
100
AcDb2dVertex
 10
5.473182
 20
9.138756
 30
0.0
 70
0
  0
VERTEX
  5
13F
330
17
100
AcDbEntity
  8
CUT
100
AcDbVertex
100
AcDb2dVertex
 10
5.231341
 20
8.917150000000001
 30
0.0
 70
0
  0
VERTEX
  5
140
330
17
100
AcDbEntity
  8
CUT
100
AcDbVertex
100
AcDb2dVertex
 10
5.009735
 20
8.675309
 30
0.0
 70
0
  0
VERTEX
  5
141
330
17
100
AcDbEntity
  8
CUT
100
AcDbVertex
100
AcDb2dVertex
 10
4.81005
 20
8.415074
 30
0.0
 70
0
  0
VERTEX
  5
142
330
17
100
AcDbEntity
  8
CUT
100
AcDbVertex
100
AcDb2dVertex
 10
4.633806
 20
8.138426
 30
0.0
 70
0
  0
VERTEX
  5
143
330
17
100
AcDbEntity
  8
CUT
100
AcDbVertex
100
AcDb2dVertex
 10
4.482344
 20
7.84747
 30
0.0
 70
0
  0
VERTEX
  5
144
330
17
100
AcDbEntity
  8
CUT
100
AcDbVertex
100
AcDb2dVertex
 10
4.356816
 20
7.544420000000001
 30
0.0
 70
0
  0
VERTEX
  5
145
330
17
100
AcDbEntity
  8
CUT
100
AcDbVertex
100
AcDb2dVertex
 10
4.258179
 20
7.2315830000000005
 30
0.0
 70
0
  0
VERTEX
  5
146
330
17
100
AcDbEntity
  8
CUT
100
AcDbVertex
100
AcDb2dVertex
 10
4.187183
 20
6.911340000000001
 30
0.0
 70
0
  0
VERTEX
  5
147
330
17
100
AcDbEntity
  8
CUT
100
AcDbVertex
100
AcDb2dVertex
 10
4.144368
 20
6.586128
 30
0.0
 70
0
  0
VERTEX
  5
148
330
17
100
AcDbEntity
  8
CUT
100
AcDbVertex
100
AcDb2dVertex
 10
4.13007
 20
6.2586390000000005
 30
0.0
 70
0
  0
VERTEX
  5
149
330
17
100
AcDbEntity
  8
CUT
100
AcDbVertex
100
AcDb2dVertex
 10
4.13007
 20
5.604839
 30
0.0
 70
0
  0
VERTEX
  5
14A
330
17
100
AcDbEntity
  8
CUT
100
AcDbVertex
100
AcDb2dVertex
 10
3.58757
 20
5.401884000000001
 30
0.0
 70
0
  0
VERTEX
  5
14B
330
17
100
AcDbEntity
  8
CUT
100
AcDbVertex
100
AcDb2dVertex
 10
3.58757
 20
6.750439000000001
 30
0.0
 70
0
  0
VERTEX
  5
14C
330
17
100
AcDbEntity
  8
CUT
100
AcDbVertex
100
AcDb2dVertex
 10
3.58757
 20
7.284283000000001
 30
0.0
 70
0
  0
VERTEX
  5
14D
330
17
100
AcDbEntity
  8
CUT
100
AcDbVertex
100
AcDb2dVertex
 10
3.58757
 20
8.640319000000002
 30
0.0
 70
0
  0
SEQEND
  5
13A
330
139
100
AcDbEntity
  8
CUT
  0
POLYLINE
  5
14E
330
17
100
AcDbEntity
  8
CUT
100
AcDb2dPolyline
 66
1
 10
0.0
 20
0.0
 30
0.0
 70
1
1001
EZDXF
1000
piece-025
  0
VERTEX
  5
150
330
17
100
AcDbEntity
  8
CUT
100
AcDbVertex
100
AcDb2dVertex
 10
10.302156
 20
9.628126000000002
 30
0.0
 70
0
  0
VERTEX
  5
151
330
17
100
AcDbEntity
  8
CUT
100
AcDbVertex
100
AcDb2dVertex
 10
12.94257
 20
8.640319000000002
 30
0.0
 70
0
  0
VERTEX
  5
152
330
17
100
AcDbEntity
  8
CUT
100
AcDbVertex
100
AcDb2dVertex
 10
12.94257
 20
7.284283000000001
 30
0.0
 70
0
  0
VERTEX
  5
153
330
17
100
AcDbEntity
  8
CUT
100
AcDbVertex
100
AcDb2dVertex
 10
12.94257
 20
6.750439000000001
 30
0.0
 70
0
  0
VERTEX
  5
154
330
17
100
AcDbEntity
  8
CUT
100
AcDbVertex
100
AcDb2dVertex
 10
12.94257
 20
5.401884000000001
 30
0.0
 70
0
  0
VERTEX
  5
155
330
17
100
AcDbEntity
  8
CUT
100
AcDbVertex
100
AcDb2dVertex
 10
12.40007
 20
5.604839
 30
0.0
 70
0
  0
VERTEX
  5
156
330
17
100
AcDbEntity
  8
CUT
100
AcDbVertex
100
AcDb2dVertex
 10
12.40007
 20
6.258421
 30
0.0
 70
0
  0
VERTEX
  5
157
330
17
100
AcDbEntity
  8
CUT
100
AcDbVertex
100
AcDb2dVertex
 10
12.400069
 20
6.258629000000001
 30
0.0
 70
0
  0
VERTEX
  5
158
330
17
100
AcDbEntity
  8
CUT
100
AcDbVertex
100
AcDb2dVertex
 10
12.387236
 20
6.56892
 30
0.0
 70
0
  0
VERTEX
  5
159
330
17
100
AcDbEntity
  8
CUT
100
AcDbVertex
100
AcDb2dVertex
 10
12.386138
 20
6.5777290000000015
 30
0.0
 70
0
  0
VERTEX
  5
15A
330
17
100
AcDbEntity
  8
CUT
100
AcDbVertex
100
AcDb2dVertex
 10
12.385771
 20
6.586128
 30
0.0
 70
0
  0
VERTEX
  5
15B
330
17
100
AcDbEntity
  8
CUT
100
AcDbVertex
100
AcDb2dVertex
 10
12.372982
 20
6.683268
 30
0.0
 70
0
  0
VERTEX
  5
15C
330
17
100
AcDbEntity
  8
CUT
100
AcDbVertex
100
AcDb2dVertex
 10
12.348796
 20
6.877298000000001
 30
0.0
 70
0
  0
VERTEX
  5
15D
330
17
100
AcDbEntity
  8
CUT
100
AcDbVertex
100
AcDb2dVertex
 10
12.345145
 20
6.894712000000001
 30
0.0
 70
0
  0
VERTEX
  5
15E
330
17
100
AcDbEntity
  8
CUT
100
AcDbVertex
100
AcDb2dVertex
 10
12.342956
 20
6.911340000000001
 30
0.0
 70
0
  0
VERTEX
  5
15F
330
17
100
AcDbEntity
  8
CUT
100
AcDbVertex
100
AcDb2dVertex
 10
12.31902
 20
7.019306000000001
 30
0.0
 70
0
  0
VERTEX
  5
160
330
17
100
AcDbEntity
  8
CUT
100
AcDbVertex
100
AcDb2dVertex
 10
12.285023
 20
7.181449000000001
 30
0.0
 70
0
  0
VERTEX
  5
161
330
17
100
AcDbEntity
  8
CUT
100
AcDbVertex
100
AcDb2dVertex
 10
12.277392
 20
7.20708
 30
0.0
 70
0
  0
VERTEX
  5
162
330
17
100
AcDbEntity
  8
CUT
100
AcDbVertex
100
AcDb2dVertex
 10
12.27196
 20
7.2315830000000005
 30
0.0
 70
0
  0
VERTEX
  5
163
330
17
100
AcDbEntity
  8
CUT
100
AcDbVertex
100
AcDb2dVertex
 10
12.238563
 20
7.337505000000001
 30
0.0
 70
0
  0
VERTEX
  5
164
330
17
100
AcDbEntity
  8
CUT
100
AcDbVertex
100
AcDb2dVertex
 10
12.19635
 20
7.479294000000001
 30
0.0
 70
0
  0
VERTEX
  5
165
330
17
100
AcDbEntity
  8
CUT
100
AcDbVertex
100
AcDb2dVertex
 10
12.183361
 20
7.512584
 30
0.0
 70
0
  0
VERTEX
  5
166
330
17
100
AcDbEntity
  8
CUT
100
AcDbVertex
100
AcDb2dVertex
 10
12.173323
 20
7.544420000000001
 30
0.0
 70
0
  0
VERTEX
  5
167
330
17
100
AcDbEntity
  8
CUT
100
AcDbVertex
100
AcDb2dVertex
 10
12.132188
 20
7.643728000000001
 30
0.0
 70
0
  0
VERTEX
  5
168
330
17
100
AcDbEntity
  8
CUT
100
AcDbVertex
100
AcDb2dVertex
 10
12.083385
 20
7.768800000000001
 30
0.0
 70
0
  0
VERTEX
  5
169
330
17
100
AcDbEntity
  8
CUT
100
AcDbVertex
100
AcDb2dVertex
 10
12.063719
 20
7.809027
 30
0.0
 70
0
  0
VERTEX
  5
16A
330
17
100
AcDbEntity
  8
CUT
100
AcDbVertex
100
AcDb2dVertex
 10
12.047795
 20
7.84747
 30
0.0
 70
0
  0
VERTEX
  5
16B
330
17
100
AcDbEntity
  8
CUT
100
AcDbVertex
100
AcDb2dVertex
 10
12.00066
 20
7.938016000000001
 30
0.0
 70
0
  0
VERTEX
  5
16C
330
17
100
AcDbEntity
  8
CUT
100
AcDbVertex
100
AcDb2dVertex
 10
11.946898
 20
8.047988
 30
0.0
 70
0
  0
VERTEX
  5
16D
330
17
100
AcDbEntity
  8
CUT
100
AcDbVertex
100
AcDb2dVertex
 10
11.919316
 20
8.094277000000002
 30
0.0
 70
0
  0
VERTEX
  5
16E
330
17
100
AcDbEntity
  8
CUT
100
AcDbVertex
100
AcDb2dVertex
 10
11.896333
 20
8.138426
 30
0.0
 70
0
  0
VERTEX
  5
16F
330
17
100
AcDbEntity
  8
CUT
100
AcDbVertex
100
AcDb2dVertex
 10
11.844925
 20
8.219121000000001
 30
0.0
 70
0
  0
VERTEX
  5
170
330
17
100
AcDbEntity
  8
CUT
100
AcDbVertex
100
AcDb2dVertex
 10
11.787823
 20
8.314951
 30
0.0
 70
0
  0
VERTEX
  5
171
330
17
100
AcDbEntity
  8
CUT
100
AcDbVertex
100
AcDb2dVertex
 10
11.751173
 20
8.366282000000002
 30
0.0
 70
0
  0
VERTEX
  5
172
330
17
100
AcDbEntity
  8
CUT
100
AcDbVertex
100
AcDb2dVertex
 10
11.720089
 20
8.415074
 30
0.0
 70
0
  0
VERTEX
  5
173
330
17
100
AcDbEntity
  8
CUT
100
AcDbVertex
100
AcDb2dVertex
 10
11.666102
 20
8.485431000000002
 30
0.0
 70
0
  0
VERTEX
  5
174
330
17
100
AcDbEntity
  8
CUT
100
AcDbVertex
100
AcDb2dVertex
 10
11.607245
 20
8.567866
 30
0.0
 70
0
  0
VERTEX
  5
175
330
17
100
AcDbEntity
  8
CUT
100
AcDbVertex
100
AcDb2dVertex
 10
11.560476
 20
8.623086
 30
0.0
 70
0
  0
VERTEX
  5
176
330
17
100
AcDbEntity
  8
CUT
100
AcDbVertex
100
AcDb2dVertex
 10
11.520404
 20
8.675309
 30
0.0
 70
0
  0
VERTEX
  5
177
330
17
100
AcDbEntity
  8
CUT
100
AcDbVertex
100
AcDb2dVertex
 10
11.465477
 20
8.735251000000002
 30
0.0
 70
0
  0
VERTEX
  5
178
330
17
100
AcDbEntity
  8
CUT
100
AcDbVertex
100
AcDb2dVertex
 10
11.406398
 20
8.805006
 30
0.0
 70
0
  0
VERTEX
  5
179
330
17
100
AcDbEntity
  8
CUT
100
AcDbVertex
100
AcDb2dVertex
 10
11.348561
 20
8.862843000000002
 30
0.0
 70
0
  0
VERTEX
  5
17A
330
17
100
AcDbEntity
  8
CUT
100
AcDbVertex
100
AcDb2dVertex
 10
11.298798
 20
8.917150000000001
 30
0.0
 70
0
  0
VERTEX
  5
17B
330
17
100
AcDbEntity
  8
CUT
100
AcDbVertex
100
AcDb2dVertex
 10
11.244491
 20
8.966912
 30
0.0
 70
0
  0
VERTEX
  5
17C
330
17
100
AcDbEntity
  8
CUT
100
AcDbVertex
100
AcDb2dVertex
 10
11.186654
 20
9.024749
 30
0.0
 70
0
  0
VERTEX
  5
17D
330
17
100
AcDbEntity
  8
CUT
100
AcDbVertex
100
AcDb2dVertex
 10
11.1169
 20
9.083828
 30
0.0
 70
0
  0
VERTEX
  5
17E
330
17
100
AcDbEntity
  8
CUT
100
AcDbVertex
100
AcDb2dVertex
 10
11.056957
 20
9.138756
 30
0.0
 70
0
  0
VERTEX
  5
17F
330
17
100
AcDbEntity
  8
CUT
100
AcDbVertex
100
AcDb2dVertex
 10
11.004734
 20
9.178828000000001
 30
0.0
 70
0
  0
VERTEX
  5
180
330
17
100
AcDbEntity
  8
CUT
100
AcDbVertex
100
AcDb2dVertex
 10
10.949515
 20
9.225596000000001
 30
0.0
 70
0
  0
VERTEX
  5
181
330
17
100
AcDbEntity
  8
CUT
100
AcDbVertex
100
AcDb2dVertex
 10
10.86708
 20
9.284454
 30
0.0
 70
0
  0
VERTEX
  5
182
330
17
100
AcDbEntity
  8
CUT
100
AcDbVertex
100
AcDb2dVertex
 10
10.796722
 20
9.338441
 30
0.0
 70
0
  0
VERTEX
  5
183
330
17
100
AcDbEntity
  8
CUT
100
AcDbVertex
100
AcDb2dVertex
 10
10.74793
 20
9.369525000000001
 30
0.0
 70
0
  0
VERTEX
  5
184
330
17
100
AcDbEntity
  8
CUT
100
AcDbVertex
100
AcDb2dVertex
 10
10.696599
 20
9.406174
 30
0.0
 70
0
  0
VERTEX
  5
185
330
17
100
AcDbEntity
  8
CUT
100
AcDbVertex
100
AcDb2dVertex
 10
10.600769
 20
9.463277000000001
 30
0.0
 70
0
  0
VERTEX
  5
186
330
17
100
AcDbEntity
  8
CUT
100
AcDbVertex
100
AcDb2dVertex
 10
10.520074
 20
9.514685
 30
0.0
 70
0
  0
VERTEX
  5
187
330
17
100
AcDbEntity
  8
CUT
100
AcDbVertex
100
AcDb2dVertex
 10
10.475925
 20
9.537668
 30
0.0
 70
0
  0
VERTEX
  5
188
330
17
100
AcDbEntity
  8
CUT
100
AcDbVertex
100
AcDb2dVertex
 10
10.429636
 20
9.56525
 30
0.0
 70
0
  0
VERTEX
  5
189
330
17
100
AcDbEntity
  8
CUT
100
AcDbVertex
100
AcDb2dVertex
 10
10.319664
 20
9.619012000000001
 30
0.0
 70
0
  0
SEQEND
  5
14F
330
14E
100
AcDbEntity
  8
CUT
  0
POLYLINE
  5
18A
330
17
100
AcDbEntity
  8
CUT
100
AcDb2dPolyline
 66
1
 10
0.0
 20
0.0
 30
0.0
 70
1
1001
EZDXF
1000
piece-026
  0
VERTEX
  5
18C
330
17
100
AcDbEntity
  8
CUT
100
AcDbVertex
100
AcDb2dVertex
 10
12.96257
 20
2.9568060000000003
 30
0.0
 70
0
  0
VERTEX
  5
18D
330
17
100
AcDbEntity
  8
CUT
100
AcDbVertex
100
AcDb2dVertex
 10
12.96257
 20
3.4906500000000005
 30
0.0
 70
0
  0
VERTEX
  5
18E
330
17
100
AcDbEntity
  8
CUT
100
AcDbVertex
100
AcDb2dVertex
 10
12.96257
 20
4.853622000000001
 30
0.0
 70
0
  0
VERTEX
  5
18F
330
17
100
AcDbEntity
  8
CUT
100
AcDbVertex
100
AcDb2dVertex
 10
12.96257
 20
6.750439000000001
 30
0.0
 70
0
  0
VERTEX
  5
190
330
17
100
AcDbEntity
  8
CUT
100
AcDbVertex
100
AcDb2dVertex
 10
12.96257
 20
7.284283000000001
 30
0.0
 70
0
  0
VERTEX
  5
191
330
17
100
AcDbEntity
  8
CUT
100
AcDbVertex
100
AcDb2dVertex
 10
12.96257
 20
8.647255000000001
 30
0.0
 70
0
  0
VERTEX
  5
192
330
17
100
AcDbEntity
  8
CUT
100
AcDbVertex
100
AcDb2dVertex
 10
12.96257
 20
9.181099
 30
0.0
 70
0
  0
VERTEX
  5
193
330
17
100
AcDbEntity
  8
CUT
100
AcDbVertex
100
AcDb2dVertex
 10
12.96257
 20
10.544071
 30
0.0
 70
0
  0
VERTEX
  5
194
330
17
100
AcDbEntity
  8
CUT
100
AcDbVertex
100
AcDb2dVertex
 10
12.96257
 20
11.077916000000002
 30
0.0
 70
0
  0
VERTEX
  5
195
330
17
100
AcDbEntity
  8
CUT
100
AcDbVertex
100
AcDb2dVertex
 10
12.96257
 20
12.440888000000001
 30
0.0
 70
0
  0
VERTEX
  5
196
330
17
100
AcDbEntity
  8
CUT
100
AcDbVertex
100
AcDb2dVertex
 10
12.96257
 20
12.960314
 30
0.0
 70
0
  0
VERTEX
  5
197
330
17
100
AcDbEntity
  8
CUT
100
AcDbVertex
100
AcDb2dVertex
 10
13.044658
 20
12.929604000000001
 30
0.0
 70
0
  0
VERTEX
  5
198
330
17
100
AcDbEntity
  8
CUT
100
AcDbVertex
100
AcDb2dVertex
 10
13.044664
 20
0.5100000000000016
 30
0.0
 70
0
  0
VERTEX
  5
199
330
17
100
AcDbEntity
  8
CUT
100
AcDbVertex
100
AcDb2dVertex
 10
12.96257
 20
0.5100000000000016
 30
0.0
 70
0
  0
VERTEX
  5
19A
330
17
100
AcDbEntity
  8
CUT
100
AcDbVertex
100
AcDb2dVertex
 10
12.96257
 20
1.0288120000000003
 30
0.0
 70
0
  0
VERTEX
  5
19B
330
17
100
AcDbEntity
  8
CUT
100
AcDbVertex
100
AcDb2dVertex
 10
12.96257
 20
1.593834000000001
 30
0.0
 70
0
  0
SEQEND
  5
18B
330
18A
100
AcDbEntity
  8
CUT
  0
POLYLINE
  5
19C
330
17
100
AcDbEntity
  8
CUT
100
AcDb2dPolyline
 66
1
 10
0.0
 20
0.0
 30
0.0
 70
1
1001
EZDXF
1000
piece-027
  0
VERTEX
  5
19E
330
17
100
AcDbEntity
  8
CUT
100
AcDbVertex
100
AcDb2dVertex
 10
13.122825
 20
0.5100000000000016
 30
0.0
 70
0
  0
VERTEX
  5
19F
330
17
100
AcDbEntity
  8
CUT
100
AcDbVertex
100
AcDb2dVertex
 10
13.122825
 20
12.900361
 30
0.0
 70
0
  0
VERTEX
  5
1A0
330
17
100
AcDbEntity
  8
CUT
100
AcDbVertex
100
AcDb2dVertex
 10
14.102825
 20
12.533733000000002
 30
0.0
 70
0
  0
VERTEX
  5
1A1
330
17
100
AcDbEntity
  8
CUT
100
AcDbVertex
100
AcDb2dVertex
 10
14.102825
 20
0.5100000000000016
 30
0.0
 70
0
  0
SEQEND
  5
19D
330
19C
100
AcDbEntity
  8
CUT
  0
POLYLINE
  5
1A2
330
17
100
AcDbEntity
  8
CUT
100
AcDb2dPolyline
 66
1
 10
0.0
 20
0.0
 30
0.0
 70
1
1001
EZDXF
1000
piece-028
  0
VERTEX
  5
1A4
330
17
100
AcDbEntity
  8
CUT
100
AcDbVertex
100
AcDb2dVertex
 10
3.485475
 20
0.5100000000000016
 30
0.0
 70
0
  0
VERTEX
  5
1A5
330
17
100
AcDbEntity
  8
CUT
100
AcDbVertex
100
AcDb2dVertex
 10
3.485475
 20
12.395758
 30
0.0
 70
0
  0
VERTEX
  5
1A6
330
17
100
AcDbEntity
  8
CUT
100
AcDbVertex
100
AcDb2dVertex
 10
3.56757
 20
12.426470000000002
 30
0.0
 70
0
  0
VERTEX
  5
1A7
330
17
100
AcDbEntity
  8
CUT
100
AcDbVertex
100
AcDb2dVertex
 10
3.56757
 20
7.284283000000001
 30
0.0
 70
0
  0
VERTEX
  5
1A8
330
17
100
AcDbEntity
  8
CUT
100
AcDbVertex
100
AcDb2dVertex
 10
3.56757
 20
6.750439000000001
 30
0.0
 70
0
  0
VERTEX
  5
1A9
330
17
100
AcDbEntity
  8
CUT
100
AcDbVertex
100
AcDb2dVertex
 10
3.56757
 20
5.387466000000002
 30
0.0
 70
0
  0
VERTEX
  5
1AA
330
17
100
AcDbEntity
  8
CUT
100
AcDbVertex
100
AcDb2dVertex
 10
3.56757
 20
4.853622000000001
 30
0.0
 70
0
  0
VERTEX
  5
1AB
330
17
100
AcDbEntity
  8
CUT
100
AcDbVertex
100
AcDb2dVertex
 10
3.56757
 20
3.4906500000000005
 30
0.0
 70
0
  0
VERTEX
  5
1AC
330
17
100
AcDbEntity
  8
CUT
100
AcDbVertex
100
AcDb2dVertex
 10
3.56757
 20
2.9568060000000003
 30
0.0
 70
0
  0
VERTEX
  5
1AD
330
17
100
AcDbEntity
  8
CUT
100
AcDbVertex
100
AcDb2dVertex
 10
3.56757
 20
1.593834000000001
 30
0.0
 70
0
  0
VERTEX
  5
1AE
330
17
100
AcDbEntity
  8
CUT
100
AcDbVertex
100
AcDb2dVertex
 10
3.56757
 20
1.0376400000000015
 30
0.0
 70
0
  0
VERTEX
  5
1AF
330
17
100
AcDbEntity
  8
CUT
100
AcDbVertex
100
AcDb2dVertex
 10
3.56757
 20
1.0376400000000015
 30
0.0
 70
0
  0
VERTEX
  5
1B0
330
17
100
AcDbEntity
  8
CUT
100
AcDbVertex
100
AcDb2dVertex
 10
3.56757
 20
0.5100000000000016
 30
0.0
 70
0
  0
SEQEND
  5
1A3
330
1A2
100
AcDbEntity
  8
CUT
  0
POLYLINE
  5
1B1
330
17
100
AcDbEntity
  8
CUT
100
AcDb2dPolyline
 66
1
 10
0.0
 20
0.0
 30
0.0
 70
1
1001
EZDXF
1000
piece-029
  0
VERTEX
  5
1B3
330
17
100
AcDbEntity
  8
CUT
100
AcDbVertex
100
AcDb2dVertex
 10
12.40007
 20
5.070995
 30
0.0
 70
0
  0
VERTEX
  5
1B4
330
17
100
AcDbEntity
  8
CUT
100
AcDbVertex
100
AcDb2dVertex
 10
12.40007
 20
5.583486000000001
 30
0.0
 70
0
  0
VERTEX
  5
1B5
330
17
100
AcDbEntity
  8
CUT
100
AcDbVertex
100
AcDb2dVertex
 10
12.94257
 20
5.380531000000001
 30
0.0
 70
0
  0
VERTEX
  5
1B6
330
17
100
AcDbEntity
  8
CUT
100
AcDbVertex
100
AcDb2dVertex
 10
12.94257
 20
4.868040000000001
 30
0.0
 70
0
  0
SEQEND
  5
1B2
330
1B1
100
AcDbEntity
  8
CUT
  0
POLYLINE
  5
1B7
330
17
100
AcDbEntity
  8
CUT
100
AcDb2dPolyline
 66
1
 10
0.0
 20
0.0
 30
0.0
 70
1
1001
EZDXF
1000
piece-030
  0
VERTEX
  5
1B9
330
17
100
AcDbEntity
  8
CUT
100
AcDbVertex
100
AcDb2dVertex
 10
4.13007
 20
5.583486000000001
 30
0.0
 70
0
  0
VERTEX
  5
1BA
330
17
100
AcDbEntity
  8
CUT
100
AcDbVertex
100
AcDb2dVertex
 10
4.13007
 20
5.070995
 30
0.0
 70
0
  0
VERTEX
  5
1BB
330
17
100
AcDbEntity
  8
CUT
100
AcDbVertex
100
AcDb2dVertex
 10
3.58757
 20
4.868040000000001
 30
0.0
 70
0
  0
VERTEX
  5
1BC
330
17
100
AcDbEntity
  8
CUT
100
AcDbVertex
100
AcDb2dVertex
 10
3.58757
 20
5.380531000000001
 30
0.0
 70
0
  0
SEQEND
  5
1B8
330
1B7
100
AcDbEntity
  8
CUT
  0
POLYLINE
  5
1BD
330
17
100
AcDbEntity
  8
CUT
100
AcDb2dPolyline
 66
1
 10
0.0
 20
0.0
 30
0.0
 70
1
1001
EZDXF
1000
piece-031
  0
VERTEX
  5
1BF
330
17
100
AcDbEntity
  8
CUT
100
AcDbVertex
100
AcDb2dVertex
 10
7.890276
 20
9.498421
 30
0.0
 70
0
  0
VERTEX
  5
1C0
330
17
100
AcDbEntity
  8
CUT
100
AcDbVertex
100
AcDb2dVertex
 10
8.639851
 20
9.498421
 30
0.0
 70
0
  0
VERTEX
  5
1C1
330
17
100
AcDbEntity
  8
CUT
100
AcDbVertex
100
AcDb2dVertex
 10
8.915238
 20
9.486398000000001
 30
0.0
 70
0
  0
VERTEX
  5
1C2
330
17
100
AcDbEntity
  8
CUT
100
AcDbVertex
100
AcDb2dVertex
 10
9.005897
 20
9.475097000000002
 30
0.0
 70
0
  0
VERTEX
  5
1C3
330
17
100
AcDbEntity
  8
CUT
100
AcDbVertex
100
AcDb2dVertex
 10
9.188384
 20
9.451072
 30
0.0
 70
0
  0
VERTEX
  5
1C4
330
17
100
AcDbEntity
  8
CUT
100
AcDbVertex
100
AcDb2dVertex
 10
9.295568
 20
9.428598000000001
 30
0.0
 70
0
  0
VERTEX
  5
1C5
330
17
100
AcDbEntity
  8
CUT
100
AcDbVertex
100
AcDb2dVertex
 10
9.457551
 20
9.392687
 30
0.0
 70
0
  0
VERTEX
  5
1C6
330
17
100
AcDbEntity
  8
CUT
100
AcDbVertex
100
AcDb2dVertex
 10
9.569805
 20
9.359268
 30
0.0
 70
0
  0
VERTEX
  5
1C7
330
17
100
AcDbEntity
  8
CUT
100
AcDbVertex
100
AcDb2dVertex
 10
9.720804
 20
9.311658000000001
 30
0.0
 70
0
  0
VERTEX
  5
1C8
330
17
100
AcDbEntity
  8
CUT
100
AcDbVertex
100
AcDb2dVertex
 10
9.833704
 20
9.267604
 30
0.0
 70
0
  0
VERTEX
  5
1C9
330
17
100
AcDbEntity
  8
CUT
100
AcDbVertex
100
AcDb2dVertex
 10
9.97625
 20
9.208560000000002
 30
0.0
 70
0
  0
VERTEX
  5
1CA
330
17
100
AcDbEntity
  8
CUT
100
AcDbVertex
100
AcDb2dVertex
 10
10.087308
 20
9.154267
 30
0.0
 70
0
  0
VERTEX
  5
1CB
330
17
100
AcDbEntity
  8
CUT
100
AcDbVertex
100
AcDb2dVertex
 10
10.22205
 20
9.084125
 30
0.0
 70
0
  0
VERTEX
  5
1CC
330
17
100
AcDbEntity
  8
CUT
100
AcDbVertex
100
AcDb2dVertex
 10
10.329548
 20
9.02007
 30
0.0
 70
0
  0
VERTEX
  5
1CD
330
17
100
AcDbEntity
  8
CUT
100
AcDbVertex
100
AcDb2dVertex
 10
10.456437
 20
8.939233000000002
 30
0.0
 70
0
  0
VERTEX
  5
1CE
330
17
100
AcDbEntity
  8
CUT
100
AcDbVertex
100
AcDb2dVertex
 10
10.559036
 20
8.865978000000002
 30
0.0
 70
0
  0
VERTEX
  5
1CF
330
17
100
AcDbEntity
  8
CUT
100
AcDbVertex
100
AcDb2dVertex
 10
10.677725
 20
8.774905
 30
0.0
 70
0
  0
VERTEX
  5
1D0
330
17
100
AcDbEntity
  8
CUT
100
AcDbVertex
100
AcDb2dVertex
 10
10.774313
 20
8.693099
 30
0.0
 70
0
  0
VERTEX
  5
1D1
330
17
100
AcDbEntity
  8
CUT
100
AcDbVertex
100
AcDb2dVertex
 10
10.884324
 20
8.592293000000002
 30
0.0
 70
0
  0
VERTEX
  5
1D2
330
17
100
AcDbEntity
  8
CUT
100
AcDbVertex
100
AcDb2dVertex
 10
10.973941
 20
8.502675
 30
0.0
 70
0
  0
VERTEX
  5
1D3
330
17
100
AcDbEntity
  8
CUT
100
AcDbVertex
100
AcDb2dVertex
 10
11.074747
 20
8.392665000000001
 30
0.0
 70
0
  0
VERTEX
  5
1D4
330
17
100
AcDbEntity
  8
CUT
100
AcDbVertex
100
AcDb2dVertex
 10
11.156553
 20
8.296077
 30
0.0
 70
0
  0
VERTEX
  5
1D5
330
17
100
AcDbEntity
  8
CUT
100
AcDbVertex
100
AcDb2dVertex
 10
11.247626
 20
8.177388
 30
0.0
 70
0
  0
VERTEX
  5
1D6
330
17
100
AcDbEntity
  8
CUT
100
AcDbVertex
100
AcDb2dVertex
 10
11.320881
 20
8.074788000000002
 30
0.0
 70
0
  0
VERTEX
  5
1D7
330
17
100
AcDbEntity
  8
CUT
100
AcDbVertex
100
AcDb2dVertex
 10
11.401718
 20
7.947900000000001
 30
0.0
 70
0
  0
VERTEX
  5
1D8
330
17
100
AcDbEntity
  8
CUT
100
AcDbVertex
100
AcDb2dVertex
 10
11.465773
 20
7.840401000000001
 30
0.0
 70
0
  0
VERTEX
  5
1D9
330
17
100
AcDbEntity
  8
CUT
100
AcDbVertex
100
AcDb2dVertex
 10
11.535915
 20
7.705660000000001
 30
0.0
 70
0
  0
VERTEX
  5
1DA
330
17
100
AcDbEntity
  8
CUT
100
AcDbVertex
100
AcDb2dVertex
 10
11.590208
 20
7.594601000000001
 30
0.0
 70
0
  0
VERTEX
  5
1DB
330
17
100
AcDbEntity
  8
CUT
100
AcDbVertex
100
AcDb2dVertex
 10
11.649253
 20
7.452056000000001
 30
0.0
 70
0
  0
VERTEX
  5
1DC
330
17
100
AcDbEntity
  8
CUT
100
AcDbVertex
100
AcDb2dVertex
 10
11.693306
 20
7.339156000000001
 30
0.0
 70
0
  0
VERTEX
  5
1DD
330
17
100
AcDbEntity
  8
CUT
100
AcDbVertex
100
AcDb2dVertex
 10
11.740916
 20
7.188157000000001
 30
0.0
 70
0
  0
VERTEX
  5
1DE
330
17
100
AcDbEntity
  8
CUT
100
AcDbVertex
100
AcDb2dVertex
 10
11.774335
 20
7.075903000000001
 30
0.0
 70
0
  0
VERTEX
  5
1DF
330
17
100
AcDbEntity
  8
CUT
100
AcDbVertex
100
AcDb2dVertex
 10
11.810246
 20
6.913920000000001
 30
0.0
 70
0
  0
VERTEX
  5
1E0
330
17
100
AcDbEntity
  8
CUT
100
AcDbVertex
100
AcDb2dVertex
 10
11.83272
 20
6.806735000000001
 30
0.0
 70
0
  0
VERTEX
  5
1E1
330
17
100
AcDbEntity
  8
CUT
100
AcDbVertex
100
AcDb2dVertex
 10
11.856745
 20
6.624249000000001
 30
0.0
 70
0
  0
VERTEX
  5
1E2
330
17
100
AcDbEntity
  8
CUT
100
AcDbVertex
100
AcDb2dVertex
 10
11.868046
 20
6.53359
 30
0.0
 70
0
  0
VERTEX
  5
1E3
330
17
100
AcDbEntity
  8
CUT
100
AcDbVertex
100
AcDb2dVertex
 10
11.88007
 20
6.258203
 30
0.0
 70
0
  0
VERTEX
  5
1E4
330
17
100
AcDbEntity
  8
CUT
100
AcDbVertex
100
AcDb2dVertex
 10
11.88007
 20
0.5100000000000016
 30
0.0
 70
0
  0
VERTEX
  5
1E5
330
17
100
AcDbEntity
  8
CUT
100
AcDbVertex
100
AcDb2dVertex
 10
4.65007
 20
0.5100000000000016
 30
0.0
 70
0
  0
VERTEX
  5
1E6
330
17
100
AcDbEntity
  8
CUT
100
AcDbVertex
100
AcDb2dVertex
 10
4.65007
 20
6.258215000000002
 30
0.0
 70
0
  0
VERTEX
  5
1E7
330
17
100
AcDbEntity
  8
CUT
100
AcDbVertex
100
AcDb2dVertex
 10
4.661144
 20
6.525978
 30
0.0
 70
0
  0
VERTEX
  5
1E8
330
17
100
AcDbEntity
  8
CUT
100
AcDbVertex
100
AcDb2dVertex
 10
4.694267
 20
6.7917060000000005
 30
0.0
 70
0
  0
VERTEX
  5
1E9
330
17
100
AcDbEntity
  8
CUT
100
AcDbVertex
100
AcDb2dVertex
 10
4.749221
 20
7.0537920000000005
 30
0.0
 70
0
  0
VERTEX
  5
1EA
330
17
100
AcDbEntity
  8
CUT
100
AcDbVertex
100
AcDb2dVertex
 10
4.82563
 20
7.3104450000000005
 30
0.0
 70
0
  0
VERTEX
  5
1EB
330
17
100
AcDbEntity
  8
CUT
100
AcDbVertex
100
AcDb2dVertex
 10
4.922972
 20
7.5599110000000005
 30
0.0
 70
0
  0
VERTEX
  5
1EC
330
17
100
AcDbEntity
  8
CUT
100
AcDbVertex
100
AcDb2dVertex
 10
5.040582
 20
7.800487
 30
0.0
 70
0
  0
VERTEX
  5
1ED
330
17
100
AcDbEntity
  8
CUT
100
AcDbVertex
100
AcDb2dVertex
 10
5.177657
 20
8.030529000000001
 30
0.0
 70
0
  0
VERTEX
  5
1EE
330
17
100
AcDbEntity
  8
CUT
100
AcDbVertex
100
AcDb2dVertex
 10
5.333261
 20
8.248465
 30
0.0
 70
0
  0
VERTEX
  5
1EF
330
17
100
AcDbEntity
  8
CUT
100
AcDbVertex
100
AcDb2dVertex
 10
5.50633
 20
8.452808000000001
 30
0.0
 70
0
  0
VERTEX
  5
1F0
330
17
100
AcDbEntity
  8
CUT
100
AcDbVertex
100
AcDb2dVertex
 10
5.695683
 20
8.64216
 30
0.0
 70
0
  0
VERTEX
  5
1F1
330
17
100
AcDbEntity
  8
CUT
100
AcDbVertex
100
AcDb2dVertex
 10
5.900026
 20
8.81523
 30
0.0
 70
0
  0
VERTEX
  5
1F2
330
17
100
AcDbEntity
  8
CUT
100
AcDbVertex
100
AcDb2dVertex
 10
6.117962
 20
8.970834
 30
0.0
 70
0
  0
VERTEX
  5
1F3
330
17
100
AcDbEntity
  8
CUT
100
AcDbVertex
100
AcDb2dVertex
 10
6.348004
 20
9.107909000000001
 30
0.0
 70
0
  0
VERTEX
  5
1F4
330
17
100
AcDbEntity
  8
CUT
100
AcDbVertex
100
AcDb2dVertex
 10
6.58858
 20
9.225519000000002
 30
0.0
 70
0
  0
VERTEX
  5
1F5
330
17
100
AcDbEntity
  8
CUT
100
AcDbVertex
100
AcDb2dVertex
 10
6.838046
 20
9.322861
 30
0.0
 70
0
  0
VERTEX
  5
1F6
330
17
100
AcDbEntity
  8
CUT
100
AcDbVertex
100
AcDb2dVertex
 10
7.094699
 20
9.399270000000001
 30
0.0
 70
0
  0
VERTEX
  5
1F7
330
17
100
AcDbEntity
  8
CUT
100
AcDbVertex
100
AcDb2dVertex
 10
7.356784
 20
9.454223
 30
0.0
 70
0
  0
VERTEX
  5
1F8
330
17
100
AcDbEntity
  8
CUT
100
AcDbVertex
100
AcDb2dVertex
 10
7.622513
 20
9.487347
 30
0.0
 70
0
  0
SEQEND
  5
1BE
330
1BD
100
AcDbEntity
  8
CUT
  0
POLYLINE
  5
1F9
330
17
100
AcDbEntity
  8
CUT
100
AcDb2dPolyline
 66
1
 10
0.0
 20
0.0
 30
0.0
 70
1
1001
EZDXF
1000
piece-032
  0
VERTEX
  5
1FB
330
17
100
AcDbEntity
  8
CUT
100
AcDbVertex
100
AcDb2dVertex
 10
12.38007
 20
6.258203
 30
0.0
 70
0
  0
VERTEX
  5
1FC
330
17
100
AcDbEntity
  8
CUT
100
AcDbVertex
100
AcDb2dVertex
 10
12.38007
 20
5.5979040000000015
 30
0.0
 70
0
  0
VERTEX
  5
1FD
330
17
100
AcDbEntity
  8
CUT
100
AcDbVertex
100
AcDb2dVertex
 10
12.38007
 20
5.064059
 30
0.0
 70
0
  0
VERTEX
  5
1FE
330
17
100
AcDbEntity
  8
CUT
100
AcDbVertex
100
AcDb2dVertex
 10
12.38007
 20
3.701087000000001
 30
0.0
 70
0
  0
VERTEX
  5
1FF
330
17
100
AcDbEntity
  8
CUT
100
AcDbVertex
100
AcDb2dVertex
 10
12.38007
 20
3.167243000000001
 30
0.0
 70
0
  0
VERTEX
  5
200
330
17
100
AcDbEntity
  8
CUT
100
AcDbVertex
100
AcDb2dVertex
 10
12.38007
 20
1.7730940000000004
 30
0.0
 70
0
  0
VERTEX
  5
201
330
17
100
AcDbEntity
  8
CUT
100
AcDbVertex
100
AcDb2dVertex
 10
12.38007
 20
1.239249000000001
 30
0.0
 70
0
  0
VERTEX
  5
202
330
17
100
AcDbEntity
  8
CUT
100
AcDbVertex
100
AcDb2dVertex
 10
12.38007
 20
0.5
 30
0.0
 70
0
  0
VERTEX
  5
203
330
17
100
AcDbEntity
  8
CUT
100
AcDbVertex
100
AcDb2dVertex
 10
12.38007
 20
0.010000000000001563
 30
0.0
 70
0
  0
VERTEX
  5
204
330
17
100
AcDbEntity
  8
CUT
100
AcDbVertex
100
AcDb2dVertex
 10
4.15007
 20
0.010000000000001563
 30
0.0
 70
0
  0
VERTEX
  5
205
330
17
100
AcDbEntity
  8
CUT
100
AcDbVertex
100
AcDb2dVertex
 10
4.15007
 20
6.258203
 30
0.0
 70
0
  0
VERTEX
  5
206
330
17
100
AcDbEntity
  8
CUT
100
AcDbVertex
100
AcDb2dVertex
 10
4.164311
 20
6.584383000000001
 30
0.0
 70
0
  0
VERTEX
  5
207
330
17
100
AcDbEntity
  8
CUT
100
AcDbVertex
100
AcDb2dVertex
 10
4.206898
 20
6.907864000000001
 30
0.0
 70
0
  0
VERTEX
  5
208
330
17
100
AcDbEntity
  8
CUT
100
AcDbVertex
100
AcDb2dVertex
 10
4.277516
 20
7.226402000000001
 30
0.0
 70
0
  0
VERTEX
  5
209
330
17
100
AcDbEntity
  8
CUT
100
AcDbVertex
100
AcDb2dVertex
 10
4.375628
 20
7.537573000000001
 30
0.0
 70
0
  0
VERTEX
  5
20A
330
17
100
AcDbEntity
  8
CUT
100
AcDbVertex
100
AcDb2dVertex
 10
4.500487
 20
7.839010000000001
 30
0.0
 70
0
  0
VERTEX
  5
20B
330
17
100
AcDbEntity
  8
CUT
100
AcDbVertex
100
AcDb2dVertex
 10
4.651143
 20
8.128417
 30
0.0
 70
0
  0
VERTEX
  5
20C
330
17
100
AcDbEntity
  8
CUT
100
AcDbVertex
100
AcDb2dVertex
 10
4.826449
 20
8.403592
 30
0.0
 70
0
  0
VERTEX
  5
20D
330
17
100
AcDbEntity
  8
CUT
100
AcDbVertex
100
AcDb2dVertex
 10
5.025071
 20
8.662441000000001
 30
0.0
 70
0
  0
VERTEX
  5
20E
330
17
100
AcDbEntity
  8
CUT
100
AcDbVertex
100
AcDb2dVertex
 10
5.245497
 20
8.902994
 30
0.0
 70
0
  0
VERTEX
  5
20F
330
17
100
AcDbEntity
  8
CUT
100
AcDbVertex
100
AcDb2dVertex
 10
5.48605
 20
9.123420000000001
 30
0.0
 70
0
  0
VERTEX
  5
210
330
17
100
AcDbEntity
  8
CUT
100
AcDbVertex
100
AcDb2dVertex
 10
5.744899
 20
9.322042
 30
0.0
 70
0
  0
VERTEX
  5
211
330
17
100
AcDbEntity
  8
CUT
100
AcDbVertex
100
AcDb2dVertex
 10
6.020074
 20
9.497348
 30
0.0
 70
0
  0
VERTEX
  5
212
330
17
100
AcDbEntity
  8
CUT
100
AcDbVertex
100
AcDb2dVertex
 10
6.309481
 20
9.648004
 30
0.0
 70
0
  0
VERTEX
  5
213
330
17
100
AcDbEntity
  8
CUT
100
AcDbVertex
100
AcDb2dVertex
 10
6.574095
 20
9.75761
 30
0.0
 70
0
  0
VERTEX
  5
214
330
17
100
AcDbEntity
  8
CUT
100
AcDbVertex
100
AcDb2dVertex
 10
6.636026
 20
9.78078
 30
0.0
 70
0
  0
VERTEX
  5
215
330
17
100
AcDbEntity
  8
CUT
100
AcDbVertex
100
AcDb2dVertex
 10
6.922089
 20
9.870975000000001
 30
0.0
 70
0
  0
VERTEX
  5
216
330
17
100
AcDbEntity
  8
CUT
100
AcDbVertex
100
AcDb2dVertex
 10
7.240627
 20
9.941593000000001
 30
0.0
 70
0
  0
VERTEX
  5
217
330
17
100
AcDbEntity
  8
CUT
100
AcDbVertex
100
AcDb2dVertex
 10
7.564108
 20
9.984180000000002
 30
0.0
 70
0
  0
VERTEX
  5
218
330
17
100
AcDbEntity
  8
CUT
100
AcDbVertex
100
AcDb2dVertex
 10
7.890288
 20
9.998421
 30
0.0
 70
0
  0
VERTEX
  5
219
330
17
100
AcDbEntity
  8
CUT
100
AcDbVertex
100
AcDb2dVertex
 10
8.26507
 20
9.998421
 30
0.0
 70
0
  0
VERTEX
  5
21A
330
17
100
AcDbEntity
  8
CUT
100
AcDbVertex
100
AcDb2dVertex
 10
8.639851
 20
9.998421
 30
0.0
 70
0
  0
VERTEX
  5
21B
330
17
100
AcDbEntity
  8
CUT
100
AcDbVertex
100
AcDb2dVertex
 10
8.957701
 20
9.984544
 30
0.0
 70
0
  0
VERTEX
  5
21C
330
17
100
AcDbEntity
  8
CUT
100
AcDbVertex
100
AcDb2dVertex
 10
9.062374
 20
9.971496000000002
 30
0.0
 70
0
  0
VERTEX
  5
21D
330
17
100
AcDbEntity
  8
CUT
100
AcDbVertex
100
AcDb2dVertex
 10
9.272998
 20
9.943767000000001
 30
0.0
 70
0
  0
VERTEX
  5
21E
330
17
100
AcDbEntity
  8
CUT
100
AcDbVertex
100
AcDb2dVertex
 10
9.396738
 20
9.917821
 30
0.0
 70
0
  0
VERTEX
  5
21F
330
17
100
AcDbEntity
  8
CUT
100
AcDbVertex
100
AcDb2dVertex
 10
9.583704
 20
9.876372
 30
0.0
 70
0
  0
VERTEX
  5
220
330
17
100
AcDbEntity
  8
CUT
100
AcDbVertex
100
AcDb2dVertex
 10
9.713292
 20
9.837792
 30
0.0
 70
0
  0
VERTEX
  5
221
330
17
100
AcDbEntity
  8
CUT
100
AcDbVertex
100
AcDb2dVertex
 10
9.887583
 20
9.782838000000002
 30
0.0
 70
0
  0
VERTEX
  5
222
330
17
100
AcDbEntity
  8
CUT
100
AcDbVertex
100
AcDb2dVertex
 10
10.017914
 20
9.731983
 30
0.0
 70
0
  0
VERTEX
  5
223
330
17
100
AcDbEntity
  8
CUT
100
AcDbVertex
100
AcDb2dVertex
 10
10.182449
 20
9.663831000000002
 30
0.0
 70
0
  0
VERTEX
  5
224
330
17
100
AcDbEntity
  8
CUT
100
AcDbVertex
100
AcDb2dVertex
 10
10.310653
 20
9.601155000000002
 30
0.0
 70
0
  0
VERTEX
  5
225
330
17
100
AcDbEntity
  8
CUT
100
AcDbVertex
100
AcDb2dVertex
 10
10.466181
 20
9.520193
 30
0.0
 70
0
  0
VERTEX
  5
226
330
17
100
AcDbEntity
  8
CUT
100
AcDbVertex
100
AcDb2dVertex
 10
10.590275
 20
9.446249000000002
 30
0.0
 70
0
  0
VERTEX
  5
227
330
17
100
AcDbEntity
  8
CUT
100
AcDbVertex
100
AcDb2dVertex
 10
10.736739
 20
9.352941000000001
 30
0.0
 70
0
  0
VERTEX
  5
228
330
17
100
AcDbEntity
  8
CUT
100
AcDbVertex
100
AcDb2dVertex
 10
10.855178
 20
9.268377000000001
 30
0.0
 70
0
  0
VERTEX
  5
229
330
17
100
AcDbEntity
  8
CUT
100
AcDbVertex
100
AcDb2dVertex
 10
10.992176
 20
9.163254000000002
 30
0.0
 70
0
  0
VERTEX
  5
22A
330
17
100
AcDbEntity
  8
CUT
100
AcDbVertex
100
AcDb2dVertex
 10
11.103676
 20
9.068819000000001
 30
0.0
 70
0
  0
VERTEX
  5
22B
330
17
100
AcDbEntity
  8
CUT
100
AcDbVertex
100
AcDb2dVertex
 10
11.230658
 20
8.952462
 30
0.0
 70
0
  0
VERTEX
  5
22C
330
17
100
AcDbEntity
  8
CUT
100
AcDbVertex
100
AcDb2dVertex
 10
11.33411
 20
8.849009
 30
0.0
 70
0
  0
VERTEX
  5
22D
330
17
100
AcDbEntity
  8
CUT
100
AcDbVertex
100
AcDb2dVertex
 10
11.450467
 20
8.722028000000002
 30
0.0
 70
0
  0
VERTEX
  5
22E
330
17
100
AcDbEntity
  8
CUT
100
AcDbVertex
100
AcDb2dVertex
 10
11.544902
 20
8.610528
 30
0.0
 70
0
  0
VERTEX
  5
22F
330
17
100
AcDbEntity
  8
CUT
100
AcDbVertex
100
AcDb2dVertex
 10
11.650025
 20
8.473529000000001
 30
0.0
 70
0
  0
VERTEX
  5
230
330
17
100
AcDbEntity
  8
CUT
100
AcDbVertex
100
AcDb2dVertex
 10
11.734589
 20
8.35509
 30
0.0
 70
0
  0
VERTEX
  5
231
330
17
100
AcDbEntity
  8
CUT
100
AcDbVertex
100
AcDb2dVertex
 10
11.827897
 20
8.208627
 30
0.0
 70
0
  0
VERTEX
  5
232
330
17
100
AcDbEntity
  8
CUT
100
AcDbVertex
100
AcDb2dVertex
 10
11.901841
 20
8.084533
 30
0.0
 70
0
  0
VERTEX
  5
233
330
17
100
AcDbEntity
  8
CUT
100
AcDbVertex
100
AcDb2dVertex
 10
11.982803
 20
7.929005000000001
 30
0.0
 70
0
  0
VERTEX
  5
234
330
17
100
AcDbEntity
  8
CUT
100
AcDbVertex
100
AcDb2dVertex
 10
12.045479
 20
7.800800000000001
 30
0.0
 70
0
  0
VERTEX
  5
235
330
17
100
AcDbEntity
  8
CUT
100
AcDbVertex
100
AcDb2dVertex
 10
12.113631
 20
7.636266000000001
 30
0.0
 70
0
  0
VERTEX
  5
236
330
17
100
AcDbEntity
  8
CUT
100
AcDbVertex
100
AcDb2dVertex
 10
12.164487
 20
7.505934000000001
 30
0.0
 70
0
  0
VERTEX
  5
237
330
17
100
AcDbEntity
  8
CUT
100
AcDbVertex
100
AcDb2dVertex
 10
12.21944
 20
7.331644000000001
 30
0.0
 70
0
  0
VERTEX
  5
238
330
17
100
AcDbEntity
  8
CUT
100
AcDbVertex
100
AcDb2dVertex
 10
12.25802
 20
7.202056000000001
 30
0.0
 70
0
  0
VERTEX
  5
239
330
17
100
AcDbEntity
  8
CUT
100
AcDbVertex
100
AcDb2dVertex
 10
12.29947
 20
7.015090000000001
 30
0.0
 70
0
  0
VERTEX
  5
23A
330
17
100
AcDbEntity
  8
CUT
100
AcDbVertex
100
AcDb2dVertex
 10
12.325415
 20
6.891350000000001
 30
0.0
 70
0
  0
VERTEX
  5
23B
330
17
100
AcDbEntity
  8
CUT
100
AcDbVertex
100
AcDb2dVertex
 10
12.353144
 20
6.680726
 30
0.0
 70
0
  0
VERTEX
  5
23C
330
17
100
AcDbEntity
  8
CUT
100
AcDbVertex
100
AcDb2dVertex
 10
12.366192
 20
6.576053
 30
0.0
 70
0
  0
SEQEND
  5
1FA
330
1F9
100
AcDbEntity
  8
CUT
  0
POLYLINE
  5
23D
330
17
100
AcDbEntity
  8
CUT
100
AcDb2dPolyline
 66
1
 10
0.0
 20
0.0
 30
0.0
 70
1
1001
EZDXF
1000
piece-032
  0
VERTEX
  5
23F
330
17
100
AcDbEntity
  8
CUT
100
AcDbVertex
100
AcDb2dVertex
 10
7.890126
 20
9.518421
 30
0.0
 70
0
  0
VERTEX
  5
240
330
17
100
AcDbEntity
  8
CUT
100
AcDbVertex
100
AcDb2dVertex
 10
7.889919
 20
9.518424
 30
0.0
 70
0
  0
VERTEX
  5
241
330
17
100
AcDbEntity
  8
CUT
100
AcDbVertex
100
AcDb2dVertex
 10
7.62086
 20
9.507295000000001
 30
0.0
 70
0
  0
VERTEX
  5
242
330
17
100
AcDbEntity
  8
CUT
100
AcDbVertex
100
AcDb2dVertex
 10
7.35349
 20
9.473968000000001
 30
0.0
 70
0
  0
VERTEX
  5
243
330
17
100
AcDbEntity
  8
CUT
100
AcDbVertex
100
AcDb2dVertex
 10
7.089785
 20
9.418674000000001
 30
0.0
 70
0
  0
VERTEX
  5
244
330
17
100
AcDbEntity
  8
CUT
100
AcDbVertex
100
AcDb2dVertex
 10
6.831546
 20
9.341794
 30
0.0
 70
0
  0
VERTEX
  5
245
330
17
100
AcDbEntity
  8
CUT
100
AcDbVertex
100
AcDb2dVertex
 10
6.580539
 20
9.243850000000002
 30
0.0
 70
0
  0
VERTEX
  5
246
330
17
100
AcDbEntity
  8
CUT
100
AcDbVertex
100
AcDb2dVertex
 10
6.338477
 20
9.125513000000002
 30
0.0
 70
0
  0
VERTEX
  5
247
330
17
100
AcDbEntity
  8
CUT
100
AcDbVertex
100
AcDb2dVertex
 10
6.107014
 20
8.987591000000002
 30
0.0
 70
0
  0
VERTEX
  5
248
330
17
100
AcDbEntity
  8
CUT
100
AcDbVertex
100
AcDb2dVertex
 10
5.887731
 20
8.831026000000001
 30
0.0
 70
0
  0
VERTEX
  5
249
330
17
100
AcDbEntity
  8
CUT
100
AcDbVertex
100
AcDb2dVertex
 10
5.682126
 20
8.656888
 30
0.0
 70
0
  0
VERTEX
  5
24A
330
17
100
AcDbEntity
  8
CUT
100
AcDbVertex
100
AcDb2dVertex
 10
5.491603
 20
8.466365
 30
0.0
 70
0
  0
VERTEX
  5
24B
330
17
100
AcDbEntity
  8
CUT
100
AcDbVertex
100
AcDb2dVertex
 10
5.317465
 20
8.260760000000001
 30
0.0
 70
0
  0
VERTEX
  5
24C
330
17
100
AcDbEntity
  8
CUT
100
AcDbVertex
100
AcDb2dVertex
 10
5.1609
 20
8.041477
 30
0.0
 70
0
  0
VERTEX
  5
24D
330
17
100
AcDbEntity
  8
CUT
100
AcDbVertex
100
AcDb2dVertex
 10
5.022978
 20
7.810014000000001
 30
0.0
 70
0
  0
VERTEX
  5
24E
330
17
100
AcDbEntity
  8
CUT
100
AcDbVertex
100
AcDb2dVertex
 10
4.904641
 20
7.567952000000001
 30
0.0
 70
0
  0
VERTEX
  5
24F
330
17
100
AcDbEntity
  8
CUT
100
AcDbVertex
100
AcDb2dVertex
 10
4.806697
 20
7.316944000000001
 30
0.0
 70
0
  0
VERTEX
  5
250
330
17
100
AcDbEntity
  8
CUT
100
AcDbVertex
100
AcDb2dVertex
 10
4.729816
 20
7.058706000000001
 30
0.0
 70
0
  0
VERTEX
  5
251
330
17
100
AcDbEntity
  8
CUT
100
AcDbVertex
100
AcDb2dVertex
 10
4.674523
 20
6.795001000000001
 30
0.0
 70
0
  0
VERTEX
  5
252
330
17
100
AcDbEntity
  8
CUT
100
AcDbVertex
100
AcDb2dVertex
 10
4.641196
 20
6.527631000000001
 30
0.0
 70
0
  0
VERTEX
  5
253
330
17
100
AcDbEntity
  8
CUT
100
AcDbVertex
100
AcDb2dVertex
 10
4.63007
 20
6.258628000000002
 30
0.0
 70
0
  0
VERTEX
  5
254
330
17
100
AcDbEntity
  8
CUT
100
AcDbVertex
100
AcDb2dVertex
 10
4.63007
 20
0.4900000000000002
 30
0.0
 70
0
  0
VERTEX
  5
255
330
17
100
AcDbEntity
  8
CUT
100
AcDbVertex
100
AcDb2dVertex
 10
11.891493
 20
0.4900000000000002
 30
0.0
 70
0
  0
VERTEX
  5
256
330
17
100
AcDbEntity
  8
CUT
100
AcDbVertex
100
AcDb2dVertex
 10
11.90007
 20
0.4924930000000014
 30
0.0
 70
0
  0
VERTEX
  5
257
330
17
100
AcDbEntity
  8
CUT
100
AcDbVertex
100
AcDb2dVertex
 10
11.90007
 20
6.258421
 30
0.0
 70
0
  0
VERTEX
  5
258
330
17
100
AcDbEntity
  8
CUT
100
AcDbVertex
100
AcDb2dVertex
 10
11.90007
 20
6.258435
 30
0.0
 70
0
  0
VERTEX
  5
259
330
17
100
AcDbEntity
  8
CUT
100
AcDbVertex
100
AcDb2dVertex
 10
11.900069
 20
6.258642
 30
0.0
 70
0
  0
VERTEX
  5
25A
330
17
100
AcDbEntity
  8
CUT
100
AcDbVertex
100
AcDb2dVertex
 10
11.888943
 20
6.527631000000001
 30
0.0
 70
0
  0
VERTEX
  5
25B
330
17
100
AcDbEntity
  8
CUT
100
AcDbVertex
100
AcDb2dVertex
 10
11.887992
 20
6.535266
 30
0.0
 70
0
  0
VERTEX
  5
25C
330
17
100
AcDbEntity
  8
CUT
100
AcDbVertex
100
AcDb2dVertex
 10
11.887674
 20
6.54255
 30
0.0
 70
0
  0
VERTEX
  5
25D
330
17
100
AcDbEntity
  8
CUT
100
AcDbVertex
100
AcDb2dVertex
 10
11.876583
 20
6.626791000000001
 30
0.0
 70
0
  0
VERTEX
  5
25E
330
17
100
AcDbEntity
  8
CUT
100
AcDbVertex
100
AcDb2dVertex
 10
11.855616
 20
6.795001000000001
 30
0.0
 70
0
  0
VERTEX
  5
25F
330
17
100
AcDbEntity
  8
CUT
100
AcDbVertex
100
AcDb2dVertex
 10
11.85245
 20
6.810098000000001
 30
0.0
 70
0
  0
VERTEX
  5
260
330
17
100
AcDbEntity
  8
CUT
100
AcDbVertex
100
AcDb2dVertex
 10
11.850552
 20
6.824516000000001
 30
0.0
 70
0
  0
VERTEX
  5
261
330
17
100
AcDbEntity
  8
CUT
100
AcDbVertex
100
AcDb2dVertex
 10
11.829797
 20
6.9181360000000005
 30
0.0
 70
0
  0
VERTEX
  5
262
330
17
100
AcDbEntity
  8
CUT
100
AcDbVertex
100
AcDb2dVertex
 10
11.800323
 20
7.058706000000001
 30
0.0
 70
0
  0
VERTEX
  5
263
330
17
100
AcDbEntity
  8
CUT
100
AcDbVertex
100
AcDb2dVertex
 10
11.793707
 20
7.080927000000001
 30
0.0
 70
0
  0
VERTEX
  5
264
330
17
100
AcDbEntity
  8
CUT
100
AcDbVertex
100
AcDb2dVertex
 10
11.788997
 20
7.102174000000001
 30
0.0
 70
0
  0
VERTEX
  5
265
330
17
100
AcDbEntity
  8
CUT
100
AcDbVertex
100
AcDb2dVertex
 10
11.760039
 20
7.194018000000001
 30
0.0
 70
0
  0
VERTEX
  5
266
330
17
100
AcDbEntity
  8
CUT
100
AcDbVertex
100
AcDb2dVertex
 10
11.723442
 20
7.316944000000001
 30
0.0
 70
0
  0
VERTEX
  5
267
330
17
100
AcDbEntity
  8
CUT
100
AcDbVertex
100
AcDb2dVertex
 10
11.71218
 20
7.3458060000000005
 30
0.0
 70
0
  0
VERTEX
  5
268
330
17
100
AcDbEntity
  8
CUT
100
AcDbVertex
100
AcDb2dVertex
 10
11.703476
 20
7.373410000000001
 30
0.0
 70
0
  0
VERTEX
  5
269
330
17
100
AcDbEntity
  8
CUT
100
AcDbVertex
100
AcDb2dVertex
 10
11.667809
 20
7.459518000000001
 30
0.0
 70
0
  0
VERTEX
  5
26A
330
17
100
AcDbEntity
  8
CUT
100
AcDbVertex
100
AcDb2dVertex
 10
11.625498
 20
7.567952000000001
 30
0.0
 70
0
  0
VERTEX
  5
26B
330
17
100
AcDbEntity
  8
CUT
100
AcDbVertex
100
AcDb2dVertex
 10
11.608448
 20
7.602828000000001
 30
0.0
 70
0
  0
VERTEX
  5
26C
330
17
100
AcDbEntity
  8
CUT
100
AcDbVertex
100
AcDb2dVertex
 10
11.594642
 20
7.636161
 30
0.0
 70
0
  0
VERTEX
  5
26D
330
17
100
AcDbEntity
  8
CUT
100
AcDbVertex
100
AcDb2dVertex
 10
11.553772
 20
7.714671000000001
 30
0.0
 70
0
  0
VERTEX
  5
26E
330
17
100
AcDbEntity
  8
CUT
100
AcDbVertex
100
AcDb2dVertex
 10
11.507161
 20
7.810014000000001
 30
0.0
 70
0
  0
VERTEX
  5
26F
330
17
100
AcDbEntity
  8
CUT
100
AcDbVertex
100
AcDb2dVertex
 10
11.483248
 20
7.8501460000000005
 30
0.0
 70
0
  0
VERTEX
  5
270
330
17
100
AcDbEntity
  8
CUT
100
AcDbVertex
100
AcDb2dVertex
 10
11.463321
 20
7.888426000000001
 30
0.0
 70
0
  0
VERTEX
  5
271
330
17
100
AcDbEntity
  8
CUT
100
AcDbVertex
100
AcDb2dVertex
 10
11.418746
 20
7.958394000000001
 30
0.0
 70
0
  0
VERTEX
  5
272
330
17
100
AcDbEntity
  8
CUT
100
AcDbVertex
100
AcDb2dVertex
 10
11.369239
 20
8.041477
 30
0.0
 70
0
  0
VERTEX
  5
273
330
17
100
AcDbEntity
  8
CUT
100
AcDbVertex
100
AcDb2dVertex
 10
11.337465
 20
8.085980000000001
 30
0.0
 70
0
  0
VERTEX
  5
274
330
17
100
AcDbEntity
  8
CUT
100
AcDbVertex
100
AcDb2dVertex
 10
11.310513
 20
8.128286000000001
 30
0.0
 70
0
  0
VERTEX
  5
275
330
17
100
AcDbEntity
  8
CUT
100
AcDbVertex
100
AcDb2dVertex
 10
11.263703
 20
8.18929
 30
0.0
 70
0
  0
VERTEX
  5
276
330
17
100
AcDbEntity
  8
CUT
100
AcDbVertex
100
AcDb2dVertex
 10
11.212674
 20
8.260760000000001
 30
0.0
 70
0
  0
VERTEX
  5
277
330
17
100
AcDbEntity
  8
CUT
100
AcDbVertex
100
AcDb2dVertex
 10
11.172127
 20
8.308635
 30
0.0
 70
0
  0
VERTEX
  5
278
330
17
100
AcDbEntity
  8
CUT
100
AcDbVertex
100
AcDb2dVertex
 10
11.137382
 20
8.353915
 30
0.0
 70
0
  0
VERTEX
  5
279
330
17
100
AcDbEntity
  8
CUT
100
AcDbVertex
100
AcDb2dVertex
 10
11.089756
 20
8.405889000000002
 30
0.0
 70
0
  0
VERTEX
  5
27A
330
17
100
AcDbEntity
  8
CUT
100
AcDbVertex
100
AcDb2dVertex
 10
11.038536
 20
8.466365
 30
0.0
 70
0
  0
VERTEX
  5
27B
330
17
100
AcDbEntity
  8
CUT
100
AcDbVertex
100
AcDb2dVertex
 10
10.988392
 20
8.516509000000001
 30
0.0
 70
0
  0
VERTEX
  5
27C
330
17
100
AcDbEntity
  8
CUT
100
AcDbVertex
100
AcDb2dVertex
 10
10.945244
 20
8.563596
 30
0.0
 70
0
  0
VERTEX
  5
27D
330
17
100
AcDbEntity
  8
CUT
100
AcDbVertex
100
AcDb2dVertex
 10
10.898157
 20
8.606744
 30
0.0
 70
0
  0
VERTEX
  5
27E
330
17
100
AcDbEntity
  8
CUT
100
AcDbVertex
100
AcDb2dVertex
 10
10.848013
 20
8.656888
 30
0.0
 70
0
  0
VERTEX
  5
27F
330
17
100
AcDbEntity
  8
CUT
100
AcDbVertex
100
AcDb2dVertex
 10
10.787537
 20
8.708108000000001
 30
0.0
 70
0
  0
VERTEX
  5
280
330
17
100
AcDbEntity
  8
CUT
100
AcDbVertex
100
AcDb2dVertex
 10
10.735563
 20
8.755733000000001
 30
0.0
 70
0
  0
VERTEX
  5
281
330
17
100
AcDbEntity
  8
CUT
100
AcDbVertex
100
AcDb2dVertex
 10
10.690283
 20
8.790478
 30
0.0
 70
0
  0
VERTEX
  5
282
330
17
100
AcDbEntity
  8
CUT
100
AcDbVertex
100
AcDb2dVertex
 10
10.642408
 20
8.831026000000001
 30
0.0
 70
0
  0
VERTEX
  5
283
330
17
100
AcDbEntity
  8
CUT
100
AcDbVertex
100
AcDb2dVertex
 10
10.570938
 20
8.882055000000001
 30
0.0
 70
0
  0
VERTEX
  5
284
330
17
100
AcDbEntity
  8
CUT
100
AcDbVertex
100
AcDb2dVertex
 10
10.509934
 20
8.928865000000002
 30
0.0
 70
0
  0
VERTEX
  5
285
330
17
100
AcDbEntity
  8
CUT
100
AcDbVertex
100
AcDb2dVertex
 10
10.467628
 20
8.955817
 30
0.0
 70
0
  0
VERTEX
  5
286
330
17
100
AcDbEntity
  8
CUT
100
AcDbVertex
100
AcDb2dVertex
 10
10.423125
 20
8.987591000000002
 30
0.0
 70
0
  0
VERTEX
  5
287
330
17
100
AcDbEntity
  8
CUT
100
AcDbVertex
100
AcDb2dVertex
 10
10.340042
 20
9.037098
 30
0.0
 70
0
  0
VERTEX
  5
288
330
17
100
AcDbEntity
  8
CUT
100
AcDbVertex
100
AcDb2dVertex
 10
10.270074
 20
9.081672000000001
 30
0.0
 70
0
  0
VERTEX
  5
289
330
17
100
AcDbEntity
  8
CUT
100
AcDbVertex
100
AcDb2dVertex
 10
10.231794
 20
9.101600000000001
 30
0.0
 70
0
  0
VERTEX
  5
28A
330
17
100
AcDbEntity
  8
CUT
100
AcDbVertex
100
AcDb2dVertex
 10
10.191662
 20
9.125513000000002
 30
0.0
 70
0
  0
VERTEX
  5
28B
330
17
100
AcDbEntity
  8
CUT
100
AcDbVertex
100
AcDb2dVertex
 10
10.096319
 20
9.172124
 30
0.0
 70
0
  0
VERTEX
  5
28C
330
17
100
AcDbEntity
  8
CUT
100
AcDbVertex
100
AcDb2dVertex
 10
10.017809
 20
9.212993
 30
0.0
 70
0
  0
VERTEX
  5
28D
330
17
100
AcDbEntity
  8
CUT
100
AcDbVertex
100
AcDb2dVertex
 10
9.984476
 20
9.2268
 30
0.0
 70
0
  0
VERTEX
  5
28E
330
17
100
AcDbEntity
  8
CUT
100
AcDbVertex
100
AcDb2dVertex
 10
9.9496
 20
9.243850000000002
 30
0.0
 70
0
  0
VERTEX
  5
28F
330
17
100
AcDbEntity
  8
CUT
100
AcDbVertex
100
AcDb2dVertex
 10
9.841166
 20
9.286161
 30
0.0
 70
0
  0
VERTEX
  5
290
330
17
100
AcDbEntity
  8
CUT
100
AcDbVertex
100
AcDb2dVertex
 10
9.755058
 20
9.321828
 30
0.0
 70
0
  0
VERTEX
  5
291
330
17
100
AcDbEntity
  8
CUT
100
AcDbVertex
100
AcDb2dVertex
 10
9.727454
 20
9.330532000000002
 30
0.0
 70
0
  0
VERTEX
  5
292
330
17
100
AcDbEntity
  8
CUT
100
AcDbVertex
100
AcDb2dVertex
 10
9.698593
 20
9.341794
 30
0.0
 70
0
  0
VERTEX
  5
293
330
17
100
AcDbEntity
  8
CUT
100
AcDbVertex
100
AcDb2dVertex
 10
9.575666
 20
9.37839
 30
0.0
 70
0
  0
VERTEX
  5
294
330
17
100
AcDbEntity
  8
CUT
100
AcDbVertex
100
AcDb2dVertex
 10
9.483822
 20
9.407349
 30
0.0
 70
0
  0
VERTEX
  5
295
330
17
100
AcDbEntity
  8
CUT
100
AcDbVertex
100
AcDb2dVertex
 10
9.462575
 20
9.412059000000001
 30
0.0
 70
0
  0
VERTEX
  5
296
330
17
100
AcDbEntity
  8
CUT
100
AcDbVertex
100
AcDb2dVertex
 10
9.440354
 20
9.418674000000001
 30
0.0
 70
0
  0
VERTEX
  5
297
330
17
100
AcDbEntity
  8
CUT
100
AcDbVertex
100
AcDb2dVertex
 10
9.299784
 20
9.448149
 30
0.0
 70
0
  0
VERTEX
  5
298
330
17
100
AcDbEntity
  8
CUT
100
AcDbVertex
100
AcDb2dVertex
 10
9.206164
 20
9.468904000000002
 30
0.0
 70
0
  0
VERTEX
  5
299
330
17
100
AcDbEntity
  8
CUT
100
AcDbVertex
100
AcDb2dVertex
 10
9.191746
 20
9.470802
 30
0.0
 70
0
  0
VERTEX
  5
29A
330
17
100
AcDbEntity
  8
CUT
100
AcDbVertex
100
AcDb2dVertex
 10
9.176649
 20
9.473968000000001
 30
0.0
 70
0
  0
VERTEX
  5
29B
330
17
100
AcDbEntity
  8
CUT
100
AcDbVertex
100
AcDb2dVertex
 10
9.00844
 20
9.494935000000002
 30
0.0
 70
0
  0
VERTEX
  5
29C
330
17
100
AcDbEntity
  8
CUT
100
AcDbVertex
100
AcDb2dVertex
 10
8.924198
 20
9.506025000000001
 30
0.0
 70
0
  0
VERTEX
  5
29D
330
17
100
AcDbEntity
  8
CUT
100
AcDbVertex
100
AcDb2dVertex
 10
8.916914
 20
9.506343000000001
 30
0.0
 70
0
  0
VERTEX
  5
29E
330
17
100
AcDbEntity
  8
CUT
100
AcDbVertex
100
AcDb2dVertex
 10
8.909279
 20
9.507295000000001
 30
0.0
 70
0
  0
VERTEX
  5
29F
330
17
100
AcDbEntity
  8
CUT
100
AcDbVertex
100
AcDb2dVertex
 10
8.648942
 20
9.518063000000001
 30
0.0
 70
0
  0
VERTEX
  5
2A0
330
17
100
AcDbEntity
  8
CUT
100
AcDbVertex
100
AcDb2dVertex
 10
8.648897
 20
9.518421
 30
0.0
 70
0
  0
SEQEND
  5
23E
330
23D
100
AcDbEntity
  8
CUT
  0
POLYLINE
  5
2A1
330
17
100
AcDbEntity
  8
CUT
100
AcDb2dPolyline
 66
1
 10
0.0
 20
0.0
 30
0.0
 70
1
1001
EZDXF
1000
piece-033
  0
VERTEX
  5
2A3
330
17
100
AcDbEntity
  8
CUT
100
AcDbVertex
100
AcDb2dVertex
 10
12.40007
 20
3.7080230000000007
 30
0.0
 70
0
  0
VERTEX
  5
2A4
330
17
100
AcDbEntity
  8
CUT
100
AcDbVertex
100
AcDb2dVertex
 10
12.40007
 20
5.049641000000001
 30
0.0
 70
0
  0
VERTEX
  5
2A5
330
17
100
AcDbEntity
  8
CUT
100
AcDbVertex
100
AcDb2dVertex
 10
12.94257
 20
4.846686
 30
0.0
 70
0
  0
VERTEX
  5
2A6
330
17
100
AcDbEntity
  8
CUT
100
AcDbVertex
100
AcDb2dVertex
 10
12.94257
 20
3.5050680000000014
 30
0.0
 70
0
  0
SEQEND
  5
2A2
330
2A1
100
AcDbEntity
  8
CUT
  0
POLYLINE
  5
2A7
330
17
100
AcDbEntity
  8
CUT
100
AcDb2dPolyline
 66
1
 10
0.0
 20
0.0
 30
0.0
 70
1
1001
EZDXF
1000
piece-034
  0
VERTEX
  5
2A9
330
17
100
AcDbEntity
  8
CUT
100
AcDbVertex
100
AcDb2dVertex
 10
4.13007
 20
5.049641000000001
 30
0.0
 70
0
  0
VERTEX
  5
2AA
330
17
100
AcDbEntity
  8
CUT
100
AcDbVertex
100
AcDb2dVertex
 10
4.13007
 20
3.7080230000000007
 30
0.0
 70
0
  0
VERTEX
  5
2AB
330
17
100
AcDbEntity
  8
CUT
100
AcDbVertex
100
AcDb2dVertex
 10
3.58757
 20
3.5050680000000014
 30
0.0
 70
0
  0
VERTEX
  5
2AC
330
17
100
AcDbEntity
  8
CUT
100
AcDbVertex
100
AcDb2dVertex
 10
3.58757
 20
4.846686
 30
0.0
 70
0
  0
SEQEND
  5
2A8
330
2A7
100
AcDbEntity
  8
CUT
  0
POLYLINE
  5
2AD
330
17
100
AcDbEntity
  8
CUT
100
AcDb2dPolyline
 66
1
 10
0.0
 20
0.0
 30
0.0
 70
1
1001
EZDXF
1000
piece-035
  0
VERTEX
  5
2AF
330
17
100
AcDbEntity
  8
CUT
100
AcDbVertex
100
AcDb2dVertex
 10
12.40007
 20
3.1741790000000005
 30
0.0
 70
0
  0
VERTEX
  5
2B0
330
17
100
AcDbEntity
  8
CUT
100
AcDbVertex
100
AcDb2dVertex
 10
12.40007
 20
3.686669
 30
0.0
 70
0
  0
VERTEX
  5
2B1
330
17
100
AcDbEntity
  8
CUT
100
AcDbVertex
100
AcDb2dVertex
 10
12.94257
 20
3.483714000000001
 30
0.0
 70
0
  0
VERTEX
  5
2B2
330
17
100
AcDbEntity
  8
CUT
100
AcDbVertex
100
AcDb2dVertex
 10
12.94257
 20
2.971224000000001
 30
0.0
 70
0
  0
SEQEND
  5
2AE
330
2AD
100
AcDbEntity
  8
CUT
  0
POLYLINE
  5
2B3
330
17
100
AcDbEntity
  8
CUT
100
AcDb2dPolyline
 66
1
 10
0.0
 20
0.0
 30
0.0
 70
1
1001
EZDXF
1000
piece-036
  0
VERTEX
  5
2B5
330
17
100
AcDbEntity
  8
CUT
100
AcDbVertex
100
AcDb2dVertex
 10
4.13007
 20
3.686669
 30
0.0
 70
0
  0
VERTEX
  5
2B6
330
17
100
AcDbEntity
  8
CUT
100
AcDbVertex
100
AcDb2dVertex
 10
4.13007
 20
3.1741790000000005
 30
0.0
 70
0
  0
VERTEX
  5
2B7
330
17
100
AcDbEntity
  8
CUT
100
AcDbVertex
100
AcDb2dVertex
 10
3.58757
 20
2.971224000000001
 30
0.0
 70
0
  0
VERTEX
  5
2B8
330
17
100
AcDbEntity
  8
CUT
100
AcDbVertex
100
AcDb2dVertex
 10
3.58757
 20
3.483714000000001
 30
0.0
 70
0
  0
SEQEND
  5
2B4
330
2B3
100
AcDbEntity
  8
CUT
  0
POLYLINE
  5
2B9
330
17
100
AcDbEntity
  8
CUT
100
AcDb2dPolyline
 66
1
 10
0.0
 20
0.0
 30
0.0
 70
1
1001
EZDXF
1000
piece-037
  0
VERTEX
  5
2BB
330
17
100
AcDbEntity
  8
CUT
100
AcDbVertex
100
AcDb2dVertex
 10
12.40007
 20
1.7804020000000005
 30
0.0
 70
0
  0
VERTEX
  5
2BC
330
17
100
AcDbEntity
  8
CUT
100
AcDbVertex
100
AcDb2dVertex
 10
12.40007
 20
3.152825
 30
0.0
 70
0
  0
VERTEX
  5
2BD
330
17
100
AcDbEntity
  8
CUT
100
AcDbVertex
100
AcDb2dVertex
 10
12.94257
 20
2.9498700000000007
 30
0.0
 70
0
  0
VERTEX
  5
2BE
330
17
100
AcDbEntity
  8
CUT
100
AcDbVertex
100
AcDb2dVertex
 10
12.94257
 20
1.6075160000000004
 30
0.0
 70
0
  0
SEQEND
  5
2BA
330
2B9
100
AcDbEntity
  8
CUT
  0
POLYLINE
  5
2BF
330
17
100
AcDbEntity
  8
CUT
100
AcDb2dPolyline
 66
1
 10
0.0
 20
0.0
 30
0.0
 70
1
1001
EZDXF
1000
piece-038
  0
VERTEX
  5
2C1
330
17
100
AcDbEntity
  8
CUT
100
AcDbVertex
100
AcDb2dVertex
 10
4.13007
 20
3.152825
 30
0.0
 70
0
  0
VERTEX
  5
2C2
330
17
100
AcDbEntity
  8
CUT
100
AcDbVertex
100
AcDb2dVertex
 10
4.13007
 20
1.7800290000000007
 30
0.0
 70
0
  0
VERTEX
  5
2C3
330
17
100
AcDbEntity
  8
CUT
100
AcDbVertex
100
AcDb2dVertex
 10
3.58757
 20
1.5770740000000014
 30
0.0
 70
0
  0
VERTEX
  5
2C4
330
17
100
AcDbEntity
  8
CUT
100
AcDbVertex
100
AcDb2dVertex
 10
3.58757
 20
1.593834000000001
 30
0.0
 70
0
  0
VERTEX
  5
2C5
330
17
100
AcDbEntity
  8
CUT
100
AcDbVertex
100
AcDb2dVertex
 10
3.58757
 20
2.9498700000000007
 30
0.0
 70
0
  0
SEQEND
  5
2C0
330
2BF
100
AcDbEntity
  8
CUT
  0
POLYLINE
  5
2C6
330
17
100
AcDbEntity
  8
CUT
100
AcDb2dPolyline
 66
1
 10
0.0
 20
0.0
 30
0.0
 70
1
1001
EZDXF
1000
piece-039
  0
VERTEX
  5
2C8
330
17
100
AcDbEntity
  8
CUT
100
AcDbVertex
100
AcDb2dVertex
 10
12.40007
 20
1.2461850000000005
 30
0.0
 70
0
  0
VERTEX
  5
2C9
330
17
100
AcDbEntity
  8
CUT
100
AcDbVertex
100
AcDb2dVertex
 10
12.40007
 20
1.759411
 30
0.0
 70
0
  0
VERTEX
  5
2CA
330
17
100
AcDbEntity
  8
CUT
100
AcDbVertex
100
AcDb2dVertex
 10
12.94257
 20
1.586525
 30
0.0
 70
0
  0
VERTEX
  5
2CB
330
17
100
AcDbEntity
  8
CUT
100
AcDbVertex
100
AcDb2dVertex
 10
12.94257
 20
1.0432300000000012
 30
0.0
 70
0
  0
SEQEND
  5
2C7
330
2C6
100
AcDbEntity
  8
CUT
  0
POLYLINE
  5
2CC
330
17
100
AcDbEntity
  8
CUT
100
AcDb2dPolyline
 66
1
 10
0.0
 20
0.0
 30
0.0
 70
1
1001
EZDXF
1000
piece-040
  0
VERTEX
  5
2CE
330
17
100
AcDbEntity
  8
CUT
100
AcDbVertex
100
AcDb2dVertex
 10
4.13007
 20
1.7586760000000012
 30
0.0
 70
0
  0
VERTEX
  5
2CF
330
17
100
AcDbEntity
  8
CUT
100
AcDbVertex
100
AcDb2dVertex
 10
4.13007
 20
1.2461850000000005
 30
0.0
 70
0
  0
VERTEX
  5
2D0
330
17
100
AcDbEntity
  8
CUT
100
AcDbVertex
100
AcDb2dVertex
 10
3.58757
 20
1.0432300000000012
 30
0.0
 70
0
  0
VERTEX
  5
2D1
330
17
100
AcDbEntity
  8
CUT
100
AcDbVertex
100
AcDb2dVertex
 10
3.58757
 20
1.5557210000000001
 30
0.0
 70
0
  0
SEQEND
  5
2CD
330
2CC
100
AcDbEntity
  8
CUT
  0
POLYLINE
  5
2D2
330
17
100
AcDbEntity
  8
CUT
100
AcDb2dPolyline
 66
1
 10
0.0
 20
0.0
 30
0.0
 70
1
1001
EZDXF
1000
piece-041
  0
VERTEX
  5
2D4
330
17
100
AcDbEntity
  8
CUT
100
AcDbVertex
100
AcDb2dVertex
 10
12.40007
 20
0.5100000000000016
 30
0.0
 70
0
  0
VERTEX
  5
2D5
330
17
100
AcDbEntity
  8
CUT
100
AcDbVertex
100
AcDb2dVertex
 10
12.40007
 20
1.224831
 30
0.0
 70
0
  0
VERTEX
  5
2D6
330
17
100
AcDbEntity
  8
CUT
100
AcDbVertex
100
AcDb2dVertex
 10
12.94257
 20
1.0218760000000007
 30
0.0
 70
0
  0
VERTEX
  5
2D7
330
17
100
AcDbEntity
  8
CUT
100
AcDbVertex
100
AcDb2dVertex
 10
12.94257
 20
0.5100000000000016
 30
0.0
 70
0
  0
SEQEND
  5
2D3
330
2D2
100
AcDbEntity
  8
CUT
  0
POLYLINE
  5
2D8
330
17
100
AcDbEntity
  8
CUT
100
AcDb2dPolyline
 66
1
 10
0.0
 20
0.0
 30
0.0
 70
1
1001
EZDXF
1000
piece-042
  0
VERTEX
  5
2DA
330
17
100
AcDbEntity
  8
CUT
100
AcDbVertex
100
AcDb2dVertex
 10
3.58757
 20
1.0218760000000007
 30
0.0
 70
0
  0
VERTEX
  5
2DB
330
17
100
AcDbEntity
  8
CUT
100
AcDbVertex
100
AcDb2dVertex
 10
4.13007
 20
1.224831
 30
0.0
 70
0
  0
VERTEX
  5
2DC
330
17
100
AcDbEntity
  8
CUT
100
AcDbVertex
100
AcDb2dVertex
 10
4.13007
 20
0.5100000000000016
 30
0.0
 70
0
  0
VERTEX
  5
2DD
330
17
100
AcDbEntity
  8
CUT
100
AcDbVertex
100
AcDb2dVertex
 10
3.58757
 20
0.5100000000000016
 30
0.0
 70
0
  0
SEQEND
  5
2D9
330
2D8
100
AcDbEntity
  8
CUT
  0
ENDSEC
  0
SECTION
  2
OBJECTS
  0
DICTIONARY
  5
A
330
0
100
AcDbDictionary
281
1
  3
ACAD_COLOR
350
B
  3
ACAD_GROUP
350
C
  3
ACAD_LAYOUT
350
D
  3
ACAD_MATERIAL
350
E
  3
ACAD_MLEADERSTYLE
350
F
  3
ACAD_MLINESTYLE
350
10
  3
ACAD_PLOTSETTINGS
350
11
  3
ACAD_PLOTSTYLENAME
350
12
  3
ACAD_SCALELIST
350
14
  3
ACAD_TABLESTYLE
350
15
  3
ACAD_VISUALSTYLE
350
16
  3
EZDXF_META
350
2D
  0
DICTIONARY
  5
B
330
A
100
AcDbDictionary
281
1
  0
DICTIONARY
  5
C
330
A
100
AcDbDictionary
281
1
  0
DICTIONARY
  5
D
330
A
100
AcDbDictionary
281
1
  3
Model
350
1A
  3
Layout1
350
1E
  0
DICTIONARY
  5
E
330
A
100
AcDbDictionary
281
1
  3
ByBlock
350
1F
  3
ByLayer
350
20
  3
Global
350
21
  0
DICTIONARY
  5
F
330
A
100
AcDbDictionary
281
1
  3
Standard
350
2C
  0
DICTIONARY
  5
10
330
A
100
AcDbDictionary
281
1
  3
Standard
350
22
  0
DICTIONARY
  5
11
330
A
100
AcDbDictionary
281
1
  0
ACDBDICTIONARYWDFLT
  5
12
330
A
100
AcDbDictionary
281
1
  3
Normal
350
13
100
AcDbDictionaryWithDefault
340
13
  0
ACDBPLACEHOLDER
  5
13
330
12
  0
DICTIONARY
  5
14
330
A
100
AcDbDictionary
281
1
  0
DICTIONARY
  5
15
330
A
100
AcDbDictionary
281
1
  0
DICTIONARY
  5
16
330
A
100
AcDbDictionary
281
1
  3
2dWireframe
350
5A
  3
Basic
350
5B
  3
Brighten
350
5C
  3
ColorChange
350
5D
  3
Conceptual
350
5E
  3
Dim
350
5F
  3
EdgeColorOff
350
60
  3
Facepattern
350
61
  3
Flat
350
62
  3
FlatWithEdges
350
63
  3
Gouraud
350
64
  3
GouraudWithEdges
350
65
  3
Hidden
350
66
  3
JitterOff
350
67
  3
Linepattern
350
68
  3
Modeling
350
69
  3
OverhangOff
350
6A
  3
Realistic
350
6B
  3
Shaded
350
6C
  3
Shaded with edges
350
6D
  3
Shades of Gray
350
6E
  3
Sketchy
350
6F
  3
Thicken
350
70
  3
Wireframe
350
71
  3
X-Ray
350
72
  0
LAYOUT
  5
1A
330
D
100
AcDbPlotSettings
  1

  4
A3
  6

 40
7.5
 41
20.0
 42
7.5
 43
20.0
 44
420.0
 45
297.0
 46
0.0
 47
0.0
 48
0.0
 49
0.0
140
0.0
141
0.0
142
1.0
143
1.0
 70
1024
 72
1
 73
0
 74
5
  7

 75
16
 76
0
 77
2
 78
300
147
1.0
148
0.0
149
0.0
100
AcDbLayout
  1
Model
 70
1
 71
0
 10
0.0
 20
0.0
 11
420.0
 21
297.0
 12
0.0
 22
0.0
 32
0.0
 14
1e+20
 24
1e+20
 34
1e+20
 15
-1e+20
 25
-1e+20
 35
-1e+20
146
0.0
 13
0.0
 23
0.0
 33
0.0
 16
1.0
 26
0.0
 36
0.0
 17
0.0
 27
1.0
 37
0.0
 76
1
330
17
  0
LAYOUT
  5
1E
330
D
100
AcDbPlotSettings
  1

  4
A3
  6

 40
7.5
 41
20.0
 42
7.5
 43
20.0
 44
420.0
 45
297.0
 46
0.0
 47
0.0
 48
0.0
 49
0.0
140
0.0
141
0.0
142
1.0
143
1.0
 70
0
 72
1
 73
0
 74
5
  7

 75
16
 76
0
 77
2
 78
300
147
1.0
148
0.0
149
0.0
100
AcDbLayout
  1
Layout1
 70
1
 71
1
 10
0.0
 20
0.0
 11
420.0
 21
297.0
 12
0.0
 22
0.0
 32
0.0
 14
1e+20
 24
1e+20
 34
1e+20
 15
-1e+20
 25
-1e+20
 35
-1e+20
146
0.0
 13
0.0
 23
0.0
 33
0.0
 16
1.0
 26
0.0
 36
0.0
 17
0.0
 27
1.0
 37
0.0
 76
1
330
1B
  0
MATERIAL
  5
1F
102
{ACAD_REACTORS
330
E
102
}
330
E
100
AcDbMaterial
  1
ByBlock
  2

 70
0
 40
1.0
 71
1
 41
1.0
 91
-1023410177
 42
1.0
 72
1
  3

 73
1
 74
1
 75
1
 44
0.5
 73
0
 45
1.0
 46
1.0
 77
1
  4

 78
1
 79
1
170
1
 48
1.0
171
1
  6

172
1
173
1
174
1
140
1.0
141
1.0
175
1
  7

176
1
177
1
178
1
143
1.0
179
1
  8

270
1
271
1
272
1
145
1.0
146
1.0
273
1
  9

274
1
275
1
276
1
 42
1.0
 72
1
  3

 73
1
 74
1
 75
1
 94
63
  0
MATERIAL
  5
20
102
{ACAD_REACTORS
330
E
102
}
330
E
100
AcDbMaterial
  1
ByLayer
  2

 70
0
 40
1.0
 71
1
 41
1.0
 91
-1023410177
 42
1.0
 72
1
  3

 73
1
 74
1
 75
1
 44
0.5
 73
0
 45
1.0
 46
1.0
 77
1
  4

 78
1
 79
1
170
1
 48
1.0
171
1
  6

172
1
173
1
174
1
140
1.0
141
1.0
175
1
  7

176
1
177
1
178
1
143
1.0
179
1
  8

270
1
271
1
272
1
145
1.0
146
1.0
273
1
  9

274
1
275
1
276
1
 42
1.0
 72
1
  3

 73
1
 74
1
 75
1
 94
63
  0
MATERIAL
  5
21
102
{ACAD_REACTORS
330
E
102
}
330
E
100
AcDbMaterial
  1
Global
  2

 70
0
 40
1.0
 71
1
 41
1.0
 91
-1023410177
 42
1.0
 72
1
  3

 73
1
 74
1
 75
1
 44
0.5
 73
0
 45
1.0
 46
1.0
 77
1
  4

 78
1
 79
1
170
1
 48
1.0
171
1
  6

172
1
173
1
174
1
140
1.0
141
1.0
175
1
  7

176
1
177
1
178
1
143
1.0
179
1
  8

270
1
271
1
272
1
145
1.0
146
1.0
273
1
  9

274
1
275
1
276
1
 42
1.0
 72
1
  3

 73
1
 74
1
 75
1
 94
63
  0
MLINESTYLE
  5
22
102
{ACAD_REACTORS
330
10
102
}
330
10
100
AcDbMlineStyle
  2
Standard
 70
0
  3

 62
256
 51
90.0
 52
90.0
 71
2
 49
0.5
 62
256
  6
BYLAYER
 49
-0.5
 62
256
  6
BYLAYER
  0
MLEADERSTYLE
  5
2C
102
{ACAD_REACTORS
330
F
102
}
330
F
100
AcDbMLeaderStyle
179
2
170
2
171
1
172
0
 90
2
 40
0.0
 41
0.0
173
1
 91
-1056964608
 92
-2
290
1
 42
2.0
291
1
 43
8.0
  3
Standard
 44
4.0
300

342
29
174
1
175
1
176
0
178
1
 93
-1056964608
 45
4.0
292
0
297
0
 46
4.0
 94
-1056964608
 47
1.0
 49
1.0
140
1.0
294
1
141
0.0
177
0
142
1.0
295
0
296
0
143
3.75
271
0
272
9
273
9
  0
DICTIONARY
  5
2D
330
A
100
AcDbDictionary
280
1
281
1
  3
CREATED_BY_EZDXF
350
2E
  3
WRITTEN_BY_EZDXF
350
2E0
  0
DICTIONARYVAR
  5
2E
330
2D
100
DictionaryVariables
280
0
  1
1.4.4 @ 2026-08-14T00:43:38.954066+00:00
  0
VISUALSTYLE
  5
5A
102
{ACAD_REACTORS
330
16
102
}
330
16
100
AcDbVisualStyle
  2
2dWireframe
 70
4
 90
0
 40
0.6
 62
7
290
0
291
0
  0
VISUALSTYLE
  5
5B
102
{ACAD_REACTORS
330
16
102
}
330
16
100
AcDbVisualStyle
  2
Basic
 70
7
 90
1
 40
0.6
 62
7
290
0
291
1
  0
VISUALSTYLE
  5
5C
102
{ACAD_REACTORS
330
16
102
}
330
16
100
AcDbVisualStyle
  2
Brighten
 70
12
 90
2
 40
0.6
 62
7
290
0
291
1
  0
VISUALSTYLE
  5
5D
102
{ACAD_REACTORS
330
16
102
}
330
16
100
AcDbVisualStyle
  2
ColorChange
 70
16
 90
2
 40
0.6
 62
8
290
0
291
1
  0
VISUALSTYLE
  5
5E
102
{ACAD_REACTORS
330
16
102
}
330
16
100
AcDbVisualStyle
  2
Conceptual
 70
9
 90
3
 40
0.6
 62
7
290
0
291
0
  0
VISUALSTYLE
  5
5F
102
{ACAD_REACTORS
330
16
102
}
330
16
100
AcDbVisualStyle
  2
Dim
 70
11
 90
2
 40
0.6
 62
7
290
0
291
1
  0
VISUALSTYLE
  5
60
102
{ACAD_REACTORS
330
16
102
}
330
16
100
AcDbVisualStyle
  2
EdgeColorOff
 70
22
 90
2
 40
0.6
 62
7
290
0
291
1
  0
VISUALSTYLE
  5
61
102
{ACAD_REACTORS
330
16
102
}
330
16
100
AcDbVisualStyle
  2
Facepattern
 70
15
 90
2
 40
0.6
 62
7
290
0
291
1
  0
VISUALSTYLE
  5
62
102
{ACAD_REACTORS
330
16
102
}
330
16
100
AcDbVisualStyle
  2
Flat
 70
0
 90
2
 40
0.6
 62
7
290
0
291
1
  0
VISUALSTYLE
  5
63
102
{ACAD_REACTORS
330
16
102
}
330
16
100
AcDbVisualStyle
  2
FlatWithEdges
 70
1
 90
2
 40
0.6
 62
7
290
0
291
1
  0
VISUALSTYLE
  5
64
102
{ACAD_REACTORS
330
16
102
}
330
16
100
AcDbVisualStyle
  2
Gouraud
 70
2
 90
2
 40
0.6
 62
7
290
0
291
1
  0
VISUALSTYLE
  5
65
102
{ACAD_REACTORS
330
16
102
}
330
16
100
AcDbVisualStyle
  2
GouraudWithEdges
 70
3
 90
2
 40
0.6
 62
7
290
0
291
1
  0
VISUALSTYLE
  5
66
102
{ACAD_REACTORS
330
16
102
}
330
16
100
AcDbVisualStyle
  2
Hidden
 70
6
 90
1
 40
0.6
 62
7
290
0
291
0
  0
VISUALSTYLE
  5
67
102
{ACAD_REACTORS
330
16
102
}
330
16
100
AcDbVisualStyle
  2
JitterOff
 70
20
 90
2
 40
0.6
 62
7
290
0
291
1
  0
VISUALSTYLE
  5
68
102
{ACAD_REACTORS
330
16
102
}
330
16
100
AcDbVisualStyle
  2
Linepattern
 70
14
 90
2
 40
0.6
 62
7
290
0
291
1
  0
VISUALSTYLE
  5
69
102
{ACAD_REACTORS
330
16
102
}
330
16
100
AcDbVisualStyle
  2
Modeling
 70
10
 90
2
 40
0.6
 62
7
290
0
291
0
  0
VISUALSTYLE
  5
6A
102
{ACAD_REACTORS
330
16
102
}
330
16
100
AcDbVisualStyle
  2
OverhangOff
 70
21
 90
2
 40
0.6
 62
7
290
0
291
1
  0
VISUALSTYLE
  5
6B
102
{ACAD_REACTORS
330
16
102
}
330
16
100
AcDbVisualStyle
  2
Realistic
 70
8
 90
2
 40
0.6
 62
7
290
0
291
0
  0
VISUALSTYLE
  5
6C
102
{ACAD_REACTORS
330
16
102
}
330
16
100
AcDbVisualStyle
  2
Shaded
 70
27
 90
2
 40
0.6
 62
7
290
0
291
0
  0
VISUALSTYLE
  5
6D
102
{ACAD_REACTORS
330
16
102
}
330
16
100
AcDbVisualStyle
  2
Shaded with edges
 70
26
 90
2
 40
0.6
 62
7
290
0
291
0
  0
VISUALSTYLE
  5
6E
102
{ACAD_REACTORS
330
16
102
}
330
16
100
AcDbVisualStyle
  2
Shades of Gray
 70
23
 90
2
 40
0.6
 62
7
290
0
291
0
  0
VISUALSTYLE
  5
6F
102
{ACAD_REACTORS
330
16
102
}
330
16
100
AcDbVisualStyle
  2
Sketchy
 70
24
 90
1
 40
0.6
 62
7
290
0
291
0
  0
VISUALSTYLE
  5
70
102
{ACAD_REACTORS
330
16
102
}
330
16
100
AcDbVisualStyle
  2
Thicken
 70
13
 90
2
 40
0.6
 62
7
290
0
291
1
  0
VISUALSTYLE
  5
71
102
{ACAD_REACTORS
330
16
102
}
330
16
100
AcDbVisualStyle
  2
Wireframe
 70
5
 90
0
 40
0.6
 62
7
290
0
291
0
  0
VISUALSTYLE
  5
72
102
{ACAD_REACTORS
330
16
102
}
330
16
100
AcDbVisualStyle
  2
X-Ray
 70
25
 90
2
 40
0.5
 62
7
290
0
291
0
  0
DICTIONARYVAR
  5
2E0
330
2D
100
DictionaryVariables
280
0
  1
1.4.4 @ 2026-08-14T00:43:38.964912+00:00
  0
ENDSEC
  0
EOF
