0
SECTION
2
HEADER
9
$INSUNITS
70
1
9
$ACADVER
1
AC1014
9
$HANDSEED
5
FFFF
0
ENDSEC
0
SECTION
2
TABLES
0
TABLE
2
VPORT
5
8
100
AcDbSymbolTable
0
ENDTAB
0
TABLE
2
LTYPE
5
5
100
AcDbSymbolTable
0
LTYPE
5
14
100
AcDbSymbolTableRecord
100
AcDbLinetypeTableRecord
2
BYBLOCK
70
0
0
LTYPE
5
15
100
AcDbSymbolTableRecord
100
AcDbLinetypeTableRecord
2
BYLAYER
70
0
0
LTYPE
5
16
100
AcDbSymbolTableRecord
100
AcDbLinetypeTableRecord
2
DASHED
70
0
3
Dashed __ __ __ __ __ __ __ __ __ __ __ __ __ _
72
65
73
2
40
0.75
49
0.5
74
0
49
-0.25
74
0
0
ENDTAB
0
TABLE
2
LAYER
5
2
100
AcDbSymbolTable
70
2
0
LAYER
5
50
100
AcDbSymbolTableRecord
100
AcDbLayerTableRecord
2
0
70
0
62
7
6
CONTINUOUS
0
ENDTAB
0
TABLE
2
STYLE
5
3
100
AcDbSymbolTable
70
1
0
STYLE
5
11
100
AcDbSymbolTableRecord
100
AcDbTextStyleTableRecord
2
STANDARD
70
0
0
ENDTAB
0
TABLE
2
VIEW
5
6
100
AcDbSymbolTable
70
0
0
ENDTAB
0
TABLE
2
UCS
5
7
100
AcDbSymbolTable
70
0
0
ENDTAB
0
TABLE
2
APPID
5
9
100
AcDbSymbolTable
70
2
0
APPID
5
12
100
AcDbSymbolTableRecord
100
AcDbRegAppTableRecord
2
ACAD
70
0
0
ENDTAB
0
TABLE
2
DIMSTYLE
5
A
100
AcDbSymbolTable
70
1
0
ENDTAB
0
TABLE
2
BLOCK_RECORD
5
1
100
AcDbSymbolTable
70
1
0
BLOCK_RECORD
5
1F
100
AcDbSymbolTableRecord
100
AcDbBlockTableRecord
2
*MODEL_SPACE
0
BLOCK_RECORD
5
1B
100
AcDbSymbolTableRecord
100
AcDbBlockTableRecord
2
*PAPER_SPACE
0
ENDTAB
0
ENDSEC
0
SECTION
2
BLOCKS
0
BLOCK
5
20
100
AcDbEntity
100
AcDbBlockBegin
2
*MODEL_SPACE
0
ENDBLK
5
21
100
AcDbEntity
100
AcDbBlockEnd
0
BLOCK
5
1C
100
AcDbEntity
100
AcDbBlockBegin
2
*PAPER_SPACE
0
ENDBLK
5
1D
100
AcDbEntity
100
AcDbBlockEnd
0
ENDSEC
0
SECTION
2
ENTITIES
0
LWPOLYLINE
5
100
100
AcDbEntity
8
0
100
AcDbPolyline
90
6
70
1
43
0.0
10
-0.37500000000000089
20
9.0084213663372683
42
0.41421356237309531
10
-3.6249999999999982
20
5.7584213663372692
10
-3.6249999999999996
20
0
10
3.6249999999999996
20
0
10
3.6249999999998472
20
5.7584213663963748
42
0.41421356236776818
10
0.3749999999998474
20
9.0084213663372665
0
LWPOLYLINE
5
101
100
AcDbEntity
8
0
100
AcDbPolyline
90
4
70
1
43
0.0
10
5.8477552391194418
20
12.328737157824461
10
4.8477552391194383
20
12.702847835971843
10
4.8477552391194383
20
0
10
5.8477552391194418
20
0
0
LWPOLYLINE
5
102
100
AcDbEntity
8
0
100
AcDbPolyline
90
6
70
1
43
0.0
10
-4.1249999999999982
20
-0.49999999999999994
10
4.1249999999999991
20
-0.49999999999999994
10
4.1250000000000009
20
5.758421366340345
42
0.41421356237285256
10
0.37499999999987293
20
9.5084213663372665
10
-0.37499999999986888
20
9.5084213663372719
42
0.41421356237286511
10
-4.1249999999999982
20
5.7584213663403476
0
LINE
5
103
100
AcDbEntity
8
0
100
AcDbLine
10
4.8477552391194383
20
12.702847835971843
30
-2.1854785235848822e-17
11
4.9529753176378097
21
0.6796107894220017
31
-4.3709567898628207e-17
0
LINE
5
104
100
AcDbEntity
8
0
100
AcDbLine
10
4.8477552391194383
20
12.702847835971843
30
-2.1854785235848822e-17
11
4.7814504497021799
21
12.399278560553071
31
-4.3709567898628207e-17
0
LINE
5
105
100
AcDbEntity
8
0
100
AcDbLine
10
-4.7895943293802938
20
0
30
-1.049029629567077e-15
11
-4.7895943293802938
21
12.724606453356028
31
-1.049029629567077e-15
0
LINE
5
106
100
AcDbEntity
8
0
100
AcDbLine
10
-8.2650695212244827
20
11.136325333171801
30
0
11
-1.3987061727561026e-15
21
14.228376096691852
31
-6.2115031907166279e-31
0
LINE
5
107
100
AcDbEntity
8
0
100
AcDbLine
10
-1.3987061727561026e-15
20
14.228376096691852
30
-6.2115031907166279e-31
11
2.0468003986225778e-15
21
9.5084213663372701
31
0
0
LINE
5
108
100
AcDbEntity
8
0
100
AcDbLine
10
-4.7895943293802938
20
11.902693448512451
30
-1.049029629567077e-15
11
-1.0075677793151519e-15
21
13.694531831127478
31
-5.6189066480460683e-31
0
LINE
5
109
100
AcDbEntity
8
0
100
AcDbLine
10
-4.6874999999999982
20
10.577915852638604
30
-1.049029629567077e-15
11
-1.4054437113915197e-17
21
12.331559656454177
31
-3.1057515953583139e-31
0
LINE
5
110
100
AcDbEntity
8
0
100
AcDbLine
10
-4.6874999999999982
20
10.044071587074233
30
-1.049029629567077e-15
11
3.7564504734634849e-16
21
11.797715390889778
31
-4.161221864093366e-31
0
LINE
5
111
100
AcDbEntity
8
0
100
AcDbLine
10
-4.6874999999999982
20
8.6810994124009273
30
-1.049029629567077e-15
11
1.3705972985282856e-15
21
10.434743216216482
31
-6.0659210846842069e-33
0
LINE
5
112
100
AcDbEntity
8
0
100
AcDbLine
10
-4.6874999999999982
20
8.1472551468365548
30
-1.049029629567077e-15
11
1.7602967829885558e-15
21
9.9008989506520741
31
1.4558210603242097e-32
0
LINE
5
113
100
AcDbEntity
8
0
100
AcDbLine
10
-4.6874999999999982
20
6.7842829721632496
30
-1.049029629567077e-15
11
-3.8823272649500571
21
7.0855066900968167
31
0
0
LINE
5
114
100
AcDbEntity
8
0
100
AcDbLine
10
-4.6875000000000009
20
6.2504387065988789
30
-1.049029629567077e-15
11
-4.0534119096454493
21
6.4876578320865814
31
0
0
LINE
5
115
100
AcDbEntity
8
0
100
AcDbLine
10
-4.6874999999999991
20
4.8874665319255728
30
-1.049029629567077e-15
11
-4.1249999999999982
21
5.0979037883834533
31
-5.9506040641936822e-17
0
LINE
5
116
100
AcDbEntity
8
0
100
AcDbLine
10
-4.6874999999999982
20
4.3536222663612012
30
-7.2245360864328751e-16
11
-4.1249999999999982
21
4.5640595228190763
31
-5.9506040641936526e-17
0
LINE
5
117
100
AcDbEntity
8
0
100
AcDbLine
10
-4.6874999999999991
20
2.9906500916878946
30
-1.049029629567077e-15
11
-4.1249999999999982
21
3.2010873481457582
31
-5.9506040641936341e-17
0
LINE
5
118
100
AcDbEntity
8
0
100
AcDbLine
10
-4.6875
20
2.4568058261235231
30
-7.2245360864328711e-16
11
-4.1249999999999982
21
2.6672430825813831
31
-5.9506040641935909e-17
0
LINE
5
119
100
AcDbEntity
8
0
100
AcDbLine
10
-4.6874999999999991
20
1.0626564553047742
30
-7.2245360864328711e-16
11
-4.1249999999999982
21
1.273093711762636
31
-5.9506040641935638e-17
0
LINE
5
120
100
AcDbEntity
8
0
100
AcDbLine
10
-4.6874999999999991
20
0.52881218974040234
30
-1.049029629567077e-15
11
-4.1249999999999982
21
0.73924944619826993
31
-5.9506040641935872e-17
0
LINE
5
121
100
AcDbEntity
8
0
100
AcDbLine
10
-4.7895943293802938
20
0
30
-1.049029629567077e-15
11
-4.1249999999999982
21
-4.0694665910353009e-17
31
-1.049029629567077e-15
0
LINE
5
122
100
AcDbEntity
8
0
100
AcDbLine
10
-0.75
20
13.413948822516987
30
-1.4498457947941161e-16
11
-0.75000000000000566
21
12.050976647843681
31
-1.4498457947941161e-16
0
LINE
5
123
100
AcDbEntity
8
0
100
AcDbLine
10
-0.75000000000000777
20
11.517132382279286
30
-1.4498457947941161e-16
11
-0.7500000000000101
21
10.154160207605988
31
-1.4498457947941161e-16
0
LINE
5
124
100
AcDbEntity
8
0
100
AcDbLine
10
-4.0395943293802929
20
12.183276457122943
30
-3.1057515953583139e-31
11
-4.039594329380316
21
10.820304282449628
31
-3.1057515953583139e-31
0
LINE
5
125
100
AcDbEntity
8
0
100
AcDbLine
10
-4.0395943293803249
20
10.286460016885249
30
-3.1057515953583139e-31
11
-4.0395943293803311
21
8.9234878422119444
31
-3.1057515953583139e-31
0
LWPOLYLINE
5
126
100
AcDbEntity
8
0
100
AcDbPolyline
90
2
70
1
43
0.0
10
-4.6874999999999982
20
12.474732292876283
10
-4.6874999999999982
20
11.94088802731191
0
LINE
5
127
100
AcDbEntity
8
0
100
AcDbLine
10
-4.6874999999999982
20
11.94088802731191
30
-1.049029629567077e-15
11
-4.6874999999999982
21
10.577915852638604
31
-1.049029629567077e-15
0
LINE
5
128
100
AcDbEntity
8
0
100
AcDbLine
10
-4.6874999999999982
20
10.577915852638604
30
-1.049029629567077e-15
11
-4.6874999999999982
21
10.044071587074233
31
-1.049029629567077e-15
0
LINE
5
129
100
AcDbEntity
8
0
100
AcDbLine
10
-4.6874999999999982
20
10.044071587074233
30
-1.049029629567077e-15
11
-4.6874999999999982
21
8.6810994124009273
31
-1.049029629567077e-15
0
LINE
5
130
100
AcDbEntity
8
0
100
AcDbLine
10
-4.6874999999999982
20
8.6810994124009273
30
-1.049029629567077e-15
11
-4.6874999999999982
21
8.1472551468365548
31
-1.049029629567077e-15
0
LINE
5
131
100
AcDbEntity
8
0
100
AcDbLine
10
-4.6874999999999982
20
8.1472551468365548
30
-1.049029629567077e-15
11
-4.6874999999999982
21
6.7842829721632496
31
-1.049029629567077e-15
0
LINE
5
132
100
AcDbEntity
8
0
100
AcDbLine
10
-4.6874999999999982
20
6.7842829721632496
30
-1.049029629567077e-15
11
-4.6875000000000009
21
6.2504387065988789
31
-1.049029629567077e-15
0
LINE
5
133
100
AcDbEntity
8
0
100
AcDbLine
10
-4.6875000000000009
20
6.2504387065988789
30
-1.049029629567077e-15
11
-4.6874999999999991
21
4.8874665319255728
31
-1.049029629567077e-15
0
LINE
5
134
100
AcDbEntity
8
0
100
AcDbLine
10
-4.6874999999999991
20
4.8874665319255728
30
-1.049029629567077e-15
11
-4.6874999999999982
21
4.3536222663612012
31
-1.049029629567077e-15
0
LINE
5
135
100
AcDbEntity
8
0
100
AcDbLine
10
-4.6874999999999982
20
4.3536222663612012
30
-7.2245360864328751e-16
11
-4.6874999999999991
21
2.9906500916878946
31
-1.049029629567077e-15
0
LINE
5
136
100
AcDbEntity
8
0
100
AcDbLine
10
-4.6874999999999991
20
2.9906500916878946
30
-1.049029629567077e-15
11
-4.6875
21
2.4568058261235231
31
-1.049029629567077e-15
0
LINE
5
137
100
AcDbEntity
8
0
100
AcDbLine
10
-4.6874999999999991
20
1.0626564553047742
30
-1.049029629567077e-15
11
-4.6874999999999991
21
0.52881218974040234
31
-1.049029629567077e-15
0
LINE
5
138
100
AcDbEntity
8
0
100
AcDbLine
10
-4.6875
20
2.4568058261235231
30
-1.049029629567077e-15
11
-4.6874999999999991
21
1.0938336514502169
31
-1.049029629567077e-15
0
LWPOLYLINE
5
139
100
AcDbEntity
8
0
100
AcDbPolyline
90
2
70
1
43
0.0
10
-4.6875
20
0.52881218974040223
10
-4.6874999999999991
20
0
0
LINE
5
140
100
AcDbEntity
8
0
100
AcDbLine
10
4.6875000000000133
20
2.9906500916879022
30
-1.049029629567077e-15
11
4.6875000000000133
21
2.4568058261235306
31
-1.049029629567077e-15
0
LINE
5
141
100
AcDbEntity
8
0
100
AcDbLine
10
4.6875000000000133
20
2.4568058261235306
30
-1.049029629567077e-15
11
4.1250000000000124
21
2.6672430825813884
31
-5.9506040641935909e-17
0
LINE
5
142
100
AcDbEntity
8
0
100
AcDbLine
10
4.687500000000016
20
1.0938336514502238
30
-1.049029629567077e-15
11
4.687500000000016
21
0.52881218974040967
31
-1.049029629567077e-15
0
LINE
5
143
100
AcDbEntity
8
0
100
AcDbLine
10
3.625000000000008
20
5.7584213663372745
30
0
11
3.6250000000000178
21
5.2924072516727086e-15
31
0
0
LINE
5
144
100
AcDbEntity
8
0
100
AcDbLine
10
4.6875000000000098
20
4.8874665319255799
30
-1.049029629567077e-15
11
4.1250000000000098
21
5.0979037883834621
31
-5.9506040641936822e-17
0
LINE
5
145
100
AcDbEntity
8
0
100
AcDbLine
10
4.687500000000016
20
0.52881218974040967
30
-1.049029629567077e-15
11
4.1250000000000151
21
0.73924944619827648
31
-5.9506040641935872e-17
0
LINE
5
146
100
AcDbEntity
8
0
100
AcDbLine
10
4.687500000000016
20
0.52881218974040967
30
-1.049029629567077e-15
11
4.6875000000000169
21
6.820064517017211e-15
31
-1.049029629567077e-15
0
LINE
5
147
100
AcDbEntity
8
0
100
AcDbLine
10
4.6875000000000098
20
4.3536222663612083
30
-1.049029629567077e-15
11
4.6875000000000133
21
2.9906500916879022
31
-1.049029629567077e-15
0
LINE
5
148
100
AcDbEntity
8
0
100
AcDbLine
10
4.6874999999999982
20
12.474732292876288
30
-1.049029629567077e-15
11
4.6875
21
11.940888027311916
31
-1.049029629567077e-15
0
LINE
5
149
100
AcDbEntity
8
0
100
AcDbLine
10
4.6875000000000036
20
8.1472551468365655
30
-1.049029629567077e-15
11
1.7602967829885785e-15
21
9.9008989506520741
31
1.4558210603242097e-32
0
LINE
5
150
100
AcDbEntity
8
0
100
AcDbLine
10
-1.3987061727561026e-15
20
14.228376096691852
30
-6.2115031907166279e-31
11
2.0468003986225774e-15
21
9.5084213663372701
31
0
0
LINE
5
151
100
AcDbEntity
8
0
100
AcDbLine
10
4.0395943293803285
20
10.286460016885254
30
-3.1057515953583139e-31
11
4.0395943293803374
21
8.9234878422119497
31
-3.1057515953583139e-31
0
LINE
5
152
100
AcDbEntity
8
0
100
AcDbLine
10
4.6875000000000036
20
8.1472551468365655
30
-1.049029629567077e-15
11
4.6875000000000062
21
6.7842829721632603
31
-1.049029629567077e-15
0
LINE
5
153
100
AcDbEntity
8
0
100
AcDbLine
10
4.7895943293803116
20
5.5948246910244104e-15
30
-1.049029629567077e-15
11
4.7895943293802938
21
12.724606453356035
31
-1.049029629567077e-15
0
ARC
5
154
100
AcDbEntity
8
0
100
AcDbCircle
10
0.37500000000001155
20
5.758421366337271
30
0
40
3.7499999999999969
210
0
220
-0
230
1
100
AcDbArc
50
0
51
90.000000000002117
0
ARC
5
155
100
AcDbEntity
8
0
100
AcDbCircle
10
0.37500000000001155
20
5.758421366337271
30
0
40
3.2499999999999964
210
0
220
-0
230
1
100
AcDbArc
50
0
51
90.000000000000099
0
LINE
5
156
100
AcDbEntity
8
0
100
AcDbLine
10
4.6875000000000098
20
4.8874665319255799
30
-1.049029629567077e-15
11
4.6875000000000098
21
4.3536222663612083
31
-1.049029629567077e-15
0
LINE
5
157
100
AcDbEntity
8
0
100
AcDbLine
10
4.6875000000000133
20
2.9906500916879022
30
-1.049029629567077e-15
11
4.1250000000000124
21
3.2010873481457671
31
-5.9506040641936341e-17
0
LINE
5
158
100
AcDbEntity
8
0
100
AcDbLine
10
4.7895943293803116
20
5.5948246910244104e-15
30
-1.049029629567077e-15
11
4.1250000000000169
21
5.9816997928896229e-15
31
-1.049029629567077e-15
0
LINE
5
159
100
AcDbEntity
8
0
100
AcDbLine
10
4.6875000000000062
20
6.7842829721632603
30
-1.049029629567077e-15
11
3.8823272649500655
21
7.085506690096822
31
0
0
LINE
5
160
100
AcDbEntity
8
0
100
AcDbLine
10
4.6875000000000098
20
6.250438706598886
30
-1.049029629567077e-15
11
4.6875000000000098
21
4.8874665319255799
31
-1.049029629567077e-15
0
LINE
5
161
100
AcDbEntity
8
0
100
AcDbLine
10
4.6875000000000098
20
6.250438706598886
30
-1.049029629567077e-15
11
4.0534119096454582
21
6.487657832086585
31
0
0
LINE
5
162
100
AcDbEntity
8
0
100
AcDbLine
10
4.6875000000000062
20
6.7842829721632603
30
-1.049029629567077e-15
11
4.6875000000000098
21
6.250438706598886
31
-1.049029629567077e-15
0
LINE
5
163
100
AcDbEntity
8
0
100
AcDbLine
10
4.687500000000016
20
1.0938336514502238
30
-1.049029629567077e-15
11
4.1250000000000151
21
1.2730937117626429
31
-5.9506040641935638e-17
0
LINE
5
164
100
AcDbEntity
8
0
100
AcDbLine
10
4.6875000000000133
20
2.4568058261235306
30
-1.049029629567077e-15
11
4.687500000000016
21
1.0938336514502238
31
-1.049029629567077e-15
0
LINE
5
165
100
AcDbEntity
8
0
100
AcDbLine
10
4.6875000000000098
20
4.3536222663612083
30
-1.049029629567077e-15
11
4.1250000000000098
21
4.5640595228190843
31
-5.9506040641936526e-17
0
LINE
5
166
100
AcDbEntity
8
0
100
AcDbLine
10
4.125000000000008
20
5.758421366340353
30
0
11
4.1250000000000178
21
-0.499999999999994
31
0
0
LINE
5
167
100
AcDbEntity
8
0
100
AcDbLine
10
-0.37499999999986883
20
9.5084213663372665
30
0
11
0.37499999999987299
21
9.5084213663372719
31
0
0
LINE
5
168
100
AcDbEntity
8
0
100
AcDbLine
10
-0.37499999999984257
20
9.0084213663372665
30
0
11
0.37500000000000577
21
9.0084213663372683
31
0
0
LINE
5
169
100
AcDbEntity
8
0
100
AcDbLine
10
4.6875000000000009
20
10.577915852638615
30
-1.049029629567077e-15
11
4.6875000000000027
21
10.044071587074244
31
-1.049029629567077e-15
0
LINE
5
170
100
AcDbEntity
8
0
100
AcDbLine
10
4.6875
20
11.940888027311916
30
-1.049029629567077e-15
11
4.6875000000000009
21
10.577915852638615
31
-1.049029629567077e-15
0
LINE
5
171
100
AcDbEntity
8
0
100
AcDbLine
10
8.2650695212244862
20
11.136325333171813
30
0
11
-1.3987061727561026e-15
21
14.228376096691852
31
-6.2115031907166279e-31
0
LINE
5
172
100
AcDbEntity
8
0
100
AcDbLine
10
4.6875000000000036
20
8.6810994124009326
30
-1.049029629567077e-15
11
4.6875000000000036
21
8.1472551468365655
31
-1.049029629567077e-15
0
LINE
5
173
100
AcDbEntity
8
0
100
AcDbLine
10
4.6875000000000036
20
8.6810994124009326
30
-1.049029629567077e-15
11
1.370597298528286e-15
21
10.434743216216482
31
-6.0659210846842069e-33
0
LINE
5
174
100
AcDbEntity
8
0
100
AcDbLine
10
4.6875000000000027
20
10.044071587074244
30
-1.049029629567077e-15
11
3.7564504734634868e-16
21
11.797715390889778
31
-4.161221864093366e-31
0
LINE
5
175
100
AcDbEntity
8
0
100
AcDbLine
10
4.6875000000000009
20
10.577915852638615
30
-1.049029629567077e-15
11
-1.4054437113915006e-17
21
12.331559656454177
31
-3.1057515953583139e-31
0
LINE
5
176
100
AcDbEntity
8
0
100
AcDbLine
10
4.0395943293802929
20
12.183276457122949
30
-3.1057515953583139e-31
11
4.0395943293803187
21
10.820304282449634
31
-3.1057515953583139e-31
0
LINE
5
177
100
AcDbEntity
8
0
100
AcDbLine
10
0.74999999999999845
20
13.413948822516987
30
-1.4498457947941161e-16
11
0.750000000000006
21
12.050976647843681
31
-1.4498457947941161e-16
0
LINE
5
178
100
AcDbEntity
8
0
100
AcDbLine
10
4.6875000000000027
20
10.044071587074244
30
-1.049029629567077e-15
11
4.6875000000000036
21
8.6810994124009326
31
-1.049029629567077e-15
0
LINE
5
179
100
AcDbEntity
8
0
100
AcDbLine
10
4.6875
20
11.940888027311916
30
-1.049029629567077e-15
11
-1.0104455972765621e-15
21
13.694531831127478
31
-5.6189066480460683e-31
0
LINE
5
180
100
AcDbEntity
8
0
100
AcDbLine
10
0.75000000000000899
20
11.517132382279286
30
-1.4498457947941161e-16
11
0.75000000000001321
21
10.154160207605988
31
-1.4498457947941161e-16
0
LINE
5
181
100
AcDbEntity
8
0
100
AcDbLine
10
-4.6875000000000009
20
6.2504387065988789
30
-7.3715056562500114e-16
11
-4.6874999999999991
21
4.8874665319255728
31
-7.2245360864328751e-16
0
LINE
5
182
100
AcDbEntity
8
0
100
AcDbLine
10
-4.6874999999999991
20
4.8874665319255728
30
-7.2245360864328751e-16
11
-4.6874999999999982
21
4.3536222663612012
31
-7.2245360864328751e-16
0
LINE
5
183
100
AcDbEntity
8
0
100
AcDbLine
10
-4.6874999999999982
20
4.3536222663612012
30
-7.2245360864328751e-16
11
-4.6874999999999991
21
2.9906500916878946
31
-7.2245360864328731e-16
0
LINE
5
184
100
AcDbEntity
8
0
100
AcDbLine
10
-4.6874999999999991
20
2.9906500916878946
30
-7.2245360864328731e-16
11
-4.6875
21
2.4568058261235231
31
-7.2245360864328711e-16
0
LINE
5
185
100
AcDbEntity
8
0
100
AcDbLine
10
-4.6874999999999991
20
1.0626564553047742
30
-7.2245360864328711e-16
11
-4.6875
21
0.52881218974040223
31
-7.2245360864328711e-16
0
LINE
5
186
100
AcDbEntity
8
0
100
AcDbLine
10
-4.6875
20
2.4568058261235231
30
-7.2245360864328711e-16
11
-4.6874999999999991
21
1.0626564553047742
31
-7.2245360864328711e-16
0
LINE
5
187
100
AcDbEntity
8
0
100
AcDbLine
10
-4.6874999999999982
20
11.94088802731191
30
-1.049029629567077e-15
11
-4.6874999999999982
21
10.577915852638604
31
-1.049029629567077e-15
0
LINE
5
188
100
AcDbEntity
8
0
100
AcDbLine
10
-4.6874999999999982
20
10.577915852638604
30
-1.049029629567077e-15
11
-4.6874999999999982
21
10.044071587074233
31
-1.049029629567077e-15
0
LINE
5
189
100
AcDbEntity
8
0
100
AcDbLine
10
-4.6874999999999982
20
10.044071587074233
30
-1.049029629567077e-15
11
-4.6874999999999982
21
8.6810994124009273
31
-1.049029629567077e-15
0
LINE
5
190
100
AcDbEntity
8
0
100
AcDbLine
10
-4.6874999999999982
20
8.6810994124009273
30
-1.049029629567077e-15
11
-4.6874999999999982
21
8.1472551468365548
31
-1.049029629567077e-15
0
LINE
5
191
100
AcDbEntity
8
0
100
AcDbLine
10
-4.6874999999999982
20
6.7842829721632496
30
-1.049029629567077e-15
11
-4.6875000000000009
21
6.2504387065988789
31
-7.3715056562500114e-16
0
LINE
5
192
100
AcDbEntity
8
0
100
AcDbLine
10
-4.6874999999999982
20
8.1472551468365548
30
-1.049029629567077e-15
11
-4.6874999999999982
21
6.7842829721632496
31
-1.049029629567077e-15
0
ENDSEC
0
SECTION
2
OBJECTS
0
DICTIONARY
5
C
100
AcDbDictionary
3
ACAD_GROUP
350
D
3
ACAD_MLINESTYLE
350
17
0
DICTIONARY
5
D
100
AcDbDictionary
0
DICTIONARY
5
1A
330
C
100
AcDbDictionary
0
DICTIONARY
5
17
100
AcDbDictionary
0
ENDSEC
0
EOF
