0
SECTION
2
HEADER
9
$INSUNITS
70
1
9
$ACADVER
1
AC1014
9
$HANDSEED
5
FFFF
0
ENDSEC
0
SECTION
2
TABLES
0
TABLE
2
VPORT
5
8
100
AcDbSymbolTable
0
ENDTAB
0
TABLE
2
LTYPE
5
5
100
AcDbSymbolTable
0
LTYPE
5
14
100
AcDbSymbolTableRecord
100
AcDbLinetypeTableRecord
2
BYBLOCK
70
0
0
LTYPE
5
15
100
AcDbSymbolTableRecord
100
AcDbLinetypeTableRecord
2
BYLAYER
70
0
0
LTYPE
5
16
100
AcDbSymbolTableRecord
100
AcDbLinetypeTableRecord
2
DASHED
70
0
3
Dashed __ __ __ __ __ __ __ __ __ __ __ __ __ _
72
65
73
2
40
0.75
49
0.5
74
0
49
-0.25
74
0
0
ENDTAB
0
TABLE
2
LAYER
5
2
100
AcDbSymbolTable
70
2
0
LAYER
5
50
100
AcDbSymbolTableRecord
100
AcDbLayerTableRecord
2
0
70
0
62
7
6
CONTINUOUS
0
ENDTAB
0
TABLE
2
STYLE
5
3
100
AcDbSymbolTable
70
1
0
STYLE
5
11
100
AcDbSymbolTableRecord
100
AcDbTextStyleTableRecord
2
STANDARD
70
0
0
ENDTAB
0
TABLE
2
VIEW
5
6
100
AcDbSymbolTable
70
0
0
ENDTAB
0
TABLE
2
UCS
5
7
100
AcDbSymbolTable
70
0
0
ENDTAB
0
TABLE
2
APPID
5
9
100
AcDbSymbolTable
70
2
0
APPID
5
12
100
AcDbSymbolTableRecord
100
AcDbRegAppTableRecord
2
ACAD
70
0
0
ENDTAB
0
TABLE
2
DIMSTYLE
5
A
100
AcDbSymbolTable
70
1
0
ENDTAB
0
TABLE
2
BLOCK_RECORD
5
1
100
AcDbSymbolTable
70
1
0
BLOCK_RECORD
5
1F
100
AcDbSymbolTableRecord
100
AcDbBlockTableRecord
2
*MODEL_SPACE
0
BLOCK_RECORD
5
1B
100
AcDbSymbolTableRecord
100
AcDbBlockTableRecord
2
*PAPER_SPACE
0
ENDTAB
0
ENDSEC
0
SECTION
2
BLOCKS
0
BLOCK
5
20
100
AcDbEntity
100
AcDbBlockBegin
2
*MODEL_SPACE
0
ENDBLK
5
21
100
AcDbEntity
100
AcDbBlockEnd
0
BLOCK
5
1C
100
AcDbEntity
100
AcDbBlockBegin
2
*PAPER_SPACE
0
ENDBLK
5
1D
100
AcDbEntity
100
AcDbBlockEnd
0
ENDSEC
0
SECTION
2
ENTITIES
0
LINE
5
100
100
AcDbEntity
8
0
100
AcDbLine
10
20.953528067319276
20
-11.749999999999998
30
0
11
1.3734815072126871
21
-11.750000000000004
31
0
0
LINE
5
101
100
AcDbEntity
8
0
100
AcDbLine
10
0.37348150721268814
20
0
30
0
11
22.037515116117337
21
1.0138342024540882e-14
31
0
0
LINE
5
102
100
AcDbEntity
8
0
100
AcDbLine
10
20.953528067319276
20
-11.749999999999998
30
0
11
20.953528067319294
21
9.6310573863574344e-15
31
0
0
LINE
5
103
100
AcDbEntity
8
0
100
AcDbLine
10
0.37348150721268814
20
-11.750000000000004
30
0
11
0.37348150721268814
21
0
31
0
0
LINE
5
104
100
AcDbEntity
8
0
100
AcDbLine
10
11.163504787265953
20
-11.216195318128106
30
0
11
20.953528067319283
21
-7.5558556019165755
31
0
0
LINE
5
105
100
AcDbEntity
8
0
100
AcDbLine
10
11.163504787265854
20
-9.2313814660276385
30
0
11
20.953528067319287
21
-5.5710417498160361
31
0
0
LINE
5
106
100
AcDbEntity
8
0
100
AcDbLine
10
11.163504787265827
20
-8.697576784155741
30
0
11
20.953528067319287
21
-5.0372370679441945
31
0
0
LINE
5
107
100
AcDbEntity
8
0
100
AcDbLine
10
11.163504787265726
20
-6.7127629320552744
30
0
11
20.95352806731929
21
-3.052423215843771
31
0
0
LINE
5
108
100
AcDbEntity
8
0
100
AcDbLine
10
11.163504787265698
20
-6.1789582501833777
30
0
11
20.95352806731929
21
-2.5186185339718175
31
0
0
LINE
5
109
100
AcDbEntity
8
0
100
AcDbLine
10
20.953528067319294
20
-0.53380468187167629
30
0
11
11.163504787265598
21
-4.1941443980829138
31
0
0
LINE
5
110
100
AcDbEntity
8
0
100
AcDbLine
10
11.163504787265984
20
-11.750000000000004
30
0
11
11.163504787265953
21
-11.216195318128106
31
0
0
LINE
5
111
100
AcDbEntity
8
0
100
AcDbLine
10
11.163504787265953
20
-11.216195318128106
30
0
11
11.163504787265854
21
-9.2313814660276385
31
0
0
LINE
5
112
100
AcDbEntity
8
0
100
AcDbLine
10
11.163504787265854
20
-9.2313814660276385
30
0
11
11.163504787265827
21
-8.697576784155741
31
0
0
LINE
5
113
100
AcDbEntity
8
0
100
AcDbLine
10
11.163504787265827
20
-8.697576784155741
30
0
11
11.163504787265726
21
-6.7127629320552744
31
0
0
LINE
5
114
100
AcDbEntity
8
0
100
AcDbLine
10
11.163504787265726
20
-6.7127629320552744
30
0
11
11.163504787265698
21
-6.1789582501833777
31
0
0
LINE
5
115
100
AcDbEntity
8
0
100
AcDbLine
10
11.163504787265698
20
-6.1789582501833777
30
0
11
11.163504787265598
21
-4.1941443980829138
31
0
0
LINE
5
116
100
AcDbEntity
8
0
100
AcDbLine
10
20.953528067319276
20
-11.749999999999998
30
0
11
21.953528067319283
21
-11.75
31
0
0
LINE
5
117
100
AcDbEntity
8
0
100
AcDbLine
10
21.953528067319283
20
-11.75
30
0
11
21.953528067319283
21
0
31
0
0
LINE
5
118
100
AcDbEntity
8
0
100
AcDbLine
10
21.953528067319283
20
0
30
0
11
22.037515116117337
21
1.0138342024540882e-14
31
0
0
LINE
5
119
100
AcDbEntity
8
0
100
AcDbLine
10
20.953528067319294
20
9.6310573863574344e-15
30
0
11
11.163504787265659
21
-3.6603397162110154
31
0
0
LINE
5
120
100
AcDbEntity
8
0
100
AcDbLine
10
11.163504787265659
20
-3.6603397162110154
30
0
11
11.163504787265639
21
5.0495188680362415e-15
31
0
0
LINE
5
121
100
AcDbEntity
8
0
100
AcDbLine
10
11.163504787265659
20
-3.6603397162110154
30
0
11
11.163504787265598
21
-4.1941443980829138
31
0
0
LINE
5
122
100
AcDbEntity
8
0
100
AcDbLine
10
1.3734815072126871
20
-11.750000000000004
30
0
11
1.3734815072126914
21
4.6798034971537879e-16
31
0
0
LINE
5
123
100
AcDbEntity
8
0
100
AcDbLine
10
1.3734815072126871
20
-11.750000000000004
30
0
11
0.37348150721268814
21
-11.750000000000004
31
0
0
LINE
5
124
100
AcDbEntity
8
0
100
AcDbLine
10
12.413504787265662
20
-8.764025616671697
30
0
11
12.413504787265662
21
-8.2302209347998012
31
0
0
LINE
5
125
100
AcDbEntity
8
0
100
AcDbLine
10
12.413504787265662
20
-6.2454070826993036
30
0
11
12.413504787265662
21
-5.7116024008273918
31
0
0
LINE
5
126
100
AcDbEntity
8
0
100
AcDbLine
10
12.413504787265662
20
-3.7267885487269354
30
0
11
12.413504787265662
21
-3.1929838668550863
31
0
0
LINE
5
127
100
AcDbEntity
8
0
100
AcDbLine
10
12.413504787265662
20
-3.1929838668550863
30
0
11
12.413504787265856
21
5.6344943051805645e-15
31
0
0
LINE
5
128
100
AcDbEntity
8
0
100
AcDbLine
10
11.913504787265659
20
-3.3799262065974589
30
0
11
11.913504787265603
21
5.4005041303227578e-15
31
0
0
LINE
5
129
100
AcDbEntity
8
0
100
AcDbLine
10
11.163504787265698
20
-6.1789582501833777
30
0
11
1.373481507211733
21
-2.5186185339728122
31
0
0
LINE
5
130
100
AcDbEntity
8
0
100
AcDbLine
10
9.9135047872659978
20
-8.7640256166718249
30
0
11
9.9135047872659445
21
-8.2302209347999273
31
0
0
LINE
5
131
100
AcDbEntity
8
0
100
AcDbLine
10
11.163504787265827
20
-8.697576784155741
30
0
11
1.373481507211993
21
-5.0372370679451883
31
0
0
LINE
5
132
100
AcDbEntity
8
0
100
AcDbLine
10
9.913504787265742
20
-6.2454070826994306
30
0
11
9.913504787265687
21
-5.7116024008275179
31
0
0
LINE
5
133
100
AcDbEntity
8
0
100
AcDbLine
10
11.163504787265854
20
-9.2313814660276385
30
0
11
1.3734815072120474
21
-5.5710417498170299
31
0
0
LINE
5
134
100
AcDbEntity
8
0
100
AcDbLine
10
1.3734815072115287
20
-0.53380468187267038
30
0
11
11.163504787265598
21
-4.1941443980829138
31
0
0
LINE
5
135
100
AcDbEntity
8
0
100
AcDbLine
10
11.163504787265953
20
-11.216195318128106
30
0
11
1.3734815072122524
21
-7.5558556019175702
31
0
0
LINE
5
136
100
AcDbEntity
8
0
100
AcDbLine
10
11.163504787265726
20
-6.7127629320552744
30
0
11
1.373481507211789
21
-3.0524232158447653
31
0
0
LINE
5
137
100
AcDbEntity
8
0
100
AcDbLine
10
10.413504787265456
20
-3.3799262065975353
30
0
11
10.413504787265166
21
-7.119032463072137e-14
31
0
0
LINE
5
138
100
AcDbEntity
8
0
100
AcDbLine
10
1.3734815072114741
20
-9.845628340127562e-13
30
0
11
11.163504787265483
21
-3.6603397162110154
31
0
0
LINE
5
139
100
AcDbEntity
8
0
100
AcDbLine
10
9.9135047872654329
20
-3.1929838668552128
30
0
11
9.9135047872649142
21
-1.2173220408148432e-13
31
0
0
LINE
5
140
100
AcDbEntity
8
0
100
AcDbLine
10
9.9135047872654862
20
-3.726788548727062
30
0
11
9.9135047872654329
21
-3.1929838668552128
31
0
0
LINE
5
141
100
AcDbEntity
8
0
100
AcDbLine
10
11.163504787265953
20
-11.216195318128106
30
0
11
15.792154579610084
21
-7.5008002219695831
31
0
0
LINE
5
142
100
AcDbEntity
8
0
100
AcDbLine
10
11.163504787265827
20
-8.697576784155741
30
0
11
15.788995695592288
21
-4.9833627463357653
31
0
0
LINE
5
143
100
AcDbEntity
8
0
100
AcDbLine
10
11.163504787265698
20
-6.1789582501833777
30
0
11
15.788995695591792
21
-2.464744212363692
31
0
0
LINE
5
144
100
AcDbEntity
8
0
100
AcDbLine
10
11.163504787265953
20
-11.216195318128106
30
0
11
6.5348549949214441
21
-7.5008002219700538
31
0
0
LINE
5
145
100
AcDbEntity
8
0
100
AcDbLine
10
11.163504787265827
20
-8.697576784155741
30
0
11
6.5380138789389859
21
-4.9833627463362351
31
0
0
LINE
5
146
100
AcDbEntity
8
0
100
AcDbLine
10
11.163504787265698
20
-6.1789582501833777
30
0
11
6.5380138789392266
21
-2.4647442123641619
31
0
0
ENDSEC
0
SECTION
2
OBJECTS
0
DICTIONARY
5
C
100
AcDbDictionary
3
ACAD_GROUP
350
D
3
ACAD_MLINESTYLE
350
17
0
DICTIONARY
5
D
100
AcDbDictionary
0
DICTIONARY
5
1A
330
C
100
AcDbDictionary
0
DICTIONARY
5
17
100
AcDbDictionary
0
ENDSEC
0
EOF
