<?xml version="1.0" encoding="UTF-8"?>
<svg xmlns="http://www.w3.org/2000/svg" width="12.0000in" height="7.0643in" viewBox="0 0 1415 833" version="1.1">
  <title>Private Home / Trail Continues sign - approximate vector trace</title>
  <metadata>Generated 2026-06-16T17:24:40; source=generated bitmap reference; original_size=1448x1086; crop_bbox=(16, 124, 1431, 957); thresholded vector trace, not pixel-exact; contours=127; points=1611.</metadata>
  <path id="trail-sign-vector-trace" fill="#1a2f1a" fill-rule="evenodd" stroke="none" d="
    M 22 37 L 17 47 L 14 59 L 14 777 L 17 788 L 25 802 L 37 813 L 47 818 L 60 821 L 1357 821 L 1370 818 L 1380 813 L 1395 798 L 1400 788 L 1403 777 L 1403 57 L 1399 44 L 1393 34 L 1383 24 L 1377 20 L 1360 14 L 59 14 L 47 17 L 37 22 Z
    M 33 44 L 47 31 L 63 26 L 1355 26 L 1364 28 L 1372 32 L 1384 44 L 1389 54 L 1391 65 L 1391 772 L 1386 788 L 1380 796 L 1373 802 L 1366 806 L 1355 809 L 63 809 L 47 804 L 40 799 L 33 791 L 29 783 L 26 770 L 26 65 L 29 52 Z
    M 1062 764 L 1062 766 L 1074 766 L 1075 767 L 1128 766 L 1127 763 L 1123 762 L 1113 763 L 1112 762 L 1119 752 L 1118 750 L 1112 755 L 1108 762 L 1106 761 L 1106 757 L 1112 739 L 1109 740 L 1106 746 L 1101 762 L 1098 742 L 1095 737 L 1093 740 L 1096 750 L 1096 761 L 1094 762 L 1091 751 L 1085 738 L 1076 728 L 1075 730 L 1086 748 L 1089 761 L 1087 762 L 1083 755 L 1075 747 L 1070 744 L 1067 744 L 1067 746 L 1072 749 L 1082 761 L 1081 762 L 1069 762 Z
    M 1129 688 L 1131 699 L 1140 708 L 1140 710 L 1143 713 L 1151 715 L 1152 721 L 1154 721 L 1155 714 L 1157 721 L 1158 721 L 1159 714 L 1163 717 L 1165 722 L 1165 729 L 1160 745 L 1156 748 L 1151 748 L 1145 751 L 1141 756 L 1141 759 L 1144 760 L 1145 762 L 1150 763 L 1162 761 L 1163 762 L 1161 766 L 1164 769 L 1169 769 L 1173 771 L 1176 769 L 1185 768 L 1204 750 L 1216 754 L 1207 762 L 1207 765 L 1211 769 L 1215 768 L 1216 770 L 1223 770 L 1230 768 L 1265 767 L 1269 764 L 1269 759 L 1274 755 L 1276 755 L 1285 762 L 1300 769 L 1324 774 L 1334 774 L 1342 772 L 1348 769 L 1354 762 L 1355 757 L 1354 752 L 1351 747 L 1343 740 L 1337 737 L 1326 734 L 1306 734 L 1299 736 L 1287 735 L 1286 733 L 1288 722 L 1288 711 L 1286 701 L 1277 682 L 1266 671 L 1250 663 L 1230 662 L 1218 665 L 1204 671 L 1194 670 L 1188 664 L 1181 665 L 1174 662 L 1159 663 L 1152 666 L 1142 673 L 1131 684 Z
    M 1220 766 L 1221 765 L 1223 766 L 1222 767 Z
    M 1334 768 L 1333 769 L 1320 769 L 1319 768 L 1320 767 L 1324 767 L 1328 764 Z
    M 1176 765 L 1177 764 L 1178 765 L 1177 766 Z
    M 1169 765 L 1170 764 L 1171 765 L 1170 766 Z
    M 1214 764 L 1215 763 L 1217 764 L 1216 765 Z
    M 1170 764 L 1171 763 L 1172 764 L 1171 765 Z
    M 1216 763 L 1217 762 L 1219 763 L 1218 764 Z
    M 1172 763 L 1173 762 L 1174 763 L 1173 764 Z
    M 1296 762 L 1297 761 L 1298 762 L 1297 763 Z
    M 1218 762 L 1219 761 L 1222 762 L 1221 763 Z
    M 1303 764 L 1309 760 L 1314 765 L 1311 767 L 1307 767 L 1304 766 Z
    M 1333 762 L 1336 759 L 1340 758 L 1346 765 L 1343 767 L 1338 768 Z
    M 1153 758 L 1154 757 L 1156 758 L 1155 759 Z
    M 1289 758 L 1293 756 L 1297 761 L 1294 762 L 1290 760 Z
    M 1149 757 L 1150 756 L 1151 757 L 1150 758 Z
    M 1321 755 L 1326 761 L 1319 767 L 1313 759 L 1315 757 Z
    M 1150 756 L 1151 755 L 1152 756 L 1151 757 Z
    M 1170 755 L 1171 754 L 1173 755 L 1172 756 Z
    M 1348 752 L 1350 754 L 1350 760 L 1348 763 L 1342 756 Z
    M 1301 751 L 1302 751 L 1307 757 L 1306 759 L 1304 759 L 1302 761 L 1301 761 L 1296 755 Z
    M 1330 749 L 1336 754 L 1336 755 L 1331 759 L 1329 759 L 1324 754 L 1325 752 L 1328 751 Z
    M 1288 749 L 1291 753 L 1285 757 L 1280 753 Z
    M 1280 749 L 1281 750 L 1280 753 L 1278 751 Z
    M 1179 748 L 1180 749 L 1179 753 L 1177 755 L 1173 755 L 1172 754 Z
    M 1179 748 L 1180 747 L 1181 748 L 1180 749 Z
    M 1305 750 L 1307 748 L 1312 746 L 1318 752 L 1311 756 Z
    M 1335 747 L 1341 744 L 1347 749 L 1345 751 L 1339 753 L 1335 749 Z
    M 1296 744 L 1298 746 L 1299 749 L 1294 752 L 1290 747 L 1294 744 Z
    M 1284 742 L 1286 744 L 1286 746 L 1282 749 L 1281 747 Z
    M 1322 740 L 1323 740 L 1328 746 L 1323 750 L 1321 750 L 1316 746 L 1316 744 Z
    M 1327 740 L 1330 739 L 1336 742 L 1332 745 Z
    M 1298 742 L 1302 739 L 1305 739 L 1309 743 L 1307 745 L 1302 747 Z
    M 1309 739 L 1310 738 L 1318 738 L 1319 739 L 1313 742 Z
    M 1286 739 L 1287 738 L 1290 740 L 1293 740 L 1294 741 L 1289 744 Z
    M 1179 733 L 1180 732 L 1181 733 L 1180 734 Z
    M 1169 728 L 1173 733 L 1181 738 L 1182 740 L 1163 757 L 1156 758 L 1155 755 L 1152 756 L 1150 753 L 1151 752 L 1158 751 L 1163 747 L 1168 735 Z
    M 1153 714 L 1154 713 L 1155 714 L 1154 715 Z
    M 1153 709 L 1154 708 L 1155 709 L 1154 710 Z
    M 1144 709 L 1145 708 L 1149 708 L 1150 709 L 1149 710 L 1145 710 Z
    M 1152 707 L 1153 706 L 1154 708 L 1153 709 Z
    M 1151 705 L 1152 704 L 1153 705 L 1152 706 Z
    M 1155 704 L 1156 703 L 1157 704 L 1156 705 Z
    M 1150 704 L 1151 703 L 1152 704 L 1151 705 Z
    M 1154 703 L 1155 702 L 1156 703 L 1155 704 Z
    M 1153 701 L 1154 700 L 1155 701 L 1154 702 Z
    M 1152 700 L 1153 699 L 1154 700 L 1153 701 Z
    M 1151 699 L 1152 698 L 1153 699 L 1152 700 Z
    M 1135 695 L 1136 696 L 1135 699 L 1134 698 Z
    M 1133 695 L 1134 694 L 1135 695 L 1134 696 Z
    M 1136 684 L 1149 672 L 1156 668 L 1163 666 L 1175 666 L 1177 670 L 1181 668 L 1188 668 L 1190 671 L 1190 675 L 1186 681 L 1189 681 L 1194 674 L 1210 677 L 1210 675 L 1207 674 L 1225 667 L 1245 666 L 1252 668 L 1266 676 L 1279 693 L 1277 694 L 1277 696 L 1282 704 L 1284 711 L 1282 714 L 1283 732 L 1281 739 L 1277 747 L 1270 754 L 1268 753 L 1268 751 L 1265 753 L 1264 763 L 1233 764 L 1223 766 L 1222 765 L 1224 764 L 1224 762 L 1221 761 L 1222 757 L 1242 758 L 1242 756 L 1232 750 L 1226 738 L 1226 726 L 1229 719 L 1236 712 L 1240 710 L 1246 710 L 1246 708 L 1244 707 L 1238 708 L 1232 711 L 1226 717 L 1222 727 L 1222 737 L 1223 742 L 1228 750 L 1227 752 L 1215 750 L 1207 747 L 1212 736 L 1212 726 L 1211 726 L 1209 737 L 1202 748 L 1200 746 L 1198 751 L 1189 758 L 1185 764 L 1178 765 L 1177 763 L 1174 763 L 1172 760 L 1179 758 L 1182 755 L 1185 745 L 1185 736 L 1181 723 L 1179 724 L 1180 729 L 1179 733 L 1173 728 L 1166 716 L 1173 714 L 1176 712 L 1176 710 L 1170 712 L 1159 711 L 1156 705 L 1157 704 L 1160 705 L 1154 697 L 1149 699 L 1151 702 L 1150 703 L 1147 702 L 1149 705 L 1148 706 L 1142 704 L 1138 698 L 1138 695 L 1142 691 L 1142 688 L 1140 686 L 1137 686 Z
    M 1161 678 L 1158 680 L 1158 684 L 1160 686 L 1163 686 L 1165 685 L 1166 681 L 1164 679 Z
    M 1187 670 L 1184 670 L 1181 672 L 1182 677 L 1184 677 L 1184 673 L 1187 672 Z
    M 627 602 L 621 603 L 616 622 L 611 604 L 609 602 L 604 602 L 606 612 L 613 632 L 609 638 L 605 638 L 606 643 L 612 643 L 617 639 L 628 604 Z
    M 595 602 L 585 603 L 581 607 L 579 612 L 579 622 L 583 630 L 590 633 L 597 631 L 602 625 L 602 623 L 596 622 L 594 626 L 590 627 L 586 623 L 585 615 L 586 611 L 590 607 L 594 608 L 596 612 L 601 611 L 601 607 Z
    M 557 603 L 554 607 L 554 610 L 559 610 L 562 607 L 565 607 L 568 610 L 568 612 L 566 614 L 560 614 L 553 619 L 552 622 L 553 628 L 557 632 L 565 632 L 567 630 L 569 632 L 574 632 L 575 630 L 574 629 L 574 608 L 573 606 L 568 602 Z
    M 567 618 L 568 619 L 568 623 L 567 625 L 564 627 L 561 627 L 559 625 L 559 622 L 562 619 L 566 619 Z
    M 527 602 L 534 629 L 536 632 L 542 632 L 551 603 L 550 602 L 544 603 L 539 621 L 537 618 L 534 604 L 532 602 Z
    M 517 602 L 516 631 L 522 632 L 523 631 L 523 603 Z
    M 512 602 L 508 602 L 504 605 L 503 602 L 497 603 L 497 631 L 498 632 L 503 632 L 503 614 L 507 609 L 509 608 L 512 609 Z
    M 485 602 L 478 602 L 475 604 L 474 602 L 468 603 L 468 642 L 469 643 L 474 643 L 474 631 L 475 630 L 478 632 L 485 632 L 488 630 L 491 625 L 492 612 L 489 605 Z
    M 480 607 L 485 611 L 485 623 L 481 627 L 477 626 L 474 621 L 474 613 L 476 609 Z
    M 416 602 L 412 604 L 408 610 L 407 614 L 408 624 L 413 631 L 424 632 L 429 628 L 430 623 L 424 622 L 422 626 L 420 627 L 417 626 L 415 624 L 414 614 L 417 608 L 420 607 L 422 608 L 424 612 L 430 611 L 430 608 L 426 603 Z
    M 388 602 L 383 606 L 381 610 L 380 621 L 382 627 L 386 631 L 393 633 L 399 631 L 403 627 L 403 624 L 398 623 L 394 627 L 391 627 L 387 623 L 387 620 L 388 619 L 403 619 L 404 612 L 402 607 L 398 603 Z
    M 387 611 L 389 608 L 394 607 L 397 610 L 397 613 L 396 614 L 388 614 Z
    M 333 602 L 327 607 L 326 610 L 327 614 L 332 619 L 339 621 L 341 625 L 339 627 L 335 627 L 331 623 L 329 623 L 326 626 L 332 632 L 342 632 L 347 626 L 347 620 L 342 615 L 335 613 L 333 609 L 335 607 L 339 607 L 341 610 L 346 609 L 346 606 L 341 602 Z
    M 307 602 L 300 609 L 299 622 L 301 627 L 305 631 L 312 633 L 318 631 L 322 625 L 317 623 L 313 627 L 310 627 L 307 625 L 305 620 L 306 619 L 322 619 L 323 613 L 321 607 L 317 603 Z
    M 306 610 L 310 607 L 313 607 L 315 609 L 316 613 L 315 614 L 307 614 L 306 613 Z
    M 297 602 L 292 602 L 289 604 L 287 602 L 282 602 L 281 604 L 282 610 L 281 618 L 282 629 L 281 631 L 282 632 L 288 631 L 288 613 L 291 609 L 297 608 Z
    M 247 602 L 243 604 L 240 608 L 238 620 L 241 628 L 244 631 L 251 633 L 257 631 L 261 627 L 261 624 L 256 623 L 254 626 L 249 627 L 246 624 L 245 620 L 246 619 L 262 619 L 262 611 L 258 604 L 254 602 Z
    M 245 611 L 249 607 L 252 607 L 255 610 L 256 613 L 255 614 L 246 614 Z
    M 220 602 L 215 606 L 214 613 L 218 618 L 227 621 L 229 624 L 227 627 L 222 627 L 217 623 L 214 625 L 214 627 L 217 631 L 226 633 L 231 631 L 234 628 L 235 621 L 231 616 L 222 613 L 220 610 L 222 607 L 226 607 L 229 610 L 234 609 L 234 607 L 228 602 Z
    M 192 603 L 189 606 L 188 610 L 193 611 L 195 608 L 200 607 L 203 612 L 201 614 L 192 615 L 187 620 L 188 629 L 191 632 L 195 633 L 202 630 L 203 632 L 209 632 L 209 609 L 207 605 L 203 602 Z
    M 196 619 L 202 619 L 203 620 L 202 621 L 202 624 L 199 627 L 195 627 L 193 625 L 193 622 Z
    M 168 602 L 162 607 L 159 618 L 163 629 L 167 632 L 172 633 L 178 631 L 182 627 L 182 624 L 178 623 L 174 627 L 170 627 L 167 624 L 166 620 L 167 619 L 183 619 L 183 611 L 179 604 L 175 602 Z
    M 166 612 L 170 607 L 175 608 L 177 611 L 176 614 L 167 614 Z
    M 369 602 L 365 601 L 359 605 L 358 602 L 352 603 L 352 642 L 353 643 L 358 643 L 358 635 L 360 631 L 369 632 L 375 626 L 376 611 L 374 606 Z
    M 358 631 L 359 630 L 360 631 L 359 632 Z
    M 364 607 L 368 609 L 370 614 L 369 623 L 365 627 L 361 626 L 358 621 L 359 611 Z
    M 438 594 L 437 601 L 433 603 L 433 608 L 437 609 L 437 628 L 439 631 L 445 633 L 449 632 L 450 628 L 449 626 L 445 626 L 443 624 L 443 609 L 449 608 L 449 602 L 444 602 L 443 594 Z
    M 518 591 L 516 593 L 516 596 L 518 598 L 522 598 L 523 597 L 523 592 L 522 591 Z
    M 148 591 L 148 632 L 154 632 L 154 591 Z
    M 131 591 L 117 592 L 117 631 L 118 632 L 124 632 L 124 618 L 125 617 L 137 616 L 142 611 L 143 608 L 142 598 L 139 594 Z
    M 125 597 L 133 598 L 136 601 L 136 607 L 132 611 L 124 610 L 124 598 Z
    M 404 535 L 406 539 L 653 539 L 655 538 L 654 533 L 406 533 Z
    M 79 534 L 80 539 L 331 539 L 333 538 L 333 534 L 331 533 L 81 533 Z
    M 1229 500 L 1228 501 L 1228 622 L 1274 622 L 1275 606 L 1273 604 L 1248 604 L 1247 603 L 1247 570 L 1248 569 L 1269 569 L 1269 551 L 1248 551 L 1247 550 L 1247 519 L 1248 518 L 1273 518 L 1274 517 L 1274 501 L 1273 500 Z
    M 1156 500 L 1154 501 L 1154 600 L 1155 605 L 1159 614 L 1169 622 L 1176 624 L 1192 623 L 1197 621 L 1204 615 L 1208 608 L 1210 599 L 1210 501 L 1209 500 L 1193 500 L 1191 502 L 1191 597 L 1189 602 L 1186 605 L 1182 606 L 1178 605 L 1175 602 L 1173 596 L 1173 501 L 1172 500 Z
    M 1080 500 L 1079 501 L 1079 622 L 1096 622 L 1097 621 L 1097 559 L 1098 558 L 1120 622 L 1136 622 L 1137 620 L 1137 502 L 1135 500 L 1120 500 L 1118 502 L 1118 561 L 1117 562 L 1095 500 Z
    M 1042 500 L 1040 501 L 1040 621 L 1041 622 L 1059 622 L 1059 610 L 1060 609 L 1059 607 L 1059 501 L 1058 500 Z
    M 975 500 L 974 501 L 974 518 L 991 520 L 991 621 L 992 622 L 1009 622 L 1010 621 L 1010 520 L 1027 518 L 1027 501 L 1026 500 Z
    M 906 500 L 905 501 L 905 622 L 922 622 L 923 621 L 923 560 L 924 559 L 946 622 L 962 622 L 962 501 L 961 500 L 945 500 L 944 501 L 944 562 L 943 563 L 922 501 Z
    M 1310 498 L 1298 502 L 1291 509 L 1287 519 L 1286 534 L 1290 548 L 1295 556 L 1317 580 L 1321 590 L 1320 601 L 1316 605 L 1307 604 L 1303 597 L 1302 588 L 1285 593 L 1284 597 L 1287 609 L 1296 620 L 1306 624 L 1318 624 L 1328 620 L 1335 613 L 1339 604 L 1340 587 L 1337 575 L 1332 566 L 1307 538 L 1305 532 L 1305 524 L 1309 518 L 1311 517 L 1317 518 L 1321 524 L 1322 531 L 1338 526 L 1339 522 L 1334 508 L 1329 503 L 1321 499 Z
    M 858 498 L 850 500 L 843 504 L 838 510 L 834 520 L 832 533 L 832 555 L 831 556 L 832 559 L 832 590 L 835 606 L 839 614 L 845 620 L 855 624 L 867 624 L 879 618 L 883 613 L 887 604 L 890 583 L 890 538 L 887 519 L 882 508 L 872 500 Z
    M 859 517 L 862 517 L 867 520 L 870 529 L 871 539 L 871 584 L 869 599 L 864 605 L 857 605 L 854 602 L 851 590 L 851 534 L 853 523 Z
    M 791 498 L 778 502 L 772 508 L 767 518 L 764 536 L 764 587 L 766 602 L 771 614 L 777 620 L 783 623 L 799 624 L 807 621 L 813 616 L 818 607 L 821 592 L 820 590 L 803 586 L 801 599 L 796 605 L 790 605 L 786 601 L 784 593 L 784 569 L 783 568 L 785 525 L 789 518 L 792 517 L 797 518 L 801 525 L 802 536 L 805 537 L 819 533 L 820 523 L 816 511 L 809 503 L 801 499 Z
    M 368 498 L 364 509 L 356 517 L 357 520 L 361 520 L 362 522 L 356 527 L 356 532 L 350 536 L 353 539 L 360 540 L 348 551 L 348 553 L 360 554 L 364 552 L 365 553 L 365 565 L 372 565 L 372 553 L 373 552 L 377 554 L 385 554 L 388 553 L 389 551 L 378 541 L 379 539 L 385 539 L 387 536 L 379 531 L 382 528 L 375 521 L 380 520 L 382 518 L 374 510 L 370 499 Z
    M 377 539 L 378 538 L 379 539 L 378 540 Z
    M 361 520 L 362 519 L 363 520 L 362 521 Z
    M 620 358 L 618 360 L 618 465 L 619 466 L 653 466 L 655 465 L 655 451 L 654 450 L 634 450 L 633 449 L 633 421 L 651 419 L 651 405 L 649 403 L 634 403 L 633 402 L 633 375 L 634 374 L 654 374 L 655 360 L 653 358 Z
    M 551 358 L 550 359 L 550 465 L 551 466 L 562 466 L 563 465 L 563 420 L 564 419 L 563 408 L 564 407 L 572 445 L 572 450 L 574 453 L 582 452 L 589 411 L 590 410 L 591 411 L 591 465 L 592 466 L 604 466 L 605 465 L 605 359 L 603 358 L 588 359 L 582 393 L 580 398 L 579 409 L 577 411 L 567 359 Z
    M 441 358 L 439 359 L 439 464 L 440 466 L 453 466 L 454 465 L 454 421 L 455 420 L 466 420 L 467 421 L 467 464 L 469 466 L 481 466 L 482 465 L 482 359 L 469 358 L 467 360 L 467 402 L 466 403 L 455 403 L 454 402 L 454 359 Z
    M 366 358 L 364 359 L 364 465 L 365 466 L 400 466 L 401 465 L 401 451 L 400 450 L 380 450 L 379 449 L 379 421 L 380 420 L 395 420 L 397 418 L 397 405 L 395 403 L 380 403 L 379 402 L 379 375 L 380 374 L 400 374 L 401 373 L 401 360 L 399 358 Z
    M 314 358 L 312 360 L 312 373 L 321 374 L 326 376 L 326 465 L 327 466 L 339 466 L 341 464 L 341 375 L 342 374 L 344 375 L 354 374 L 354 359 L 352 358 L 348 359 L 345 358 Z
    M 280 358 L 277 361 L 261 465 L 262 466 L 275 466 L 279 448 L 294 448 L 297 465 L 298 466 L 311 466 L 312 459 L 307 434 L 296 361 L 294 358 Z
    M 286 396 L 288 400 L 292 427 L 291 432 L 281 431 Z
    M 213 358 L 212 365 L 227 463 L 229 466 L 245 466 L 247 460 L 249 440 L 262 360 L 260 358 L 248 358 L 246 360 L 237 430 L 234 418 L 228 362 L 227 359 L 225 358 Z
    M 189 358 L 187 359 L 187 465 L 188 466 L 200 466 L 202 464 L 202 360 L 200 358 L 198 359 Z
    M 133 358 L 131 359 L 131 465 L 132 466 L 145 466 L 146 465 L 146 423 L 149 422 L 151 424 L 160 464 L 162 466 L 175 466 L 176 462 L 164 420 L 171 410 L 174 399 L 174 383 L 172 373 L 169 367 L 164 362 L 158 359 Z
    M 151 374 L 154 375 L 158 380 L 159 397 L 158 402 L 155 406 L 147 408 L 146 407 L 146 375 Z
    M 81 358 L 79 360 L 79 464 L 80 466 L 93 466 L 94 465 L 94 426 L 108 424 L 117 416 L 121 404 L 121 381 L 116 367 L 110 361 L 97 358 L 88 359 Z
    M 95 374 L 102 375 L 106 382 L 106 401 L 104 407 L 100 410 L 94 409 L 94 375 Z
    M 513 357 L 507 359 L 502 363 L 497 372 L 495 379 L 494 407 L 493 408 L 495 446 L 500 459 L 505 464 L 511 467 L 521 467 L 530 462 L 535 454 L 537 447 L 539 431 L 539 394 L 537 377 L 533 366 L 527 360 L 523 358 Z
    M 514 374 L 518 374 L 522 378 L 524 391 L 524 430 L 523 431 L 524 434 L 522 446 L 518 451 L 515 451 L 511 448 L 509 440 L 509 385 L 511 377 Z
    M 1183 328 L 1182 330 L 1182 470 L 1184 472 L 1239 472 L 1240 471 L 1240 451 L 1239 450 L 1207 450 L 1206 449 L 1206 329 L 1205 328 Z
    M 1134 328 L 1133 329 L 1133 471 L 1134 472 L 1156 472 L 1157 471 L 1157 329 L 1156 328 Z
    M 1062 328 L 1059 336 L 1054 367 L 1047 398 L 1046 409 L 1036 455 L 1034 471 L 1035 472 L 1056 472 L 1058 468 L 1060 452 L 1062 448 L 1087 448 L 1091 470 L 1093 472 L 1114 472 L 1115 465 L 1112 455 L 1108 429 L 1102 405 L 1087 328 Z
    M 1074 374 L 1082 414 L 1083 425 L 1068 427 L 1065 425 L 1065 421 Z
    M 950 328 L 949 330 L 949 347 L 950 348 L 950 454 L 949 461 L 950 471 L 951 472 L 972 472 L 973 470 L 973 414 L 979 413 L 991 450 L 996 470 L 998 472 L 1020 472 L 1021 471 L 1020 463 L 1017 457 L 1017 454 L 1002 408 L 1011 400 L 1015 392 L 1017 384 L 1018 365 L 1015 348 L 1010 339 L 1005 334 L 998 330 L 990 328 Z
    M 974 349 L 987 350 L 991 354 L 993 359 L 994 367 L 993 382 L 991 387 L 985 392 L 974 392 L 973 391 L 973 350 Z
    M 868 328 L 867 329 L 867 348 L 869 350 L 886 350 L 887 349 L 888 350 L 888 471 L 889 472 L 910 472 L 911 471 L 911 351 L 924 349 L 931 350 L 933 348 L 933 329 L 932 328 Z
    M 1265 191 L 1261 186 L 1196 137 L 1136 90 L 1134 90 L 1131 92 L 1131 147 L 1130 148 L 1123 149 L 1114 148 L 870 148 L 868 149 L 864 155 L 864 229 L 866 234 L 869 236 L 1130 236 L 1131 237 L 1131 292 L 1133 294 L 1137 294 L 1262 198 L 1265 194 Z
    M 155 191 L 156 196 L 284 294 L 288 294 L 290 291 L 290 236 L 291 235 L 549 235 L 553 230 L 553 155 L 549 150 L 547 149 L 291 149 L 290 148 L 290 94 L 286 90 L 279 94 L 163 183 Z
    M 707 63 L 705 65 L 705 771 L 707 773 L 711 773 L 712 772 L 712 64 Z
  "/>
</svg>
