0
SECTION
2
HEADER
9
$INSUNITS
70
1
9
$ACADVER
1
AC1014
9
$HANDSEED
5
FFFF
0
ENDSEC
0
SECTION
2
TABLES
0
TABLE
2
VPORT
5
8
100
AcDbSymbolTable
0
ENDTAB
0
TABLE
2
LTYPE
5
5
100
AcDbSymbolTable
0
LTYPE
5
14
100
AcDbSymbolTableRecord
100
AcDbLinetypeTableRecord
2
BYBLOCK
70
0
0
LTYPE
5
15
100
AcDbSymbolTableRecord
100
AcDbLinetypeTableRecord
2
BYLAYER
70
0
0
LTYPE
5
16
100
AcDbSymbolTableRecord
100
AcDbLinetypeTableRecord
2
DASHED
70
0
3
Dashed __ __ __ __ __ __ __ __ __ __ __ __ __ _
72
65
73
2
40
0.75
49
0.5
74
0
49
-0.25
74
0
0
ENDTAB
0
TABLE
2
LAYER
5
2
100
AcDbSymbolTable
70
2
0
LAYER
5
50
100
AcDbSymbolTableRecord
100
AcDbLayerTableRecord
2
0
70
0
62
7
6
CONTINUOUS
0
ENDTAB
0
TABLE
2
STYLE
5
3
100
AcDbSymbolTable
70
1
0
STYLE
5
11
100
AcDbSymbolTableRecord
100
AcDbTextStyleTableRecord
2
STANDARD
70
0
0
ENDTAB
0
TABLE
2
VIEW
5
6
100
AcDbSymbolTable
70
0
0
ENDTAB
0
TABLE
2
UCS
5
7
100
AcDbSymbolTable
70
0
0
ENDTAB
0
TABLE
2
APPID
5
9
100
AcDbSymbolTable
70
2
0
APPID
5
12
100
AcDbSymbolTableRecord
100
AcDbRegAppTableRecord
2
ACAD
70
0
0
ENDTAB
0
TABLE
2
DIMSTYLE
5
A
100
AcDbSymbolTable
70
1
0
ENDTAB
0
TABLE
2
BLOCK_RECORD
5
1
100
AcDbSymbolTable
70
1
0
BLOCK_RECORD
5
1F
100
AcDbSymbolTableRecord
100
AcDbBlockTableRecord
2
*MODEL_SPACE
0
BLOCK_RECORD
5
1B
100
AcDbSymbolTableRecord
100
AcDbBlockTableRecord
2
*PAPER_SPACE
0
ENDTAB
0
ENDSEC
0
SECTION
2
BLOCKS
0
BLOCK
5
20
100
AcDbEntity
100
AcDbBlockBegin
2
*MODEL_SPACE
0
ENDBLK
5
21
100
AcDbEntity
100
AcDbBlockEnd
0
BLOCK
5
1C
100
AcDbEntity
100
AcDbBlockBegin
2
*PAPER_SPACE
0
ENDBLK
5
1D
100
AcDbEntity
100
AcDbBlockEnd
0
ENDSEC
0
SECTION
2
ENTITIES
0
LWPOLYLINE
5
100
100
AcDbEntity
8
0
100
AcDbPolyline
90
6
70
1
43
0.0
10
-0.20000000000000173
20
8.7585710094725062
42
0.41421356237309492
10
-3.4499999999999988
20
5.5085710094725071
10
-3.4499999999999997
20
0
10
3.4499999999999997
20
0
10
3.4500000000000002
20
5.5085710094725053
42
0.41421356237309509
10
0.20000000000000015
20
8.7585710094725044
0
LWPOLYLINE
5
101
100
AcDbEntity
8
0
100
AcDbPolyline
90
4
70
1
43
0.0
10
5.6957779240629121
20
11.876379564366049
10
4.9457779240629121
20
12.173046231032716
10
4.9457779240629121
20
0
10
5.6957779240629121
20
0
0
LWPOLYLINE
5
102
100
AcDbEntity
8
0
100
AcDbPolyline
90
4
70
1
43
0.0
10
-4.9457779240629129
20
12.173046231032719
10
-5.6957779240629085
20
11.876379564366054
10
-5.6957779240629085
20
0
10
-4.9457779240629129
20
0
0
LWPOLYLINE
5
103
100
AcDbEntity
8
0
100
AcDbPolyline
90
9
70
1
43
0.0
10
0.38587534055063077
20
17.317962354995277
10
0.096468835137658068
20
17.079490397263029
42
-0.41421356237308904
10
0.079490652577415694
20
16.903530909547957
10
3.4296935539595053
20
12.837767692213989
42
-0.77477271189387953
10
3.6254210792274844
20
12.695320716323172
10
9.029937205589043
20
10.557534337451269
42
-0.41421356237310664
10
9.1921522190327636
20
10.627793069388678
10
9.3300866412922332
20
10.976503687460376
10
3.8130365768340706
20
13.158803490734938
0
LWPOLYLINE
5
104
100
AcDbEntity
8
0
100
AcDbPolyline
90
9
70
1
43
0.0
10
-3.4296935539595035
20
12.837767692213989
10
-0.07949065257741382
20
16.903530909547957
42
-0.41421356237308182
10
-0.096468835137657402
20
17.079490397263033
10
-0.385875340550631
20
17.317962354995281
10
-3.8130365768340706
20
13.158803490734938
10
-9.3300866412922332
20
10.976503687460376
10
-9.1921522190327636
20
10.627793069388678
42
-0.4142135623730816
10
-9.0299372055890412
20
10.557534337451271
10
-3.6254210792274848
20
12.695320716323176
42
-0.77477271189386765
0
LINE
5
105
100
AcDbEntity
8
0
100
AcDbLine
10
-4.7895910497825183
20
12.234826816859185
30
-4.3709567898628207e-17
11
4.7895910497825191
21
12.234826816859181
31
-4.3709567898628207e-17
0
LINE
5
106
100
AcDbEntity
8
0
100
AcDbLine
10
-4.7895910497825183
20
12.234826816859185
30
-4.3709567898628207e-17
11
0.014852385833668467
21
14.169928530035424
31
2.0271207180849507e-17
0
LINE
5
107
100
AcDbEntity
8
0
100
AcDbLine
10
4.7895910497825191
20
12.234826816859181
30
-4.3709567898628207e-17
11
3.6340982756815916
21
12.736664708856887
31
4.3709567898628207e-17
0
LWPOLYLINE
5
108
100
AcDbEntity
8
0
100
AcDbPolyline
90
4
70
1
43
0.0
10
0.014852385833668467
20
14.169928530035424
10
-1.7545921032684597
20
14.870649300880972
10
-1.464270524604045e-15
20
16.999999744685613
10
1.7545921032684597
20
14.870649300880972
0
LINE
5
109
100
AcDbEntity
8
0
100
AcDbLine
10
3.6340982756815916
20
12.736664708856887
30
4.3709567898628207e-17
11
0.014852385833668467
21
14.169928530035424
31
2.0271207180849507e-17
0
LINE
5
110
100
AcDbEntity
8
0
100
AcDbLine
10
-4.7895910497825183
20
12.234826816859185
30
-4.3709567898628207e-17
11
-1.780987348625142
21
12.234826816859185
31
-4.3709567898628207e-17
6
DASHED
0
LWPOLYLINE
5
111
100
AcDbEntity
8
0
100
AcDbPolyline
90
6
70
1
43
0.0
10
6.9935308637805131e-16
20
12.234826816859183
10
-4.7895910497825183
20
10.719672296382608
10
-4.7895910497825183
20
10.319672296382606
10
-4.0219657368370552
20
10.562505338045815
10
-0.76762531294546232
20
11.591993775195977
10
6.9935308637805131e-16
20
11.834826816859191
0
LINE
5
112
100
AcDbEntity
8
0
100
AcDbLine
10
6.9935308637805131e-16
20
12.234826816859183
30
-4.3709567898628207e-17
11
4.7895910497825191
21
10.719672296382607
31
-4.3709567898628207e-17
0
LWPOLYLINE
5
113
100
AcDbEntity
8
0
100
AcDbPolyline
90
6
70
1
43
0.0
10
-4.7895910497825183
20
9.3644151443899748
10
3.9618043539779508e-15
20
10.879569664866544
10
6.9935308637805131e-16
20
10.47956966486657
10
6.9935308637805131e-16
20
9.5243125128739283
10
-4.7895910497825183
20
8.0091579923973466
10
-4.7895910497825183
20
8.9644151443899762
0
LINE
5
114
100
AcDbEntity
8
0
100
AcDbLine
10
3.9618043539779508e-15
20
10.879569664866544
30
-4.3709567898628207e-17
11
4.7895910497825191
21
9.3644151443899748
31
-4.3709567898628207e-17
0
LINE
5
115
100
AcDbEntity
8
0
100
AcDbLine
10
-0.76762531294545688
20
10.236736623203338
30
-4.3709567898628207e-17
11
6.9935308637805131e-16
21
10.47956966486657
31
-4.3709567898628207e-17
0
LINE
5
116
100
AcDbEntity
8
0
100
AcDbLine
10
6.9935308637805131e-16
20
9.5243125128739283
30
-4.3709567898628207e-17
11
4.7895910497825191
21
8.0091579923973466
31
-4.3709567898628207e-17
0
LINE
5
117
100
AcDbEntity
8
0
100
AcDbLine
10
-4.0219657368370552
20
10.562505338045815
30
-4.3709567898628207e-17
11
-4.0219657368370605
21
9.6072481860531784
31
-4.3709567898628207e-17
0
LINE
5
118
100
AcDbEntity
8
0
100
AcDbLine
10
-4.0219657368370605
20
9.2072481860531781
30
-4.3709567898628207e-17
11
-4.0219657368370605
21
8.251991034060552
31
-4.3709567898628207e-17
0
LINE
5
119
100
AcDbEntity
8
0
100
AcDbLine
10
-0.76762531294545688
20
10.236736623203338
30
-4.3709567898628207e-17
11
-0.76762531294545722
21
9.2814794712107211
31
-4.3709567898628207e-17
0
LINE
5
120
100
AcDbEntity
8
0
100
AcDbLine
10
-0.76762531294545655
20
10.636736623203339
30
-4.3709567898628207e-17
11
-0.76762531294546232
21
11.591993775195977
31
-4.3709567898628207e-17
0
LINE
5
121
100
AcDbEntity
8
0
100
AcDbLine
10
4.0219657368370587
20
10.562505338045819
30
-4.3709567898628207e-17
11
4.0219657368371031
21
9.6072481860532406
31
-4.3709567898628207e-17
0
LINE
5
122
100
AcDbEntity
8
0
100
AcDbLine
10
0.76762531294548375
20
10.636736623203351
30
-4.3709567898628207e-17
11
0.76762531294546454
21
11.591993775195977
31
-4.3709567898628207e-17
0
LINE
5
123
100
AcDbEntity
8
0
100
AcDbLine
10
0.76762531294549052
20
10.236736623203347
30
-4.3709567898628207e-17
11
0.76762531294550618
21
9.2814794712107318
31
-4.3709567898628207e-17
0
LINE
5
124
100
AcDbEntity
8
0
100
AcDbLine
10
4.0219657368371102
20
9.207248186053242
30
-4.3709567898628207e-17
11
4.0219657368371244
21
8.251991034060616
31
-4.3709567898628207e-17
0
LINE
5
125
100
AcDbEntity
8
0
100
AcDbLine
10
-1.2644495290885918
20
11.834826816859174
30
-4.3709567898628207e-17
11
-4.7895910497825183
21
11.834826816859191
31
-4.3709567898628207e-17
0
LINE
5
126
100
AcDbEntity
8
0
100
AcDbLine
10
1.2644495290885545
20
11.834826816859186
30
-4.3709567898628207e-17
11
4.7895910497825191
21
11.834826816859191
31
-4.3709567898628207e-17
0
LWPOLYLINE
5
127
100
AcDbEntity
8
0
100
AcDbPolyline
90
6
70
1
43
0.0
10
-3.9499999999999993
20
-0.49999999999999994
10
3.9499999999999993
20
-0.49999999999999994
10
3.9500000000000002
20
5.5085710094725053
42
0.41421356237309492
10
0.20000000000000265
20
9.2585710094725027
10
-0.19999999999999821
20
9.2585710094725062
42
0.41421356237309515
10
-3.9499999999999993
20
5.5085710094725071
0
LINE
5
128
100
AcDbEntity
8
0
100
AcDbLine
10
6.9935308637805131e-16
20
11.834826816859191
30
-4.3709567898628207e-17
11
3.9618043539779508e-15
21
10.879569664866544
31
-4.3709567898628207e-17
0
LINE
5
129
100
AcDbEntity
8
0
100
AcDbLine
10
-4.7895910497825183
20
10.319672296382606
30
-4.3709567898628207e-17
11
-4.7895910497825183
21
9.3644151443899748
31
-4.3709567898628207e-17
0
LINE
5
130
100
AcDbEntity
8
0
100
AcDbLine
10
-4.7895910497825183
20
12.234826816859185
30
-4.3709567898628207e-17
11
-4.7895910497825183
21
11.834826816859191
31
-4.3709567898628207e-17
0
LINE
5
131
100
AcDbEntity
8
0
100
AcDbLine
10
-4.7895910497825183
20
11.834826816859191
30
-4.3709567898628207e-17
11
-4.7895910497825183
21
10.719672296382608
31
-4.3709567898628207e-17
0
LINE
5
132
100
AcDbEntity
8
0
100
AcDbLine
10
-4.7895910497825183
20
8.9644151443899762
30
-4.3709567898628207e-17
11
-4.0219657368370605
21
9.2072481860531781
31
-4.3709567898628207e-17
0
LINE
5
133
100
AcDbEntity
8
0
100
AcDbLine
10
-4.0219657368370605
20
9.2072481860531781
30
-4.3709567898628207e-17
11
-0.76762531294545688
21
10.236736623203338
31
-4.3709567898628207e-17
0
LINE
5
134
100
AcDbEntity
8
0
100
AcDbLine
10
6.9935308637805131e-16
20
10.47956966486657
30
-4.3709567898628207e-17
11
0.76762531294549052
21
10.236736623203347
31
-4.3709567898628207e-17
0
LINE
5
135
100
AcDbEntity
8
0
100
AcDbLine
10
4.0219657368371102
20
9.207248186053242
30
-4.3709567898628207e-17
11
4.7895910497825191
21
8.9644151443899762
31
-4.3709567898628207e-17
0
LINE
5
136
100
AcDbEntity
8
0
100
AcDbLine
10
0.76762531294549052
20
10.236736623203347
30
-4.3709567898628207e-17
11
4.0219657368371102
21
9.207248186053242
31
-4.3709567898628207e-17
0
LINE
5
137
100
AcDbEntity
8
0
100
AcDbLine
10
6.9935308637805131e-16
20
11.834826816859191
30
-4.3709567898628207e-17
11
0.76762531294546454
21
11.591993775195977
31
-4.3709567898628207e-17
0
LINE
5
138
100
AcDbEntity
8
0
100
AcDbLine
10
4.0219657368370587
20
10.562505338045819
30
-4.3709567898628207e-17
11
4.7895910497825191
21
10.319672296382606
31
-4.3709567898628207e-17
0
LINE
5
139
100
AcDbEntity
8
0
100
AcDbLine
10
0.76762531294546454
20
11.591993775195977
30
-4.3709567898628207e-17
11
4.0219657368370587
21
10.562505338045819
31
-4.3709567898628207e-17
0
LINE
5
140
100
AcDbEntity
8
0
100
AcDbLine
10
-4.7895910497825183
20
7.6091579923973462
30
-4.3709567898628207e-17
11
-2.75611214721707
21
8.2524351990506535
31
0
0
LINE
5
141
100
AcDbEntity
8
0
100
AcDbLine
10
-4.7895910497825183
20
6.1129038627782091
30
-4.3709567898628207e-17
11
-3.8391597167305944
21
6.413566344336334
31
0
0
LINE
5
142
100
AcDbEntity
8
0
100
AcDbLine
10
-4.7895910497825183
20
5.7129038627782096
30
-4.3709567898628207e-17
11
-3.9191948315727765
21
5.98824778064487
31
0
0
LINE
5
143
100
AcDbEntity
8
0
100
AcDbLine
10
-4.7895910497825183
20
4.2166497331590715
30
-4.3709567898628207e-17
11
-3.9499999999999993
21
4.4822486457191353
31
-5.1598047007627455e-18
0
LINE
5
144
100
AcDbEntity
8
0
100
AcDbLine
10
-4.7895910497825183
20
3.8166497331590721
30
-4.3709567898628207e-17
11
-3.9499999999999993
21
4.0822486457191376
31
-5.1598047007627317e-18
0
LINE
5
145
100
AcDbEntity
8
0
100
AcDbLine
10
-4.7895910497825183
20
2.3203956035399345
30
-4.3709567898628207e-17
11
-3.9499999999999993
21
2.5859945160999995
31
0
0
LINE
5
146
100
AcDbEntity
8
0
100
AcDbLine
10
-4.7895910497825183
20
1.9203956035399352
30
-4.3709567898628207e-17
11
-3.9499999999999993
21
2.1859945161000001
31
-1.6984579037115778e-32
0
LINE
5
147
100
AcDbEntity
8
0
100
AcDbLine
10
-4.7895910497825183
20
0.42414147392079893
30
-4.3709567898628207e-17
11
-3.9499999999999993
21
0.68974038648086433
31
-2.5628516582790773e-32
0
LINE
5
148
100
AcDbEntity
8
0
100
AcDbLine
10
-4.7895910497825183
20
0.024141473920798236
30
-4.3709567898628207e-17
11
-3.9499999999999993
21
0.28974038648086359
31
-2.3050500121799986e-32
0
LINE
5
149
100
AcDbEntity
8
0
100
AcDbLine
10
-4.7895910497825183
20
0
30
-4.3709567898628207e-17
11
-3.9499999999999993
21
0
31
-4.3709567898628207e-17
0
LINE
5
150
100
AcDbEntity
8
0
100
AcDbLine
10
-4.7895910497825183
20
8.0091579923973466
30
-4.3709567898628207e-17
11
-4.7895910497825183
21
7.6091579923973462
31
-4.3709567898628207e-17
0
LINE
5
151
100
AcDbEntity
8
0
100
AcDbLine
10
-4.7895910497825183
20
6.1129038627782091
30
-4.3709567898628207e-17
11
-4.7895910497825183
21
5.7129038627782096
31
-4.3709567898628207e-17
0
LINE
5
152
100
AcDbEntity
8
0
100
AcDbLine
10
-4.7895910497825183
20
7.6091579923973462
30
-4.3709567898628207e-17
11
-4.7895910497825183
21
6.1129038627782091
31
-4.3709567898628207e-17
0
LINE
5
153
100
AcDbEntity
8
0
100
AcDbLine
10
-4.7895910497825183
20
5.7129038627782096
30
-4.3709567898628207e-17
11
-4.7895910497825183
21
4.2166497331590715
31
-4.3709567898628207e-17
0
LINE
5
154
100
AcDbEntity
8
0
100
AcDbLine
10
-4.7895910497825183
20
4.2166497331590715
30
-4.3709567898628207e-17
11
-4.7895910497825183
21
3.8166497331590721
31
-4.3709567898628207e-17
0
LINE
5
155
100
AcDbEntity
8
0
100
AcDbLine
10
-4.7895910497825183
20
3.8166497331590721
30
-4.3709567898628207e-17
11
-4.7895910497825183
21
2.3203956035399345
31
-4.3709567898628207e-17
0
LINE
5
156
100
AcDbEntity
8
0
100
AcDbLine
10
-4.7895910497825183
20
2.3203956035399345
30
-4.3709567898628207e-17
11
-4.7895910497825183
21
1.9203956035399352
31
-4.3709567898628207e-17
0
LINE
5
157
100
AcDbEntity
8
0
100
AcDbLine
10
-4.7895910497825183
20
1.9203956035399352
30
-4.3709567898628207e-17
11
-4.7895910497825183
21
0.42414147392079893
31
-4.3709567898628207e-17
0
LINE
5
158
100
AcDbEntity
8
0
100
AcDbLine
10
-4.7895910497825183
20
0.024141473920798236
30
-4.3709567898628207e-17
11
-4.7895910497825183
21
0
31
-4.3709567898628207e-17
0
LINE
5
159
100
AcDbEntity
8
0
100
AcDbLine
10
-4.7895910497825183
20
0.42414147392079893
30
-4.3709567898628207e-17
11
-4.7895910497825183
21
0.024141473920798236
31
-4.3709567898628207e-17
0
LINE
5
160
100
AcDbEntity
8
0
100
AcDbLine
10
4.78959104978252
20
0.42414147392079937
30
-4.3709567898628207e-17
11
3.9500000000000011
21
0.68974038648086367
31
-2.4263684338736828e-32
0
LINE
5
161
100
AcDbEntity
8
0
100
AcDbLine
10
4.78959104978252
20
3.8166497331590725
30
-4.3709567898628207e-17
11
3.9500000000000011
21
4.0822486457191367
31
-5.159804700762734e-18
0
LINE
5
162
100
AcDbEntity
8
0
100
AcDbLine
10
4.78959104978252
20
2.3203956035399349
30
-4.3709567898628207e-17
11
3.9500000000000011
21
2.5859945160999991
31
0
0
LINE
5
163
100
AcDbEntity
8
0
100
AcDbLine
10
4.78959104978252
20
5.7129038627782096
30
-4.3709567898628207e-17
11
3.9191948315727778
21
5.98824778064487
31
0
0
LINE
5
164
100
AcDbEntity
8
0
100
AcDbLine
10
4.78959104978252
20
4.2166497331590715
30
-4.3709567898628207e-17
11
3.9500000000000011
21
4.4822486457191353
31
-5.159804700762744e-18
0
LINE
5
165
100
AcDbEntity
8
0
100
AcDbLine
10
4.78959104978252
20
6.1129038627782091
30
-4.3709567898628207e-17
11
3.8391597167305958
21
6.413566344336334
31
0
0
LINE
5
166
100
AcDbEntity
8
0
100
AcDbLine
10
4.78959104978252
20
0
30
-4.3709567898628207e-17
11
3.9500000000000011
21
0
31
-4.3709567898628207e-17
0
LINE
5
167
100
AcDbEntity
8
0
100
AcDbLine
10
4.78959104978252
20
1.9203956035399357
30
-4.3709567898628207e-17
11
3.9500000000000011
21
2.1859945161000001
31
-1.9410947470989462e-32
0
LINE
5
168
100
AcDbEntity
8
0
100
AcDbLine
10
4.78959104978252
20
7.6091579923973462
30
-4.3709567898628207e-17
11
2.7561121472170713
21
8.2524351990506535
31
0
0
LINE
5
169
100
AcDbEntity
8
0
100
AcDbLine
10
4.78959104978252
20
0.024141473920798674
30
-4.3709567898628207e-17
11
3.9500000000000011
21
0.28974038648086303
31
-2.4263684338736828e-32
0
LINE
5
170
100
AcDbEntity
8
0
100
AcDbLine
10
4.7895910497825191
20
12.234826816859181
30
-4.3709567898628207e-17
11
4.78959104978252
21
0
31
-4.3709567898628207e-17
0
ENDSEC
0
SECTION
2
OBJECTS
0
DICTIONARY
5
C
100
AcDbDictionary
3
ACAD_GROUP
350
D
3
ACAD_MLINESTYLE
350
17
0
DICTIONARY
5
D
100
AcDbDictionary
0
DICTIONARY
5
1A
330
C
100
AcDbDictionary
0
DICTIONARY
5
17
100
AcDbDictionary
0
ENDSEC
0
EOF
