0
SECTION
2
HEADER
9
$INSUNITS
70
1
9
$ACADVER
1
AC1014
9
$HANDSEED
5
FFFF
0
ENDSEC
0
SECTION
2
TABLES
0
TABLE
2
VPORT
5
8
100
AcDbSymbolTable
0
ENDTAB
0
TABLE
2
LTYPE
5
5
100
AcDbSymbolTable
0
LTYPE
5
14
100
AcDbSymbolTableRecord
100
AcDbLinetypeTableRecord
2
BYBLOCK
70
0
0
LTYPE
5
15
100
AcDbSymbolTableRecord
100
AcDbLinetypeTableRecord
2
BYLAYER
70
0
0
LTYPE
5
16
100
AcDbSymbolTableRecord
100
AcDbLinetypeTableRecord
2
DASHED
70
0
3
Dashed __ __ __ __ __ __ __ __ __ __ __ __ __ _
72
65
73
2
40
0.75
49
0.5
74
0
49
-0.25
74
0
0
ENDTAB
0
TABLE
2
LAYER
5
2
100
AcDbSymbolTable
70
2
0
LAYER
5
50
100
AcDbSymbolTableRecord
100
AcDbLayerTableRecord
2
0
70
0
62
7
6
CONTINUOUS
0
ENDTAB
0
TABLE
2
STYLE
5
3
100
AcDbSymbolTable
70
1
0
STYLE
5
11
100
AcDbSymbolTableRecord
100
AcDbTextStyleTableRecord
2
STANDARD
70
0
0
ENDTAB
0
TABLE
2
VIEW
5
6
100
AcDbSymbolTable
70
0
0
ENDTAB
0
TABLE
2
UCS
5
7
100
AcDbSymbolTable
70
0
0
ENDTAB
0
TABLE
2
APPID
5
9
100
AcDbSymbolTable
70
2
0
APPID
5
12
100
AcDbSymbolTableRecord
100
AcDbRegAppTableRecord
2
ACAD
70
0
0
ENDTAB
0
TABLE
2
DIMSTYLE
5
A
100
AcDbSymbolTable
70
1
0
ENDTAB
0
TABLE
2
BLOCK_RECORD
5
1
100
AcDbSymbolTable
70
1
0
BLOCK_RECORD
5
1F
100
AcDbSymbolTableRecord
100
AcDbBlockTableRecord
2
*MODEL_SPACE
0
BLOCK_RECORD
5
1B
100
AcDbSymbolTableRecord
100
AcDbBlockTableRecord
2
*PAPER_SPACE
0
ENDTAB
0
ENDSEC
0
SECTION
2
BLOCKS
0
BLOCK
5
20
100
AcDbEntity
100
AcDbBlockBegin
2
*MODEL_SPACE
0
ENDBLK
5
21
100
AcDbEntity
100
AcDbBlockEnd
0
BLOCK
5
1C
100
AcDbEntity
100
AcDbBlockBegin
2
*PAPER_SPACE
0
ENDBLK
5
1D
100
AcDbEntity
100
AcDbBlockEnd
0
ENDSEC
0
SECTION
2
ENTITIES
0
LWPOLYLINE
5
100
100
AcDbEntity
8
0
100
AcDbPolyline
90
9
70
1
43
0.0
10
-21.453530785543268
20
0.49999999999999994
10
-1.0000000000000007
20
0.49999999999999994
10
-0.99999999999999922
20
11.33927126130363
10
-11.226765392771632
20
11.33927126130363
10
-15.182742246417813
20
11.33927126130363
10
-16.126942559821906
20
11.342030289517734
10
-17.071142873225998
20
11.344789317731838
10
-20.953530785543265
20
11.339271261303628
10
-21.453530785543268
20
11.338560608922565
0
LWPOLYLINE
5
101
100
AcDbEntity
8
0
100
AcDbPolyline
90
3
70
1
43
0.0
10
-20.953530785543265
20
10.152007766319938
10
-20.050296976469969
20
10.152007766319938
10
-20.953530785543265
20
10.839271261303654
0
LWPOLYLINE
5
102
100
AcDbEntity
8
0
100
AcDbPolyline
90
15
70
1
43
0.0
10
-17.619258012045229
20
8.3825054007337432
10
-16.126942559773187
20
9.4647442647128646
10
-17.071142873176157
20
10.152007763008269
10
-16.126942559773187
20
10.839271261303653
10
-15.182742246373158
20
10.152007763008276
10
-16.126942559773187
20
9.4647442647128646
10
-14.636521651396906
20
8.3798983131884466
10
-13.147065043676497
20
9.4600639206891319
10
-13.147065043676497
20
2.194768597652609
10
-13.14706504367649
20
1.7965123984351425
10
-13.147065043676497
20
1.3982561992177225
10
-19.103037524103343
20
1.3982561992177216
10
-19.103037524103314
20
1.7965123984353453
10
-19.103037524103296
20
2.1947685976529669
10
-19.10303759184027
20
9.4625174922211794
0
LINE
5
103
100
AcDbEntity
8
0
100
AcDbLine
10
-17.071142873176157
20
10.152007763008269
30
0
11
-20.050296971915852
21
10.152007763008257
31
0
0
LINE
5
104
100
AcDbEntity
8
0
100
AcDbLine
10
-15.182742246373158
20
10.152007763008276
30
0
11
-12.174443370734357
21
10.152007763008275
31
0
0
LINE
5
105
100
AcDbEntity
8
0
100
AcDbLine
10
-17.073037165630684
20
7.9849231298479877
30
0
11
-16.126942559773184
21
8.6710383542815688
31
0
0
LINE
5
106
100
AcDbEntity
8
0
100
AcDbLine
10
-16.126942559773184
20
8.6710383542815688
30
0
11
-16.673163154748607
21
9.0686208075120511
31
0
0
LINE
5
107
100
AcDbEntity
8
0
100
AcDbLine
10
-16.126942559773184
20
8.6710383542815688
30
0
11
-15.580721964798197
21
9.0671618114826238
31
0
0
LINE
5
108
100
AcDbEntity
8
0
100
AcDbLine
10
-15.182742246372111
20
7.9837748559876287
30
0
11
-16.126942559773184
21
8.6710383542815688
31
0
0
LINE
5
109
100
AcDbEntity
8
0
100
AcDbLine
10
-19.103037524103168
20
4.4587156381959732
30
0
11
-16.126942559773187
21
2.2924788689323869
31
0
0
LINE
5
110
100
AcDbEntity
8
0
100
AcDbLine
10
-12.19293326892174
20
10.152007763008278
30
0
11
-11.226765392771632
21
10.152007763008276
31
0
0
LINE
5
111
100
AcDbEntity
8
0
100
AcDbLine
10
-11.226765392771632
20
11.33927126130363
30
0
11
-11.226765392771632
21
0.49999999999999994
31
0
0
LINE
5
112
100
AcDbEntity
8
0
100
AcDbLine
10
-16.126942559773184
20
2.2924788689323865
30
0
11
-13.147065043676497
21
4.4535094023283461
31
0
0
LINE
5
113
100
AcDbEntity
8
0
100
AcDbLine
10
-13.147065043676497
20
3.5592867326137125
30
0
11
-16.126942559773187
21
1.3982561992177269
31
0
0
LINE
5
114
100
AcDbEntity
8
0
100
AcDbLine
10
-16.126942559773187
20
1.3982561992177269
30
0
11
-19.103037524103222
21
3.5644929684813476
31
0
0
LINE
5
115
100
AcDbEntity
8
0
100
AcDbLine
10
-19.103037524102938
20
8.5705572602504123
30
0
11
-16.126942559773187
21
6.4043204909892069
31
0
0
LINE
5
116
100
AcDbEntity
8
0
100
AcDbLine
10
-16.126942559773187
20
6.4043204909892069
30
0
11
-13.147065043676497
21
8.5653510243851443
31
0
0
LINE
5
117
100
AcDbEntity
8
0
100
AcDbLine
10
-16.126942559773187
20
7.2990333872931021
30
0
11
-16.126942559773187
21
1.3982561992177269
31
0
0
LINE
5
118
100
AcDbEntity
8
0
100
AcDbLine
10
-17.619258012045229
20
8.3825054007337432
30
0
11
-17.619257760607407
21
2.4844809662778178
31
0
0
LINE
5
119
100
AcDbEntity
8
0
100
AcDbLine
10
-14.636521651396906
20
8.3798983131884466
30
0
11
-14.636521651397608
21
2.479121125112516
31
0
0
LINE
5
120
100
AcDbEntity
8
0
100
AcDbLine
10
-15.427314112044803
20
7.8064094218470244
30
0
11
-15.427314112044797
21
2.7998549034862874
31
0
0
LINE
5
121
100
AcDbEntity
8
0
100
AcDbLine
10
-16.825682923744068
20
6.0905505435593597
30
0
11
-16.126942559773191
21
5.5819521665777287
31
0
0
LINE
5
122
100
AcDbEntity
8
0
100
AcDbLine
10
-16.126942559773191
20
5.5819521665777287
30
0
11
-15.427314112044799
21
6.089328201131611
31
0
0
LINE
5
123
100
AcDbEntity
8
0
100
AcDbLine
10
-16.825682923744065
20
5.2681822191480974
30
0
11
-16.126942559773195
21
4.7595838421664807
31
0
0
LINE
5
124
100
AcDbEntity
8
0
100
AcDbLine
10
-16.126942559773195
20
4.7595838421664807
30
0
11
-15.427314112044799
21
5.2669598767203754
31
0
0
LINE
5
125
100
AcDbEntity
8
0
100
AcDbLine
10
-16.825682923744072
20
7.8071415376852897
30
0
11
-16.825682923744068
21
6.9129188679706211
31
0
0
LINE
5
126
100
AcDbEntity
8
0
100
AcDbLine
10
-16.825682923744068
20
6.0905505435593597
30
0
11
-16.825682923744065
21
5.2681822191480974
31
0
0
LINE
5
127
100
AcDbEntity
8
0
100
AcDbLine
10
-16.825682923744068
20
6.9129188679706211
30
0
11
-16.825682923744068
21
6.0905505435593597
31
0
0
LINE
5
128
100
AcDbEntity
8
0
100
AcDbLine
10
-16.825682923744065
20
4.4458138947368333
30
0
11
-16.126942559773191
21
3.9372155177552446
31
0
0
LINE
5
129
100
AcDbEntity
8
0
100
AcDbLine
10
-16.126942559773191
20
3.9372155177552446
30
0
11
-15.427314112044799
21
4.4445915523092125
31
0
0
LINE
5
130
100
AcDbEntity
8
0
100
AcDbLine
10
-16.825682923744058
20
3.6234455703255706
30
0
11
-16.126942559773191
21
3.1148471933439699
31
0
0
LINE
5
131
100
AcDbEntity
8
0
100
AcDbLine
10
-16.126942559773191
20
3.1148471933439699
30
0
11
-15.427314112044797
21
3.6222232278979245
31
0
0
LINE
5
132
100
AcDbEntity
8
0
100
AcDbLine
10
-16.825682923744065
20
5.2681822191480974
30
0
11
-16.825682923744065
21
4.4458138947368333
31
0
0
LINE
5
133
100
AcDbEntity
8
0
100
AcDbLine
10
-16.825682923744058
20
3.6234455703255706
30
0
11
-16.825682923744054
21
2.8010772459143083
31
0
0
LINE
5
134
100
AcDbEntity
8
0
100
AcDbLine
10
-16.825682923744065
20
4.4458138947368333
30
0
11
-16.825682923744058
21
3.6234455703255706
31
0
0
LINE
5
135
100
AcDbEntity
8
0
100
AcDbLine
10
-19.103037524103314
20
1.7965123984353453
30
0
11
-16.674088783963317
21
1.796512398435214
31
0
0
LINE
5
136
100
AcDbEntity
8
0
100
AcDbLine
10
-15.577781094743251
20
1.7965123984351574
30
0
11
-13.14706504367649
21
1.7965123984351425
31
0
0
LINE
5
137
100
AcDbEntity
8
0
100
AcDbLine
10
-19.103037524103296
20
2.1947685976529674
30
0
11
-17.619257760607436
21
2.1947685976528777
31
0
0
LINE
5
138
100
AcDbEntity
8
0
100
AcDbLine
10
-15.028619629713132
20
2.1947685976527245
30
0
11
-13.147065043676497
21
2.194768597652609
31
0
0
LINE
5
139
100
AcDbEntity
8
0
100
AcDbLine
10
-17.619257760607407
20
2.4844809662778178
30
0
11
-17.619257760607436
21
2.1947685976528777
31
0
0
LINE
5
140
100
AcDbEntity
8
0
100
AcDbLine
10
-14.636521651397608
20
2.479121125112516
30
0
11
-14.636521651397619
21
2.1947685976527054
31
0
0
LINE
5
141
100
AcDbEntity
8
0
100
AcDbLine
10
-17.619257760607436
20
2.1947685976528777
30
0
11
-17.221235008153631
21
2.194768597652847
31
0
0
LINE
5
142
100
AcDbEntity
8
0
100
AcDbLine
10
-19.103037524103343
20
1.3982561992177216
30
0
11
-19.103037524103367
21
0.99999999999999989
31
0
0
LINE
5
143
100
AcDbEntity
8
0
100
AcDbLine
10
-13.147065043676497
20
1.3982561992177225
30
0
11
-13.147065043676509
21
0.99999999999999989
31
0
0
LINE
5
144
100
AcDbEntity
8
0
100
AcDbLine
10
-20.050296976469969
20
7.3798449707265288
30
0
11
-20.05029697191571
21
4.4587156381960042
31
0
0
LINE
5
145
100
AcDbEntity
8
0
100
AcDbLine
10
-12.19293326892174
20
10.152007763008278
30
0
11
-12.176091692759659
21
0.99999999999999989
31
0
0
LINE
5
146
100
AcDbEntity
8
0
100
AcDbLine
10
-20.95353078554329
20
6.3835420329727226
30
0
11
-20.050296971915706
21
6.3835420329726524
31
0
0
LINE
5
147
100
AcDbEntity
8
0
100
AcDbLine
10
-20.953530785543265
20
5.4550185759498255
30
0
11
-20.05029697191571
21
5.4550185759497563
31
0
0
LINE
5
148
100
AcDbEntity
8
0
100
AcDbLine
10
-20.050296976469969
20
7.3798449707265288
30
0
11
-19.103037524103009
21
7.379844970726535
31
0
0
LINE
5
149
100
AcDbEntity
8
0
100
AcDbLine
10
-20.05029697191571
20
4.4587156381960042
30
0
11
-19.103037524103168
21
4.4587156381959732
31
0
0
LINE
5
150
100
AcDbEntity
8
0
100
AcDbLine
10
-21.453530785543268
20
5.9192803044612825
30
0
11
-20.953530785543265
21
5.9192803044612727
31
0
0
LINE
5
151
100
AcDbEntity
8
0
100
AcDbLine
10
-13.147065043676497
20
4.4535094023283461
30
0
11
-12.182446860186511
21
4.4535094023283452
31
0
0
LINE
5
152
100
AcDbEntity
8
0
100
AcDbLine
10
-13.147065043676497
20
7.3798449707265776
30
0
11
-12.187831919359013
21
7.3798449707265847
31
0
0
LINE
5
153
100
AcDbEntity
8
0
100
AcDbLine
10
-12.184289843000919
20
5.4550185759490759
30
0
11
-11.226765392771632
21
5.4550185759489755
31
0
0
LINE
5
154
100
AcDbEntity
8
0
100
AcDbLine
10
-12.185998517089118
20
6.3835420329720405
30
0
11
-11.226765392771632
21
6.3835420329721133
31
0
0
LINE
5
155
100
AcDbEntity
8
0
100
AcDbLine
10
-16.126942559773187
20
10.839271261303653
30
0
11
-17.07114287322344
21
10.839271261303654
31
0
0
LINE
5
156
100
AcDbEntity
8
0
100
AcDbLine
10
-11.226765392771632
20
10.839271261303644
30
0
11
-15.182742246415511
21
10.839271261303651
31
0
0
LINE
5
157
100
AcDbEntity
8
0
100
AcDbLine
10
-12.174443370734357
20
10.152007763008275
30
0
11
-11.226765392771632
21
10.839271261303644
31
0
0
LINE
5
158
100
AcDbEntity
8
0
100
AcDbLine
10
-16.126942559773187
20
7.2990333872931021
30
0
11
-15.182742246372111
21
7.9837748559876287
31
0
0
LINE
5
159
100
AcDbEntity
8
0
100
AcDbLine
10
-13.147065043676497
20
9.4600639206891319
30
0
11
-12.174443370734357
21
10.152007763008275
31
0
0
LINE
5
160
100
AcDbEntity
8
0
100
AcDbLine
10
-15.182742246372111
20
7.9837748559876287
30
0
11
-14.636521651396906
21
8.3798983131884466
31
0
0
LINE
5
161
100
AcDbEntity
8
0
100
AcDbLine
10
-16.825682923744072
20
7.8071415376852897
30
0
11
-16.126942559773187
21
7.2990333872931021
31
0
0
LINE
5
162
100
AcDbEntity
8
0
100
AcDbLine
10
-20.050296976469969
20
10.152007766319938
30
0
11
-19.10303759184027
21
9.4625174922211794
31
0
0
LINE
5
163
100
AcDbEntity
8
0
100
AcDbLine
10
-17.073037165630684
20
7.9849231298479877
30
0
11
-16.825682923744072
21
7.8071415376852897
31
0
0
LINE
5
164
100
AcDbEntity
8
0
100
AcDbLine
10
-17.619258012045229
20
8.3825054007337432
30
0
11
-17.073037165630684
21
7.9849231298479877
31
0
0
LINE
5
165
100
AcDbEntity
8
0
100
AcDbLine
10
-20.05029697191571
20
4.4587156381960042
30
0
11
-20.050296971915895
21
0.99999999999999989
31
0
0
LINE
5
166
100
AcDbEntity
8
0
100
AcDbLine
10
-20.050296976469969
20
10.152007766319938
30
0
11
-20.050296976469969
21
7.3798449707265288
31
0
0
LINE
5
167
100
AcDbEntity
8
0
100
AcDbLine
10
-20.95353078554329
20
6.3835420329727226
30
0
11
-20.953530785543265
21
5.4550185759498255
31
0
0
LINE
5
168
100
AcDbEntity
8
0
100
AcDbLine
10
-20.953530785543265
20
10.152007766319938
30
0
11
-20.95353078554329
21
6.3835420329727226
31
0
0
LINE
5
169
100
AcDbEntity
8
0
100
AcDbLine
10
-15.182742246415511
20
10.839271261303651
30
0
11
-16.126942559773187
21
10.839271261303653
31
0
0
LINE
5
170
100
AcDbEntity
8
0
100
AcDbLine
10
-20.953530785543265
20
10.839271261303654
30
0
11
-21.453530785543268
21
10.839271261303651
31
0
0
LINE
5
171
100
AcDbEntity
8
0
100
AcDbLine
10
-20.953530785543265
20
10.839271261303654
30
0
11
-20.953530785543265
21
11.339271261303628
31
0
0
LINE
5
172
100
AcDbEntity
8
0
100
AcDbLine
10
-20.953530785543265
20
0.99999999999999989
30
0
11
-20.953530785543265
21
0.49999999999999994
31
0
0
LINE
5
173
100
AcDbEntity
8
0
100
AcDbLine
10
-20.953530785543265
20
0.99999999999999989
30
0
11
-21.453530785543268
21
0.99999999999999989
31
0
0
LINE
5
174
100
AcDbEntity
8
0
100
AcDbLine
10
-21.453530785543268
20
1.3982561992177378
30
0
11
-20.953530785543265
21
1.3982561992177203
31
0
0
LINE
5
175
100
AcDbEntity
8
0
100
AcDbLine
10
-21.453530785543268
20
1.7965123984354798
30
0
11
-20.953530785543265
21
1.7965123984354407
31
0
0
LINE
5
176
100
AcDbEntity
8
0
100
AcDbLine
10
-21.453530785543268
20
2.1947685976531037
30
0
11
-20.953530785543265
21
2.1947685976530744
31
0
0
LINE
5
177
100
AcDbEntity
8
0
100
AcDbLine
10
-20.953530785543265
20
5.4550185759498255
30
0
11
-20.953530785543265
21
2.1947685976530744
31
0
0
LINE
5
178
100
AcDbEntity
8
0
100
AcDbLine
10
-20.953530785543265
20
1.3982561992177203
30
0
11
-20.953530785543265
21
0.99999999999999989
31
0
0
LINE
5
179
100
AcDbEntity
8
0
100
AcDbLine
10
-20.953530785543265
20
1.7965123984354407
30
0
11
-20.953530785543265
21
1.3982561992177203
31
0
0
LINE
5
180
100
AcDbEntity
8
0
100
AcDbLine
10
-20.953530785543265
20
2.1947685976530744
30
0
11
-20.953530785543265
21
1.7965123984354407
31
0
0
LINE
5
181
100
AcDbEntity
8
0
100
AcDbLine
10
-17.071142873226002
20
11.344789317731836
30
0
11
-20.953530785543265
21
11.339271261303628
31
0
0
LINE
5
182
100
AcDbEntity
8
0
100
AcDbLine
10
-20.953530785543265
20
10.83927126130363
30
0
11
-20.953530785543265
21
11.339271261303628
31
0
0
LINE
5
183
100
AcDbEntity
8
0
100
AcDbLine
10
-17.07114287322344
20
10.839271261303654
30
0
11
-20.953530785543265
21
10.839271261303654
31
0
0
LINE
5
184
100
AcDbEntity
8
0
100
AcDbLine
10
-11.226765392771632
20
0.99999999999999822
30
0
11
-20.953530785543265
21
0.99999999999999956
31
0
0
LINE
5
185
100
AcDbEntity
8
0
100
AcDbLine
10
-1.5000000000000007
20
0.99999999999999956
30
0
11
-0.99999999999999956
21
0.99999999999999956
31
0
0
LINE
5
186
100
AcDbEntity
8
0
100
AcDbLine
10
-1.5000000000000007
20
10.839271261303654
30
0
11
-0.99999999999999956
21
10.839271261303651
31
0
0
LINE
5
187
100
AcDbEntity
8
0
100
AcDbLine
10
-1.5000000000000007
20
10.839271261303654
30
0
11
-1.5000000000000007
21
11.339271261303628
31
0
0
LINE
5
188
100
AcDbEntity
8
0
100
AcDbLine
10
-1.5000000000000007
20
10.83927126130363
30
0
11
-1.5000000000000007
21
11.339271261303628
31
0
0
LINE
5
189
100
AcDbEntity
8
0
100
AcDbLine
10
-0.99999999999999956
20
5.919280304461271
30
0
11
-1.5000000000000007
21
5.9192803044612798
31
0
0
LINE
5
190
100
AcDbEntity
8
0
100
AcDbLine
10
-17.071142873176097
20
0.99999999999999989
30
0
11
-17.071142873176097
21
0.49999999999999994
31
0
0
LINE
5
191
100
AcDbEntity
8
0
100
AcDbLine
10
-15.182742246370275
20
0.99999999999999989
30
0
11
-15.182742246370275
21
0.49999999999999994
31
0
0
LWPOLYLINE
5
192
100
AcDbEntity
8
0
100
AcDbPolyline
90
6
70
1
43
0.0
10
-21.953530785543268
20
0
10
-0.50000000000000122
20
0
10
-0.49999999999999989
20
11.83927126130363
10
-15.182742246417813
20
11.83927126130363
10
-17.071142873225998
20
11.83927126130363
10
-21.953530785543268
20
11.83927126130363
0
LINE
5
193
100
AcDbEntity
8
0
100
AcDbLine
10
-17.071142873225998
20
11.344789317731838
30
0
11
-17.071142873225998
21
11.83927126130363
31
0
0
LINE
5
194
100
AcDbEntity
8
0
100
AcDbLine
10
-15.182742246417813
20
11.33927126130363
30
0
11
-15.182742246417813
21
11.83927126130363
31
0
0
LINE
5
195
100
AcDbEntity
8
0
100
AcDbLine
10
-17.071142873176097
20
0.49999999999999994
30
0
11
-17.071142873176097
21
0
31
0
0
LINE
5
196
100
AcDbEntity
8
0
100
AcDbLine
10
-15.182742246370275
20
0.49999999999999994
30
0
11
-15.182742246370275
21
0
31
0
0
LINE
5
197
100
AcDbEntity
8
0
100
AcDbLine
10
-21.453530785543268
20
0.49999999999999994
30
0
11
-21.453530785543268
21
0
31
0
0
LINE
5
198
100
AcDbEntity
8
0
100
AcDbLine
10
-21.453530785543268
20
0.49999999999999994
30
0
11
-21.953530785543268
21
0.5
31
0
0
LINE
5
199
100
AcDbEntity
8
0
100
AcDbLine
10
-21.453530785543268
20
5.446193797310185
30
0
11
-21.953530785543268
21
5.446193797310185
31
0
0
LINE
5
200
100
AcDbEntity
8
0
100
AcDbLine
10
-21.453530785543268
20
6.3846515061331521
30
0
11
-21.953530785543268
21
6.3846515061331521
31
0
0
LINE
5
201
100
AcDbEntity
8
0
100
AcDbLine
10
-21.453530785543268
20
11.338560608922565
30
0
11
-21.953530785543268
21
11.338560608922565
31
0
0
LINE
5
202
100
AcDbEntity
8
0
100
AcDbLine
10
-21.453530785543268
20
11.338560608922565
30
0
11
-21.453530785543268
21
11.83927126130363
31
0
0
LINE
5
203
100
AcDbEntity
8
0
100
AcDbLine
10
-11.226765392771632
20
11.33927126130363
30
0
11
-11.226765392771632
21
11.83927126130363
31
0
0
LINE
5
204
100
AcDbEntity
8
0
100
AcDbLine
10
-16.126942559773187
20
10.839271261303653
30
0
11
-16.126942559821906
21
11.342030289517734
31
0
0
LINE
5
205
100
AcDbEntity
8
0
100
AcDbLine
10
-17.923511196454914
20
11.342030289517734
30
0
11
-17.923511196454914
21
10.839271261303654
31
0
0
LINE
5
206
100
AcDbEntity
8
0
100
AcDbLine
10
-14.330373923091461
20
11.33927126130363
30
0
11
-14.330373923091461
21
10.839271261303642
31
0
0
LINE
5
207
100
AcDbEntity
8
0
100
AcDbLine
10
-11.226765392771632
20
0.49999999999999994
30
0
11
-11.226765392771634
21
0
31
0
0
LINE
5
208
100
AcDbEntity
8
0
100
AcDbLine
10
-1.5000000000000007
20
1.7965123984354407
30
0
11
-1.5000000000000007
21
1.39825619921772
31
0
0
LINE
5
209
100
AcDbEntity
8
0
100
AcDbLine
10
-0.99999999999999956
20
5.9192803044612825
30
0
11
-1.5000000000000007
21
5.9192803044612727
31
0
0
LINE
5
210
100
AcDbEntity
8
0
100
AcDbLine
10
-0.99999999999999956
20
11.338560608922565
30
0
11
-0.99999999999999956
21
11.83927126130363
31
0
0
LINE
5
211
100
AcDbEntity
8
0
100
AcDbLine
10
-1.5000000000000007
20
1.39825619921772
30
0
11
-1.5000000000000007
21
0.99999999999999956
31
0
0
LWPOLYLINE
5
212
100
AcDbEntity
8
0
100
AcDbPolyline
90
19
70
1
43
0.0
10
-5.3823879123172684
20
11.344789317731838
10
-1.5000000000000007
20
11.339271261303628
10
-1.5000000000000007
20
10.839271261303654
10
-5.3823879123198255
20
10.839271261303654
10
-6.3265882257700783
20
10.839271261303653
10
-7.2707885391277554
20
10.839271261303651
10
-11.226765392771632
20
10.839271261303644
10
-10.27908741480891
20
10.152007763008275
10
-9.3064657418667682
20
9.4600639206891319
10
-7.8170091341463603
20
8.3798983131884466
10
-7.2707885391711544
20
7.9837748559876287
10
-6.3265882257700783
20
7.2990333872931021
10
-5.6278478617991938
20
7.8071415376852897
10
-5.380493619912583
20
7.9849231298479877
10
-4.8342727734980357
20
8.3825054007337432
10
-6.3265882257700783
20
9.4647442647128646
10
-5.3823879123671103
20
10.152007763008269
10
-6.3265882257700783
20
10.839271261303653
10
-6.3265882257213608
20
11.342030289517734
0
LINE
5
213
100
AcDbEntity
8
0
100
AcDbLine
10
-1.5000000000000007
20
10.839271261303654
30
0
11
-0.99999999999999956
21
10.839271261303651
31
0
0
LINE
5
214
100
AcDbEntity
8
0
100
AcDbLine
10
-3.3504932614399521
20
1.7965123984353457
30
0
11
-5.7794420015799508
21
1.796512398435214
31
0
0
LINE
5
215
100
AcDbEntity
8
0
100
AcDbLine
10
-0.99999999999999956
20
1.7965123984354798
30
0
11
-1.5000000000000007
21
1.7965123984354407
31
0
0
LINE
5
216
100
AcDbEntity
8
0
100
AcDbLine
10
-1.5000000000000007
20
5.4550185759498255
30
0
11
-1.5000000000000007
21
2.1947685976530744
31
0
0
LINE
5
217
100
AcDbEntity
8
0
100
AcDbLine
10
-1.5000000000000007
20
11.339271261303628
30
0
11
-0.99999999999999956
21
11.338560608922565
31
0
0
LINE
5
218
100
AcDbEntity
8
0
100
AcDbLine
10
-5.6278478617992018
20
5.2681822191480974
30
0
11
-6.3265882257700721
21
4.7595838421664807
31
0
0
LINE
5
219
100
AcDbEntity
8
0
100
AcDbLine
10
-5.6278478617992018
20
5.2681822191480974
30
0
11
-5.6278478617992018
21
4.4458138947368342
31
0
0
LINE
5
220
100
AcDbEntity
8
0
100
AcDbLine
10
-3.3504932614399241
20
1.3982561992177216
30
0
11
-3.3504932614398988
21
0.99999999999999956
31
0
0
LINE
5
221
100
AcDbEntity
8
0
100
AcDbLine
10
-4.8342730249358574
20
2.4844809662778178
30
0
11
-4.8342730249358299
21
2.1947685976528772
31
0
0
LINE
5
222
100
AcDbEntity
8
0
100
AcDbLine
10
-3.350493261439969
20
2.1947685976529669
30
0
11
-3.3504932614399521
21
1.7965123984353457
31
0
0
LINE
5
223
100
AcDbEntity
8
0
100
AcDbLine
10
-5.6278478617992107
20
3.6234455703255706
30
0
11
-6.3265882257700747
21
3.1148471933439694
31
0
0
LINE
5
224
100
AcDbEntity
8
0
100
AcDbLine
10
-3.3504932614400977
20
4.4587156381959741
30
0
11
-6.3265882257700783
21
2.2924788689323865
31
0
0
LINE
5
225
100
AcDbEntity
8
0
100
AcDbLine
10
-5.6278478617992018
20
4.4458138947368342
30
0
11
-5.6278478617992107
21
3.6234455703255706
31
0
0
LINE
5
226
100
AcDbEntity
8
0
100
AcDbLine
10
-5.382387912367169
20
0.49999999999999978
30
0
11
-5.382387912367169
21
0
31
0
0
LINE
5
227
100
AcDbEntity
8
0
100
AcDbLine
10
-4.8342730249358299
20
2.1947685976528772
30
0
11
-5.2322957773896368
21
2.1947685976528466
31
0
0
LINE
5
228
100
AcDbEntity
8
0
100
AcDbLine
10
-1.5000000000000007
20
10.83927126130363
30
0
11
-1.5000000000000007
21
11.339271261303628
31
0
0
LINE
5
229
100
AcDbEntity
8
0
100
AcDbLine
10
-4.5300195890883508
20
11.342030289517734
30
0
11
-4.5300195890883508
21
10.839271261303654
31
0
0
LINE
5
230
100
AcDbEntity
8
0
100
AcDbLine
10
-5.6278478617992018
20
4.4458138947368342
30
0
11
-6.3265882257700747
21
3.9372155177552446
31
0
0
LINE
5
231
100
AcDbEntity
8
0
100
AcDbLine
10
-3.3504932614399241
20
1.3982561992177216
30
0
11
-9.3064657418667682
21
1.3982561992177229
31
0
0
LINE
5
232
100
AcDbEntity
8
0
100
AcDbLine
10
-11.226765392771632
20
0.99999999999999822
30
0
11
-1.5000000000000007
21
0.99999999999999956
31
0
0
LINE
5
233
100
AcDbEntity
8
0
100
AcDbLine
10
-7.2707885391701081
20
10.152007763008276
30
0
11
-6.3265882257700783
21
9.4647442647128646
31
0
0
LINE
5
234
100
AcDbEntity
8
0
100
AcDbLine
10
-7.8170091341456587
20
2.4791211251125165
30
0
11
-7.8170091341456471
21
2.1947685976527054
31
0
0
LINE
5
235
100
AcDbEntity
8
0
100
AcDbLine
10
-9.3064657418667771
20
1.7965123984351428
30
0
11
-9.3064657418667682
21
1.3982561992177229
31
0
0
LINE
5
236
100
AcDbEntity
8
0
100
AcDbLine
10
-0.99999999999999956
20
0.49999999999999978
30
0
11
-21.453530785543265
21
0.49999999999999978
31
0
0
LINE
5
237
100
AcDbEntity
8
0
100
AcDbLine
10
-9.3064657418667682
20
1.3982561992177229
30
0
11
-9.3064657418667576
21
0.99999999999999956
31
0
0
LINE
5
238
100
AcDbEntity
8
0
100
AcDbLine
10
-1.4999999999999785
20
6.3835420329727226
30
0
11
-1.5000000000000007
21
5.4550185759498255
31
0
0
LINE
5
239
100
AcDbEntity
8
0
100
AcDbLine
10
-9.3064657418667682
20
9.4600639206891319
30
0
11
-9.3064657418667682
21
2.194768597652609
31
0
0
LINE
5
240
100
AcDbEntity
8
0
100
AcDbLine
10
-6.3265882257700721
20
4.7595838421664807
30
0
11
-7.0262166734984666
21
5.2669598767203754
31
0
0
LINE
5
241
100
AcDbEntity
8
0
100
AcDbLine
10
-6.326588225770081
20
2.2924788689323865
30
0
11
-9.3064657418667682
21
4.453509402328347
31
0
0
LINE
5
242
100
AcDbEntity
8
0
100
AcDbLine
10
-6.3265882257700747
20
3.1148471933439694
30
0
11
-7.0262166734984692
21
3.6222232278979236
31
0
0
LINE
5
243
100
AcDbEntity
8
0
100
AcDbLine
10
-7.2707885391711544
20
7.9837748559876287
30
0
11
-6.326588225770081
21
8.6710383542815688
31
0
0
LINE
5
244
100
AcDbEntity
8
0
100
AcDbLine
10
-6.3265882257700747
20
5.5819521665777287
30
0
11
-7.0262166734984666
21
6.089328201131611
31
0
0
LINE
5
245
100
AcDbEntity
8
0
100
AcDbLine
10
-7.8170091341463603
20
8.3798983131884466
30
0
11
-7.8170091341456587
21
2.4791211251125165
31
0
0
LINE
5
246
100
AcDbEntity
8
0
100
AcDbLine
10
-6.3265882257700747
20
3.9372155177552446
30
0
11
-7.0262166734984666
21
4.4445915523092125
31
0
0
LINE
5
247
100
AcDbEntity
8
0
100
AcDbLine
10
-6.3265882257700783
20
10.839271261303653
30
0
11
-7.2707885391701081
21
10.152007763008276
31
0
0
LINE
5
248
100
AcDbEntity
8
0
100
AcDbLine
10
-7.2707885391254532
20
11.33927126130363
30
0
11
-6.3265882257213608
21
11.342030289517734
31
0
0
LINE
5
249
100
AcDbEntity
8
0
100
AcDbLine
10
-6.326588225770081
20
8.6710383542815688
30
0
11
-6.8728088207450684
21
9.0671618114826238
31
0
0
LINE
5
250
100
AcDbEntity
8
0
100
AcDbLine
10
-9.3064657418667682
20
3.5592867326137125
30
0
11
-6.3265882257700783
21
1.3982561992177271
31
0
0
LINE
5
251
100
AcDbEntity
8
0
100
AcDbLine
10
-1.5000000000000007
20
0.99999999999999956
30
0
11
-1.5000000000000007
21
0.49999999999999978
31
0
0
LINE
5
252
100
AcDbEntity
8
0
100
AcDbLine
10
-1.5000000000000007
20
10.152007766319938
30
0
11
-1.4999999999999785
21
6.3835420329727226
31
0
0
LINE
5
253
100
AcDbEntity
8
0
100
AcDbLine
10
-2.4032338090732979
20
10.152007766319938
30
0
11
-3.3504931937029983
21
9.4625174922211794
31
0
0
LINE
5
254
100
AcDbEntity
8
0
100
AcDbLine
10
-2.4032338136275579
20
4.4587156381960051
30
0
11
-2.4032338136273705
21
0.99999999999999956
31
0
0
LINE
5
255
100
AcDbEntity
8
0
100
AcDbLine
10
-2.4032338090732979
20
7.3798449707265288
30
0
11
-3.3504932614402572
21
7.379844970726535
31
0
0
LWPOLYLINE
5
256
100
AcDbEntity
8
0
100
AcDbPolyline
90
3
70
1
43
0.0
10
-1.5000000000000007
20
10.839271261303654
10
-1.5000000000000007
20
10.152007766319938
10
-2.4032338090732979
20
10.152007766319938
0
LINE
5
257
100
AcDbEntity
8
0
100
AcDbLine
10
-1.5000000000000007
20
5.4550185759498255
30
0
11
-2.4032338136275579
21
5.4550185759497563
31
0
0
LINE
5
258
100
AcDbEntity
8
0
100
AcDbLine
10
-3.3504932614399521
20
1.7965123984353457
30
0
11
-3.3504932614399241
21
1.3982561992177216
31
0
0
LINE
5
259
100
AcDbEntity
8
0
100
AcDbLine
10
-0.99999999999999956
20
0.49999999999999978
30
0
11
-0.99999999999999956
21
0
31
0
0
LINE
5
260
100
AcDbEntity
8
0
100
AcDbLine
10
-1.5000000000000007
20
2.1947685976530744
30
0
11
-1.5000000000000007
21
1.7965123984354407
31
0
0
LINE
5
261
100
AcDbEntity
8
0
100
AcDbLine
10
-5.6278478617991992
20
6.0905505435593597
30
0
11
-5.6278478617992018
21
5.2681822191480974
31
0
0
LINE
5
262
100
AcDbEntity
8
0
100
AcDbLine
10
-5.6278478617991938
20
7.8071415376852897
30
0
11
-5.6278478617991965
21
6.9129188679706211
31
0
0
LINE
5
263
100
AcDbEntity
8
0
100
AcDbLine
10
-3.350493261439969
20
2.1947685976529669
30
0
11
-4.8342730249358299
21
2.1947685976528772
31
0
0
LINE
5
264
100
AcDbEntity
8
0
100
AcDbLine
10
-2.4032338136275579
20
4.4587156381960051
30
0
11
-3.3504932614400977
21
4.4587156381959741
31
0
0
LINE
5
265
100
AcDbEntity
8
0
100
AcDbLine
10
-0.99999999999999956
20
2.1947685976531037
30
0
11
-1.5000000000000007
21
2.1947685976530744
31
0
0
LINE
5
266
100
AcDbEntity
8
0
100
AcDbLine
10
-0.99999999999999956
20
11.338560608922565
30
0
11
-0.49999999999999839
21
11.338560608922565
31
0
0
LINE
5
267
100
AcDbEntity
8
0
100
AcDbLine
10
-5.6278478617992107
20
3.6234455703255706
30
0
11
-5.6278478617992134
21
2.8010772459143078
31
0
0
LINE
5
268
100
AcDbEntity
8
0
100
AcDbLine
10
-1.5000000000000007
20
0.99999999999999956
30
0
11
-0.99999999999999956
21
0.99999999999999956
31
0
0
LINE
5
269
100
AcDbEntity
8
0
100
AcDbLine
10
-5.3823879123172684
20
11.344789317731838
30
0
11
-5.3823879123172684
21
11.83927126130363
31
0
0
LINE
5
270
100
AcDbEntity
8
0
100
AcDbLine
10
-5.6278478617991992
20
6.0905505435593597
30
0
11
-6.3265882257700747
21
5.5819521665777287
31
0
0
LINE
5
271
100
AcDbEntity
8
0
100
AcDbLine
10
-3.3504931937029983
20
9.4625174922211794
30
0
11
-4.8342727734980357
21
8.3825054007337432
31
0
0
LINE
5
272
100
AcDbEntity
8
0
100
AcDbLine
10
-5.382387912367169
20
0.99999999999999956
30
0
11
-5.382387912367169
21
0.49999999999999978
31
0
0
LINE
5
273
100
AcDbEntity
8
0
100
AcDbLine
10
-6.3265882257700783
20
1.3982561992177271
30
0
11
-3.3504932614400444
21
3.5644929684813467
31
0
0
LINE
5
274
100
AcDbEntity
8
0
100
AcDbLine
10
-9.3064657418667682
20
4.453509402328347
30
0
11
-10.271083925356756
21
4.4535094023283452
31
0
0
LINE
5
275
100
AcDbEntity
8
0
100
AcDbLine
10
-5.380493619912583
20
7.9849231298479877
30
0
11
-6.326588225770081
21
8.6710383542815688
31
0
0
LINE
5
276
100
AcDbEntity
8
0
100
AcDbLine
10
-0.99999999999999956
20
0.49999999999999978
30
0
11
-0.49999999999999839
21
0.49999999999999978
31
0
0
LINE
5
277
100
AcDbEntity
8
0
100
AcDbLine
10
-2.4032338090732979
20
10.152007766319938
30
0
11
-2.4032338090732979
21
7.3798449707265288
31
0
0
LINE
5
278
100
AcDbEntity
8
0
100
AcDbLine
10
-5.3823879123671103
20
10.152007763008269
30
0
11
-2.4032338136274154
21
10.152007763008257
31
0
0
LINE
5
279
100
AcDbEntity
8
0
100
AcDbLine
10
-0.99999999999999956
20
5.446193797310185
30
0
11
-0.49999999999999839
21
5.446193797310185
31
0
0
LINE
5
280
100
AcDbEntity
8
0
100
AcDbLine
10
-6.3265882257700783
20
7.2990333872931021
30
0
11
-6.3265882257700783
21
1.3982561992177271
31
0
0
LINE
5
281
100
AcDbEntity
8
0
100
AcDbLine
10
-0.99999999999999956
20
6.3846515061331521
30
0
11
-0.49999999999999839
21
6.3846515061331521
31
0
0
LINE
5
282
100
AcDbEntity
8
0
100
AcDbLine
10
-1.4999999999999785
20
6.3835420329727226
30
0
11
-2.4032338136275606
21
6.3835420329726524
31
0
0
LINE
5
283
100
AcDbEntity
8
0
100
AcDbLine
10
-6.8757496908000153
20
1.7965123984351581
30
0
11
-9.3064657418667771
21
1.7965123984351428
31
0
0
LINE
5
284
100
AcDbEntity
8
0
100
AcDbLine
10
-0.99999999999999956
20
11.338560608922565
30
0
11
-0.99999999999999956
21
0.49999999999999978
31
0
0
LINE
5
285
100
AcDbEntity
8
0
100
AcDbLine
10
-9.3064657418667682
20
2.194768597652609
30
0
11
-9.3064657418667771
21
1.7965123984351428
31
0
0
LINE
5
286
100
AcDbEntity
8
0
100
AcDbLine
10
-3.35049326144033
20
8.5705572602504123
30
0
11
-6.3265882257700783
21
6.4043204909892069
31
0
0
LINE
5
287
100
AcDbEntity
8
0
100
AcDbLine
10
-6.326588225770081
20
8.6710383542815688
30
0
11
-5.7803676307946592
21
9.0686208075120511
31
0
0
LINE
5
288
100
AcDbEntity
8
0
100
AcDbLine
10
-8.1231568624518058
20
11.33927126130363
30
0
11
-8.1231568624518058
21
10.839271261303642
31
0
0
LINE
5
289
100
AcDbEntity
8
0
100
AcDbLine
10
-10.269240942542346
20
5.4550185759490759
30
0
11
-11.226765392771632
21
5.4550185759489755
31
0
0
LINE
5
290
100
AcDbEntity
8
0
100
AcDbLine
10
-4.8342727734980357
20
8.3825054007337432
30
0
11
-4.8342730249358574
21
2.4844809662778178
31
0
0
LINE
5
291
100
AcDbEntity
8
0
100
AcDbLine
10
-7.2707885391701081
20
10.152007763008276
30
0
11
-10.27908741480891
21
10.152007763008275
31
0
0
LINE
5
292
100
AcDbEntity
8
0
100
AcDbLine
10
-11.226765392771632
20
11.33927126130363
30
0
11
-7.2707885391254532
21
11.33927126130363
31
0
0
LINE
5
293
100
AcDbEntity
8
0
100
AcDbLine
10
-10.260597516621527
20
10.152007763008278
30
0
11
-10.277439092783608
21
0.99999999999999956
31
0
0
LINE
5
294
100
AcDbEntity
8
0
100
AcDbLine
10
-7.0262166734984639
20
7.8064094218470244
30
0
11
-7.0262166734984692
21
2.7998549034862878
31
0
0
LINE
5
295
100
AcDbEntity
8
0
100
AcDbLine
10
-7.2707885391254532
20
11.33927126130363
30
0
11
-7.2707885391254532
21
11.83927126130363
31
0
0
LINE
5
296
100
AcDbEntity
8
0
100
AcDbLine
10
-7.4249111558301344
20
2.1947685976527249
30
0
11
-9.3064657418667682
21
2.194768597652609
31
0
0
LINE
5
297
100
AcDbEntity
8
0
100
AcDbLine
10
-10.260597516621527
20
10.152007763008278
30
0
11
-11.226765392771632
21
10.152007763008276
31
0
0
LINE
5
298
100
AcDbEntity
8
0
100
AcDbLine
10
-3.3504931937029983
20
9.4625174922211794
30
0
11
-3.350493261439969
21
2.1947685976529669
31
0
0
LINE
5
299
100
AcDbEntity
8
0
100
AcDbLine
10
-6.3265882257700783
20
6.4043204909892069
30
0
11
-9.3064657418667682
21
8.5653510243851443
31
0
0
LINE
5
300
100
AcDbEntity
8
0
100
AcDbLine
10
-6.3265882257700783
20
9.4647442647128646
30
0
11
-7.8170091341463603
21
8.3798983131884466
31
0
0
LINE
5
301
100
AcDbEntity
8
0
100
AcDbLine
10
-2.4032338090732979
20
7.3798449707265288
30
0
11
-2.4032338136275579
21
4.4587156381960051
31
0
0
LINE
5
302
100
AcDbEntity
8
0
100
AcDbLine
10
-10.267532268454149
20
6.3835420329720405
30
0
11
-11.226765392771632
21
6.3835420329721133
31
0
0
LINE
5
303
100
AcDbEntity
8
0
100
AcDbLine
10
-9.3064657418667682
20
7.3798449707265776
30
0
11
-10.265698866184254
21
7.3798449707265847
31
0
0
LINE
5
304
100
AcDbEntity
8
0
100
AcDbLine
10
-7.2707885391729929
20
0.49999999999999978
30
0
11
-7.2707885391729929
21
0
31
0
0
LINE
5
305
100
AcDbEntity
8
0
100
AcDbLine
10
-5.6278478617991965
20
6.9129188679706211
30
0
11
-5.6278478617991992
21
6.0905505435593597
31
0
0
LINE
5
306
100
AcDbEntity
8
0
100
AcDbLine
10
-7.2707885391729929
20
0.99999999999999956
30
0
11
-7.2707885391729929
21
0.49999999999999978
31
0
0
LINE
5
307
100
AcDbEntity
8
0
100
AcDbLine
10
-5.3823879123172631
20
11.344789317731836
30
0
11
-1.5000000000000007
21
11.339271261303628
31
0
0
LINE
5
308
100
AcDbEntity
8
0
100
AcDbLine
10
-0.99999999999999956
20
1.3982561992177382
30
0
11
-1.5000000000000007
21
1.39825619921772
31
0
0
LINE
5
309
100
AcDbEntity
8
0
100
AcDbLine
10
-16.126942559773187
20
1.3982561992177269
30
0
11
-16.126942559773187
21
0.99999999999999889
31
0
0
LINE
5
310
100
AcDbEntity
8
0
100
AcDbLine
10
-6.3265882257700783
20
1.3982561992177271
30
0
11
-6.3265882257700783
21
0.99999999999999889
31
0
0
ENDSEC
0
SECTION
2
OBJECTS
0
DICTIONARY
5
C
100
AcDbDictionary
3
ACAD_GROUP
350
D
3
ACAD_MLINESTYLE
350
17
0
DICTIONARY
5
D
100
AcDbDictionary
0
DICTIONARY
5
1A
330
C
100
AcDbDictionary
0
DICTIONARY
5
17
100
AcDbDictionary
0
ENDSEC
0
EOF
