0
SECTION
2
HEADER
9
$INSUNITS
70
1
9
$ACADVER
1
AC1014
9
$HANDSEED
5
FFFF
0
ENDSEC
0
SECTION
2
TABLES
0
TABLE
2
VPORT
5
8
100
AcDbSymbolTable
0
ENDTAB
0
TABLE
2
LTYPE
5
5
100
AcDbSymbolTable
0
LTYPE
5
14
100
AcDbSymbolTableRecord
100
AcDbLinetypeTableRecord
2
BYBLOCK
70
0
0
LTYPE
5
15
100
AcDbSymbolTableRecord
100
AcDbLinetypeTableRecord
2
BYLAYER
70
0
0
LTYPE
5
16
100
AcDbSymbolTableRecord
100
AcDbLinetypeTableRecord
2
DASHED
70
0
3
Dashed __ __ __ __ __ __ __ __ __ __ __ __ __ _
72
65
73
2
40
0.75
49
0.5
74
0
49
-0.25
74
0
0
ENDTAB
0
TABLE
2
LAYER
5
2
100
AcDbSymbolTable
70
2
0
LAYER
5
50
100
AcDbSymbolTableRecord
100
AcDbLayerTableRecord
2
0
70
0
62
7
6
CONTINUOUS
0
ENDTAB
0
TABLE
2
STYLE
5
3
100
AcDbSymbolTable
70
1
0
STYLE
5
11
100
AcDbSymbolTableRecord
100
AcDbTextStyleTableRecord
2
STANDARD
70
0
0
ENDTAB
0
TABLE
2
VIEW
5
6
100
AcDbSymbolTable
70
0
0
ENDTAB
0
TABLE
2
UCS
5
7
100
AcDbSymbolTable
70
0
0
ENDTAB
0
TABLE
2
APPID
5
9
100
AcDbSymbolTable
70
2
0
APPID
5
12
100
AcDbSymbolTableRecord
100
AcDbRegAppTableRecord
2
ACAD
70
0
0
ENDTAB
0
TABLE
2
DIMSTYLE
5
A
100
AcDbSymbolTable
70
1
0
ENDTAB
0
TABLE
2
BLOCK_RECORD
5
1
100
AcDbSymbolTable
70
1
0
BLOCK_RECORD
5
1F
100
AcDbSymbolTableRecord
100
AcDbBlockTableRecord
2
*MODEL_SPACE
0
BLOCK_RECORD
5
1B
100
AcDbSymbolTableRecord
100
AcDbBlockTableRecord
2
*PAPER_SPACE
0
ENDTAB
0
ENDSEC
0
SECTION
2
BLOCKS
0
BLOCK
5
20
100
AcDbEntity
100
AcDbBlockBegin
2
*MODEL_SPACE
0
ENDBLK
5
21
100
AcDbEntity
100
AcDbBlockEnd
0
BLOCK
5
1C
100
AcDbEntity
100
AcDbBlockBegin
2
*PAPER_SPACE
0
ENDBLK
5
1D
100
AcDbEntity
100
AcDbBlockEnd
0
ENDSEC
0
SECTION
2
ENTITIES
0
LWPOLYLINE
5
100
100
AcDbEntity
8
0
100
AcDbPolyline
90
33
70
1
43
0.0
10
-2.9995910497825196
20
3.9176921191854741
10
-2.4895910497825184
20
3.9176921191854741
10
-1.4995910497825207
20
3.917692119185475
10
-1.4995910497825193
20
2.9176921191854737
10
0.00040895021748029912
20
2.9176921191854737
10
1.5004089502174804
20
2.9176921191854737
10
1.5004089502174824
20
3.9176921191854763
10
2.4895910497825238
20
3.9176921191854768
10
2.4895910497825233
20
5.8277754643456303
10
2.087839506522887e-15
20
5.8277754643456223
10
-2.4895910497825189
20
7.5923992945333394
10
2.4895910497825233
20
7.5923992945333421
10
2.0980592591341539e-15
20
5.8277754643456223
10
-2.4895910497825189
20
5.8277754643456134
10
6.9935308637805131e-16
20
3.917692119185475
10
2.4895910497825233
20
5.8277754643456303
10
2.4895910497825233
20
7.5923992945333421
10
4.7895910497825191
20
9.2226408596234375
10
4.7895910497825218
20
10.728733838241268
10
2.4895910497825229
20
10.728733838241286
10
2.4895910497825229
20
9.2226408596234446
10
0.73959104978251922
20
9.2226408596234446
10
0.73959104978252121
20
10.728733838241299
10
0.73959104978252321
20
12.234826816859181
10
-0.73959104978251911
20
12.234826816859181
10
-2.4895910497825193
20
12.234826816859181
10
-2.4895910497825193
20
10.728733838241231
10
-4.7895910497825191
20
10.728733838241244
10
-2.4895910497825189
20
9.2226408596234322
10
-2.4895910497825189
20
7.5923992945333394
10
-2.4895910497825189
20
5.8277754643456134
10
-4.7895910497825191
20
7.5923992945333376
10
-4.7895910497825191
20
3.9176921191854732
0
LINE
5
101
100
AcDbEntity
8
0
100
AcDbLine
10
-1.4995910497825207
20
3.917692119185475
30
0
11
6.9935308637805131e-16
21
3.917692119185475
31
0
0
LINE
5
102
100
AcDbEntity
8
0
100
AcDbLine
10
-2.4895910497825189
20
5.8277754643456134
30
0
11
-2.4895910497825184
21
3.9176921191854741
31
0
0
LINE
5
103
100
AcDbEntity
8
0
100
AcDbLine
10
0.00040895021748029912
20
2.9176921191854737
30
0
11
0.00040895021747983443
21
1.0000000000000002
31
0
0
LWPOLYLINE
5
104
100
AcDbEntity
8
0
100
AcDbPolyline
90
8
70
1
43
0.0
10
-4.7895910497825191
20
2.9176921191854737
10
-4.7895910497825191
20
1.0000000000000013
10
-2.9995910497825196
20
1.0000000000000011
10
-2.9995910497825196
20
0
10
-1.4995910497825224
20
3.4967654318902565e-16
10
-1.49959104978252
20
1.0000000000000007
10
-1.4995910497825193
20
2.9176921191854737
10
-2.9995910497825191
20
2.9176921191854737
0
LINE
5
105
100
AcDbEntity
8
0
100
AcDbLine
10
-4.7895910497825191
20
1.0000000000000013
30
0
11
-4.7895910497825191
21
0
31
0
0
LINE
5
106
100
AcDbEntity
8
0
100
AcDbLine
10
-2.4895910497825189
20
7.5923992945333394
30
0
11
-4.7895910497825191
21
9.2226408596234322
31
0
0
LINE
5
107
100
AcDbEntity
8
0
100
AcDbLine
10
-4.7895910497825191
20
10.728733838241244
30
0
11
-4.7895910497825191
21
9.2226408596234322
31
0
0
LINE
5
108
100
AcDbEntity
8
0
100
AcDbLine
10
4.7895910497825218
20
10.728733838241268
30
0
11
4.7895910497825191
21
12.195199235233805
31
0
0
LINE
5
109
100
AcDbEntity
8
0
100
AcDbLine
10
-4.7895910497825191
20
9.2226408596234322
30
0
11
-4.7895910497825191
21
7.5923992945333376
31
0
0
LINE
5
110
100
AcDbEntity
8
0
100
AcDbLine
10
1.5004089502174798
20
3.4967654318902565e-16
30
0
11
-1.4995910497825224
21
3.4967654318902565e-16
31
0
0
LINE
5
111
100
AcDbEntity
8
0
100
AcDbLine
10
0.00040895021747983443
20
1.0000000000000002
30
0
11
1.5004089502174798
21
0.99999999999999978
31
0
0
LINE
5
112
100
AcDbEntity
8
0
100
AcDbLine
10
-0.73959104978251644
20
10.728733838241309
30
0
11
-0.73959104978251378
21
9.2226408596234357
31
0
0
LINE
5
113
100
AcDbEntity
8
0
100
AcDbLine
10
-2.4895910497825193
20
10.728733838241231
30
0
11
-2.4895910497825189
21
9.2226408596234322
31
0
0
LINE
5
114
100
AcDbEntity
8
0
100
AcDbLine
10
-0.73959104978251911
20
12.234826816859181
30
0
11
-0.73959104978251644
21
10.728733838241309
31
0
0
LINE
5
115
100
AcDbEntity
8
0
100
AcDbLine
10
-4.7895910497825191
20
12.234826816859181
30
0
11
-4.7895910497825191
21
10.728733838241244
31
0
0
LINE
5
116
100
AcDbEntity
8
0
100
AcDbLine
10
-2.4895910497825189
20
9.2226408596234322
30
0
11
-0.73959104978251378
21
9.2226408596234357
31
0
0
LINE
5
117
100
AcDbEntity
8
0
100
AcDbLine
10
6.9935308637805131e-16
20
3.917692119185475
30
0
11
1.5004089502174824
21
3.9176921191854763
31
0
0
LINE
5
118
100
AcDbEntity
8
0
100
AcDbLine
10
0
20
16.999999744685613
30
0
11
-1.8117041566270637
21
14.801338846366102
31
0
0
LWPOLYLINE
5
119
100
AcDbEntity
8
0
100
AcDbPolyline
90
4
70
1
43
0.0
10
3.0004089502174804
20
2.9176921191854737
10
4.7895910497825191
20
2.9176921191854737
10
4.7895910497825209
20
3.9176921191854777
10
3.0004089502174822
20
3.9176921191854768
0
LINE
5
120
100
AcDbEntity
8
0
100
AcDbLine
10
4.7895910497825191
20
7.5923992945333687
30
0
11
4.7895910497825191
21
9.2226408596234375
31
0
0
LWPOLYLINE
5
121
100
AcDbEntity
8
0
100
AcDbPolyline
90
4
70
1
43
0.0
10
1.5004089502174798
20
0.99999999999999978
10
3.00040895021748
20
0.99999999999999956
10
3.0004089502174804
20
2.9176921191854737
10
1.5004089502174804
20
2.9176921191854737
0
LWPOLYLINE
5
122
100
AcDbEntity
8
0
100
AcDbPolyline
90
3
70
1
43
0.0
10
-1.8117041566270637
20
14.801338846366102
10
-3.5091842065369194
20
12.74129885707633
10
-0.0097123738413267009
20
14.103678065018157
0
LINE
5
123
100
AcDbEntity
8
0
100
AcDbLine
10
3.00040895021748
20
0.99999999999999944
30
0
11
3.00040895021748
21
3.4967654318902565e-16
31
0
0
LINE
5
124
100
AcDbEntity
8
0
100
AcDbLine
10
2.4895910497825229
20
9.2226408596234446
30
0
11
2.4895910497825233
21
7.5923992945333421
31
0
0
LINE
5
125
100
AcDbEntity
8
0
100
AcDbLine
10
3.00040895021748
20
3.4967654318902565e-16
30
0
11
1.5004089502174798
21
3.4967654318902565e-16
31
0
0
LINE
5
126
100
AcDbEntity
8
0
100
AcDbLine
10
2.4895910497825229
20
9.2226408596234482
30
0
11
4.7895910497825191
21
9.2226408596234375
31
0
0
LINE
5
127
100
AcDbEntity
8
0
100
AcDbLine
10
4.7895910497825191
20
0
30
0
11
4.7895910497825191
21
0.99999999999999856
31
0
0
LINE
5
128
100
AcDbEntity
8
0
100
AcDbLine
10
-0.73959104978251378
20
9.2226408596234357
30
0
11
0.73959104978251922
21
9.2226408596234446
31
0
0
LINE
5
129
100
AcDbEntity
8
0
100
AcDbLine
10
4.7895910497825191
20
0.99999999999999856
30
0
11
4.7895910497825191
21
2.9176921191854737
31
0
0
LINE
5
130
100
AcDbEntity
8
0
100
AcDbLine
10
3.5091842065369194
20
12.74129885707633
30
0
11
0
21
16.999999744685613
31
0
0
LINE
5
131
100
AcDbEntity
8
0
100
AcDbLine
10
-0.73959104978251644
20
10.728733838241309
30
0
11
0.73959104978252121
21
10.728733838241299
31
0
0
LINE
5
132
100
AcDbEntity
8
0
100
AcDbLine
10
2.581221597082765e-15
20
7.5923992945333421
30
0
11
-2.4895910497825189
21
9.2226408596234322
31
0
0
LINE
5
133
100
AcDbEntity
8
0
100
AcDbLine
10
2.4895910497825229
20
12.234826816859181
30
0
11
4.7895910497825227
21
12.234826816859181
31
0
0
LINE
5
134
100
AcDbEntity
8
0
100
AcDbLine
10
3.00040895021748
20
0.99999999999999944
30
0
11
4.7895910497825191
21
0.99999999999999856
31
0
0
LINE
5
135
100
AcDbEntity
8
0
100
AcDbLine
10
4.7895910497825191
20
12.234826816859185
30
0
11
3.5091842065369194
21
12.74129885707633
31
0
0
LWPOLYLINE
5
136
100
AcDbEntity
8
0
100
AcDbPolyline
90
4
70
1
43
0.0
10
4.9145910497825191
20
12.185382372414741
10
4.7895910497825191
20
12.234826816859185
10
4.7895910497825191
20
0
10
4.9145910497825191
20
0
0
LINE
5
137
100
AcDbEntity
8
0
100
AcDbLine
10
4.7895910497825191
20
0
30
0
11
4.7895910497825191
21
12.234826816859185
31
0
0
LINE
5
138
100
AcDbEntity
8
0
100
AcDbLine
10
2.4895910497825229
20
12.234826816859181
30
0
11
2.4895910497825229
21
10.728733838241286
31
0
0
LINE
5
139
100
AcDbEntity
8
0
100
AcDbLine
10
4.7895910497825191
20
0
30
0
11
3.00040895021748
21
3.4967654318902565e-16
31
0
0
LINE
5
140
100
AcDbEntity
8
0
100
AcDbLine
10
-0.0097123738413267009
20
14.103678065018157
30
0
11
3.5091842065369194
21
12.74129885707633
31
0
0
LWPOLYLINE
5
141
100
AcDbEntity
8
0
100
AcDbPolyline
90
2
70
1
43
0.0
10
-0.0097123738413267009
20
14.103678065018157
10
1.804570324433505
20
14.809996373502518
0
LINE
5
142
100
AcDbEntity
8
0
100
AcDbLine
10
1.5004089502174798
20
0.99999999999999978
30
0
11
1.5004089502174798
21
3.4967654318902565e-16
31
0
0
LWPOLYLINE
5
143
100
AcDbEntity
8
0
100
AcDbPolyline
90
2
70
1
43
0.0
10
1.804570324433505
20
14.809996373502518
10
1.8380095859328287
20
14.823014610760485
0
LINE
5
144
100
AcDbEntity
8
0
100
AcDbLine
10
-2.9995910497825196
20
1.0000000000000011
30
0
11
-1.49959104978252
21
1.0000000000000007
31
0
0
LINE
5
145
100
AcDbEntity
8
0
100
AcDbLine
10
1.804570324433505
20
14.809996373502518
30
0
11
3.5091842065369194
21
12.74129885707633
31
0
0
LINE
5
146
100
AcDbEntity
8
0
100
AcDbLine
10
0.73959104978252321
20
12.234826816859181
30
0
11
2.4895910497825229
21
12.234826816859181
31
0
0
LINE
5
147
100
AcDbEntity
8
0
100
AcDbLine
10
-2.9995910497825191
20
2.9176921191854737
30
0
11
-2.9995910497825196
21
1.0000000000000011
31
0
0
LINE
5
148
100
AcDbEntity
8
0
100
AcDbLine
10
-1.49959104978252
20
1.0000000000000007
30
0
11
0.00040895021747983443
21
1.0000000000000002
31
0
0
LINE
5
149
100
AcDbEntity
8
0
100
AcDbLine
10
-2.9995910497825196
20
0
30
0
11
-4.7895910497825191
21
0
31
0
0
LINE
5
150
100
AcDbEntity
8
0
100
AcDbLine
10
4.4616677302184318
20
12.297326816859183
30
0
11
3.4864066783719418
21
12.683096744034016
31
0
0
LINE
5
151
100
AcDbEntity
8
0
100
AcDbLine
10
-2.4895910497825189
20
7.5923992945333376
30
0
11
-4.7895910497825191
21
7.5923992945333376
31
0
0
LINE
5
152
100
AcDbEntity
8
0
100
AcDbLine
10
2.4895910497825233
20
5.8277754643456303
30
0
11
4.7895910497825191
21
7.5923992945333687
31
0
0
LINE
5
153
100
AcDbEntity
8
0
100
AcDbLine
10
-4.7895910497825191
20
0
30
0
11
-4.7895910497825191
21
12.234826816859181
31
0
0
LINE
5
154
100
AcDbEntity
8
0
100
AcDbLine
10
4.7895910497825209
20
3.9176921191854777
30
0
11
4.7895910497825191
21
7.5923992945333687
31
0
0
LINE
5
155
100
AcDbEntity
8
0
100
AcDbLine
10
-4.7895910497825191
20
3.9176921191854732
30
0
11
-4.7895910497825191
21
2.9176921191854737
31
0
0
LINE
5
156
100
AcDbEntity
8
0
100
AcDbLine
10
-2.9995910497825196
20
3.9176921191854741
30
0
11
-2.9995910497825191
21
2.9176921191854737
31
0
0
LINE
5
157
100
AcDbEntity
8
0
100
AcDbLine
10
-2.4895910497825189
20
9.2226408596234322
30
0
11
-4.7895910497825191
21
9.2226408596234322
31
0
0
LINE
5
158
100
AcDbEntity
8
0
100
AcDbLine
10
2.4895910497825238
20
3.9176921191854768
30
0
11
3.0004089502174822
21
3.9176921191854768
31
0
0
LINE
5
159
100
AcDbEntity
8
0
100
AcDbLine
10
4.7895910497825191
20
7.5923992945333687
30
0
11
2.4895910497825233
21
7.5923992945333643
31
0
0
LINE
5
160
100
AcDbEntity
8
0
100
AcDbLine
10
0
20
16.999999744685613
30
0
11
-3.5091842065369194
21
12.74129885707633
31
0
0
LINE
5
161
100
AcDbEntity
8
0
100
AcDbLine
10
4.7895910497825218
20
10.728733838241268
30
0
11
2.4895910497825229
21
9.2226408596234446
31
0
0
LINE
5
162
100
AcDbEntity
8
0
100
AcDbLine
10
-4.7895910497825191
20
12.234826816859181
30
0
11
-3.5091842065369194
21
12.74129885707633
31
0
0
LINE
5
163
100
AcDbEntity
8
0
100
AcDbLine
10
-3.5091842065369194
20
12.74129885707633
30
0
11
-0.0097123738413267009
21
14.103678065018157
31
0
0
LINE
5
164
100
AcDbEntity
8
0
100
AcDbLine
10
-4.7895910497825191
20
12.234826816859181
30
0
11
-2.4895910497825193
21
12.234826816859181
31
0
0
LINE
5
165
100
AcDbEntity
8
0
100
AcDbLine
10
2.4895910497825229
20
9.2226408596234446
30
0
11
2.581221597082765e-15
21
7.5923992945333421
31
0
0
ENDSEC
0
SECTION
2
OBJECTS
0
DICTIONARY
5
C
100
AcDbDictionary
3
ACAD_GROUP
350
D
3
ACAD_MLINESTYLE
350
17
0
DICTIONARY
5
D
100
AcDbDictionary
0
DICTIONARY
5
1A
330
C
100
AcDbDictionary
0
DICTIONARY
5
17
100
AcDbDictionary
0
ENDSEC
0
EOF
