999
"DXF R12 Output" (www.mydxf.blogspot.com)
 0 
SECTION
 2 
HEADER
 9 
$ACADVER
 1 
AC1009
 9 
$EXTMIN
 10 
 0 
 20 
 0 
 9 
$EXTMAX
 10 
 8.5 
 20 
 11 
 0 
ENDSEC
 0 
SECTION
 2 
ENTITIES
0
LINE
8
Layer 1
10
0.793749
20
661.193749
11
-0.793749
21
659.606251
0
LINE
8
Layer 1
10
0.000000
20
661.722915
11
0.000000
21
659.077085
0
LINE
8
Layer 1
10
2.116664
20
659.341668
11
1.058332
21
658.283336
0
LINE
8
Layer 1
10
1.587498
20
659.870834
11
0.529166
21
658.812502
0
LINE
8
Layer 1
10
1.058332
20
660.400000
11
0.000000
21
659.341668
0
LINE
8
MODELSKETCH_VISIBLE
10
305.346694
20
550.271181
11
337.354094
21
487.250156
0
LINE
8
MODELSKETCH_VISIBLE
10
337.354094
20
358.953868
11
337.354094
21
411.449773
0
LINE
8
MODELSKETCH_VISIBLE
10
337.354094
20
358.953868
11
361.947507
21
310.529887
0
LINE
8
MODELSKETCH_VISIBLE
10
312.760680
20
310.529887
11
337.354094
21
358.953868
0
LINE
8
MODELSKETCH_VISIBLE
10
234.841400
20
411.449773
11
286.097752
21
310.529887
0
LINE
8
MODELSKETCH_VISIBLE
10
286.097752
20
310.529887
11
337.354094
21
411.449773
0
LINE
8
MODELSKETCH_VISIBLE
10
337.354094
20
411.449773
11
234.841400
21
411.449773
0
LINE
8
MODELSKETCH_VISIBLE
10
361.947507
20
310.529887
11
337.354094
21
262.105906
0
LINE
8
MODELSKETCH_VISIBLE
10
337.354094
20
262.105906
11
312.760680
21
310.529887
0
LINE
8
MODELSKETCH_VISIBLE
10
388.610435
20
310.529887
11
337.354094
21
411.449773
0
LINE
8
MODELSKETCH_VISIBLE
10
439.866777
20
411.449773
11
388.610435
21
310.529887
0
LINE
8
MODELSKETCH_VISIBLE
10
234.841400
20
411.449773
11
439.866777
21
411.449773
0
LINE
8
MODELSKETCH_VISIBLE
10
337.354094
20
613.292206
11
642.153710
21
13.159762
0
LINE
8
MODELSKETCH_VISIBLE
10
337.354094
20
209.609993
11
286.097752
21
310.529887
0
LINE
8
MODELSKETCH_VISIBLE
10
32.554467
20
13.159762
11
337.354094
21
613.292206
0
LINE
8
MODELSKETCH_VISIBLE
10
234.841400
20
209.609993
11
183.585058
21
310.529887
0
LINE
8
MODELSKETCH_VISIBLE
10
642.153710
20
13.159762
11
32.554467
21
13.159762
0
LINE
8
MODELSKETCH_VISIBLE
10
286.097752
20
310.529887
11
234.841400
21
209.609993
0
LINE
8
MODELSKETCH_VISIBLE
10
337.354094
20
133.809610
11
298.856473
21
209.609993
0
LINE
8
MODELSKETCH_VISIBLE
10
442.605476
20
13.159762
11
491.123119
21
108.687454
0
LINE
8
MODELSKETCH_VISIBLE
10
132.328716
20
13.159762
11
182.215841
21
111.383555
0
LINE
8
MODELSKETCH_VISIBLE
10
391.348869
20
114.079655
11
442.605476
21
13.159762
0
LINE
8
MODELSKETCH_VISIBLE
10
542.379460
20
13.159762
11
592.266585
21
111.383555
0
LINE
8
MODELSKETCH_VISIBLE
10
232.102701
20
13.159762
11
283.359318
21
114.079655
0
LINE
8
MODELSKETCH_VISIBLE
10
492.492336
20
111.383555
11
542.379460
21
13.159762
0
LINE
8
MODELSKETCH_VISIBLE
10
183.585058
20
108.687454
11
232.102701
21
13.159762
0
LINE
8
MODELSKETCH_VISIBLE
10
82.441592
20
111.383555
11
132.328716
21
13.159762
0
LINE
8
MODELSKETCH_VISIBLE
10
370.730974
20
73.484686
11
439.866777
21
209.609993
0
LINE
8
MODELSKETCH_VISIBLE
10
266.848809
20
474.470798
11
298.856473
21
411.449773
0
LINE
8
MODELSKETCH_VISIBLE
10
337.354094
20
487.250156
11
369.361493
21
550.271181
0
LINE
8
MODELSKETCH_VISIBLE
10
298.856473
20
411.449773
11
337.354094
21
487.250156
0
LINE
8
MODELSKETCH_VISIBLE
10
337.354094
20
487.250156
11
375.851714
21
411.449773
0
LINE
8
MODELSKETCH_VISIBLE
10
375.851714
20
411.449773
11
407.859378
21
474.470798
0
LINE
8
MODELSKETCH_VISIBLE
10
183.585058
20
108.687454
11
234.841400
21
209.609993
0
LINE
8
MODELSKETCH_VISIBLE
10
132.328716
20
209.609993
11
337.354094
21
209.609993
0
LINE
8
MODELSKETCH_VISIBLE
10
298.856473
20
209.609993
11
337.354094
21
133.809610
0
LINE
8
MODELSKETCH_VISIBLE
10
542.379460
20
209.609993
11
337.354094
21
209.609993
0
LINE
8
MODELSKETCH_VISIBLE
10
337.354094
20
133.809610
11
375.851714
21
209.609993
0
LINE
8
MODELSKETCH_VISIBLE
10
183.585058
20
108.687454
11
132.328716
21
209.609993
0
LINE
8
MODELSKETCH_VISIBLE
10
337.354094
20
209.609993
11
542.379460
21
209.609993
0
LINE
8
MODELSKETCH_VISIBLE
10
234.841400
20
209.609993
11
303.977213
21
73.484686
0
LINE
8
MODELSKETCH_VISIBLE
10
337.354094
20
209.609993
11
132.328716
21
209.609993
0
LINE
8
MODELSKETCH_VISIBLE
10
439.866777
20
209.609993
11
491.123119
21
108.687454
0
LINE
8
MODELSKETCH_VISIBLE
10
337.354094
20
209.609993
11
337.354094
21
262.105906
0
LINE
8
MODELSKETCH_VISIBLE
10
491.123119
20
108.687454
11
542.379460
21
209.609993
0
LINE
8
MODELSKETCH_VISIBLE
10
270.600596
20
13.159762
11
337.354094
21
133.809610
0
LINE
8
MODELSKETCH_VISIBLE
10
183.585058
20
310.529887
11
491.123119
21
310.529887
0
LINE
8
MODELSKETCH_VISIBLE
10
337.354094
20
57.609706
11
337.354094
21
133.809610
0
LINE
8
MODELSKETCH_VISIBLE
10
491.123119
20
310.529887
11
439.866777
21
209.609993
0
LINE
8
MODELSKETCH_VISIBLE
10
404.107591
20
13.159762
11
337.354094
21
133.809610
0
LINE
8
MODELSKETCH_VISIBLE
10
439.866777
20
209.609993
11
388.610435
21
310.529887
0
LINE
8
MODELSKETCH_VISIBLE
10
337.354094
20
57.609706
11
361.947507
21
13.159762
0
LINE
8
MODELSKETCH_VISIBLE
10
388.610435
20
310.529887
11
337.354094
21
209.609993
0
LINE
8
MODELSKETCH_VISIBLE
10
312.760680
20
13.159762
11
337.354094
21
57.609706
 0 
ENDSEC
 0 
EOF