999
"DXF R12 Output" (www.mydxf.blogspot.com)
 0 
SECTION
 2 
HEADER
 9 
$ACADVER
 1 
AC1009
 9 
$EXTMIN
 10 
 0 
 20 
 0 
 9 
$EXTMAX
 10 
 8.5 
 20 
 11 
 0 
ENDSEC
 0 
SECTION
 2 
ENTITIES
0
LINE
8
Layer 1
10
0.793749
20
280.193749
11
-0.793749
21
278.606251
0
LINE
8
Layer 1
10
0.000000
20
280.722915
11
0.000000
21
278.077085
0
LINE
8
Layer 1
10
2.116664
20
278.341668
11
1.058332
21
277.283336
0
LINE
8
Layer 1
10
1.587498
20
278.870834
11
0.529166
21
277.812502
0
LINE
8
Layer 1
10
1.058332
20
279.400000
11
0.000000
21
278.341668
0
LINE
8
MODELSKETCH_VISIBLE
10
197.608960
20
110.076831
11
118.340491
21
52.195781
0
LINE
8
MODELSKETCH_VISIBLE
10
172.531648
20
159.293820
11
338.080718
21
212.648014
0
LINE
8
MODELSKETCH_VISIBLE
10
79.112061
20
129.185915
11
172.531648
21
159.293820
0
LINE
8
MODELSKETCH_VISIBLE
10
115.882240
20
270.474532
11
172.531648
21
159.293820
0
LINE
8
MODELSKETCH_VISIBLE
10
254.258371
20
-1.103885
11
197.608960
21
110.076831
0
LINE
8
MODELSKETCH_VISIBLE
10
254.258371
20
-1.103885
11
338.080718
21
212.648014
0
LINE
8
MODELSKETCH_VISIBLE
10
118.340491
20
52.195781
11
254.258371
21
-1.103885
0
LINE
8
MODELSKETCH_VISIBLE
10
115.882240
20
270.474532
11
338.080718
21
212.648014
0
LINE
8
MODELSKETCH_VISIBLE
10
79.112061
20
129.185915
11
115.882240
21
270.474532
0
LINE
8
MODELSKETCH_VISIBLE
10
-93.455827
20
20.371023
11
-42.685472
21
18.637952
0
LINE
8
MODELSKETCH_VISIBLE
10
56.085468
20
-273.120345
11
-55.600887
21
-53.923542
0
LINE
8
MODELSKETCH_VISIBLE
10
452.431268
20
270.912549
11
56.085468
21
-273.120345
0
LINE
8
MODELSKETCH_VISIBLE
10
-220.666778
20
270.036568
11
452.431268
21
270.912549
0
LINE
8
MODELSKETCH_VISIBLE
10
118.340491
20
52.195781
11
39.072022
21
-5.685272
0
LINE
8
MODELSKETCH_VISIBLE
10
57.645320
20
69.759065
11
1.217071
21
68.609267
0
LINE
8
MODELSKETCH_VISIBLE
10
-14.307529
20
99.078010
11
79.112061
21
129.185915
0
LINE
8
MODELSKETCH_VISIBLE
10
338.080718
20
212.648014
11
197.608960
21
110.076831
0
LINE
8
MODELSKETCH_VISIBLE
10
-108.980447
20
50.839740
11
12.382247
21
46.696370
0
LINE
8
MODELSKETCH_VISIBLE
10
-14.307529
20
99.078010
11
7.194068
21
270.332901
0
LINE
8
MODELSKETCH_VISIBLE
10
12.382247
20
46.696370
11
-55.600887
21
-53.923542
0
LINE
8
MODELSKETCH_VISIBLE
10
39.072022
20
-5.685272
11
190.258481
21
-88.951209
0
LINE
8
MODELSKETCH_VISIBLE
10
-101.493991
20
270.191058
11
-108.980447
21
50.839740
0
LINE
8
MODELSKETCH_VISIBLE
10
-14.307529
20
99.078010
11
1.217071
21
68.609267
0
LINE
8
MODELSKETCH_VISIBLE
10
39.072022
20
-5.685272
11
126.258473
21
-176.798321
0
LINE
8
MODELSKETCH_VISIBLE
10
23.547424
20
24.783474
11
39.072022
21
-5.685272
0
LINE
8
MODELSKETCH_VISIBLE
10
1.217071
20
68.609267
11
23.547424
21
24.783474
0
LINE
8
MODELSKETCH_VISIBLE
10
-55.600887
20
-53.923542
11
126.258473
21
-176.798321
0
LINE
8
MODELSKETCH_VISIBLE
10
-42.685472
20
18.637952
11
-71.125485
21
-23.454772
0
LINE
8
MODELSKETCH_VISIBLE
10
12.382247
20
46.696370
11
-42.685472
21
18.637952
0
LINE
8
MODELSKETCH_VISIBLE
10
-101.493991
20
270.191058
11
-14.307529
21
99.078010
0
LINE
8
MODELSKETCH_VISIBLE
10
-108.980447
20
50.839740
11
-220.666778
21
270.036568
0
LINE
8
MODELSKETCH_VISIBLE
10
308.489014
20
270.725039
11
367.672421
21
154.571013
0
LINE
8
MODELSKETCH_VISIBLE
10
-55.600887
20
-53.923542
11
-71.125485
21
-23.454772
0
LINE
8
MODELSKETCH_VISIBLE
10
356.470506
20
270.788010
11
395.926208
21
193.351843
0
LINE
8
MODELSKETCH_VISIBLE
10
-93.455827
20
20.371023
11
-108.980447
21
50.839740
0
LINE
8
MODELSKETCH_VISIBLE
10
356.470506
20
270.788010
11
328.216799
21
232.007023
0
LINE
8
MODELSKETCH_VISIBLE
10
-71.125485
20
-23.454772
11
-93.455827
21
20.371023
0
LINE
8
MODELSKETCH_VISIBLE
10
328.216799
20
232.007023
11
376.198344
21
232.069940
0
LINE
8
MODELSKETCH_VISIBLE
10
1.217071
20
68.609267
11
23.547424
21
24.783474
0
LINE
8
MODELSKETCH_VISIBLE
10
376.198344
20
232.069940
11
347.944637
21
193.289005
0
LINE
8
MODELSKETCH_VISIBLE
10
23.547424
20
24.783474
11
57.645320
21
69.759065
0
LINE
8
MODELSKETCH_VISIBLE
10
347.944637
20
193.289005
11
395.926208
21
193.351843
0
LINE
8
MODELSKETCH_VISIBLE
10
190.258481
20
-88.951209
11
118.340491
21
52.195781
0
LINE
8
MODELSKETCH_VISIBLE
10
7.194068
20
270.332901
11
79.112061
21
129.185915
0
LINE
8
MODELSKETCH_VISIBLE
10
308.489014
20
270.725039
11
367.672421
21
154.571013
0
LINE
8
MODELSKETCH_VISIBLE
10
57.645320
20
69.759065
11
338.080718
21
212.648014
 0 
ENDSEC
 0 
EOF