999
"DXF R12 Output" (www.mydxf.blogspot.com)
 0 
SECTION
 2 
HEADER
 9 
$ACADVER
 1 
AC1009
 9 
$EXTMIN
 10 
 0 
 20 
 0 
 9 
$EXTMAX
 10 
 8.5 
 20 
 11 
 0 
ENDSEC
 0 
SECTION
 2 
ENTITIES
0
LINE
8
Layer 1
10
0.793749
20
280.193749
11
-0.793749
21
278.606251
0
LINE
8
Layer 1
10
0.000000
20
280.722915
11
0.000000
21
278.077085
0
LINE
8
Layer 1
10
2.116664
20
278.341668
11
1.058332
21
277.283336
0
LINE
8
Layer 1
10
1.587498
20
278.870834
11
0.529166
21
277.812502
0
LINE
8
Layer 1
10
1.058332
20
279.400000
11
0.000000
21
278.341668
0
LINE
8
MODELSKETCH_VISIBLE
10
156.586442
20
5.550589
11
121.560630
21
66.217082
0
LINE
8
MODELSKETCH_VISIBLE
10
216.205673
20
-97.712954
11
156.586442
21
5.550589
0
LINE
8
MODELSKETCH_VISIBLE
10
317.026182
20
69.782496
11
216.205673
21
-97.712954
0
LINE
8
MODELSKETCH_VISIBLE
10
688.613082
20
284.318296
11
321.282952
21
-279.712139
0
LINE
8
MODELSKETCH_VISIBLE
10
207.377936
20
6.477053
11
317.026182
21
69.782496
0
LINE
8
MODELSKETCH_VISIBLE
10
321.282952
20
-279.712139
11
216.205673
21
-97.712954
0
LINE
8
MODELSKETCH_VISIBLE
10
156.586442
20
5.550589
11
207.377936
21
6.477053
0
LINE
8
MODELSKETCH_VISIBLE
10
207.377936
20
6.477053
11
181.179856
21
-37.046454
0
LINE
8
MODELSKETCH_VISIBLE
10
121.560630
20
66.217082
11
86.534868
21
126.883482
0
LINE
8
MODELSKETCH_VISIBLE
10
86.433533
20
251.973951
11
196.432393
21
257.882028
0
LINE
8
MODELSKETCH_VISIBLE
10
196.432393
20
257.882028
11
306.430982
21
263.790555
0
LINE
8
MODELSKETCH_VISIBLE
10
317.026182
20
69.782496
11
121.560630
21
66.217082
0
LINE
8
MODELSKETCH_VISIBLE
10
504.385791
20
177.954607
11
539.858460
21
55.908753
0
LINE
8
MODELSKETCH_VISIBLE
10
441.932588
20
141.897236
11
410.705973
21
123.868551
0
LINE
8
MODELSKETCH_VISIBLE
10
479.744515
20
-36.397273
11
473.159176
21
159.925922
0
LINE
8
MODELSKETCH_VISIBLE
10
348.252796
20
87.811182
11
86.534868
21
126.883482
0
LINE
8
MODELSKETCH_VISIBLE
10
599.974708
20
148.216076
11
535.612380
21
195.983293
0
LINE
8
MODELSKETCH_VISIBLE
10
526.425926
20
275.606303
11
688.613082
21
284.318296
0
LINE
8
MODELSKETCH_VISIBLE
10
416.427316
20
269.697770
11
526.425926
21
275.606303
0
LINE
8
MODELSKETCH_VISIBLE
10
306.430982
20
263.790555
11
416.427316
21
269.697770
0
LINE
8
MODELSKETCH_VISIBLE
10
410.705973
20
123.868551
11
86.433533
21
251.973951
0
LINE
8
MODELSKETCH_VISIBLE
10
16.483343
20
248.216282
11
86.433533
21
251.973951
0
LINE
8
MODELSKETCH_VISIBLE
10
379.479385
20
105.839865
11
348.252796
21
87.811182
0
LINE
8
MODELSKETCH_VISIBLE
10
688.613082
20
284.318296
11
535.612380
21
195.983293
0
LINE
8
MODELSKETCH_VISIBLE
10
348.252796
20
87.811182
11
317.026182
21
69.782496
0
LINE
8
MODELSKETCH_VISIBLE
10
526.425926
20
275.606303
11
535.612380
21
195.983293
0
LINE
8
MODELSKETCH_VISIBLE
10
410.705973
20
123.868551
11
379.479385
21
105.839865
0
LINE
8
MODELSKETCH_VISIBLE
10
535.612380
20
195.983293
11
504.385791
21
177.954607
0
LINE
8
MODELSKETCH_VISIBLE
10
441.932588
20
141.897236
11
473.159176
21
159.925922
0
LINE
8
MODELSKETCH_VISIBLE
10
504.385791
20
177.954607
11
416.427316
21
269.697770
0
LINE
8
MODELSKETCH_VISIBLE
10
504.385791
20
177.954607
11
473.159176
21
159.925922
0
LINE
8
MODELSKETCH_VISIBLE
10
306.430982
20
263.790555
11
473.159176
21
159.925922
0
LINE
8
MODELSKETCH_VISIBLE
10
86.534868
20
126.883482
11
51.509106
21
187.549882
0
LINE
8
MODELSKETCH_VISIBLE
10
441.932588
20
141.897236
11
196.432393
21
257.882028
0
LINE
8
MODELSKETCH_VISIBLE
10
51.509106
20
187.549882
11
16.483343
21
248.216282
0
LINE
8
MODELSKETCH_VISIBLE
10
379.479385
20
105.839865
11
51.509106
21
187.549882
0
LINE
8
MODELSKETCH_VISIBLE
10
441.932588
20
141.897236
11
419.628268
21
-128.704567
0
LINE
8
MODELSKETCH_VISIBLE
10
410.705973
20
123.868551
11
359.512285
21
-221.012337
0
LINE
8
MODELSKETCH_VISIBLE
10
379.479385
20
105.839865
11
286.257190
21
-219.045718
0
LINE
8
MODELSKETCH_VISIBLE
10
348.252796
20
87.811182
11
251.231430
21
-158.379323
 0 
ENDSEC
 0 
EOF