999
"DXF R12 Output" (www.mydxf.blogspot.com)
 0 
SECTION
 2 
HEADER
 9 
$ACADVER
 1 
AC1009
 9 
$EXTMIN
 10 
 0 
 20 
 0 
 9 
$EXTMAX
 10 
 8.5 
 20 
 11 
 0 
ENDSEC
 0 
SECTION
 2 
ENTITIES
0
LINE
8
Layer 1
10
0.793749
20
661.193749
11
-0.793749
21
659.606251
0
LINE
8
Layer 1
10
0.000000
20
661.722915
11
0.000000
21
659.077085
0
LINE
8
Layer 1
10
2.116664
20
659.341668
11
1.058332
21
658.283336
0
LINE
8
Layer 1
10
1.587498
20
659.870834
11
0.529166
21
658.812502
0
LINE
8
Layer 1
10
1.058332
20
660.400000
11
0.000000
21
659.341668
0
LINE
8
Layer 1
10
414.721946
20
645.535415
11
450.994090
21
645.535415
0
LINE
8
Layer 1
10
450.994090
20
645.535415
11
450.994090
21
611.247840
0
LINE
8
Layer 1
10
450.994090
20
611.247840
11
414.721946
21
611.247840
0
LINE
8
Layer 1
10
414.721946
20
611.247840
11
414.721946
21
645.535415
0
LINE
8
Layer 1
10
414.721946
20
645.535415
11
450.994090
21
645.535415
0
LINE
8
Layer 1
10
450.994090
20
645.535415
11
450.994090
21
611.247840
0
LINE
8
Layer 1
10
450.994090
20
611.247840
11
414.721946
21
611.247840
0
LINE
8
Layer 1
10
414.721946
20
611.247840
11
414.721946
21
645.535415
0
LINE
8
Layer 1
10
414.721946
20
645.535415
11
450.994090
21
645.535415
0
LINE
8
Layer 1
10
450.994090
20
645.535415
11
450.994090
21
611.247840
0
LINE
8
Layer 1
10
450.994090
20
611.247840
11
414.721946
21
611.247840
0
LINE
8
Layer 1
10
414.721946
20
611.247840
11
414.721946
21
645.535415
0
LINE
8
Layer 1
10
414.721946
20
645.535415
11
450.994090
21
645.535415
0
LINE
8
Layer 1
10
450.994090
20
645.535415
11
450.994090
21
611.247840
0
LINE
8
Layer 1
10
450.994090
20
611.247840
11
414.721946
21
611.247840
0
LINE
8
Layer 1
10
414.721946
20
611.247840
11
414.721946
21
645.535415
0
LINE
8
Layer 1
10
414.721946
20
645.535415
11
450.994090
21
645.535415
0
LINE
8
Layer 1
10
450.994090
20
645.535415
11
450.994090
21
611.247840
0
LINE
8
Layer 1
10
450.994090
20
611.247840
11
414.721946
21
611.247840
0
LINE
8
Layer 1
10
414.721946
20
611.247840
11
414.721946
21
645.535415
0
LINE
8
Layer 1
10
414.721946
20
645.535415
11
450.994090
21
645.535415
0
LINE
8
Layer 1
10
450.994090
20
645.535415
11
450.994090
21
611.247840
0
LINE
8
Layer 1
10
450.994090
20
611.247840
11
414.721946
21
611.247840
0
LINE
8
Layer 1
10
414.721946
20
611.247840
11
414.721946
21
645.535415
0
LINE
8
Layer 1
10
414.721946
20
645.535415
11
450.994090
21
645.535415
0
LINE
8
Layer 1
10
450.994090
20
645.535415
11
450.994090
21
611.247840
0
LINE
8
Layer 1
10
450.994090
20
611.247840
11
414.721946
21
611.247840
0
LINE
8
Layer 1
10
414.721946
20
611.247840
11
414.721946
21
645.535415
0
LINE
8
Layer 1
10
414.721946
20
645.535415
11
450.994090
21
645.535415
0
LINE
8
Layer 1
10
450.994090
20
645.535415
11
450.994090
21
611.247840
0
LINE
8
Layer 1
10
450.994090
20
611.247840
11
414.721946
21
611.247840
0
LINE
8
Layer 1
10
414.721946
20
611.247840
11
414.721946
21
645.535415
0
LINE
8
Layer 1
10
414.721946
20
645.535415
11
450.994090
21
645.535415
0
LINE
8
Layer 1
10
450.994090
20
645.535415
11
450.994090
21
611.247840
0
LINE
8
Layer 1
10
450.994090
20
611.247840
11
414.721946
21
611.247840
0
LINE
8
Layer 1
10
414.721946
20
611.247840
11
414.721946
21
645.535415
0
LINE
8
Layer 1
10
414.721946
20
645.535415
11
450.994090
21
645.535415
0
LINE
8
Layer 1
10
450.994090
20
645.535415
11
450.994090
21
611.247840
0
LINE
8
Layer 1
10
450.994090
20
611.247840
11
414.721946
21
611.247840
0
LINE
8
Layer 1
10
414.721946
20
611.247840
11
414.721946
21
645.535415
0
LINE
8
Layer 1
10
414.721946
20
645.535415
11
450.994090
21
645.535415
0
LINE
8
Layer 1
10
450.994090
20
645.535415
11
450.994090
21
611.247840
0
LINE
8
Layer 1
10
450.994090
20
611.247840
11
414.721946
21
611.247840
0
LINE
8
Layer 1
10
414.721946
20
611.247840
11
414.721946
21
645.535415
0
LINE
8
Layer 1
10
414.721946
20
645.535415
11
450.994090
21
645.535415
0
LINE
8
Layer 1
10
450.994090
20
645.535415
11
450.994090
21
611.247840
0
LINE
8
Layer 1
10
450.994090
20
611.247840
11
414.721946
21
611.247840
0
LINE
8
Layer 1
10
414.721946
20
611.247840
11
414.721946
21
645.535415
0
LINE
8
Layer 1
10
414.721946
20
645.535415
11
450.994090
21
645.535415
0
LINE
8
Layer 1
10
450.994090
20
645.535415
11
450.994090
21
611.247840
0
LINE
8
Layer 1
10
450.994090
20
611.247840
11
414.721946
21
611.247840
0
LINE
8
Layer 1
10
414.721946
20
611.247840
11
414.721946
21
645.535415
0
LINE
8
Layer 1
10
414.721946
20
645.535415
11
450.994090
21
645.535415
0
LINE
8
Layer 1
10
450.994090
20
645.535415
11
450.994090
21
611.247840
0
LINE
8
Layer 1
10
450.994090
20
611.247840
11
414.721946
21
611.247840
0
LINE
8
Layer 1
10
414.721946
20
611.247840
11
414.721946
21
645.535415
0
LINE
8
Layer 1
10
414.721946
20
645.535415
11
450.994090
21
645.535415
0
LINE
8
Layer 1
10
450.994090
20
645.535415
11
450.994090
21
611.247840
0
LINE
8
Layer 1
10
450.994090
20
611.247840
11
414.721946
21
611.247840
0
LINE
8
Layer 1
10
414.721946
20
611.247840
11
414.721946
21
645.535415
0
LINE
8
Layer 1
10
414.721946
20
645.535415
11
450.994090
21
645.535415
0
LINE
8
Layer 1
10
450.994090
20
645.535415
11
450.994090
21
611.247840
0
LINE
8
Layer 1
10
450.994090
20
611.247840
11
414.721946
21
611.247840
0
LINE
8
Layer 1
10
414.721946
20
611.247840
11
414.721946
21
645.535415
0
LINE
8
Layer 1
10
414.721946
20
645.535415
11
450.994090
21
645.535415
0
LINE
8
Layer 1
10
450.994090
20
645.535415
11
450.994090
21
611.247840
0
LINE
8
Layer 1
10
450.994090
20
611.247840
11
414.721946
21
611.247840
0
LINE
8
Layer 1
10
414.721946
20
611.247840
11
414.721946
21
645.535415
0
LINE
8
Layer 1
10
414.721946
20
645.535415
11
450.994090
21
645.535415
0
LINE
8
Layer 1
10
450.994090
20
645.535415
11
450.994090
21
611.247840
0
LINE
8
Layer 1
10
450.994090
20
611.247840
11
414.721946
21
611.247840
0
LINE
8
Layer 1
10
414.721946
20
611.247840
11
414.721946
21
645.535415
0
LINE
8
Layer 1
10
414.721946
20
645.535415
11
450.994090
21
645.535415
0
LINE
8
Layer 1
10
450.994090
20
645.535415
11
450.994090
21
611.247840
0
LINE
8
Layer 1
10
450.994090
20
611.247840
11
414.721946
21
611.247840
0
LINE
8
Layer 1
10
414.721946
20
611.247840
11
414.721946
21
645.535415
0
LINE
8
MODELSKETCH_VISIBLE
10
313.696325
20
38.118749
11
243.644703
21
38.118749
0
LINE
8
MODELSKETCH_VISIBLE
10
432.934782
20
38.118749
11
313.696325
21
38.118749
0
LINE
8
MODELSKETCH_VISIBLE
10
338.289738
20
209.179596
11
432.934782
21
38.118749
0
LINE
8
MODELSKETCH_VISIBLE
10
338.289738
20
638.251190
11
643.089354
21
38.118749
0
LINE
8
MODELSKETCH_VISIBLE
10
338.289738
20
82.568693
11
338.289738
21
209.179596
0
LINE
8
MODELSKETCH_VISIBLE
10
643.089354
20
38.118749
11
432.934782
21
38.118749
0
LINE
8
MODELSKETCH_VISIBLE
10
313.696325
20
38.118749
11
338.289738
21
82.568693
0
LINE
8
MODELSKETCH_VISIBLE
10
338.289738
20
82.568693
11
362.883152
21
38.118749
0
LINE
8
MODELSKETCH_VISIBLE
10
243.644703
20
38.118749
11
173.593179
21
38.118749
0
LINE
8
MODELSKETCH_VISIBLE
10
65.210984
20
100.576212
11
115.093878
21
198.792068
0
LINE
8
MODELSKETCH_VISIBLE
10
115.093878
20
198.792068
11
164.976240
21
297.007923
0
LINE
8
MODELSKETCH_VISIBLE
10
338.289738
20
209.179596
11
243.644703
21
38.118749
0
LINE
8
MODELSKETCH_VISIBLE
10
338.289738
20
425.523810
11
461.720883
21
395.221133
0
LINE
8
MODELSKETCH_VISIBLE
10
338.289738
20
353.409081
11
338.289738
21
317.351710
0
LINE
8
MODELSKETCH_VISIBLE
10
511.603245
20
297.007923
11
338.289738
21
389.466452
0
LINE
8
MODELSKETCH_VISIBLE
10
338.289738
20
245.236967
11
173.593179
21
38.118749
0
LINE
8
MODELSKETCH_VISIBLE
10
411.838521
20
493.436975
11
338.289738
21
461.581182
0
LINE
8
MODELSKETCH_VISIBLE
10
264.740956
20
493.436975
11
338.289738
21
638.251190
0
LINE
8
MODELSKETCH_VISIBLE
10
214.858602
20
395.221133
11
264.740956
21
493.436975
0
LINE
8
MODELSKETCH_VISIBLE
10
164.976240
20
297.007923
11
214.858602
21
395.221133
0
LINE
8
MODELSKETCH_VISIBLE
10
338.289738
20
317.351710
11
65.210984
21
100.576212
0
LINE
8
MODELSKETCH_VISIBLE
10
33.490130
20
38.118749
11
65.210984
21
100.576212
0
LINE
8
MODELSKETCH_VISIBLE
10
338.289738
20
281.294339
11
338.289738
21
245.236967
0
LINE
8
MODELSKETCH_VISIBLE
10
338.289738
20
638.251190
11
338.289738
21
461.581182
0
LINE
8
MODELSKETCH_VISIBLE
10
338.289738
20
245.236967
11
338.289738
21
209.179596
0
LINE
8
MODELSKETCH_VISIBLE
10
264.740956
20
493.436975
11
338.289738
21
461.581182
0
LINE
8
MODELSKETCH_VISIBLE
10
338.289738
20
317.351710
11
338.289738
21
281.294339
0
LINE
8
MODELSKETCH_VISIBLE
10
338.289738
20
461.581182
11
338.289738
21
425.523810
0
LINE
8
MODELSKETCH_VISIBLE
10
338.289738
20
353.409081
11
338.289738
21
389.466452
0
LINE
8
MODELSKETCH_VISIBLE
10
338.289738
20
425.523810
11
214.858602
21
395.221133
0
LINE
8
MODELSKETCH_VISIBLE
10
338.289738
20
425.523810
11
338.289738
21
389.466452
0
LINE
8
MODELSKETCH_VISIBLE
10
164.976240
20
297.007923
11
338.289738
21
389.466452
0
LINE
8
MODELSKETCH_VISIBLE
10
173.593179
20
38.118749
11
103.541652
21
38.118749
0
LINE
8
MODELSKETCH_VISIBLE
10
338.289738
20
353.409081
11
115.093878
21
198.792068
0
LINE
8
MODELSKETCH_VISIBLE
10
103.541652
20
38.118749
11
33.490130
21
38.118749
0
LINE
8
MODELSKETCH_VISIBLE
10
338.289738
20
281.294339
11
103.541652
21
38.118749
0
LINE
8
MODELSKETCH_VISIBLE
10
338.289738
20
353.409081
11
561.485607
21
198.792068
0
LINE
8
MODELSKETCH_VISIBLE
10
338.289738
20
317.351710
11
611.368499
21
100.576212
0
LINE
8
MODELSKETCH_VISIBLE
10
338.289738
20
281.294339
11
573.037830
21
38.118749
0
LINE
8
MODELSKETCH_VISIBLE
10
338.289738
20
245.236967
11
502.986306
21
38.118749
0
LINE
8
SECTION_JOG_LINES
10
309.799390
20
503.979649
11
300.080780
21
503.978154
0
LINE
8
SECTION_JOG_LINES
10
300.080780
20
503.978154
11
300.080498
21
505.810941
0
LINE
8
SECTION_JOG_LINES
10
300.080498
20
505.810941
11
303.818421
21
505.811516
0
LINE
8
SECTION_JOG_LINES
10
303.818421
20
505.811516
11
303.816570
21
517.845216
0
LINE
8
SECTION_JOG_LINES
10
303.816570
20
517.845216
11
300.078647
21
517.844641
0
LINE
8
SECTION_JOG_LINES
10
300.078647
20
517.844641
11
300.078395
21
519.484504
0
LINE
8
SECTION_JOG_LINES
10
300.078395
20
519.484504
11
301.706197
21
519.605332
0
LINE
8
SECTION_JOG_LINES
10
301.706197
20
519.605332
11
303.020429
21
519.979327
0
LINE
8
SECTION_JOG_LINES
10
303.020429
20
519.979327
11
303.888488
21
520.739102
0
LINE
8
SECTION_JOG_LINES
10
303.888488
20
520.739102
11
304.144619
21
521.287772
0
LINE
8
SECTION_JOG_LINES
10
304.144619
20
521.287772
11
304.262072
21
521.993173
0
LINE
8
SECTION_JOG_LINES
10
304.262072
20
521.993173
11
306.131033
21
521.993460
0
LINE
8
SECTION_JOG_LINES
10
306.131033
20
521.993460
11
306.133522
21
505.811872
0
LINE
8
SECTION_JOG_LINES
10
306.133522
20
505.811872
11
309.799108
21
505.812436
0
LINE
8
SECTION_JOG_LINES
10
309.799108
20
505.812436
11
309.799390
21
503.979649
0
LINE
8
SECTION_JOG_LINES
10
372.336605
20
503.910806
11
360.182324
21
503.908937
0
LINE
8
SECTION_JOG_LINES
10
360.182324
20
503.908937
11
360.181936
21
506.429021
0
LINE
8
SECTION_JOG_LINES
10
360.181936
20
506.429021
11
362.713741
21
508.599816
0
LINE
8
SECTION_JOG_LINES
10
362.713741
20
508.599816
11
365.088808
21
510.758531
0
LINE
8
SECTION_JOG_LINES
10
365.088808
20
510.758531
11
367.038853
21
512.769471
0
LINE
8
SECTION_JOG_LINES
10
367.038853
20
512.769471
11
368.259474
21
514.316073
0
LINE
8
SECTION_JOG_LINES
10
368.259474
20
514.316073
11
368.901325
21
515.693778
0
LINE
8
SECTION_JOG_LINES
10
368.901325
20
515.693778
11
369.115119
21
517.173908
0
LINE
8
SECTION_JOG_LINES
10
369.115119
20
517.173908
11
368.882815
21
518.418841
0
LINE
8
SECTION_JOG_LINES
10
368.882815
20
518.418841
11
368.186335
21
519.356229
0
LINE
8
SECTION_JOG_LINES
10
368.186335
20
519.356229
11
367.085975
21
519.952922
0
LINE
8
SECTION_JOG_LINES
10
367.085975
20
519.952922
11
365.617905
21
520.151650
0
LINE
8
SECTION_JOG_LINES
10
365.617905
20
520.151650
11
364.475444
21
520.055012
0
LINE
8
SECTION_JOG_LINES
10
364.475444
20
520.055012
11
363.242565
21
519.765434
0
LINE
8
SECTION_JOG_LINES
10
363.242565
20
519.765434
11
361.979587
21
519.276898
0
LINE
8
SECTION_JOG_LINES
10
361.979587
20
519.276898
11
360.746777
21
518.583385
0
LINE
8
SECTION_JOG_LINES
10
360.746777
20
518.583385
11
360.626206
21
518.583366
0
LINE
8
SECTION_JOG_LINES
10
360.626206
20
518.583366
11
360.625817
21
521.115507
0
LINE
8
SECTION_JOG_LINES
10
360.625817
20
521.115507
11
362.904631
21
521.887558
0
LINE
8
SECTION_JOG_LINES
10
362.904631
20
521.887558
11
364.315360
21
522.150032
0
LINE
8
SECTION_JOG_LINES
10
364.315360
20
522.150032
11
365.677883
21
522.237661
0
LINE
8
SECTION_JOG_LINES
10
365.677883
20
522.237661
11
366.983907
21
522.154211
0
LINE
8
SECTION_JOG_LINES
10
366.983907
20
522.154211
11
368.140739
21
521.903435
0
LINE
8
SECTION_JOG_LINES
10
368.140739
20
521.903435
11
369.148378
21
521.485335
0
LINE
8
SECTION_JOG_LINES
10
369.148378
20
521.485335
11
370.006825
21
520.899909
0
LINE
8
SECTION_JOG_LINES
10
370.006825
20
520.899909
11
370.692727
21
520.177300
0
LINE
8
SECTION_JOG_LINES
10
370.692727
20
520.177300
11
371.182708
21
519.335589
0
LINE
8
SECTION_JOG_LINES
10
371.182708
20
519.335589
11
371.476766
21
518.374777
0
LINE
8
SECTION_JOG_LINES
10
371.476766
20
518.374777
11
371.574902
21
517.294864
0
LINE
8
SECTION_JOG_LINES
10
371.574902
20
517.294864
11
371.309926
21
515.377631
0
LINE
8
SECTION_JOG_LINES
10
371.309926
20
515.377631
11
370.550540
21
513.701479
0
LINE
8
SECTION_JOG_LINES
10
370.550540
20
513.701479
11
369.441449
21
512.230253
0
LINE
8
SECTION_JOG_LINES
10
369.441449
20
512.230253
11
367.910342
21
510.626330
0
LINE
8
SECTION_JOG_LINES
10
367.910342
20
510.626330
11
365.245946
21
508.166126
0
LINE
8
SECTION_JOG_LINES
10
365.245946
20
508.166126
11
362.677977
21
505.971208
0
LINE
8
SECTION_JOG_LINES
10
362.677977
20
505.971208
11
372.336288
21
505.972694
0
LINE
8
SECTION_JOG_LINES
10
372.336288
20
505.972694
11
372.336605
21
503.910806
0
LINE
8
SECTION_JOG_LINES
10
270.466388
20
445.053017
11
270.994010
21
444.468295
0
LINE
8
SECTION_JOG_LINES
10
270.994010
20
444.468295
11
271.419167
21
443.750920
0
LINE
8
SECTION_JOG_LINES
10
271.419167
20
443.750920
11
271.699657
21
442.852656
0
LINE
8
SECTION_JOG_LINES
10
271.699657
20
442.852656
11
271.793281
21
441.725264
0
LINE
8
SECTION_JOG_LINES
10
271.793281
20
441.725264
11
271.681928
21
440.546596
0
LINE
8
SECTION_JOG_LINES
10
271.681928
20
440.546596
11
271.347488
21
439.470385
0
LINE
8
SECTION_JOG_LINES
10
271.347488
20
439.470385
11
270.811061
21
438.511705
0
LINE
8
SECTION_JOG_LINES
10
270.811061
20
438.511705
11
270.093745
21
437.685635
0
LINE
8
SECTION_JOG_LINES
10
270.093745
20
437.685635
11
269.108128
21
436.949957
0
LINE
8
SECTION_JOG_LINES
10
269.108128
20
436.949957
11
267.959706
21
436.431294
0
LINE
8
SECTION_JOG_LINES
10
267.959706
20
436.431294
11
266.681617
21
436.132666
0
LINE
8
SECTION_JOG_LINES
10
266.681617
20
436.132666
11
265.282928
21
436.032973
0
LINE
8
SECTION_JOG_LINES
10
265.282928
20
436.032973
11
263.799807
21
436.123179
0
LINE
8
SECTION_JOG_LINES
10
263.799807
20
436.123179
11
262.340762
21
436.394256
0
LINE
8
SECTION_JOG_LINES
10
262.340762
20
436.394256
11
259.965270
21
437.165589
0
LINE
8
SECTION_JOG_LINES
10
259.965270
20
437.165589
11
259.964883
21
439.685674
0
LINE
8
SECTION_JOG_LINES
10
259.964883
20
439.685674
11
260.145725
21
439.685701
0
LINE
8
SECTION_JOG_LINES
10
260.145725
20
439.685701
11
261.261170
21
439.067910
0
LINE
8
SECTION_JOG_LINES
10
261.261170
20
439.067910
11
262.557466
21
438.564696
0
LINE
8
SECTION_JOG_LINES
10
262.557466
20
438.564696
11
263.920054
21
438.230300
0
LINE
8
SECTION_JOG_LINES
10
263.920054
20
438.230300
11
265.234374
21
438.118967
0
LINE
8
SECTION_JOG_LINES
10
265.234374
20
438.118967
11
266.850090
21
438.372430
0
LINE
8
SECTION_JOG_LINES
10
266.850090
20
438.372430
11
267.624761
21
438.686053
0
LINE
8
SECTION_JOG_LINES
10
267.624761
20
438.686053
11
268.236628
21
439.120228
0
LINE
8
SECTION_JOG_LINES
10
268.236628
20
439.120228
11
269.056364
21
440.289964
0
LINE
8
SECTION_JOG_LINES
10
269.056364
20
440.289964
11
269.264255
21
441.013464
0
LINE
8
SECTION_JOG_LINES
10
269.264255
20
441.013464
11
269.333452
21
441.905752
0
LINE
8
SECTION_JOG_LINES
10
269.333452
20
441.905752
11
269.254940
21
442.785962
0
LINE
8
SECTION_JOG_LINES
10
269.254940
20
442.785962
11
269.019703
21
443.497337
0
LINE
8
SECTION_JOG_LINES
10
269.019703
20
443.497337
11
268.657884
21
444.067013
0
LINE
8
SECTION_JOG_LINES
10
268.657884
20
444.067013
11
268.175502
21
444.498006
0
LINE
8
SECTION_JOG_LINES
10
268.175502
20
444.498006
11
267.575578
21
444.811416
0
LINE
8
SECTION_JOG_LINES
10
267.575578
20
444.811416
11
266.861135
21
445.004231
0
LINE
8
SECTION_JOG_LINES
10
266.861135
20
445.004231
11
265.197124
21
445.148668
0
LINE
8
SECTION_JOG_LINES
10
265.197124
20
445.148668
11
264.111910
21
445.148501
0
LINE
8
SECTION_JOG_LINES
10
264.111910
20
445.148501
11
264.111602
21
447.150100
0
LINE
8
SECTION_JOG_LINES
10
264.111602
20
447.150100
11
264.955648
21
447.150230
0
LINE
8
SECTION_JOG_LINES
10
264.955648
20
447.150230
11
266.601517
21
447.340393
0
LINE
8
SECTION_JOG_LINES
10
266.601517
20
447.340393
11
267.873538
21
447.910320
0
LINE
8
SECTION_JOG_LINES
10
267.873538
20
447.910320
11
268.353520
21
448.339954
0
LINE
8
SECTION_JOG_LINES
10
268.353520
20
448.339954
11
268.696331
21
448.856985
0
LINE
8
SECTION_JOG_LINES
10
268.696331
20
448.856985
11
268.901973
21
449.461415
0
LINE
8
SECTION_JOG_LINES
10
268.901973
20
449.461415
11
268.970445
21
450.153242
0
LINE
8
SECTION_JOG_LINES
10
268.970445
20
450.153242
11
268.901017
21
450.762151
0
LINE
8
SECTION_JOG_LINES
10
268.901017
20
450.762151
11
268.692935
21
451.286634
0
LINE
8
SECTION_JOG_LINES
10
268.692935
20
451.286634
11
267.921128
21
452.094389
0
LINE
8
SECTION_JOG_LINES
10
267.921128
20
452.094389
11
266.811744
21
452.528300
0
LINE
8
SECTION_JOG_LINES
10
266.811744
20
452.528300
11
265.473306
21
452.648672
0
LINE
8
SECTION_JOG_LINES
10
265.473306
20
452.648672
11
264.291641
21
452.545999
0
LINE
8
SECTION_JOG_LINES
10
264.291641
20
452.545999
11
263.037671
21
452.238332
0
LINE
8
SECTION_JOG_LINES
10
263.037671
20
452.238332
11
261.783736
21
451.743768
0
LINE
8
SECTION_JOG_LINES
10
261.783736
20
451.743768
11
260.602177
21
451.080407
0
LINE
8
SECTION_JOG_LINES
10
260.602177
20
451.080407
11
260.481607
21
451.080388
0
LINE
8
SECTION_JOG_LINES
10
260.481607
20
451.080388
11
260.481219
21
453.600471
0
LINE
8
SECTION_JOG_LINES
10
260.481219
20
453.600471
11
262.760033
21
454.372522
0
LINE
8
SECTION_JOG_LINES
10
262.760033
20
454.372522
11
264.170741
21
454.644040
0
LINE
8
SECTION_JOG_LINES
10
264.170741
20
454.644040
11
265.533257
21
454.734683
0
LINE
8
SECTION_JOG_LINES
10
265.533257
20
454.734683
11
267.848395
21
454.493883
0
LINE
8
SECTION_JOG_LINES
10
267.848395
20
454.493883
11
268.801022
21
454.180526
0
LINE
8
SECTION_JOG_LINES
10
268.801022
20
454.180526
11
269.657203
21
453.722461
0
LINE
8
SECTION_JOG_LINES
10
269.657203
20
453.722461
11
270.419949
21
453.083514
0
LINE
8
SECTION_JOG_LINES
10
270.419949
20
453.083514
11
270.971708
21
452.323957
0
LINE
8
SECTION_JOG_LINES
10
270.971708
20
452.323957
11
271.306450
21
451.434744
0
LINE
8
SECTION_JOG_LINES
10
271.306450
20
451.434744
11
271.418143
21
450.406833
0
LINE
8
SECTION_JOG_LINES
10
271.418143
20
450.406833
11
271.153088
21
449.005071
0
LINE
8
SECTION_JOG_LINES
10
271.153088
20
449.005071
11
270.357462
21
447.790124
0
LINE
8
SECTION_JOG_LINES
10
270.357462
20
447.790124
11
269.212102
21
446.885611
0
LINE
8
SECTION_JOG_LINES
10
269.212102
20
446.885611
11
267.873772
21
446.391035
0
LINE
8
SECTION_JOG_LINES
10
267.873772
20
446.391035
11
267.873798
21
446.222225
0
LINE
8
SECTION_JOG_LINES
10
267.873798
20
446.222225
11
269.200215
21
445.812463
0
LINE
8
SECTION_JOG_LINES
10
269.200215
20
445.812463
11
270.466388
21
445.053017
0
LINE
8
SECTION_JOG_LINES
10
270.466388
20
445.053017
11
270.466388
21
445.053017
0
LINE
8
SECTION_JOG_LINES
10
387.021099
20
442.518095
11
384.356325
21
442.517685
0
LINE
8
SECTION_JOG_LINES
10
384.356325
20
442.517685
11
384.357102
21
437.465459
0
LINE
8
SECTION_JOG_LINES
10
384.357102
20
437.465459
11
382.042001
21
437.465103
0
LINE
8
SECTION_JOG_LINES
10
382.042001
20
437.465103
11
382.041224
21
442.517329
0
LINE
8
SECTION_JOG_LINES
10
382.041224
20
442.517329
11
373.443996
21
442.516006
0
LINE
8
SECTION_JOG_LINES
10
373.443996
20
442.516006
11
373.443570
21
445.289302
0
LINE
8
SECTION_JOG_LINES
10
373.443570
20
445.289302
11
382.135706
21
455.419204
0
LINE
8
SECTION_JOG_LINES
10
382.135706
20
455.419204
11
384.354340
21
455.419546
0
LINE
8
SECTION_JOG_LINES
10
384.354340
20
455.419546
11
384.356028
21
444.446934
0
LINE
8
SECTION_JOG_LINES
10
384.356028
20
444.446934
11
387.020803
21
444.447344
0
LINE
8
SECTION_JOG_LINES
10
387.020803
20
444.447344
11
387.021099
21
442.518095
0
LINE
8
SECTION_JOG_LINES
10
382.040927
20
444.446578
11
382.039681
21
452.549430
0
LINE
8
SECTION_JOG_LINES
10
382.039681
20
452.549430
11
375.083558
21
444.445508
0
LINE
8
SECTION_JOG_LINES
10
375.083558
20
444.445508
11
382.040927
21
444.446578
0
LINE
8
SECTION_JOG_LINES
10
222.694727
20
361.149130
11
222.580372
21
359.922230
0
LINE
8
SECTION_JOG_LINES
10
222.580372
20
359.922230
11
222.236918
21
358.749556
0
LINE
8
SECTION_JOG_LINES
10
222.236918
20
358.749556
11
221.694474
21
357.694413
0
LINE
8
SECTION_JOG_LINES
10
221.694474
20
357.694413
11
220.983197
21
356.820111
0
LINE
8
SECTION_JOG_LINES
10
220.983197
20
356.820111
11
220.030734
21
356.072381
0
LINE
8
SECTION_JOG_LINES
10
220.030734
20
356.072381
11
218.909437
21
355.517549
0
LINE
8
SECTION_JOG_LINES
10
218.909437
20
355.517549
11
217.619309
21
355.182746
0
LINE
8
SECTION_JOG_LINES
10
217.619309
20
355.182746
11
216.136226
21
355.070983
0
LINE
8
SECTION_JOG_LINES
10
216.136226
20
355.070983
11
214.692286
21
355.149137
0
LINE
8
SECTION_JOG_LINES
10
214.692286
20
355.149137
11
213.302574
21
355.384051
0
LINE
8
SECTION_JOG_LINES
10
213.302574
20
355.384051
11
210.999424
21
356.119222
0
LINE
8
SECTION_JOG_LINES
10
210.999424
20
356.119222
11
210.999033
21
358.663423
0
LINE
8
SECTION_JOG_LINES
10
210.999033
20
358.663423
11
211.167837
21
358.663449
0
LINE
8
SECTION_JOG_LINES
10
211.167837
20
358.663449
11
212.241075
21
358.081824
0
LINE
8
SECTION_JOG_LINES
10
212.241075
20
358.081824
11
213.483103
21
357.590659
0
LINE
8
SECTION_JOG_LINES
10
213.483103
20
357.590659
11
214.797456
21
357.265299
0
LINE
8
SECTION_JOG_LINES
10
214.797456
20
357.265299
11
216.087672
21
357.156977
0
LINE
8
SECTION_JOG_LINES
10
216.087672
20
357.156977
11
217.739559
21
357.398388
0
LINE
8
SECTION_JOG_LINES
10
217.739559
20
357.398388
11
218.502148
21
357.730095
0
LINE
8
SECTION_JOG_LINES
10
218.502148
20
357.730095
11
219.174289
21
358.242655
0
LINE
8
SECTION_JOG_LINES
10
219.174289
20
358.242655
11
219.638426
21
358.812459
0
LINE
8
SECTION_JOG_LINES
10
219.638426
20
358.812459
11
219.969911
21
359.484732
0
LINE
8
SECTION_JOG_LINES
10
219.969911
20
359.484732
11
220.177793
21
360.265509
0
LINE
8
SECTION_JOG_LINES
10
220.177793
20
360.265509
11
220.246989
21
361.160813
0
LINE
8
SECTION_JOG_LINES
10
220.246989
20
361.160813
11
220.165471
21
362.016904
0
LINE
8
SECTION_JOG_LINES
10
220.165471
20
362.016904
11
219.921205
21
362.728277
0
LINE
8
SECTION_JOG_LINES
10
219.921205
20
362.728277
11
219.544304
21
363.303981
0
LINE
8
SECTION_JOG_LINES
10
219.544304
20
363.303981
11
219.040806
21
363.753057
0
LINE
8
SECTION_JOG_LINES
10
219.040806
20
363.753057
11
218.344410
21
364.141814
0
LINE
8
SECTION_JOG_LINES
10
218.344410
20
364.141814
11
217.509381
21
364.391884
0
LINE
8
SECTION_JOG_LINES
10
217.509381
20
364.391884
11
215.507754
21
364.584502
0
LINE
8
SECTION_JOG_LINES
10
215.507754
20
364.584502
11
213.457946
21
364.439495
0
LINE
8
SECTION_JOG_LINES
10
213.457946
20
364.439495
11
211.769898
21
364.149847
0
LINE
8
SECTION_JOG_LINES
10
211.769898
20
364.149847
11
211.768475
21
373.398190
0
LINE
8
SECTION_JOG_LINES
10
211.768475
20
373.398190
11
222.572272
21
373.399852
0
LINE
8
SECTION_JOG_LINES
10
222.572272
20
373.399852
11
222.572597
21
371.289734
0
LINE
8
SECTION_JOG_LINES
10
222.572597
20
371.289734
11
214.095940
21
371.288430
0
LINE
8
SECTION_JOG_LINES
10
214.095940
20
371.288430
11
214.096674
21
366.513536
0
LINE
8
SECTION_JOG_LINES
10
214.096674
20
366.513536
11
215.157773
21
366.586046
0
LINE
8
SECTION_JOG_LINES
10
215.157773
20
366.586046
11
216.098256
21
366.610307
0
LINE
8
SECTION_JOG_LINES
10
216.098256
20
366.610307
11
218.654564
21
366.357487
0
LINE
8
SECTION_JOG_LINES
10
218.654564
20
366.357487
11
219.706657
21
366.020030
0
LINE
8
SECTION_JOG_LINES
10
219.706657
20
366.020030
11
220.668359
21
365.489634
0
LINE
8
SECTION_JOG_LINES
10
220.668359
20
365.489634
11
221.524574
21
364.730124
0
LINE
8
SECTION_JOG_LINES
10
221.524574
20
364.730124
11
222.163781
21
363.777655
0
LINE
8
SECTION_JOG_LINES
10
222.163781
20
363.777655
11
222.561869
21
362.596049
0
LINE
8
SECTION_JOG_LINES
10
222.561869
20
362.596049
11
222.694727
21
361.149131
0
LINE
8
SECTION_JOG_LINES
10
222.694727
20
361.149131
11
222.694727
21
361.149130
0
LINE
8
SECTION_JOG_LINES
10
443.237980
20
357.300771
11
443.125140
21
355.994742
0
LINE
8
SECTION_JOG_LINES
10
443.125140
20
355.994742
11
442.786197
21
354.813778
0
LINE
8
SECTION_JOG_LINES
10
442.786197
20
354.813778
11
442.221152
21
353.757879
0
LINE
8
SECTION_JOG_LINES
10
442.221152
20
353.757879
11
441.430005
21
352.827045
0
LINE
8
SECTION_JOG_LINES
10
441.430005
20
352.827045
11
440.480565
21
352.072532
0
LINE
8
SECTION_JOG_LINES
10
440.480565
20
352.072532
11
439.428601
21
351.533536
0
LINE
8
SECTION_JOG_LINES
10
439.428601
20
351.533536
11
438.274115
21
351.210058
0
LINE
8
SECTION_JOG_LINES
10
438.274115
20
351.210058
11
437.017106
21
351.102098
0
LINE
8
SECTION_JOG_LINES
10
437.017106
20
351.102098
11
435.751021
21
351.204394
0
LINE
8
SECTION_JOG_LINES
10
435.751021
20
351.204394
11
434.605474
21
351.511693
0
LINE
8
SECTION_JOG_LINES
10
434.605474
20
351.511693
11
433.583490
21
352.020978
0
LINE
8
SECTION_JOG_LINES
10
433.583490
20
352.020978
11
432.688092
21
352.729236
0
LINE
8
SECTION_JOG_LINES
10
432.688092
20
352.729236
11
431.768500
21
353.892674
0
LINE
8
SECTION_JOG_LINES
10
431.768500
20
353.892674
11
431.083994
21
355.381709
0
LINE
8
SECTION_JOG_LINES
10
431.083994
20
355.381709
11
430.667729
21
357.202376
0
LINE
8
SECTION_JOG_LINES
10
430.667729
20
357.202376
11
430.528736
21
359.360704
0
LINE
8
SECTION_JOG_LINES
10
430.528736
20
359.360704
11
430.654993
21
361.612519
0
LINE
8
SECTION_JOG_LINES
10
430.654993
20
361.612519
11
431.034497
21
363.593074
0
LINE
8
SECTION_JOG_LINES
10
431.034497
20
363.593074
11
431.703445
21
365.335531
0
LINE
8
SECTION_JOG_LINES
10
431.703445
20
365.335531
11
432.673851
21
366.873052
0
LINE
8
SECTION_JOG_LINES
10
432.673851
20
366.873052
11
433.888504
21
368.085049
0
LINE
8
SECTION_JOG_LINES
10
433.888504
20
368.085049
11
435.410662
21
368.995648
0
LINE
8
SECTION_JOG_LINES
10
435.410662
20
368.995648
11
437.225269
21
369.574703
0
LINE
8
SECTION_JOG_LINES
10
437.225269
20
369.574703
11
439.317270
21
369.767949
0
LINE
8
SECTION_JOG_LINES
10
439.317270
20
369.767949
11
440.510999
21
369.707844
0
LINE
8
SECTION_JOG_LINES
10
440.510999
20
369.707844
11
441.487714
21
369.490954
0
LINE
8
SECTION_JOG_LINES
10
441.487714
20
369.490954
11
441.488068
21
367.187911
0
LINE
8
SECTION_JOG_LINES
10
441.488068
20
367.187911
11
441.367498
21
367.187892
0
LINE
8
SECTION_JOG_LINES
10
441.367498
20
367.187892
11
440.342531
21
367.525353
0
LINE
8
SECTION_JOG_LINES
10
440.342531
20
367.525353
11
438.955852
21
367.693950
0
LINE
8
SECTION_JOG_LINES
10
438.955852
20
367.693950
11
437.725214
21
367.592023
0
LINE
8
SECTION_JOG_LINES
10
437.725214
20
367.592023
11
436.625738
21
367.286640
0
LINE
8
SECTION_JOG_LINES
10
436.625738
20
367.286640
11
435.657425
21
366.777802
0
LINE
8
SECTION_JOG_LINES
10
435.657425
20
366.777802
11
434.820273
21
366.065508
0
LINE
8
SECTION_JOG_LINES
10
434.820273
20
366.065508
11
434.129349
21
365.185935
0
LINE
8
SECTION_JOG_LINES
10
434.129349
20
365.185935
11
433.599720
21
364.163200
0
LINE
8
SECTION_JOG_LINES
10
433.599720
20
364.163200
11
433.231387
21
362.997304
0
LINE
8
SECTION_JOG_LINES
10
433.231387
20
362.997304
11
433.024348
21
361.688246
0
LINE
8
SECTION_JOG_LINES
10
433.024348
20
361.688246
11
435.013737
21
362.617003
0
LINE
8
SECTION_JOG_LINES
10
435.013737
20
362.617003
11
436.077806
21
362.861338
0
LINE
8
SECTION_JOG_LINES
10
436.077806
20
362.861338
11
437.292620
21
362.942915
0
LINE
8
SECTION_JOG_LINES
10
437.292620
20
362.942915
11
439.306289
21
362.726184
0
LINE
8
SECTION_JOG_LINES
10
439.306289
20
362.726184
11
440.195614
21
362.412817
0
LINE
8
SECTION_JOG_LINES
10
440.195614
20
362.412817
11
441.103043
21
361.882412
0
LINE
8
SECTION_JOG_LINES
10
441.103043
20
361.882412
11
442.031619
21
361.050567
0
LINE
8
SECTION_JOG_LINES
10
442.031619
20
361.050567
11
442.694954
21
360.025755
0
LINE
8
SECTION_JOG_LINES
10
442.694954
20
360.025755
11
443.102100
21
358.783863
0
LINE
8
SECTION_JOG_LINES
10
443.102100
20
358.783863
11
443.237980
21
357.300771
0
LINE
8
SECTION_JOG_LINES
10
443.237980
20
357.300771
11
443.237980
21
357.300771
0
LINE
8
SECTION_JOG_LINES
10
440.790258
20
357.203933
11
440.705699
21
358.228835
0
LINE
8
SECTION_JOG_LINES
10
440.705699
20
358.228835
11
440.452365
21
359.060786
0
LINE
8
SECTION_JOG_LINES
10
440.452365
20
359.060786
11
440.018171
21
359.748013
0
LINE
8
SECTION_JOG_LINES
10
440.018171
20
359.748013
11
439.366955
21
360.338745
0
LINE
8
SECTION_JOG_LINES
10
439.366955
20
360.338745
11
438.136989
21
360.844986
0
LINE
8
SECTION_JOG_LINES
10
438.136989
20
360.844986
11
436.726187
21
360.965345
0
LINE
8
SECTION_JOG_LINES
10
436.726187
20
360.965345
11
434.821095
21
360.723898
0
LINE
8
SECTION_JOG_LINES
10
434.821095
20
360.723898
11
433.012547
21
359.976035
0
LINE
8
SECTION_JOG_LINES
10
433.012547
20
359.976035
11
432.976458
21
359.457542
0
LINE
8
SECTION_JOG_LINES
10
432.976458
20
359.457542
11
432.964382
21
358.842591
0
LINE
8
SECTION_JOG_LINES
10
432.964382
20
358.842591
11
433.061105
21
357.136426
0
LINE
8
SECTION_JOG_LINES
10
433.061105
20
357.136426
11
433.350687
21
355.828198
0
LINE
8
SECTION_JOG_LINES
10
433.350687
20
355.828198
11
433.821095
21
354.845559
0
LINE
8
SECTION_JOG_LINES
10
433.821095
20
354.845559
11
434.436168
21
354.092039
0
LINE
8
SECTION_JOG_LINES
10
434.436168
20
354.092039
11
435.630007
21
353.308464
0
LINE
8
SECTION_JOG_LINES
10
435.630007
20
353.308464
11
437.040801
21
353.067527
0
LINE
8
SECTION_JOG_LINES
10
437.040801
20
353.067527
11
438.602256
21
353.333039
0
LINE
8
SECTION_JOG_LINES
10
438.602256
20
353.333039
11
439.242782
21
353.664727
0
LINE
8
SECTION_JOG_LINES
10
439.242782
20
353.664727
11
439.789840
21
354.129036
0
LINE
8
SECTION_JOG_LINES
10
439.789840
20
354.129036
11
440.227592
21
354.723705
0
LINE
8
SECTION_JOG_LINES
10
440.227592
20
354.723705
11
440.540228
21
355.434411
0
LINE
8
SECTION_JOG_LINES
10
440.540228
20
355.434411
11
440.790153
21
357.203933
0
LINE
8
SECTION_JOG_LINES
10
440.790153
20
357.203933
11
440.790258
21
357.203933
0
LINE
8
SECTION_JOG_LINES
10
168.652190
20
275.461007
11
160.527581
21
260.194564
0
LINE
8
SECTION_JOG_LINES
10
160.527581
20
260.194564
11
157.947209
21
260.194167
0
LINE
8
SECTION_JOG_LINES
10
157.947209
20
260.194167
11
166.590206
21
276.039465
0
LINE
8
SECTION_JOG_LINES
10
166.590206
20
276.039465
11
156.365184
21
276.037892
0
LINE
8
SECTION_JOG_LINES
10
156.365184
20
276.037892
11
156.364860
21
278.148010
0
LINE
8
SECTION_JOG_LINES
10
156.364860
20
278.148010
11
168.651777
21
278.149900
0
LINE
8
SECTION_JOG_LINES
10
168.651777
20
278.149900
11
168.652190
21
275.461007
0
LINE
8
SECTION_JOG_LINES
10
487.031171
20
278.428821
11
486.917547
21
277.314210
0
LINE
8
SECTION_JOG_LINES
10
486.917547
20
277.314210
11
486.576317
21
276.297532
0
LINE
8
SECTION_JOG_LINES
10
486.576317
20
276.297532
11
486.007481
21
275.378789
0
LINE
8
SECTION_JOG_LINES
10
486.007481
20
275.378789
11
485.211038
21
274.557980
0
LINE
8
SECTION_JOG_LINES
10
485.211038
20
274.557980
11
484.248027
21
273.882595
0
LINE
8
SECTION_JOG_LINES
10
484.248027
20
273.882595
11
483.167419
21
273.400116
0
LINE
8
SECTION_JOG_LINES
10
483.167419
20
273.400116
11
481.969213
21
273.110544
0
LINE
8
SECTION_JOG_LINES
10
481.969213
20
273.110544
11
480.653410
21
273.013879
0
LINE
8
SECTION_JOG_LINES
10
480.653410
20
273.013879
11
479.268259
21
273.107868
0
LINE
8
SECTION_JOG_LINES
10
479.268259
20
273.107868
11
478.030786
21
273.390283
0
LINE
8
SECTION_JOG_LINES
10
478.030786
20
273.390283
11
476.940990
21
273.861125
0
LINE
8
SECTION_JOG_LINES
10
476.940990
20
273.861125
11
475.998872
21
274.520392
0
LINE
8
SECTION_JOG_LINES
10
475.998872
20
274.520392
11
475.244384
21
275.326642
0
LINE
8
SECTION_JOG_LINES
10
475.244384
20
275.326642
11
474.705412
21
276.238431
0
LINE
8
SECTION_JOG_LINES
10
474.705412
20
276.238431
11
474.381957
21
277.255759
0
LINE
8
SECTION_JOG_LINES
10
474.381957
20
277.255759
11
474.274018
21
278.378625
0
LINE
8
SECTION_JOG_LINES
10
474.274018
20
278.378625
11
474.490836
21
279.801481
0
LINE
8
SECTION_JOG_LINES
10
474.490836
20
279.801481
11
475.141752
21
281.079710
0
LINE
8
SECTION_JOG_LINES
10
475.141752
20
281.079710
11
476.187607
21
282.171104
0
LINE
8
SECTION_JOG_LINES
10
476.187607
20
282.171104
11
477.589192
21
283.009338
0
LINE
8
SECTION_JOG_LINES
10
477.589192
20
283.009338
11
477.589181
21
283.081683
0
LINE
8
SECTION_JOG_LINES
10
477.589181
20
283.081683
11
476.329020
21
283.889364
0
LINE
8
SECTION_JOG_LINES
10
476.329020
20
283.889364
11
475.442624
21
284.769448
0
LINE
8
SECTION_JOG_LINES
10
475.442624
20
284.769448
11
474.927005
21
285.800312
0
LINE
8
SECTION_JOG_LINES
10
474.927005
20
285.800312
11
474.754991
21
287.060327
0
LINE
8
SECTION_JOG_LINES
10
474.754991
20
287.060327
11
474.858839
21
288.030997
0
LINE
8
SECTION_JOG_LINES
10
474.858839
20
288.030997
11
475.170696
21
288.917294
0
LINE
8
SECTION_JOG_LINES
10
475.170696
20
288.917294
11
475.690561
21
289.719219
0
LINE
8
SECTION_JOG_LINES
10
475.690561
20
289.719219
11
476.418434
21
290.436771
0
LINE
8
SECTION_JOG_LINES
10
476.418434
20
290.436771
11
477.306857
21
291.027741
0
LINE
8
SECTION_JOG_LINES
10
477.306857
20
291.027741
11
478.308347
21
291.449918
0
LINE
8
SECTION_JOG_LINES
10
478.308347
20
291.449918
11
479.422901
21
291.703304
0
LINE
8
SECTION_JOG_LINES
10
479.422901
20
291.703304
11
480.650522
21
291.787897
0
LINE
8
SECTION_JOG_LINES
10
480.650522
20
291.787897
11
481.927161
21
291.707457
0
LINE
8
SECTION_JOG_LINES
10
481.927161
20
291.707457
11
483.068173
21
291.465723
0
LINE
8
SECTION_JOG_LINES
10
483.068173
20
291.465723
11
484.073557
21
291.062694
0
LINE
8
SECTION_JOG_LINES
10
484.073557
20
291.062694
11
484.943315
21
290.498372
0
LINE
8
SECTION_JOG_LINES
10
484.943315
20
290.498372
11
485.645036
21
289.809677
0
LINE
8
SECTION_JOG_LINES
10
485.645036
20
289.809677
11
486.146309
21
289.033532
0
LINE
8
SECTION_JOG_LINES
10
486.146309
20
289.033532
11
486.447133
21
288.169937
0
LINE
8
SECTION_JOG_LINES
10
486.447133
20
288.169937
11
486.547510
21
287.218893
0
LINE
8
SECTION_JOG_LINES
10
486.547510
20
287.218893
11
486.357785
21
286.010068
0
LINE
8
SECTION_JOG_LINES
10
486.357785
20
286.010068
11
485.788235
21
284.819271
0
LINE
8
SECTION_JOG_LINES
10
485.788235
20
284.819271
11
484.850899
21
283.776125
0
LINE
8
SECTION_JOG_LINES
10
484.850899
20
283.776125
11
483.557818
21
282.986140
0
LINE
8
SECTION_JOG_LINES
10
483.557818
20
282.986140
11
483.557829
21
282.913792
0
LINE
8
SECTION_JOG_LINES
10
483.557829
20
282.913792
11
485.047093
21
282.106148
0
LINE
8
SECTION_JOG_LINES
10
485.047093
20
282.106148
11
486.138476
21
281.129632
0
LINE
8
SECTION_JOG_LINES
10
486.138476
20
281.129632
11
486.807871
21
279.923955
0
LINE
8
SECTION_JOG_LINES
10
486.807871
20
279.923955
11
487.031171
21
278.428821
0
LINE
8
SECTION_JOG_LINES
10
487.031171
20
278.428821
11
487.031171
21
278.428821
0
LINE
8
SECTION_JOG_LINES
10
484.172114
20
287.194412
11
483.921740
21
288.351923
0
LINE
8
SECTION_JOG_LINES
10
483.921740
20
288.351923
11
483.171014
21
289.244086
0
LINE
8
SECTION_JOG_LINES
10
483.171014
20
289.244086
11
482.043517
21
289.822688
0
LINE
8
SECTION_JOG_LINES
10
482.043517
20
289.822688
11
480.638756
21
290.015397
0
LINE
8
SECTION_JOG_LINES
10
480.638756
20
290.015397
11
479.255147
21
289.834317
0
LINE
8
SECTION_JOG_LINES
10
479.255147
20
289.834317
11
478.142897
21
289.291544
0
LINE
8
SECTION_JOG_LINES
10
478.142897
20
289.291544
11
477.419546
21
288.441357
0
LINE
8
SECTION_JOG_LINES
10
477.419546
20
288.441357
11
477.178555
21
287.338030
0
LINE
8
SECTION_JOG_LINES
10
477.178555
20
287.338030
11
477.299263
21
286.527160
0
LINE
8
SECTION_JOG_LINES
10
477.299263
20
286.527160
11
477.661121
21
285.830877
0
LINE
8
SECTION_JOG_LINES
10
477.661121
20
285.830877
11
478.279160
21
285.237125
0
LINE
8
SECTION_JOG_LINES
10
478.279160
20
285.237125
11
479.144388
21
284.709728
0
LINE
8
SECTION_JOG_LINES
10
479.144388
20
284.709728
11
480.422622
21
284.143208
0
LINE
8
SECTION_JOG_LINES
10
480.422622
20
284.143208
11
482.062570
21
283.564685
0
LINE
8
SECTION_JOG_LINES
10
482.062570
20
283.564685
11
483.072286
21
284.375728
0
LINE
8
SECTION_JOG_LINES
10
483.072286
20
284.375728
11
483.714240
21
285.216860
0
LINE
8
SECTION_JOG_LINES
10
483.714240
20
285.216860
11
484.057732
21
286.139335
0
LINE
8
SECTION_JOG_LINES
10
484.057732
20
286.139335
11
484.172114
21
287.194412
0
LINE
8
SECTION_JOG_LINES
10
484.172114
20
287.194412
11
484.172114
21
287.194412
0
LINE
8
SECTION_JOG_LINES
10
484.547301
20
278.199340
11
484.423554
21
279.197105
0
LINE
8
SECTION_JOG_LINES
10
484.423554
20
279.197105
11
484.052655
21
279.971763
0
LINE
8
SECTION_JOG_LINES
10
484.052655
20
279.971763
11
483.335114
21
280.646890
0
LINE
8
SECTION_JOG_LINES
10
483.335114
20
280.646890
11
482.147317
21
281.321944
0
LINE
8
SECTION_JOG_LINES
10
482.147317
20
281.321944
11
480.905289
21
281.816124
0
LINE
8
SECTION_JOG_LINES
10
480.905289
20
281.816124
11
479.108566
21
282.454911
0
LINE
8
SECTION_JOG_LINES
10
479.108566
20
282.454911
11
478.128968
21
281.758422
0
LINE
8
SECTION_JOG_LINES
10
478.128968
20
281.758422
11
477.360422
21
280.850954
0
LINE
8
SECTION_JOG_LINES
10
477.360422
20
280.850954
11
476.872253
21
279.771703
0
LINE
8
SECTION_JOG_LINES
10
476.872253
20
279.771703
11
476.709662
21
278.559869
0
LINE
8
SECTION_JOG_LINES
10
476.709662
20
278.559869
11
476.779868
21
277.781397
0
LINE
8
SECTION_JOG_LINES
10
476.779868
20
277.781397
11
476.990236
21
277.073787
0
LINE
8
SECTION_JOG_LINES
10
476.990236
20
277.073787
11
477.340766
21
276.437037
0
LINE
8
SECTION_JOG_LINES
10
477.340766
20
276.437037
11
477.831458
21
275.871148
0
LINE
8
SECTION_JOG_LINES
10
477.831458
20
275.871148
11
478.429900
21
275.407015
0
LINE
8
SECTION_JOG_LINES
10
478.429900
20
275.407015
11
479.103682
21
275.075529
0
LINE
8
SECTION_JOG_LINES
10
479.103682
20
275.075529
11
480.677264
21
274.810500
0
LINE
8
SECTION_JOG_LINES
10
480.677264
20
274.810500
11
482.259812
21
275.036827
0
LINE
8
SECTION_JOG_LINES
10
482.259812
20
275.036827
11
483.486599
21
275.715266
0
LINE
8
SECTION_JOG_LINES
10
483.486599
20
275.715266
11
483.950747
21
276.209708
0
LINE
8
SECTION_JOG_LINES
10
483.950747
20
276.209708
11
484.282247
21
276.788534
0
LINE
8
SECTION_JOG_LINES
10
484.282247
20
276.788534
11
484.547301
21
278.199340
0
LINE
8
SECTION_JOG_LINES
10
484.547301
20
278.199340
11
484.547301
21
278.199340
0
LINE
8
SECTION_JOG_LINES
10
119.375655
20
179.235020
11
119.240348
21
176.992245
0
LINE
8
SECTION_JOG_LINES
10
119.240348
20
176.992245
11
118.833705
21
174.966470
0
LINE
8
SECTION_JOG_LINES
10
118.833705
20
174.966470
11
118.164768
21
173.190854
0
LINE
8
SECTION_JOG_LINES
10
118.164768
20
173.190854
11
117.218452
21
171.698555
0
LINE
8
SECTION_JOG_LINES
10
117.218452
20
171.698555
11
115.982719
21
170.480526
0
LINE
8
SECTION_JOG_LINES
10
115.982719
20
170.480526
11
114.469602
21
169.575957
0
LINE
8
SECTION_JOG_LINES
10
114.469602
20
169.575957
11
112.673071
21
169.014992
0
LINE
8
SECTION_JOG_LINES
10
112.673071
20
169.014992
11
110.587094
21
168.827775
0
LINE
8
SECTION_JOG_LINES
10
110.587094
20
168.827775
11
109.405429
21
168.899941
0
LINE
8
SECTION_JOG_LINES
10
109.405429
20
168.899941
11
108.416650
21
169.104769
0
LINE
8
SECTION_JOG_LINES
10
108.416650
20
169.104769
11
108.416296
21
171.407813
0
LINE
8
SECTION_JOG_LINES
10
108.416296
20
171.407813
11
108.536867
21
171.407832
0
LINE
8
SECTION_JOG_LINES
10
108.536867
20
171.407832
11
109.525667
21
171.058306
0
LINE
8
SECTION_JOG_LINES
10
109.525667
20
171.058306
11
110.948513
21
170.901775
0
LINE
8
SECTION_JOG_LINES
10
110.948513
20
170.901775
11
112.208538
21
171.001446
0
LINE
8
SECTION_JOG_LINES
10
112.208538
20
171.001446
11
113.323838
21
171.300048
0
LINE
8
SECTION_JOG_LINES
10
113.323838
20
171.300048
11
114.294414
21
171.797582
0
LINE
8
SECTION_JOG_LINES
10
114.294414
20
171.797582
11
115.120266
21
172.494047
0
LINE
8
SECTION_JOG_LINES
10
115.120266
20
172.494047
11
115.799892
21
173.371358
0
LINE
8
SECTION_JOG_LINES
10
115.799892
20
173.371358
11
116.319731
21
174.399367
0
LINE
8
SECTION_JOG_LINES
10
116.319731
20
174.399367
11
116.679781
21
175.578074
0
LINE
8
SECTION_JOG_LINES
10
116.679781
20
175.578074
11
116.880043
21
176.907478
0
LINE
8
SECTION_JOG_LINES
10
116.880043
20
176.907478
11
114.770062
21
175.942529
0
LINE
8
SECTION_JOG_LINES
10
114.770062
20
175.942529
11
113.736138
21
175.725329
0
LINE
8
SECTION_JOG_LINES
10
113.736138
20
175.725329
11
112.611771
21
175.652809
0
LINE
8
SECTION_JOG_LINES
10
112.611771
20
175.652809
11
110.598076
21
175.869539
0
LINE
8
SECTION_JOG_LINES
10
110.598076
20
175.869539
11
109.702730
21
176.188933
0
LINE
8
SECTION_JOG_LINES
10
109.702730
20
176.188933
11
108.801321
21
176.713309
0
LINE
8
SECTION_JOG_LINES
10
108.801321
20
176.713309
11
107.869728
21
177.548170
0
LINE
8
SECTION_JOG_LINES
10
107.869728
20
177.548170
11
107.197343
21
178.582024
0
LINE
8
SECTION_JOG_LINES
10
107.197343
20
178.582024
11
106.799245
21
179.826933
0
LINE
8
SECTION_JOG_LINES
10
106.799245
20
179.826933
11
106.666384
21
181.294952
0
LINE
8
SECTION_JOG_LINES
10
106.666384
20
181.294952
11
106.779226
21
182.605503
0
LINE
8
SECTION_JOG_LINES
10
106.779226
20
182.605503
11
107.118173
21
183.787974
0
LINE
8
SECTION_JOG_LINES
10
107.118173
20
183.787974
11
107.683226
21
184.842366
0
LINE
8
SECTION_JOG_LINES
10
107.683226
20
184.842366
11
108.474385
21
185.768679
0
LINE
8
SECTION_JOG_LINES
10
108.474385
20
185.768679
11
109.428339
21
186.523193
0
LINE
8
SECTION_JOG_LINES
10
109.428339
20
186.523193
11
110.481803
21
187.062188
0
LINE
8
SECTION_JOG_LINES
10
110.481803
20
187.062188
11
111.634776
21
187.385666
0
LINE
8
SECTION_JOG_LINES
10
111.634776
20
187.385666
11
112.887259
21
187.493625
0
LINE
8
SECTION_JOG_LINES
10
112.887259
20
187.493625
11
114.141292
21
187.391327
0
LINE
8
SECTION_JOG_LINES
10
114.141292
20
187.391327
11
115.298890
21
187.084031
0
LINE
8
SECTION_JOG_LINES
10
115.298890
20
187.084031
11
116.338950
21
186.583791
0
LINE
8
SECTION_JOG_LINES
10
116.338950
20
186.583791
11
117.240374
21
185.878548
0
LINE
8
SECTION_JOG_LINES
10
117.240374
20
185.878548
11
118.147904
21
184.733195
0
LINE
8
SECTION_JOG_LINES
10
118.147904
20
184.733195
11
118.820358
21
183.298418
0
LINE
8
SECTION_JOG_LINES
10
118.820358
20
183.298418
11
119.236638
21
181.498854
0
LINE
8
SECTION_JOG_LINES
10
119.236638
20
181.498854
11
119.375655
21
179.235020
0
LINE
8
SECTION_JOG_LINES
10
119.375655
20
179.235020
11
119.375655
21
179.235020
0
LINE
8
SECTION_JOG_LINES
10
116.939877
20
179.753130
11
116.843157
21
181.438196
0
LINE
8
SECTION_JOG_LINES
10
116.843157
20
181.438196
11
116.553573
21
182.755468
0
LINE
8
SECTION_JOG_LINES
10
116.553573
20
182.755468
11
116.095227
21
183.762225
0
LINE
8
SECTION_JOG_LINES
10
116.095227
20
183.762225
11
115.492219
21
184.515746
0
LINE
8
SECTION_JOG_LINES
10
115.492219
20
184.515746
11
114.904330
21
184.979881
0
LINE
8
SECTION_JOG_LINES
10
114.904330
20
184.979881
11
114.274251
21
185.287259
0
LINE
8
SECTION_JOG_LINES
10
114.274251
20
185.287259
11
112.863458
21
185.528198
0
LINE
8
SECTION_JOG_LINES
10
112.863458
20
185.528198
11
111.308042
21
185.256658
0
LINE
8
SECTION_JOG_LINES
10
111.308042
20
185.256658
11
110.666018
21
184.917433
0
LINE
8
SECTION_JOG_LINES
10
110.666018
20
184.917433
11
110.114448
21
184.442572
0
LINE
8
SECTION_JOG_LINES
10
110.114448
20
184.442572
11
109.676685
21
183.844889
0
LINE
8
SECTION_JOG_LINES
10
109.676685
20
183.844889
11
109.364040
21
183.137198
0
LINE
8
SECTION_JOG_LINES
10
109.364040
20
183.137198
11
109.114106
21
181.391791
0
LINE
8
SECTION_JOG_LINES
10
109.114106
20
181.391791
11
109.195658
21
180.351817
0
LINE
8
SECTION_JOG_LINES
10
109.195658
20
180.351817
11
109.439963
21
179.522880
0
LINE
8
SECTION_JOG_LINES
10
109.439963
20
179.522880
11
109.877165
21
178.844696
0
LINE
8
SECTION_JOG_LINES
10
109.877165
20
178.844696
11
110.537410
21
178.256979
0
LINE
8
SECTION_JOG_LINES
10
110.537410
20
178.256979
11
111.731207
21
177.750732
0
LINE
8
SECTION_JOG_LINES
10
111.731207
20
177.750732
11
113.178177
21
177.630376
0
LINE
8
SECTION_JOG_LINES
10
113.178177
20
177.630376
11
115.083268
21
177.883886
0
LINE
8
SECTION_JOG_LINES
10
115.083268
20
177.883886
11
116.891818
21
178.619689
0
LINE
8
SECTION_JOG_LINES
10
116.891818
20
178.619689
11
116.915819
21
179.114064
0
LINE
8
SECTION_JOG_LINES
10
116.915819
20
179.114064
11
116.939797
21
179.753130
0
LINE
8
SECTION_JOG_LINES
10
116.939797
20
179.753130
11
116.939877
21
179.753130
0
LINE
8
SECTION_JOG_LINES
10
518.695490
20
182.407649
11
508.976880
21
182.406154
0
LINE
8
SECTION_JOG_LINES
10
508.976880
20
182.406154
11
508.976598
21
184.238941
0
LINE
8
SECTION_JOG_LINES
10
508.976598
20
184.238941
11
512.714521
21
184.239516
0
LINE
8
SECTION_JOG_LINES
10
512.714521
20
184.239516
11
512.712670
21
196.273216
0
LINE
8
SECTION_JOG_LINES
10
512.712670
20
196.273216
11
508.974747
21
196.272641
0
LINE
8
SECTION_JOG_LINES
10
508.974747
20
196.272641
11
508.974495
21
197.912504
0
LINE
8
SECTION_JOG_LINES
10
508.974495
20
197.912504
11
510.602297
21
198.033332
0
LINE
8
SECTION_JOG_LINES
10
510.602297
20
198.033332
11
511.916529
21
198.407327
0
LINE
8
SECTION_JOG_LINES
10
511.916529
20
198.407327
11
512.784588
21
199.167102
0
LINE
8
SECTION_JOG_LINES
10
512.784588
20
199.167102
11
513.040719
21
199.715772
0
LINE
8
SECTION_JOG_LINES
10
513.040719
20
199.715772
11
513.158172
21
200.421173
0
LINE
8
SECTION_JOG_LINES
10
513.158172
20
200.421173
11
515.027133
21
200.421460
0
LINE
8
SECTION_JOG_LINES
10
515.027133
20
200.421460
11
515.029622
21
184.239872
0
LINE
8
SECTION_JOG_LINES
10
515.029622
20
184.239872
11
518.695208
21
184.240436
0
LINE
8
SECTION_JOG_LINES
10
518.695208
20
184.240436
11
518.695490
21
182.407649
0
LINE
8
SECTION_JOG_LINES
10
535.394190
20
191.393289
11
535.299582
21
189.136203
0
LINE
8
SECTION_JOG_LINES
10
535.299582
20
189.136203
11
535.015013
21
187.200126
0
LINE
8
SECTION_JOG_LINES
10
535.015013
20
187.200126
11
534.540484
21
185.585059
0
LINE
8
SECTION_JOG_LINES
10
534.540484
20
185.585059
11
533.875994
21
184.291002
0
LINE
8
SECTION_JOG_LINES
10
533.875994
20
184.291002
11
533.017781
21
183.304391
0
LINE
8
SECTION_JOG_LINES
10
533.017781
20
183.304391
11
531.950017
21
182.599598
0
LINE
8
SECTION_JOG_LINES
10
531.950017
20
182.599598
11
530.672704
21
182.176625
0
LINE
8
SECTION_JOG_LINES
10
530.672704
20
182.176625
11
529.185840
21
182.035470
0
LINE
8
SECTION_JOG_LINES
10
529.185840
20
182.035470
11
527.678595
21
182.178425
0
LINE
8
SECTION_JOG_LINES
10
527.678595
20
182.178425
11
526.388342
21
182.607786
0
LINE
8
SECTION_JOG_LINES
10
526.388342
20
182.607786
11
525.315084
21
183.323553
0
LINE
8
SECTION_JOG_LINES
10
525.315084
20
183.323553
11
524.458818
21
184.325728
0
LINE
8
SECTION_JOG_LINES
10
524.458818
20
184.325728
11
523.809765
21
185.624857
0
LINE
8
SECTION_JOG_LINES
10
523.809765
20
185.624857
11
523.346051
21
187.231490
0
LINE
8
SECTION_JOG_LINES
10
523.346051
20
187.231490
11
523.067677
21
189.145626
0
LINE
8
SECTION_JOG_LINES
10
523.067677
20
189.145626
11
522.974641
21
191.367265
0
LINE
8
SECTION_JOG_LINES
10
522.974641
20
191.367265
11
523.068499
21
193.604003
0
LINE
8
SECTION_JOG_LINES
10
523.068499
20
193.604003
11
523.350807
21
195.527268
0
LINE
8
SECTION_JOG_LINES
10
523.350807
20
195.527268
11
523.821567
21
197.137058
0
LINE
8
SECTION_JOG_LINES
10
523.821567
20
197.137058
11
524.480778
21
198.433375
0
LINE
8
SECTION_JOG_LINES
10
524.480778
20
198.433375
11
525.339741
21
199.435813
0
LINE
8
SECTION_JOG_LINES
10
525.339741
20
199.435813
11
526.409760
21
200.151910
0
LINE
8
SECTION_JOG_LINES
10
526.409760
20
200.151910
11
527.690835
21
200.581667
0
LINE
8
SECTION_JOG_LINES
10
527.690835
20
200.581667
11
529.182965
21
200.725083
0
LINE
8
SECTION_JOG_LINES
10
529.182965
20
200.725083
11
530.689467
21
200.579867
0
LINE
8
SECTION_JOG_LINES
10
530.689467
20
200.579867
11
531.977461
21
200.143723
0
LINE
8
SECTION_JOG_LINES
10
531.977461
20
200.143723
11
533.046948
21
199.416651
0
LINE
8
SECTION_JOG_LINES
10
533.046948
20
199.416651
11
533.897928
21
198.398650
0
LINE
8
SECTION_JOG_LINES
10
533.897928
20
198.398650
11
534.552272
21
197.092739
0
LINE
8
SECTION_JOG_LINES
10
534.552272
20
197.092739
11
535.019764
21
195.489875
0
LINE
8
SECTION_JOG_LINES
10
535.019764
20
195.489875
11
535.300403
21
193.590058
0
LINE
8
SECTION_JOG_LINES
10
535.300403
20
193.590058
11
535.394190
21
191.393289
0
LINE
8
SECTION_JOG_LINES
10
535.394190
20
191.393289
11
535.394190
21
191.393289
0
LINE
8
SECTION_JOG_LINES
10
532.223820
20
185.918556
11
532.576339
21
186.979697
0
LINE
8
SECTION_JOG_LINES
10
532.576339
20
186.979697
11
532.790178
21
188.209627
0
LINE
8
SECTION_JOG_LINES
10
532.790178
20
188.209627
11
532.946454
21
191.392913
0
LINE
8
SECTION_JOG_LINES
10
532.946454
20
191.392913
11
532.789198
21
194.576152
0
LINE
8
SECTION_JOG_LINES
10
532.789198
20
194.576152
11
532.571962
21
195.824103
0
LINE
8
SECTION_JOG_LINES
10
532.571962
20
195.824103
11
532.210071
21
196.867048
0
LINE
8
SECTION_JOG_LINES
10
532.210071
20
196.867048
11
531.709553
21
197.680874
0
LINE
8
SECTION_JOG_LINES
10
531.709553
20
197.680874
11
531.052305
21
198.265577
0
LINE
8
SECTION_JOG_LINES
10
531.052305
20
198.265577
11
530.223272
21
198.618140
0
LINE
8
SECTION_JOG_LINES
10
530.223272
20
198.618140
11
529.183271
21
198.735544
0
LINE
8
SECTION_JOG_LINES
10
529.183271
20
198.735544
11
528.146329
21
198.617821
0
LINE
8
SECTION_JOG_LINES
10
528.146329
20
198.617821
11
527.302344
21
198.265000
0
LINE
8
SECTION_JOG_LINES
10
527.302344
20
198.265000
11
526.642260
21
197.674065
0
LINE
8
SECTION_JOG_LINES
10
526.642260
20
197.674065
11
526.132947
21
196.841998
0
LINE
8
SECTION_JOG_LINES
10
526.132947
20
196.841998
11
525.786442
21
195.814016
0
LINE
8
SECTION_JOG_LINES
10
525.786442
20
195.814016
11
525.566594
21
194.514752
0
LINE
8
SECTION_JOG_LINES
10
525.566594
20
194.514752
11
525.422378
21
191.367641
0
LINE
8
SECTION_JOG_LINES
10
525.422378
20
191.367641
11
525.555498
21
188.220571
0
LINE
8
SECTION_JOG_LINES
10
525.555498
20
188.220571
11
525.763678
21
187.020851
0
LINE
8
SECTION_JOG_LINES
10
525.763678
20
187.020851
11
526.122557
21
185.953788
0
LINE
8
SECTION_JOG_LINES
10
526.122557
20
185.953788
11
526.601983
21
185.124888
0
LINE
8
SECTION_JOG_LINES
10
526.601983
20
185.124888
11
527.244160
21
184.519082
0
LINE
8
SECTION_JOG_LINES
10
527.244160
20
184.519082
11
528.097298
21
184.148435
0
LINE
8
SECTION_JOG_LINES
10
528.097298
20
184.148435
11
529.185534
21
184.025010
0
LINE
8
SECTION_JOG_LINES
10
529.185534
20
184.025010
11
530.222496
21
184.142733
0
LINE
8
SECTION_JOG_LINES
10
530.222496
20
184.142733
11
531.066488
21
184.495553
0
LINE
8
SECTION_JOG_LINES
10
531.066488
20
184.495553
11
531.729575
21
185.086490
0
LINE
8
SECTION_JOG_LINES
10
531.729575
20
185.086490
11
532.223820
21
185.918556
0
LINE
8
SECTION_JOG_LINES
10
532.223820
20
185.918556
11
532.223820
21
185.918556
0
LINE
8
SECTION_JOG_LINES
10
83.464390
20
76.839649
11
73.745780
21
76.838154
0
LINE
8
SECTION_JOG_LINES
10
73.745780
20
76.838154
11
73.745498
21
78.670941
0
LINE
8
SECTION_JOG_LINES
10
73.745498
20
78.670941
11
77.483421
21
78.671516
0
LINE
8
SECTION_JOG_LINES
10
77.483421
20
78.671516
11
77.481570
21
90.705216
0
LINE
8
SECTION_JOG_LINES
10
77.481570
20
90.705216
11
73.743647
21
90.704641
0
LINE
8
SECTION_JOG_LINES
10
73.743647
20
90.704641
11
73.743395
21
92.344504
0
LINE
8
SECTION_JOG_LINES
10
73.743395
20
92.344504
11
75.371197
21
92.465332
0
LINE
8
SECTION_JOG_LINES
10
75.371197
20
92.465332
11
76.685429
21
92.839327
0
LINE
8
SECTION_JOG_LINES
10
76.685429
20
92.839327
11
77.553488
21
93.599102
0
LINE
8
SECTION_JOG_LINES
10
77.553488
20
93.599102
11
77.809619
21
94.147772
0
LINE
8
SECTION_JOG_LINES
10
77.809619
20
94.147772
11
77.927072
21
94.853173
0
LINE
8
SECTION_JOG_LINES
10
77.927072
20
94.853173
11
79.796033
21
94.853460
0
LINE
8
SECTION_JOG_LINES
10
79.796033
20
94.853460
11
79.798522
21
78.671872
0
LINE
8
SECTION_JOG_LINES
10
79.798522
20
78.671872
11
83.464108
21
78.672436
0
LINE
8
SECTION_JOG_LINES
10
83.464108
20
78.672436
11
83.464390
21
76.839649
0
LINE
8
SECTION_JOG_LINES
10
99.163660
20
76.842064
11
89.445077
21
76.840569
0
LINE
8
SECTION_JOG_LINES
10
89.445077
20
76.840569
11
89.444795
21
78.673356
0
LINE
8
SECTION_JOG_LINES
10
89.444795
20
78.673356
11
93.182718
21
78.673931
0
LINE
8
SECTION_JOG_LINES
10
93.182718
20
78.673931
11
93.180867
21
90.707631
0
LINE
8
SECTION_JOG_LINES
10
93.180867
20
90.707631
11
89.442944
21
90.707056
0
LINE
8
SECTION_JOG_LINES
10
89.442944
20
90.707056
11
89.442692
21
92.346919
0
LINE
8
SECTION_JOG_LINES
10
89.442692
20
92.346919
11
91.070467
21
92.467747
0
LINE
8
SECTION_JOG_LINES
10
91.070467
20
92.467747
11
92.384699
21
92.841742
0
LINE
8
SECTION_JOG_LINES
10
92.384699
20
92.841742
11
93.252759
21
93.601517
0
LINE
8
SECTION_JOG_LINES
10
93.252759
20
93.601517
11
93.508910
21
94.150187
0
LINE
8
SECTION_JOG_LINES
10
93.508910
20
94.150187
11
93.626368
21
94.855588
0
LINE
8
SECTION_JOG_LINES
10
93.626368
20
94.855588
11
95.495330
21
94.855875
0
LINE
8
SECTION_JOG_LINES
10
95.495330
20
94.855875
11
95.497819
21
78.674287
0
LINE
8
SECTION_JOG_LINES
10
95.497819
20
78.674287
11
99.163379
21
78.674851
0
LINE
8
SECTION_JOG_LINES
10
99.163379
20
78.674851
11
99.163660
21
76.842064
0
LINE
8
SECTION_JOG_LINES
10
563.947390
20
85.041649
11
554.228780
21
85.040154
0
LINE
8
SECTION_JOG_LINES
10
554.228780
20
85.040154
11
554.228498
21
86.872941
0
LINE
8
SECTION_JOG_LINES
10
554.228498
20
86.872941
11
557.966421
21
86.873516
0
LINE
8
SECTION_JOG_LINES
10
557.966421
20
86.873516
11
557.964570
21
98.907216
0
LINE
8
SECTION_JOG_LINES
10
557.964570
20
98.907216
11
554.226647
21
98.906641
0
LINE
8
SECTION_JOG_LINES
10
554.226647
20
98.906641
11
554.226395
21
100.546504
0
LINE
8
SECTION_JOG_LINES
10
554.226395
20
100.546504
11
555.854197
21
100.667332
0
LINE
8
SECTION_JOG_LINES
10
555.854197
20
100.667332
11
557.168429
21
101.041327
0
LINE
8
SECTION_JOG_LINES
10
557.168429
20
101.041327
11
558.036488
21
101.801102
0
LINE
8
SECTION_JOG_LINES
10
558.036488
20
101.801102
11
558.292619
21
102.349772
0
LINE
8
SECTION_JOG_LINES
10
558.292619
20
102.349772
11
558.410072
21
103.055173
0
LINE
8
SECTION_JOG_LINES
10
558.410072
20
103.055173
11
560.279033
21
103.055460
0
LINE
8
SECTION_JOG_LINES
10
560.279033
20
103.055460
11
560.281522
21
86.873872
0
LINE
8
SECTION_JOG_LINES
10
560.281522
20
86.873872
11
563.947108
21
86.874436
0
LINE
8
SECTION_JOG_LINES
10
563.947108
20
86.874436
11
563.947390
21
85.041649
0
LINE
8
SECTION_JOG_LINES
10
580.671576
20
85.044221
11
568.517294
21
85.042352
0
LINE
8
SECTION_JOG_LINES
10
568.517294
20
85.042352
11
568.516906
21
87.562436
0
LINE
8
SECTION_JOG_LINES
10
568.516906
20
87.562436
11
571.048711
21
89.733232
0
LINE
8
SECTION_JOG_LINES
10
571.048711
20
89.733232
11
573.423779
21
91.891946
0
LINE
8
SECTION_JOG_LINES
10
573.423779
20
91.891946
11
575.373823
21
93.902886
0
LINE
8
SECTION_JOG_LINES
10
575.373823
20
93.902886
11
576.594444
21
95.449488
0
LINE
8
SECTION_JOG_LINES
10
576.594444
20
95.449488
11
577.236296
21
96.827193
0
LINE
8
SECTION_JOG_LINES
10
577.236296
20
96.827193
11
577.450089
21
98.307323
0
LINE
8
SECTION_JOG_LINES
10
577.450089
20
98.307323
11
577.217786
21
99.552256
0
LINE
8
SECTION_JOG_LINES
10
577.217786
20
99.552256
11
576.521305
21
100.489644
0
LINE
8
SECTION_JOG_LINES
10
576.521305
20
100.489644
11
575.420945
21
101.086337
0
LINE
8
SECTION_JOG_LINES
10
575.420945
20
101.086337
11
573.952876
21
101.285065
0
LINE
8
SECTION_JOG_LINES
10
573.952876
20
101.285065
11
572.810415
21
101.188427
0
LINE
8
SECTION_JOG_LINES
10
572.810415
20
101.188427
11
571.577535
21
100.898849
0
LINE
8
SECTION_JOG_LINES
10
571.577535
20
100.898849
11
570.314564
21
100.410314
0
LINE
8
SECTION_JOG_LINES
10
570.314564
20
100.410314
11
569.081773
21
99.716800
0
LINE
8
SECTION_JOG_LINES
10
569.081773
20
99.716800
11
568.961177
21
99.716781
0
LINE
8
SECTION_JOG_LINES
10
568.961177
20
99.716781
11
568.960787
21
102.248922
0
LINE
8
SECTION_JOG_LINES
10
568.960787
20
102.248922
11
571.239601
21
103.020973
0
LINE
8
SECTION_JOG_LINES
10
571.239601
20
103.020973
11
572.650330
21
103.283447
0
LINE
8
SECTION_JOG_LINES
10
572.650330
20
103.283447
11
574.012853
21
103.371076
0
LINE
8
SECTION_JOG_LINES
10
574.012853
20
103.371076
11
575.318878
21
103.287626
0
LINE
8
SECTION_JOG_LINES
10
575.318878
20
103.287626
11
576.475709
21
103.036850
0
LINE
8
SECTION_JOG_LINES
10
576.475709
20
103.036850
11
577.483349
21
102.618750
0
LINE
8
SECTION_JOG_LINES
10
577.483349
20
102.618750
11
578.341796
21
102.033324
0
LINE
8
SECTION_JOG_LINES
10
578.341796
20
102.033324
11
579.027698
21
101.310715
0
LINE
8
SECTION_JOG_LINES
10
579.027698
20
101.310715
11
579.517678
21
100.469004
0
LINE
8
SECTION_JOG_LINES
10
579.517678
20
100.469004
11
579.811736
21
99.508192
0
LINE
8
SECTION_JOG_LINES
10
579.811736
20
99.508192
11
579.909872
21
98.428279
0
LINE
8
SECTION_JOG_LINES
10
579.909872
20
98.428279
11
579.644896
21
96.511046
0
LINE
8
SECTION_JOG_LINES
10
579.644896
20
96.511046
11
578.885510
21
94.834894
0
LINE
8
SECTION_JOG_LINES
10
578.885510
20
94.834894
11
577.776419
21
93.363668
0
LINE
8
SECTION_JOG_LINES
10
577.776419
20
93.363668
11
576.245339
21
91.759745
0
LINE
8
SECTION_JOG_LINES
10
576.245339
20
91.759745
11
573.580917
21
89.299541
0
LINE
8
SECTION_JOG_LINES
10
573.580917
20
89.299541
11
571.012947
21
87.104623
0
LINE
8
SECTION_JOG_LINES
10
571.012947
20
87.104623
11
580.671258
21
87.106109
0
LINE
8
SECTION_JOG_LINES
10
580.671258
20
87.106109
11
580.671576
21
85.044221
0
LINE
8
SECTION_JOG_LINES
10
152.274390
20
56.466449
11
142.555780
21
56.464954
0
LINE
8
SECTION_JOG_LINES
10
142.555780
20
56.464954
11
142.555498
21
58.297741
0
LINE
8
SECTION_JOG_LINES
10
142.555498
20
58.297741
11
146.293421
21
58.298316
0
LINE
8
SECTION_JOG_LINES
10
146.293421
20
58.298316
11
146.291570
21
70.332016
0
LINE
8
SECTION_JOG_LINES
10
146.291570
20
70.332016
11
142.553647
21
70.331441
0
LINE
8
SECTION_JOG_LINES
10
142.553647
20
70.331441
11
142.553395
21
71.971304
0
LINE
8
SECTION_JOG_LINES
10
142.553395
20
71.971304
11
144.181197
21
72.092132
0
LINE
8
SECTION_JOG_LINES
10
144.181197
20
72.092132
11
145.495429
21
72.466127
0
LINE
8
SECTION_JOG_LINES
10
145.495429
20
72.466127
11
146.363488
21
73.225902
0
LINE
8
SECTION_JOG_LINES
10
146.363488
20
73.225902
11
146.619619
21
73.774572
0
LINE
8
SECTION_JOG_LINES
10
146.619619
20
73.774572
11
146.737072
21
74.479973
0
LINE
8
SECTION_JOG_LINES
10
146.737072
20
74.479973
11
148.606033
21
74.480260
0
LINE
8
SECTION_JOG_LINES
10
148.606033
20
74.480260
11
148.608522
21
58.298672
0
LINE
8
SECTION_JOG_LINES
10
148.608522
20
58.298672
11
152.274108
21
58.299236
0
LINE
8
SECTION_JOG_LINES
10
152.274108
20
58.299236
11
152.274390
21
56.466449
0
LINE
8
SECTION_JOG_LINES
10
167.417685
20
65.114232
11
167.945301
21
64.529510
0
LINE
8
SECTION_JOG_LINES
10
167.945301
20
64.529510
11
168.370437
21
63.812135
0
LINE
8
SECTION_JOG_LINES
10
168.370437
20
63.812135
11
168.650928
21
62.913871
0
LINE
8
SECTION_JOG_LINES
10
168.650928
20
62.913871
11
168.744552
21
61.786479
0
LINE
8
SECTION_JOG_LINES
10
168.744552
20
61.786479
11
168.633198
21
60.607811
0
LINE
8
SECTION_JOG_LINES
10
168.633198
20
60.607811
11
168.298759
21
59.531600
0
LINE
8
SECTION_JOG_LINES
10
168.298759
20
59.531600
11
167.762332
21
58.572920
0
LINE
8
SECTION_JOG_LINES
10
167.762332
20
58.572920
11
167.045016
21
57.746850
0
LINE
8
SECTION_JOG_LINES
10
167.045016
20
57.746850
11
166.059398
21
57.011172
0
LINE
8
SECTION_JOG_LINES
10
166.059398
20
57.011172
11
164.910976
21
56.492509
0
LINE
8
SECTION_JOG_LINES
10
164.910976
20
56.492509
11
163.632888
21
56.193881
0
LINE
8
SECTION_JOG_LINES
10
163.632888
20
56.193881
11
162.234198
21
56.094189
0
LINE
8
SECTION_JOG_LINES
10
162.234198
20
56.094189
11
160.751078
21
56.184394
0
LINE
8
SECTION_JOG_LINES
10
160.751078
20
56.184394
11
159.292033
21
56.455471
0
LINE
8
SECTION_JOG_LINES
10
159.292033
20
56.455471
11
156.916541
21
57.226804
0
LINE
8
SECTION_JOG_LINES
10
156.916541
20
57.226804
11
156.916153
21
59.746889
0
LINE
8
SECTION_JOG_LINES
10
156.916153
20
59.746889
11
157.097022
21
59.746916
0
LINE
8
SECTION_JOG_LINES
10
157.097022
20
59.746916
11
158.212460
21
59.129125
0
LINE
8
SECTION_JOG_LINES
10
158.212460
20
59.129125
11
159.508736
21
58.625911
0
LINE
8
SECTION_JOG_LINES
10
159.508736
20
58.625911
11
160.871324
21
58.291515
0
LINE
8
SECTION_JOG_LINES
10
160.871324
20
58.291515
11
162.185644
21
58.180183
0
LINE
8
SECTION_JOG_LINES
10
162.185644
20
58.180183
11
163.801360
21
58.433645
0
LINE
8
SECTION_JOG_LINES
10
163.801360
20
58.433645
11
164.576031
21
58.747269
0
LINE
8
SECTION_JOG_LINES
10
164.576031
20
58.747269
11
165.187899
21
59.181443
0
LINE
8
SECTION_JOG_LINES
10
165.187899
20
59.181443
11
166.007635
21
60.351179
0
LINE
8
SECTION_JOG_LINES
10
166.007635
20
60.351179
11
166.215525
21
61.074679
0
LINE
8
SECTION_JOG_LINES
10
166.215525
20
61.074679
11
166.284722
21
61.966967
0
LINE
8
SECTION_JOG_LINES
10
166.284722
20
61.966967
11
166.206211
21
62.847177
0
LINE
8
SECTION_JOG_LINES
10
166.206211
20
62.847177
11
165.970973
21
63.558552
0
LINE
8
SECTION_JOG_LINES
10
165.970973
20
63.558552
11
165.609154
21
64.128228
0
LINE
8
SECTION_JOG_LINES
10
165.609154
20
64.128228
11
165.126773
21
64.559221
0
LINE
8
SECTION_JOG_LINES
10
165.126773
20
64.559221
11
164.526849
21
64.872631
0
LINE
8
SECTION_JOG_LINES
10
164.526849
20
64.872631
11
163.812405
21
65.065446
0
LINE
8
SECTION_JOG_LINES
10
163.812405
20
65.065446
11
162.148394
21
65.209883
0
LINE
8
SECTION_JOG_LINES
10
162.148394
20
65.209883
11
161.063180
21
65.209716
0
LINE
8
SECTION_JOG_LINES
10
161.063180
20
65.209716
11
161.062872
21
67.211315
0
LINE
8
SECTION_JOG_LINES
10
161.062872
20
67.211315
11
161.906919
21
67.211445
0
LINE
8
SECTION_JOG_LINES
10
161.906919
20
67.211445
11
163.552788
21
67.401609
0
LINE
8
SECTION_JOG_LINES
10
163.552788
20
67.401609
11
164.824808
21
67.971535
0
LINE
8
SECTION_JOG_LINES
10
164.824808
20
67.971535
11
165.304790
21
68.401169
0
LINE
8
SECTION_JOG_LINES
10
165.304790
20
68.401169
11
165.647602
21
68.918200
0
LINE
8
SECTION_JOG_LINES
10
165.647602
20
68.918200
11
165.853244
21
69.522630
0
LINE
8
SECTION_JOG_LINES
10
165.853244
20
69.522630
11
165.921716
21
70.214457
0
LINE
8
SECTION_JOG_LINES
10
165.921716
20
70.214457
11
165.852288
21
70.823366
0
LINE
8
SECTION_JOG_LINES
10
165.852288
20
70.823366
11
165.644205
21
71.347849
0
LINE
8
SECTION_JOG_LINES
10
165.644205
20
71.347849
11
164.872398
21
72.155604
0
LINE
8
SECTION_JOG_LINES
10
164.872398
20
72.155604
11
163.763014
21
72.589515
0
LINE
8
SECTION_JOG_LINES
10
163.763014
20
72.589515
11
162.424576
21
72.709887
0
LINE
8
SECTION_JOG_LINES
10
162.424576
20
72.709887
11
161.242931
21
72.607214
0
LINE
8
SECTION_JOG_LINES
10
161.242931
20
72.607214
11
159.988968
21
72.299547
0
LINE
8
SECTION_JOG_LINES
10
159.988968
20
72.299547
11
158.735026
21
71.804983
0
LINE
8
SECTION_JOG_LINES
10
158.735026
20
71.804983
11
157.553447
21
71.141622
0
LINE
8
SECTION_JOG_LINES
10
157.553447
20
71.141622
11
157.432877
21
71.141603
0
LINE
8
SECTION_JOG_LINES
10
157.432877
20
71.141603
11
157.432489
21
73.661687
0
LINE
8
SECTION_JOG_LINES
10
157.432489
20
73.661687
11
159.711303
21
74.433737
0
LINE
8
SECTION_JOG_LINES
10
159.711303
20
74.433737
11
161.122025
21
74.705255
0
LINE
8
SECTION_JOG_LINES
10
161.122025
20
74.705255
11
162.484527
21
74.795898
0
LINE
8
SECTION_JOG_LINES
10
162.484527
20
74.795898
11
164.799666
21
74.555098
0
LINE
8
SECTION_JOG_LINES
10
164.799666
20
74.555098
11
165.752292
21
74.241741
0
LINE
8
SECTION_JOG_LINES
10
165.752292
20
74.241741
11
166.608474
21
73.783676
0
LINE
8
SECTION_JOG_LINES
10
166.608474
20
73.783676
11
167.371219
21
73.144729
0
LINE
8
SECTION_JOG_LINES
10
167.371219
20
73.144729
11
167.922979
21
72.385172
0
LINE
8
SECTION_JOG_LINES
10
167.922979
20
72.385172
11
168.257720
21
71.495960
0
LINE
8
SECTION_JOG_LINES
10
168.257720
20
71.495960
11
168.369413
21
70.468048
0
LINE
8
SECTION_JOG_LINES
10
168.369413
20
70.468048
11
168.104358
21
69.066286
0
LINE
8
SECTION_JOG_LINES
10
168.104358
20
69.066286
11
167.308732
21
67.851339
0
LINE
8
SECTION_JOG_LINES
10
167.308732
20
67.851339
11
166.163386
21
66.946826
0
LINE
8
SECTION_JOG_LINES
10
166.163386
20
66.946826
11
164.825042
21
66.452250
0
LINE
8
SECTION_JOG_LINES
10
164.825042
20
66.452250
11
164.825068
21
66.283441
0
LINE
8
SECTION_JOG_LINES
10
164.825068
20
66.283441
11
166.151486
21
65.873678
0
LINE
8
SECTION_JOG_LINES
10
166.151486
20
65.873678
11
167.417685
21
65.114232
0
LINE
8
SECTION_JOG_LINES
10
167.417685
20
65.114232
11
167.417685
21
65.114232
0
LINE
8
SECTION_JOG_LINES
10
505.477190
20
48.264349
11
495.758580
21
48.262854
0
LINE
8
SECTION_JOG_LINES
10
495.758580
20
48.262854
11
495.758298
21
50.095641
0
LINE
8
SECTION_JOG_LINES
10
495.758298
20
50.095641
11
499.496221
21
50.096216
0
LINE
8
SECTION_JOG_LINES
10
499.496221
20
50.096216
11
499.494370
21
62.129916
0
LINE
8
SECTION_JOG_LINES
10
499.494370
20
62.129916
11
495.756447
21
62.129341
0
LINE
8
SECTION_JOG_LINES
10
495.756447
20
62.129341
11
495.756195
21
63.769204
0
LINE
8
SECTION_JOG_LINES
10
495.756195
20
63.769204
11
497.383997
21
63.890032
0
LINE
8
SECTION_JOG_LINES
10
497.383997
20
63.890032
11
498.698229
21
64.264027
0
LINE
8
SECTION_JOG_LINES
10
498.698229
20
64.264027
11
499.566288
21
65.023802
0
LINE
8
SECTION_JOG_LINES
10
499.566288
20
65.023802
11
499.822419
21
65.572472
0
LINE
8
SECTION_JOG_LINES
10
499.822419
20
65.572472
11
499.939872
21
66.277873
0
LINE
8
SECTION_JOG_LINES
10
499.939872
20
66.277873
11
501.808833
21
66.278160
0
LINE
8
SECTION_JOG_LINES
10
501.808833
20
66.278160
11
501.811322
21
50.096572
0
LINE
8
SECTION_JOG_LINES
10
501.811322
20
50.096572
11
505.476908
21
50.097136
0
LINE
8
SECTION_JOG_LINES
10
505.476908
20
50.097136
11
505.477190
21
48.264349
0
LINE
8
SECTION_JOG_LINES
10
522.610570
20
53.319210
11
519.945796
21
53.318800
0
LINE
8
SECTION_JOG_LINES
10
519.945796
20
53.318800
11
519.946573
21
48.266575
0
LINE
8
SECTION_JOG_LINES
10
519.946573
20
48.266575
11
517.631472
21
48.266218
0
LINE
8
SECTION_JOG_LINES
10
517.631472
20
48.266218
11
517.630694
21
53.318444
0
LINE
8
SECTION_JOG_LINES
10
517.630694
20
53.318444
11
509.033467
21
53.317121
0
LINE
8
SECTION_JOG_LINES
10
509.033467
20
53.317121
11
509.033040
21
56.090417
0
LINE
8
SECTION_JOG_LINES
10
509.033040
20
56.090417
11
517.725177
21
66.220319
0
LINE
8
SECTION_JOG_LINES
10
517.725177
20
66.220319
11
519.943811
21
66.220661
0
LINE
8
SECTION_JOG_LINES
10
519.943811
20
66.220661
11
519.945499
21
55.248049
0
LINE
8
SECTION_JOG_LINES
10
519.945499
20
55.248049
11
522.610273
21
55.248459
0
LINE
8
SECTION_JOG_LINES
10
522.610273
20
55.248459
11
522.610570
21
53.319210
0
LINE
8
SECTION_JOG_LINES
10
517.630398
20
55.247693
11
517.629151
21
63.350545
0
LINE
8
SECTION_JOG_LINES
10
517.629151
20
63.350545
11
510.673029
21
55.246623
0
LINE
8
SECTION_JOG_LINES
10
510.673029
20
55.246623
11
517.630398
21
55.247693
0
LINE
8
SECTION_JOG_LINES
10
209.408390
20
46.147749
11
199.689780
21
46.146254
0
LINE
8
SECTION_JOG_LINES
10
199.689780
20
46.146254
11
199.689498
21
47.979041
0
LINE
8
SECTION_JOG_LINES
10
199.689498
20
47.979041
11
203.427421
21
47.979616
0
LINE
8
SECTION_JOG_LINES
10
203.427421
20
47.979616
11
203.425570
21
60.013316
0
LINE
8
SECTION_JOG_LINES
10
203.425570
20
60.013316
11
199.687647
21
60.012741
0
LINE
8
SECTION_JOG_LINES
10
199.687647
20
60.012741
11
199.687395
21
61.652604
0
LINE
8
SECTION_JOG_LINES
10
199.687395
20
61.652604
11
201.315197
21
61.773432
0
LINE
8
SECTION_JOG_LINES
10
201.315197
20
61.773432
11
202.629429
21
62.147427
0
LINE
8
SECTION_JOG_LINES
10
202.629429
20
62.147427
11
203.497488
21
62.907202
0
LINE
8
SECTION_JOG_LINES
10
203.497488
20
62.907202
11
203.753619
21
63.455872
0
LINE
8
SECTION_JOG_LINES
10
203.753619
20
63.455872
11
203.871072
21
64.161273
0
LINE
8
SECTION_JOG_LINES
10
203.871072
20
64.161273
11
205.740033
21
64.161560
0
LINE
8
SECTION_JOG_LINES
10
205.740033
20
64.161560
11
205.742522
21
47.979972
0
LINE
8
SECTION_JOG_LINES
10
205.742522
20
47.979972
11
209.408108
21
47.980536
0
LINE
8
SECTION_JOG_LINES
10
209.408108
20
47.980536
11
209.408390
21
46.147749
0
LINE
8
SECTION_JOG_LINES
10
225.986998
20
51.853645
11
225.872642
21
50.626745
0
LINE
8
SECTION_JOG_LINES
10
225.872642
20
50.626745
11
225.529189
21
49.454071
0
LINE
8
SECTION_JOG_LINES
10
225.529189
20
49.454071
11
224.986744
21
48.398928
0
LINE
8
SECTION_JOG_LINES
10
224.986744
20
48.398928
11
224.275468
21
47.524626
0
LINE
8
SECTION_JOG_LINES
10
224.275468
20
47.524626
11
223.323005
21
46.776896
0
LINE
8
SECTION_JOG_LINES
10
223.323005
20
46.776896
11
222.201708
21
46.222064
0
LINE
8
SECTION_JOG_LINES
10
222.201708
20
46.222064
11
220.911580
21
45.887261
0
LINE
8
SECTION_JOG_LINES
10
220.911580
20
45.887261
11
219.428497
21
45.775498
0
LINE
8
SECTION_JOG_LINES
10
219.428497
20
45.775498
11
217.984556
21
45.853652
0
LINE
8
SECTION_JOG_LINES
10
217.984556
20
45.853652
11
216.594844
21
46.088566
0
LINE
8
SECTION_JOG_LINES
10
216.594844
20
46.088566
11
214.291695
21
46.823737
0
LINE
8
SECTION_JOG_LINES
10
214.291695
20
46.823737
11
214.291303
21
49.367938
0
LINE
8
SECTION_JOG_LINES
10
214.291303
20
49.367938
11
214.460107
21
49.367964
0
LINE
8
SECTION_JOG_LINES
10
214.460107
20
49.367964
11
215.533345
21
48.786339
0
LINE
8
SECTION_JOG_LINES
10
215.533345
20
48.786339
11
216.775374
21
48.295174
0
LINE
8
SECTION_JOG_LINES
10
216.775374
20
48.295174
11
218.089740
21
47.969814
0
LINE
8
SECTION_JOG_LINES
10
218.089740
20
47.969814
11
219.379942
21
47.861492
0
LINE
8
SECTION_JOG_LINES
10
219.379942
20
47.861492
11
221.031829
21
48.102903
0
LINE
8
SECTION_JOG_LINES
10
221.031829
20
48.102903
11
221.794439
21
48.434610
0
LINE
8
SECTION_JOG_LINES
10
221.794439
20
48.434610
11
222.466586
21
48.947170
0
LINE
8
SECTION_JOG_LINES
10
222.466586
20
48.947170
11
222.930722
21
49.516974
0
LINE
8
SECTION_JOG_LINES
10
222.930722
20
49.516974
11
223.262208
21
50.189247
0
LINE
8
SECTION_JOG_LINES
10
223.262208
20
50.189247
11
223.470070
21
50.970024
0
LINE
8
SECTION_JOG_LINES
10
223.470070
20
50.970024
11
223.539259
21
51.865328
0
LINE
8
SECTION_JOG_LINES
10
223.539259
20
51.865328
11
223.457742
21
52.721420
0
LINE
8
SECTION_JOG_LINES
10
223.457742
20
52.721420
11
223.213475
21
53.432792
0
LINE
8
SECTION_JOG_LINES
10
223.213475
20
53.432792
11
222.836574
21
54.008496
0
LINE
8
SECTION_JOG_LINES
10
222.836574
20
54.008496
11
222.333076
21
54.457572
0
LINE
8
SECTION_JOG_LINES
10
222.333076
20
54.457572
11
221.636694
21
54.846329
0
LINE
8
SECTION_JOG_LINES
10
221.636694
20
54.846329
11
220.801651
21
55.096399
0
LINE
8
SECTION_JOG_LINES
10
220.801651
20
55.096399
11
218.800024
21
55.289018
0
LINE
8
SECTION_JOG_LINES
10
218.800024
20
55.289018
11
216.750216
21
55.144010
0
LINE
8
SECTION_JOG_LINES
10
216.750216
20
55.144010
11
215.062168
21
54.854362
0
LINE
8
SECTION_JOG_LINES
10
215.062168
20
54.854362
11
215.060746
21
64.102705
0
LINE
8
SECTION_JOG_LINES
10
215.060746
20
64.102705
11
225.864543
21
64.104367
0
LINE
8
SECTION_JOG_LINES
10
225.864543
20
64.104367
11
225.864867
21
61.994249
0
LINE
8
SECTION_JOG_LINES
10
225.864867
20
61.994249
11
217.388237
21
61.992945
0
LINE
8
SECTION_JOG_LINES
10
217.388237
20
61.992945
11
217.388971
21
57.218051
0
LINE
8
SECTION_JOG_LINES
10
217.388971
20
57.218051
11
218.450044
21
57.290561
0
LINE
8
SECTION_JOG_LINES
10
218.450044
20
57.290561
11
219.390553
21
57.314822
0
LINE
8
SECTION_JOG_LINES
10
219.390553
20
57.314822
11
221.946834
21
57.062002
0
LINE
8
SECTION_JOG_LINES
10
221.946834
20
57.062002
11
222.998928
21
56.724545
0
LINE
8
SECTION_JOG_LINES
10
222.998928
20
56.724545
11
223.960630
21
56.194149
0
LINE
8
SECTION_JOG_LINES
10
223.960630
20
56.194149
11
224.816845
21
55.434639
0
LINE
8
SECTION_JOG_LINES
10
224.816845
20
55.434639
11
225.456052
21
54.482170
0
LINE
8
SECTION_JOG_LINES
10
225.456052
20
54.482170
11
225.854140
21
53.300564
0
LINE
8
SECTION_JOG_LINES
10
225.854140
20
53.300564
11
225.986998
21
51.853646
0
LINE
8
SECTION_JOG_LINES
10
225.986998
20
51.853646
11
225.986998
21
51.853645
0
LINE
8
SECTION_JOG_LINES
10
448.081290
20
44.031049
11
438.362680
21
44.029554
0
LINE
8
SECTION_JOG_LINES
10
438.362680
20
44.029554
11
438.362398
21
45.862341
0
LINE
8
SECTION_JOG_LINES
10
438.362398
20
45.862341
11
442.100321
21
45.862916
0
LINE
8
SECTION_JOG_LINES
10
442.100321
20
45.862916
11
442.098470
21
57.896616
0
LINE
8
SECTION_JOG_LINES
10
442.098470
20
57.896616
11
438.360547
21
57.896041
0
LINE
8
SECTION_JOG_LINES
10
438.360547
20
57.896041
11
438.360295
21
59.535904
0
LINE
8
SECTION_JOG_LINES
10
438.360295
20
59.535904
11
439.988097
21
59.656732
0
LINE
8
SECTION_JOG_LINES
10
439.988097
20
59.656732
11
441.302329
21
60.030727
0
LINE
8
SECTION_JOG_LINES
10
441.302329
20
60.030727
11
442.170388
21
60.790502
0
LINE
8
SECTION_JOG_LINES
10
442.170388
20
60.790502
11
442.426519
21
61.339172
0
LINE
8
SECTION_JOG_LINES
10
442.426519
20
61.339172
11
442.543972
21
62.044573
0
LINE
8
SECTION_JOG_LINES
10
442.543972
20
62.044573
11
444.412933
21
62.044860
0
LINE
8
SECTION_JOG_LINES
10
444.412933
20
62.044860
11
444.415422
21
45.863272
0
LINE
8
SECTION_JOG_LINES
10
444.415422
20
45.863272
11
448.081008
21
45.863836
0
LINE
8
SECTION_JOG_LINES
10
448.081008
20
45.863836
11
448.081290
21
44.031049
0
LINE
8
SECTION_JOG_LINES
10
465.069851
20
49.857586
11
464.957010
21
48.551557
0
LINE
8
SECTION_JOG_LINES
10
464.957010
20
48.551557
11
464.618067
21
47.370593
0
LINE
8
SECTION_JOG_LINES
10
464.618067
20
47.370593
11
464.053023
21
46.314694
0
LINE
8
SECTION_JOG_LINES
10
464.053023
20
46.314694
11
463.261876
21
45.383861
0
LINE
8
SECTION_JOG_LINES
10
463.261876
20
45.383861
11
462.312435
21
44.629347
0
LINE
8
SECTION_JOG_LINES
10
462.312435
20
44.629347
11
461.260471
21
44.090351
0
LINE
8
SECTION_JOG_LINES
10
461.260471
20
44.090351
11
460.105985
21
43.766873
0
LINE
8
SECTION_JOG_LINES
10
460.105985
20
43.766873
11
458.848976
21
43.658913
0
LINE
8
SECTION_JOG_LINES
10
458.848976
20
43.658913
11
457.582891
21
43.761210
0
LINE
8
SECTION_JOG_LINES
10
457.582891
20
43.761210
11
456.437345
21
44.068508
0
LINE
8
SECTION_JOG_LINES
10
456.437345
20
44.068508
11
455.415374
21
44.577793
0
LINE
8
SECTION_JOG_LINES
10
455.415374
20
44.577793
11
454.519963
21
45.286051
0
LINE
8
SECTION_JOG_LINES
10
454.519963
20
45.286051
11
453.600384
21
46.449489
0
LINE
8
SECTION_JOG_LINES
10
453.600384
20
46.449489
11
452.915864
21
47.938524
0
LINE
8
SECTION_JOG_LINES
10
452.915864
20
47.938524
11
452.499600
21
49.759191
0
LINE
8
SECTION_JOG_LINES
10
452.499600
20
49.759191
11
452.360607
21
51.917519
0
LINE
8
SECTION_JOG_LINES
10
452.360607
20
51.917519
11
452.486863
21
54.169334
0
LINE
8
SECTION_JOG_LINES
10
452.486863
20
54.169334
11
452.866367
21
56.149889
0
LINE
8
SECTION_JOG_LINES
10
452.866367
20
56.149889
11
453.535322
21
57.892346
0
LINE
8
SECTION_JOG_LINES
10
453.535322
20
57.892346
11
454.505748
21
59.429867
0
LINE
8
SECTION_JOG_LINES
10
454.505748
20
59.429867
11
455.720381
21
60.641864
0
LINE
8
SECTION_JOG_LINES
10
455.720381
20
60.641864
11
457.242533
21
61.552463
0
LINE
8
SECTION_JOG_LINES
10
457.242533
20
61.552463
11
459.057139
21
62.131518
0
LINE
8
SECTION_JOG_LINES
10
459.057139
20
62.131518
11
461.149141
21
62.324765
0
LINE
8
SECTION_JOG_LINES
10
461.149141
20
62.324765
11
462.342869
21
62.264659
0
LINE
8
SECTION_JOG_LINES
10
462.342869
20
62.264659
11
463.319584
21
62.047769
0
LINE
8
SECTION_JOG_LINES
10
463.319584
20
62.047769
11
463.319939
21
59.744726
0
LINE
8
SECTION_JOG_LINES
10
463.319939
20
59.744726
11
463.199368
21
59.744707
0
LINE
8
SECTION_JOG_LINES
10
463.199368
20
59.744707
11
462.174401
21
60.082169
0
LINE
8
SECTION_JOG_LINES
10
462.174401
20
60.082169
11
460.787722
21
60.250765
0
LINE
8
SECTION_JOG_LINES
10
460.787722
20
60.250765
11
459.557094
21
60.148838
0
LINE
8
SECTION_JOG_LINES
10
459.557094
20
60.148838
11
458.457622
21
59.843455
0
LINE
8
SECTION_JOG_LINES
10
458.457622
20
59.843455
11
457.489305
21
59.334617
0
LINE
8
SECTION_JOG_LINES
10
457.489305
20
59.334617
11
456.652143
21
58.622323
0
LINE
8
SECTION_JOG_LINES
10
456.652143
20
58.622323
11
455.961219
21
57.742750
0
LINE
8
SECTION_JOG_LINES
10
455.961219
20
57.742750
11
455.431590
21
56.720016
0
LINE
8
SECTION_JOG_LINES
10
455.431590
20
56.720016
11
455.063257
21
55.554119
0
LINE
8
SECTION_JOG_LINES
10
455.063257
20
55.554119
11
454.856219
21
54.245061
0
LINE
8
SECTION_JOG_LINES
10
454.856219
20
54.245061
11
456.845608
21
55.173818
0
LINE
8
SECTION_JOG_LINES
10
456.845608
20
55.173818
11
457.909677
21
55.418153
0
LINE
8
SECTION_JOG_LINES
10
457.909677
20
55.418153
11
459.124490
21
55.499730
0
LINE
8
SECTION_JOG_LINES
10
459.124490
20
55.499730
11
461.138186
21
55.282999
0
LINE
8
SECTION_JOG_LINES
10
461.138186
20
55.282999
11
462.027491
21
54.969632
0
LINE
8
SECTION_JOG_LINES
10
462.027491
20
54.969632
11
462.934913
21
54.439227
0
LINE
8
SECTION_JOG_LINES
10
462.934913
20
54.439227
11
463.863490
21
53.607382
0
LINE
8
SECTION_JOG_LINES
10
463.863490
20
53.607382
11
464.526825
21
52.582570
0
LINE
8
SECTION_JOG_LINES
10
464.526825
20
52.582570
11
464.933971
21
51.340678
0
LINE
8
SECTION_JOG_LINES
10
464.933971
20
51.340678
11
465.069851
21
49.857586
0
LINE
8
SECTION_JOG_LINES
10
465.069851
20
49.857586
11
465.069851
21
49.857586
0
LINE
8
SECTION_JOG_LINES
10
462.622129
20
49.760748
11
462.537569
21
50.785650
0
LINE
8
SECTION_JOG_LINES
10
462.537569
20
50.785650
11
462.284235
21
51.617601
0
LINE
8
SECTION_JOG_LINES
10
462.284235
20
51.617601
11
461.850041
21
52.304828
0
LINE
8
SECTION_JOG_LINES
10
461.850041
20
52.304828
11
461.198825
21
52.895560
0
LINE
8
SECTION_JOG_LINES
10
461.198825
20
52.895560
11
459.968859
21
53.401801
0
LINE
8
SECTION_JOG_LINES
10
459.968859
20
53.401801
11
458.558084
21
53.522160
0
LINE
8
SECTION_JOG_LINES
10
458.558084
20
53.522160
11
456.652965
21
53.280713
0
LINE
8
SECTION_JOG_LINES
10
456.652965
20
53.280713
11
454.844417
21
52.532850
0
LINE
8
SECTION_JOG_LINES
10
454.844417
20
52.532850
11
454.808328
21
52.014357
0
LINE
8
SECTION_JOG_LINES
10
454.808328
20
52.014357
11
454.796252
21
51.399406
0
LINE
8
SECTION_JOG_LINES
10
454.796252
20
51.399406
11
454.892975
21
49.693242
0
LINE
8
SECTION_JOG_LINES
10
454.892975
20
49.693242
11
455.182557
21
48.385013
0
LINE
8
SECTION_JOG_LINES
10
455.182557
20
48.385013
11
455.652965
21
47.402374
0
LINE
8
SECTION_JOG_LINES
10
455.652965
20
47.402374
11
456.268038
21
46.648854
0
LINE
8
SECTION_JOG_LINES
10
456.268038
20
46.648854
11
457.461878
21
45.865279
0
LINE
8
SECTION_JOG_LINES
10
457.461878
20
45.865279
11
458.872671
21
45.624342
0
LINE
8
SECTION_JOG_LINES
10
458.872671
20
45.624342
11
460.434127
21
45.889854
0
LINE
8
SECTION_JOG_LINES
10
460.434127
20
45.889854
11
461.074653
21
46.221542
0
LINE
8
SECTION_JOG_LINES
10
461.074653
20
46.221542
11
461.621711
21
46.685851
0
LINE
8
SECTION_JOG_LINES
10
461.621711
20
46.685851
11
462.059463
21
47.280520
0
LINE
8
SECTION_JOG_LINES
10
462.059463
20
47.280520
11
462.372099
21
47.991226
0
LINE
8
SECTION_JOG_LINES
10
462.372099
20
47.991226
11
462.622023
21
49.760748
0
LINE
8
SECTION_JOG_LINES
10
462.622023
20
49.760748
11
462.622129
21
49.760748
0
LINE
8
SECTION_JOG_LINES
10
276.055390
20
45.089349
11
266.336780
21
45.087854
0
LINE
8
SECTION_JOG_LINES
10
266.336780
20
45.087854
11
266.336498
21
46.920641
0
LINE
8
SECTION_JOG_LINES
10
266.336498
20
46.920641
11
270.074421
21
46.921216
0
LINE
8
SECTION_JOG_LINES
10
270.074421
20
46.921216
11
270.072570
21
58.954916
0
LINE
8
SECTION_JOG_LINES
10
270.072570
20
58.954916
11
266.334647
21
58.954341
0
LINE
8
SECTION_JOG_LINES
10
266.334647
20
58.954341
11
266.334395
21
60.594204
0
LINE
8
SECTION_JOG_LINES
10
266.334395
20
60.594204
11
267.962197
21
60.715032
0
LINE
8
SECTION_JOG_LINES
10
267.962197
20
60.715032
11
269.276429
21
61.089027
0
LINE
8
SECTION_JOG_LINES
10
269.276429
20
61.089027
11
270.144488
21
61.848802
0
LINE
8
SECTION_JOG_LINES
10
270.144488
20
61.848802
11
270.400619
21
62.397472
0
LINE
8
SECTION_JOG_LINES
10
270.400619
20
62.397472
11
270.518072
21
63.102873
0
LINE
8
SECTION_JOG_LINES
10
270.518072
20
63.102873
11
272.387033
21
63.103160
0
LINE
8
SECTION_JOG_LINES
10
272.387033
20
63.103160
11
272.389522
21
46.921572
0
LINE
8
SECTION_JOG_LINES
10
272.389522
20
46.921572
11
276.055108
21
46.922136
0
LINE
8
SECTION_JOG_LINES
10
276.055108
20
46.922136
11
276.055390
21
45.089349
0
LINE
8
SECTION_JOG_LINES
10
292.825461
20
60.357123
11
284.700851
21
45.090679
0
LINE
8
SECTION_JOG_LINES
10
284.700851
20
45.090679
11
282.120479
21
45.090282
0
LINE
8
SECTION_JOG_LINES
10
282.120479
20
45.090282
11
290.763476
21
60.935580
0
LINE
8
SECTION_JOG_LINES
10
290.763476
20
60.935580
11
280.538455
21
60.934007
0
LINE
8
SECTION_JOG_LINES
10
280.538455
20
60.934007
11
280.538130
21
63.044125
0
LINE
8
SECTION_JOG_LINES
10
280.538130
20
63.044125
11
292.825047
21
63.046015
0
LINE
8
SECTION_JOG_LINES
10
292.825047
20
63.046015
11
292.825461
21
60.357123
0
LINE
8
SECTION_JOG_LINES
10
378.476890
20
51.174849
11
368.758280
21
51.173354
0
LINE
8
SECTION_JOG_LINES
10
368.758280
20
51.173354
11
368.757998
21
53.006141
0
LINE
8
SECTION_JOG_LINES
10
368.757998
20
53.006141
11
372.495921
21
53.006716
0
LINE
8
SECTION_JOG_LINES
10
372.495921
20
53.006716
11
372.494070
21
65.040416
0
LINE
8
SECTION_JOG_LINES
10
372.494070
20
65.040416
11
368.756147
21
65.039841
0
LINE
8
SECTION_JOG_LINES
10
368.756147
20
65.039841
11
368.755895
21
66.679704
0
LINE
8
SECTION_JOG_LINES
10
368.755895
20
66.679704
11
370.383697
21
66.800532
0
LINE
8
SECTION_JOG_LINES
10
370.383697
20
66.800532
11
371.697929
21
67.174527
0
LINE
8
SECTION_JOG_LINES
10
371.697929
20
67.174527
11
372.565988
21
67.934302
0
LINE
8
SECTION_JOG_LINES
10
372.565988
20
67.934302
11
372.822119
21
68.482972
0
LINE
8
SECTION_JOG_LINES
10
372.822119
20
68.482972
11
372.939572
21
69.188373
0
LINE
8
SECTION_JOG_LINES
10
372.939572
20
69.188373
11
374.808533
21
69.188660
0
LINE
8
SECTION_JOG_LINES
10
374.808533
20
69.188660
11
374.811022
21
53.007072
0
LINE
8
SECTION_JOG_LINES
10
374.811022
20
53.007072
11
378.476608
21
53.007636
0
LINE
8
SECTION_JOG_LINES
10
378.476608
20
53.007636
11
378.476890
21
51.174849
0
LINE
8
SECTION_JOG_LINES
10
395.332941
20
56.181437
11
395.219317
21
55.066825
0
LINE
8
SECTION_JOG_LINES
10
395.219317
20
55.066825
11
394.878087
21
54.050147
0
LINE
8
SECTION_JOG_LINES
10
394.878087
20
54.050147
11
394.309251
21
53.131404
0
LINE
8
SECTION_JOG_LINES
10
394.309251
20
53.131404
11
393.512809
21
52.310596
0
LINE
8
SECTION_JOG_LINES
10
393.512809
20
52.310596
11
392.549799
21
51.635210
0
LINE
8
SECTION_JOG_LINES
10
392.549799
20
51.635210
11
391.469196
21
51.152731
0
LINE
8
SECTION_JOG_LINES
10
391.469196
20
51.152731
11
390.270998
21
50.863159
0
LINE
8
SECTION_JOG_LINES
10
390.270998
20
50.863159
11
388.955207
21
50.766494
0
LINE
8
SECTION_JOG_LINES
10
388.955207
20
50.766494
11
387.570044
21
50.860483
0
LINE
8
SECTION_JOG_LINES
10
387.570044
20
50.860483
11
386.332563
21
51.142898
0
LINE
8
SECTION_JOG_LINES
10
386.332563
20
51.142898
11
385.242762
21
51.613740
0
LINE
8
SECTION_JOG_LINES
10
385.242762
20
51.613740
11
384.300643
21
52.273007
0
LINE
8
SECTION_JOG_LINES
10
384.300643
20
52.273007
11
383.546155
21
53.079257
0
LINE
8
SECTION_JOG_LINES
10
383.546155
20
53.079257
11
383.007183
21
53.991046
0
LINE
8
SECTION_JOG_LINES
10
383.007183
20
53.991046
11
382.683727
21
55.008374
0
LINE
8
SECTION_JOG_LINES
10
382.683727
20
55.008374
11
382.575788
21
56.131241
0
LINE
8
SECTION_JOG_LINES
10
382.575788
20
56.131241
11
382.792607
21
57.554096
0
LINE
8
SECTION_JOG_LINES
10
382.792607
20
57.554096
11
383.443523
21
58.832325
0
LINE
8
SECTION_JOG_LINES
10
383.443523
20
58.832325
11
384.489377
21
59.923719
0
LINE
8
SECTION_JOG_LINES
10
384.489377
20
59.923719
11
385.890963
21
60.761953
0
LINE
8
SECTION_JOG_LINES
10
385.890963
20
60.761953
11
385.890951
21
60.834298
0
LINE
8
SECTION_JOG_LINES
10
385.890951
20
60.834298
11
384.630797
21
61.641979
0
LINE
8
SECTION_JOG_LINES
10
384.630797
20
61.641979
11
383.744421
21
62.522063
0
LINE
8
SECTION_JOG_LINES
10
383.744421
20
62.522063
11
383.228782
21
63.552927
0
LINE
8
SECTION_JOG_LINES
10
383.228782
20
63.552927
11
383.056761
21
64.812942
0
LINE
8
SECTION_JOG_LINES
10
383.056761
20
64.812942
11
383.160611
21
65.783612
0
LINE
8
SECTION_JOG_LINES
10
383.160611
20
65.783612
11
383.472473
21
66.669910
0
LINE
8
SECTION_JOG_LINES
10
383.472473
20
66.669910
11
383.992346
21
67.471834
0
LINE
8
SECTION_JOG_LINES
10
383.992346
20
67.471834
11
384.720231
21
68.189386
0
LINE
8
SECTION_JOG_LINES
10
384.720231
20
68.189386
11
385.608644
21
68.780356
0
LINE
8
SECTION_JOG_LINES
10
385.608644
20
68.780356
11
386.610130
21
69.202533
0
LINE
8
SECTION_JOG_LINES
10
386.610130
20
69.202533
11
387.724688
21
69.455919
0
LINE
8
SECTION_JOG_LINES
10
387.724688
20
69.455919
11
388.952319
21
69.540513
0
LINE
8
SECTION_JOG_LINES
10
388.952319
20
69.540513
11
390.228946
21
69.460072
0
LINE
8
SECTION_JOG_LINES
10
390.228946
20
69.460072
11
391.369950
21
69.218338
0
LINE
8
SECTION_JOG_LINES
10
391.369950
20
69.218338
11
392.375329
21
68.815309
0
LINE
8
SECTION_JOG_LINES
10
392.375329
20
68.815309
11
393.245086
21
68.250987
0
LINE
8
SECTION_JOG_LINES
10
393.245086
20
68.250987
11
393.946806
21
67.562292
0
LINE
8
SECTION_JOG_LINES
10
393.946806
20
67.562292
11
394.448079
21
66.786147
0
LINE
8
SECTION_JOG_LINES
10
394.448079
20
66.786147
11
394.748904
21
65.922553
0
LINE
8
SECTION_JOG_LINES
10
394.748904
20
65.922553
11
394.849281
21
64.971508
0
LINE
8
SECTION_JOG_LINES
10
394.849281
20
64.971508
11
394.659556
21
63.762683
0
LINE
8
SECTION_JOG_LINES
10
394.659556
20
63.762683
11
394.090006
21
62.571886
0
LINE
8
SECTION_JOG_LINES
10
394.090006
20
62.571886
11
393.152669
21
61.528741
0
LINE
8
SECTION_JOG_LINES
10
393.152669
20
61.528741
11
391.859588
21
60.738755
0
LINE
8
SECTION_JOG_LINES
10
391.859588
20
60.738755
11
391.859599
21
60.666407
0
LINE
8
SECTION_JOG_LINES
10
391.859599
20
60.666407
11
393.348863
21
59.858763
0
LINE
8
SECTION_JOG_LINES
10
393.348863
20
59.858763
11
394.440246
21
58.882247
0
LINE
8
SECTION_JOG_LINES
10
394.440246
20
58.882247
11
395.109641
21
57.676570
0
LINE
8
SECTION_JOG_LINES
10
395.109641
20
57.676570
11
395.332941
21
56.181437
0
LINE
8
SECTION_JOG_LINES
10
395.332941
20
56.181437
11
395.332941
21
56.181437
0
LINE
8
SECTION_JOG_LINES
10
392.473885
20
64.947027
11
392.223510
21
66.104538
0
LINE
8
SECTION_JOG_LINES
10
392.223510
20
66.104538
11
391.472784
21
66.996701
0
LINE
8
SECTION_JOG_LINES
10
391.472784
20
66.996701
11
390.345287
21
67.575303
0
LINE
8
SECTION_JOG_LINES
10
390.345287
20
67.575303
11
388.940527
21
67.768012
0
LINE
8
SECTION_JOG_LINES
10
388.940527
20
67.768012
11
387.556918
21
67.586932
0
LINE
8
SECTION_JOG_LINES
10
387.556918
20
67.586932
11
386.444668
21
67.044159
0
LINE
8
SECTION_JOG_LINES
10
386.444668
20
67.044159
11
385.721336
21
66.193972
0
LINE
8
SECTION_JOG_LINES
10
385.721336
20
66.193972
11
385.480352
21
65.090645
0
LINE
8
SECTION_JOG_LINES
10
385.480352
20
65.090645
11
385.601054
21
64.279775
0
LINE
8
SECTION_JOG_LINES
10
385.601054
20
64.279775
11
385.962892
21
63.583492
0
LINE
8
SECTION_JOG_LINES
10
385.962892
20
63.583492
11
386.580943
21
62.989740
0
LINE
8
SECTION_JOG_LINES
10
386.580943
20
62.989740
11
387.446158
21
62.462344
0
LINE
8
SECTION_JOG_LINES
10
387.446158
20
62.462344
11
388.724393
21
61.895823
0
LINE
8
SECTION_JOG_LINES
10
388.724393
20
61.895823
11
390.364341
21
61.317300
0
LINE
8
SECTION_JOG_LINES
10
390.364341
20
61.317300
11
391.374057
21
62.128343
0
LINE
8
SECTION_JOG_LINES
10
391.374057
20
62.128343
11
392.016011
21
62.969475
0
LINE
8
SECTION_JOG_LINES
10
392.016011
20
62.969475
11
392.359502
21
63.891951
0
LINE
8
SECTION_JOG_LINES
10
392.359502
20
63.891951
11
392.473885
21
64.947027
0
LINE
8
SECTION_JOG_LINES
10
392.473885
20
64.947027
11
392.473885
21
64.947027
0
LINE
8
SECTION_JOG_LINES
10
392.849071
20
55.951955
11
392.725325
21
56.949721
0
LINE
8
SECTION_JOG_LINES
10
392.725325
20
56.949721
11
392.354425
21
57.724378
0
LINE
8
SECTION_JOG_LINES
10
392.354425
20
57.724378
11
391.636885
21
58.399505
0
LINE
8
SECTION_JOG_LINES
10
391.636885
20
58.399505
11
390.449088
21
59.074559
0
LINE
8
SECTION_JOG_LINES
10
390.449088
20
59.074559
11
389.207059
21
59.568739
0
LINE
8
SECTION_JOG_LINES
10
389.207059
20
59.568739
11
387.410336
21
60.207526
0
LINE
8
SECTION_JOG_LINES
10
387.410336
20
60.207526
11
386.430752
21
59.511037
0
LINE
8
SECTION_JOG_LINES
10
386.430752
20
59.511037
11
385.662192
21
58.603569
0
LINE
8
SECTION_JOG_LINES
10
385.662192
20
58.603569
11
385.174024
21
57.524319
0
LINE
8
SECTION_JOG_LINES
10
385.174024
20
57.524319
11
385.011432
21
56.312484
0
LINE
8
SECTION_JOG_LINES
10
385.011432
20
56.312484
11
385.081638
21
55.534012
0
LINE
8
SECTION_JOG_LINES
10
385.081638
20
55.534012
11
385.292006
21
54.826402
0
LINE
8
SECTION_JOG_LINES
10
385.292006
20
54.826402
11
385.642536
21
54.189652
0
LINE
8
SECTION_JOG_LINES
10
385.642536
20
54.189652
11
386.133228
21
53.623763
0
LINE
8
SECTION_JOG_LINES
10
386.133228
20
53.623763
11
386.731670
21
53.159630
0
LINE
8
SECTION_JOG_LINES
10
386.731670
20
53.159630
11
387.405452
21
52.828144
0
LINE
8
SECTION_JOG_LINES
10
387.405452
20
52.828144
11
388.979034
21
52.563115
0
LINE
8
SECTION_JOG_LINES
10
388.979034
20
52.563115
11
390.561583
21
52.789442
0
LINE
8
SECTION_JOG_LINES
10
390.561583
20
52.789442
11
391.788370
21
53.467881
0
LINE
8
SECTION_JOG_LINES
10
391.788370
20
53.467881
11
392.252518
21
53.962323
0
LINE
8
SECTION_JOG_LINES
10
392.252518
20
53.962323
11
392.584017
21
54.541149
0
LINE
8
SECTION_JOG_LINES
10
392.584017
20
54.541149
11
392.849071
21
55.951955
0
LINE
8
SECTION_JOG_LINES
10
392.849071
20
55.951955
11
392.849071
21
55.951955
0
LINE
8
SECTION_JOG_LINES
10
334.562085
20
44.173697
11
327.897901
21
44.172672
0
LINE
8
SECTION_JOG_LINES
10
327.897901
20
44.172672
11
327.897707
21
45.429441
0
LINE
8
SECTION_JOG_LINES
10
327.897707
20
45.429441
11
330.460855
21
45.429835
0
LINE
8
SECTION_JOG_LINES
10
330.460855
20
45.429835
11
330.459586
21
53.681517
0
LINE
8
SECTION_JOG_LINES
10
330.459586
20
53.681517
11
327.896438
21
53.681123
0
LINE
8
SECTION_JOG_LINES
10
327.896438
20
53.681123
11
327.896265
21
54.805601
0
LINE
8
SECTION_JOG_LINES
10
327.896265
20
54.805601
11
329.012449
21
54.888455
0
LINE
8
SECTION_JOG_LINES
10
329.012449
20
54.888455
11
329.913658
21
55.144908
0
LINE
8
SECTION_JOG_LINES
10
329.913658
20
55.144908
11
330.508890
21
55.665898
0
LINE
8
SECTION_JOG_LINES
10
330.508890
20
55.665898
11
330.765059
21
56.525832
0
LINE
8
SECTION_JOG_LINES
10
330.765059
20
56.525832
11
332.046646
21
56.526029
0
LINE
8
SECTION_JOG_LINES
10
332.046646
20
56.526029
11
332.048353
21
45.430080
0
LINE
8
SECTION_JOG_LINES
10
332.048353
20
45.430080
11
334.561892
21
45.430466
0
LINE
8
SECTION_JOG_LINES
10
334.561892
20
45.430466
11
334.562085
21
44.173697
0
LINE
8
SECTION_JOG_LINES
10
346.012494
20
51.071153
11
345.919716
21
49.533250
0
LINE
8
SECTION_JOG_LINES
10
345.919716
20
49.533250
11
345.640888
21
48.144146
0
LINE
8
SECTION_JOG_LINES
10
345.640888
20
48.144146
11
345.182189
21
46.926581
0
LINE
8
SECTION_JOG_LINES
10
345.182189
20
46.926581
11
344.533291
21
45.903289
0
LINE
8
SECTION_JOG_LINES
10
344.533291
20
45.903289
11
343.685921
21
45.068068
0
LINE
8
SECTION_JOG_LINES
10
343.685921
20
45.068068
11
342.648361
21
44.447792
0
LINE
8
SECTION_JOG_LINES
10
342.648361
20
44.447792
11
341.416449
21
44.063130
0
LINE
8
SECTION_JOG_LINES
10
341.416449
20
44.063130
11
339.986074
21
43.934753
0
LINE
8
SECTION_JOG_LINES
10
339.986074
20
43.934753
11
339.175780
21
43.984238
0
LINE
8
SECTION_JOG_LINES
10
339.175780
20
43.984238
11
338.497765
21
44.124693
0
LINE
8
SECTION_JOG_LINES
10
338.497765
20
44.124693
11
338.497522
21
45.703923
0
LINE
8
SECTION_JOG_LINES
10
338.497522
20
45.703923
11
338.580204
21
45.703936
0
LINE
8
SECTION_JOG_LINES
10
338.580204
20
45.703936
11
339.258235
21
45.464262
0
LINE
8
SECTION_JOG_LINES
10
339.258235
20
45.464262
11
340.233901
21
45.356925
0
LINE
8
SECTION_JOG_LINES
10
340.233901
20
45.356925
11
341.097915
21
45.425271
0
LINE
8
SECTION_JOG_LINES
10
341.097915
20
45.425271
11
341.862692
21
45.630027
0
LINE
8
SECTION_JOG_LINES
10
341.862692
20
45.630027
11
342.528233
21
45.971193
0
LINE
8
SECTION_JOG_LINES
10
342.528233
20
45.971193
11
343.094537
21
46.448770
0
LINE
8
SECTION_JOG_LINES
10
343.094537
20
46.448770
11
343.917024
21
47.755275
0
LINE
8
SECTION_JOG_LINES
10
343.917024
20
47.755275
11
344.301232
21
49.475123
0
LINE
8
SECTION_JOG_LINES
10
344.301232
20
49.475123
11
342.854382
21
48.813443
0
LINE
8
SECTION_JOG_LINES
10
342.854382
20
48.813443
11
341.374414
21
48.614778
0
LINE
8
SECTION_JOG_LINES
10
341.374414
20
48.614778
11
339.993586
21
48.763394
0
LINE
8
SECTION_JOG_LINES
10
339.993586
20
48.763394
11
338.761545
21
49.341980
0
LINE
8
SECTION_JOG_LINES
10
338.761545
20
49.341980
11
338.122734
21
49.914455
0
LINE
8
SECTION_JOG_LINES
10
338.122734
20
49.914455
11
337.661662
21
50.623384
0
LINE
8
SECTION_JOG_LINES
10
337.661662
20
50.623384
11
337.388679
21
51.477036
0
LINE
8
SECTION_JOG_LINES
10
337.388679
20
51.477036
11
337.297574
21
52.483678
0
LINE
8
SECTION_JOG_LINES
10
337.297574
20
52.483678
11
337.374950
21
53.382342
0
LINE
8
SECTION_JOG_LINES
10
337.374950
20
53.382342
11
337.607369
21
54.193179
0
LINE
8
SECTION_JOG_LINES
10
337.607369
20
54.193179
11
337.994831
21
54.916191
0
LINE
8
SECTION_JOG_LINES
10
337.994831
20
54.916191
11
338.537335
21
55.551378
0
LINE
8
SECTION_JOG_LINES
10
338.537335
20
55.551378
11
339.191478
21
56.068759
0
LINE
8
SECTION_JOG_LINES
10
339.191478
20
56.068759
11
339.913857
21
56.438356
0
LINE
8
SECTION_JOG_LINES
10
339.913857
20
56.438356
11
340.704471
21
56.660169
0
LINE
8
SECTION_JOG_LINES
10
340.704471
20
56.660169
11
341.563321
21
56.734198
0
LINE
8
SECTION_JOG_LINES
10
341.563321
20
56.734198
11
343.217008
21
56.453333
0
LINE
8
SECTION_JOG_LINES
10
343.217008
20
56.453333
11
343.930198
21
56.110312
0
LINE
8
SECTION_JOG_LINES
10
343.930198
20
56.110312
11
344.548332
21
55.626716
0
LINE
8
SECTION_JOG_LINES
10
344.548332
20
55.626716
11
345.170626
21
54.841331
0
LINE
8
SECTION_JOG_LINES
10
345.170626
20
54.841331
11
345.631727
21
53.857484
0
LINE
8
SECTION_JOG_LINES
10
345.631727
20
53.857484
11
345.917171
21
52.623496
0
LINE
8
SECTION_JOG_LINES
10
345.917171
20
52.623496
11
346.012494
21
51.071153
0
LINE
8
SECTION_JOG_LINES
10
346.012494
20
51.071153
11
346.012494
21
51.071153
0
LINE
8
SECTION_JOG_LINES
10
344.342259
20
51.426429
11
344.275936
21
52.581903
0
LINE
8
SECTION_JOG_LINES
10
344.275936
20
52.581903
11
344.077359
21
53.485175
0
LINE
8
SECTION_JOG_LINES
10
344.077359
20
53.485175
11
343.763061
21
54.175523
0
LINE
8
SECTION_JOG_LINES
10
343.763061
20
54.175523
11
343.349571
21
54.692223
0
LINE
8
SECTION_JOG_LINES
10
343.349571
20
54.692223
11
342.514412
21
55.221261
0
LINE
8
SECTION_JOG_LINES
10
342.514412
20
55.221261
11
341.546992
21
55.386476
0
LINE
8
SECTION_JOG_LINES
10
341.546992
20
55.386476
11
340.480420
21
55.200277
0
LINE
8
SECTION_JOG_LINES
10
340.480420
20
55.200277
11
339.661953
21
54.642046
0
LINE
8
SECTION_JOG_LINES
10
339.661953
20
54.642046
11
339.147404
21
53.746933
0
LINE
8
SECTION_JOG_LINES
10
339.147404
20
53.746933
11
338.976025
21
52.550082
0
LINE
8
SECTION_JOG_LINES
10
338.976025
20
52.550082
11
339.199451
21
51.268542
0
LINE
8
SECTION_JOG_LINES
10
339.199451
20
51.268542
11
339.499256
21
50.803501
0
LINE
8
SECTION_JOG_LINES
10
339.499256
20
50.803501
11
339.952006
21
50.400495
0
LINE
8
SECTION_JOG_LINES
10
339.952006
20
50.400495
11
340.770600
21
50.053355
0
LINE
8
SECTION_JOG_LINES
10
340.770600
20
50.053355
11
341.762799
21
49.970826
0
LINE
8
SECTION_JOG_LINES
10
341.762799
20
49.970826
11
343.069151
21
50.144659
0
LINE
8
SECTION_JOG_LINES
10
343.069151
20
50.144659
11
344.309306
21
50.649212
0
LINE
8
SECTION_JOG_LINES
10
344.309306
20
50.649212
11
344.325658
21
50.988211
0
LINE
8
SECTION_JOG_LINES
10
344.325658
20
50.988211
11
344.341995
21
51.426429
0
LINE
8
SECTION_JOG_LINES
10
344.341995
20
51.426429
11
344.342259
21
51.426429
 0 
ENDSEC
 0 
EOF